G04 DipTrace 3.2.0.1*
G04 BottomMask.gbr*
%MOIN*%
G04 #@! TF.FileFunction,Soldermask,Bot*
G04 #@! TF.Part,Single*
%ADD41C,0.057087*%
%ADD42C,0.027559*%
%ADD46R,0.045276X0.051181*%
%ADD48R,0.066929X0.035433*%
%ADD50R,0.035433X0.066929*%
%ADD52C,0.049213*%
%ADD62R,0.049213X0.033465*%
%ADD64R,0.031496X0.031496*%
%ADD66R,0.066929X0.059055*%
%ADD68R,0.102362X0.110236*%
%ADD70R,0.051181X0.047244*%
%ADD72R,0.047244X0.051181*%
%FSLAX26Y26*%
G04*
G70*
G90*
G75*
G01*
G04 BotMask*
%LPD*%
D72*
X216946Y635568D3*
Y568639D3*
D70*
X465993Y-54694D3*
X399064D3*
D68*
X-306919Y721218D3*
Y469236D3*
D66*
X-417Y452264D3*
Y527067D3*
D64*
X129680Y985823D3*
X43066D3*
D41*
X-468504Y738189D3*
X468504D3*
X-468504Y-236220D3*
X468504D3*
D62*
X-147833Y893759D3*
Y818955D3*
X-238385Y856357D3*
D72*
X291196Y636280D3*
Y569350D3*
D70*
X-31698Y612493D3*
X35231D3*
X467416Y-115720D3*
X400487D3*
X-59610Y985885D3*
X-126539D3*
D52*
X-354331Y-412795D3*
Y-362795D3*
Y-462795D3*
Y-312795D3*
Y-462795D3*
Y-412795D3*
Y-512795D3*
Y-362795D3*
D50*
X-174803Y334646D3*
X-124803D3*
X-74803D3*
X-24803D3*
X25197D3*
X75197D3*
X125197D3*
X175197D3*
D48*
X285433Y237795D3*
Y187795D3*
Y137795D3*
Y87795D3*
Y37795D3*
Y-12205D3*
Y-62205D3*
Y-112205D3*
X-285433Y237795D3*
Y187795D3*
Y137795D3*
Y87795D3*
Y37795D3*
Y-12205D3*
Y-62205D3*
Y-112205D3*
D46*
X374016Y248228D3*
X440945D3*
X374016Y29724D3*
X440945D3*
D42*
X354331Y138976D3*
X460630D3*
D46*
X-440945Y248228D3*
X-374016D3*
X-440945Y29724D3*
X-374016D3*
D42*
X-460630Y138976D3*
X-354331D3*
M02*
