G04 DipTrace 3.2.0.1*
G04 BottomPaste.gbr*
%MOIN*%
G04 #@! TF.FileFunction,Paste,Bot*
G04 #@! TF.Part,Single*
%ADD47R,0.029528X0.035433*%
%ADD49R,0.051181X0.019685*%
%ADD51R,0.019685X0.051181*%
%ADD63R,0.033465X0.017717*%
%ADD65R,0.015748X0.015748*%
%ADD67R,0.051181X0.043307*%
%ADD69R,0.086614X0.094488*%
%ADD71R,0.035433X0.031496*%
%ADD73R,0.031496X0.035433*%
%FSLAX26Y26*%
G04*
G70*
G90*
G75*
G01*
G04 BotPaste*
%LPD*%
D73*
X216946Y635568D3*
Y568639D3*
D71*
X465993Y-54694D3*
X399064D3*
D69*
X-306919Y721218D3*
Y469236D3*
D67*
X-417Y452264D3*
Y527067D3*
D65*
X129680Y985823D3*
X43066D3*
D63*
X-147833Y893759D3*
Y818955D3*
X-238385Y856357D3*
D73*
X291196Y636280D3*
Y569350D3*
D71*
X-31698Y612493D3*
X35231D3*
X467416Y-115720D3*
X400487D3*
X-59610Y985885D3*
X-126539D3*
D51*
X-174803Y334646D3*
X-124803D3*
X-74803D3*
X-24803D3*
X25197D3*
X75197D3*
X125197D3*
X175197D3*
D49*
X285433Y237795D3*
Y187795D3*
Y137795D3*
Y87795D3*
Y37795D3*
Y-12205D3*
Y-62205D3*
Y-112205D3*
X-285433Y237795D3*
Y187795D3*
Y137795D3*
Y87795D3*
Y37795D3*
Y-12205D3*
Y-62205D3*
Y-112205D3*
D47*
X374016Y248228D3*
X440945D3*
X374016Y29724D3*
X440945D3*
X-440945Y248228D3*
X-374016D3*
X-440945Y29724D3*
X-374016D3*
M02*
