G04 DipTrace 3.2.0.1*
G04 Bottom.gbr*
%MOIN*%
G04 #@! TF.FileFunction,Copper,L2,Bot*
G04 #@! TF.Part,Single*
%ADD12C,0.003*%
G04 #@! TA.AperFunction,CopperBalancing*
%ADD10C,0.009843*%
%ADD15C,0.011811*%
G04 #@! TA.AperFunction,Conductor*
%ADD16C,0.019685*%
G04 #@! TA.AperFunction,ViaPad*
%ADD17C,0.023622*%
%ADD18C,0.031496*%
G04 #@! TA.AperFunction,Conductor*
%ADD19C,0.007874*%
G04 #@! TA.AperFunction,ViaPad*
%ADD20C,0.03937*%
%ADD23R,0.03937X0.043307*%
%ADD24R,0.043307X0.03937*%
%ADD25R,0.094488X0.102362*%
%ADD26R,0.059055X0.051181*%
%ADD28R,0.023622X0.023622*%
%ADD30R,0.041339X0.025591*%
G04 #@! TA.AperFunction,ComponentPad*
%ADD35C,0.041339*%
%ADD36R,0.027559X0.059055*%
%ADD37R,0.059055X0.027559*%
%ADD38R,0.037402X0.043307*%
G04 #@! TA.AperFunction,ViaPad*
%ADD40C,0.035433*%
%FSLAX26Y26*%
G04*
G70*
G90*
G75*
G01*
G04 Bottom*
%LPD*%
X-370327Y473156D2*
D16*
Y600550D1*
X-392861Y623084D1*
Y858463D1*
X-386849Y864475D1*
X-384176D1*
X-347663Y836434D2*
Y858463D1*
X-392861D1*
X-1424Y395579D2*
D15*
Y451257D1*
X-417Y452264D1*
X-285433Y-112205D2*
D17*
X-52008D1*
X-445Y-60642D1*
X454770Y-16270D2*
D15*
X458399Y-18311D1*
X465993Y-20761D1*
Y-54694D1*
X-441566Y282871D2*
Y248849D1*
X-440945Y248228D1*
X440165Y287528D2*
Y249008D1*
X440945Y248228D1*
X-440945Y29724D2*
Y-103991D1*
X-465631Y-128677D1*
X440945Y29724D2*
X452835D1*
Y-7602D1*
X465993Y-20761D1*
X-370327Y473156D2*
D17*
X-310839D1*
D15*
X-306919Y469236D1*
X-323018Y538857D2*
X-288993D1*
Y539026D1*
Y487161D1*
X-306919Y469236D1*
X-323018Y538857D2*
Y485336D1*
X-306919Y469236D1*
X216946Y568639D2*
X290484D1*
X291196Y569350D1*
X216946Y568639D2*
Y532407D1*
X169339Y484799D1*
X291196Y569350D2*
Y467534D1*
X258386Y434724D1*
X-147833Y893759D2*
Y895238D1*
X-189105D1*
X-147833Y893759D2*
Y923142D1*
X-149304Y924613D1*
X-354331Y-462795D2*
X-341781D1*
X-291559Y-412573D1*
Y-345982D1*
X-242189Y-296612D1*
X281950D1*
X303096Y-275466D1*
Y-112205D1*
X285433D1*
X379823D1*
X387343Y-119724D1*
Y-102576D1*
Y-66416D1*
X399064Y-54694D1*
X387343Y-102576D2*
X400487Y-115720D1*
X374016Y29724D2*
Y-2370D1*
X389067Y-17421D1*
Y-44697D1*
X399064Y-54694D1*
X-31698Y612493D2*
Y558348D1*
X-417Y527067D1*
X467416Y-115720D2*
Y-120190D1*
X418487Y-169119D1*
X390900D1*
X348118Y-211902D1*
Y-255999D1*
X347769Y-256348D1*
X-306919Y721218D2*
X-305543Y727360D1*
D18*
X-234382Y798521D1*
X-176583D1*
D17*
X-156148Y818955D1*
X-147833D1*
X-285433Y-62205D2*
X-201142D1*
X-191769Y-52832D1*
Y18391D1*
Y230276D1*
X-234159Y272665D1*
Y363446D1*
X-188293Y409312D1*
Y602592D1*
X-306919Y721218D1*
X-191769Y18391D2*
D15*
X116371D1*
X169425Y-34663D1*
Y-167005D1*
X260762Y-258343D1*
X35231Y612493D2*
X41096D1*
X189068Y760466D1*
Y780400D1*
X353734Y602987D2*
Y402392D1*
X218448Y267106D1*
Y-11000D1*
X286638D1*
X285433Y-12205D1*
X-285433D2*
D19*
X-323766D1*
X-363745Y-52184D1*
Y-191337D1*
X-315445Y-239638D1*
Y-388121D1*
X-340820Y-413496D1*
X-353630D1*
X-354331Y-412795D1*
X-294469Y874307D2*
D17*
X-271291D1*
X-253341Y856357D1*
X-238385D1*
X-285433Y37795D2*
D19*
Y42518D1*
X-294022D1*
X-378280Y-41739D1*
Y-264739D1*
X-397224Y-283684D1*
Y-351593D1*
X-387349Y-361469D1*
X-355657D1*
X-354331Y-362795D1*
X-285433Y87795D2*
D15*
X-336482D1*
X-369336Y54941D1*
Y34404D1*
X-374016Y29724D1*
X291196Y636280D2*
X367214D1*
X384316Y619177D1*
Y344654D1*
X336314Y296651D1*
Y163585D1*
X310524Y137795D1*
X285433D1*
X216946Y635568D2*
X290484D1*
X291196Y636280D1*
X129680Y985823D2*
X150526D1*
X195579Y940770D1*
Y845298D1*
X226294Y814583D1*
Y635568D1*
X216946D1*
X-354331Y-512795D2*
D16*
X-347421D1*
X-264261Y-429635D1*
Y-389709D1*
X-211140Y-336588D1*
X-162852D1*
X-74803Y334646D2*
D15*
Y653231D1*
X-52421Y675613D1*
Y885986D1*
X-118509Y952073D1*
Y977854D1*
X-126539Y985885D1*
X-991Y985033D2*
D16*
X43066D1*
Y985823D1*
X-991Y985033D2*
X-58759D1*
D15*
X-59610Y985885D1*
D17*
X276953Y1194650D3*
X362399D3*
X-363127Y1193844D3*
X322094D3*
X-320295Y1192664D3*
X-279302Y1192207D3*
D20*
X-294469Y874307D3*
D18*
X169339Y484799D3*
D17*
X-189105Y895238D3*
X292197Y877332D3*
D40*
X-991Y985033D3*
D17*
X-149304Y924613D3*
X392828Y759764D3*
X390867Y818007D3*
X-468570Y821068D3*
X451887Y657806D3*
X466944Y818642D3*
X-347663Y836434D3*
X-384176Y864475D3*
X-145434Y678560D3*
X-464243Y652970D3*
X156068Y632353D3*
X-288993Y539026D3*
X-465661Y567533D3*
X189068Y780400D3*
X455406Y579804D3*
D18*
X-370327Y473156D3*
D17*
X-263083Y589976D3*
X136094Y538812D3*
X353734Y602987D3*
X-323018Y538857D3*
X258386Y434724D3*
X326028Y793261D3*
X-422558Y410198D3*
X-1424Y395579D3*
X468427Y391425D3*
X465375Y325106D3*
X-330736Y338289D3*
X440165Y287528D3*
X-441566Y282871D3*
X512Y223988D3*
X-54673Y204402D3*
X52262Y203638D3*
X512Y173562D3*
X52262Y153634D3*
X-53339Y152370D3*
X-1280Y120642D3*
X-122689Y-17157D3*
X119224Y-35085D3*
X454770Y-16270D3*
D18*
X-445Y-60642D3*
D17*
X-465631Y-128677D3*
X214026Y-103315D3*
X-221432Y-200259D3*
X400724Y-218823D3*
X236424Y-190526D3*
X120583Y-134556D3*
X-158928Y-120337D3*
X260762Y-258343D3*
X347769Y-256348D3*
X-162852Y-336588D3*
X-373885Y1201412D2*
D15*
X373014D1*
X-374046Y1189732D2*
X372969D1*
X-374207Y1178052D2*
X372899D1*
X-372478Y1166373D2*
X371215D1*
X-359282Y1154693D2*
X354421D1*
X-341843Y1143013D2*
X337651D1*
X-324403Y1131333D2*
X322495D1*
X-315084Y1119654D2*
X313937D1*
X-308071Y1107974D2*
X305402D1*
X-301058Y1096294D2*
X296843D1*
X-294045Y1084614D2*
X291676D1*
X-290723Y1072934D2*
X289622D1*
X-288440Y1061255D2*
X287570D1*
X-286156Y1049575D2*
X285516D1*
X-283873Y1037895D2*
X283463D1*
X-283526Y1026215D2*
X281409D1*
X-284541Y1014535D2*
X-167571D1*
X74241D2*
X98500D1*
X160864D2*
X283555D1*
X-285556Y1002856D2*
X-167571D1*
X74241D2*
X98500D1*
X168753D2*
X285770D1*
X-286571Y991176D2*
X-167571D1*
X74241D2*
X98500D1*
X180425D2*
X287962D1*
X-289109Y979496D2*
X-167571D1*
X74241D2*
X98500D1*
X192098D2*
X290176D1*
X-293930Y967816D2*
X-167571D1*
X74241D2*
X98500D1*
X203794D2*
X292391D1*
X-298774Y956136D2*
X-167571D1*
X74241D2*
X98500D1*
X215328D2*
X297073D1*
X-304795Y944457D2*
X-142541D1*
X-75634D2*
X156633D1*
X220564D2*
X306970D1*
X-313676Y932777D2*
X-134467D1*
X-63961D2*
X168306D1*
X220865D2*
X316866D1*
X-322581Y921097D2*
X-187870D1*
X-52289D2*
X170312D1*
X220865D2*
X326762D1*
X-333354Y909417D2*
X-309857D1*
X-279073D2*
X-187870D1*
X-40593D2*
X170312D1*
X220865D2*
X336635D1*
X-348463Y897738D2*
X-325404D1*
X-251369D2*
X-187870D1*
X-107791D2*
X-99427D1*
X-30211D2*
X170312D1*
X220865D2*
X352576D1*
X-365349Y886058D2*
X-331656D1*
X-198335D2*
X-187870D1*
X-107791D2*
X-87753D1*
X-27144D2*
X170312D1*
X220865D2*
X378482D1*
X-388465Y874378D2*
X-333525D1*
X-198335D2*
X-187870D1*
X-107791D2*
X-77696D1*
X-27144D2*
X170312D1*
X220865D2*
X393453D1*
X-388280Y862698D2*
X-331702D1*
X-198335D2*
X-77696D1*
X-27144D2*
X170312D1*
X220865D2*
X393385D1*
X-388096Y851018D2*
X-325520D1*
X-198335D2*
X-77696D1*
X-27144D2*
X170312D1*
X225109D2*
X393291D1*
X-387911Y839339D2*
X-310202D1*
X-198335D2*
X-187870D1*
X-107791D2*
X-77696D1*
X-27144D2*
X171051D1*
X236804D2*
X393199D1*
X-477163Y827659D2*
X-278415D1*
X-107791D2*
X-77696D1*
X-27144D2*
X177971D1*
X247717D2*
X477168D1*
X-477163Y815979D2*
X-266096D1*
X-107791D2*
X-77696D1*
X-27144D2*
X189644D1*
X251522D2*
X477168D1*
X-477163Y804299D2*
X-277768D1*
X-107791D2*
X-77696D1*
X-27144D2*
X169759D1*
X251568D2*
X477168D1*
X-435362Y792619D2*
X-289463D1*
X-107791D2*
X-77696D1*
X-27144D2*
X160486D1*
X251568D2*
X435345D1*
X-420875Y780940D2*
X-373525D1*
X-146385D2*
X-77696D1*
X-27144D2*
X157902D1*
X251568D2*
X420882D1*
X-412386Y769260D2*
X-373525D1*
X-158218D2*
X-77696D1*
X-27144D2*
X160024D1*
X251568D2*
X412369D1*
X-407241Y757580D2*
X-373525D1*
X-226155D2*
X-77696D1*
X-27144D2*
X150936D1*
X251568D2*
X407248D1*
X-404681Y745900D2*
X-373525D1*
X-237828D2*
X-77696D1*
X-27144D2*
X139239D1*
X251568D2*
X404664D1*
X-404336Y734220D2*
X-373525D1*
X-240295D2*
X-77696D1*
X-27144D2*
X127567D1*
X251568D2*
X404319D1*
X-406181Y722541D2*
X-373525D1*
X-240295D2*
X-77696D1*
X-27144D2*
X115894D1*
X186400D2*
X201017D1*
X251568D2*
X406164D1*
X-410425Y710861D2*
X-373525D1*
X-240295D2*
X-77696D1*
X-27144D2*
X104198D1*
X174728D2*
X201017D1*
X251568D2*
X410432D1*
X-417692Y699181D2*
X-373525D1*
X-240295D2*
X-77696D1*
X-27144D2*
X92526D1*
X163031D2*
X201017D1*
X251568D2*
X417698D1*
X-429710Y687501D2*
X-373525D1*
X-229592D2*
X-77696D1*
X-27144D2*
X80853D1*
X151360D2*
X201017D1*
X251568D2*
X429694D1*
X-457577Y675822D2*
X-373525D1*
X-217920D2*
X-87476D1*
X-27144D2*
X69157D1*
X139686D2*
X201017D1*
X330255D2*
X457584D1*
X-477163Y664142D2*
X-373525D1*
X-206224D2*
X-97466D1*
X-30050D2*
X57486D1*
X127991D2*
X177902D1*
X330255D2*
X477168D1*
X-477163Y652462D2*
X-373525D1*
X-194551D2*
X-100072D1*
X-40316D2*
X45812D1*
X116319D2*
X177902D1*
X386289D2*
X477168D1*
X-477163Y640782D2*
X-270087D1*
X-182879D2*
X-100072D1*
X104646D2*
X177902D1*
X397961D2*
X477168D1*
X-477163Y629102D2*
X-258413D1*
X-171206D2*
X-100072D1*
X92950D2*
X177902D1*
X407442D2*
X477168D1*
X-477163Y617423D2*
X-246741D1*
X-161033D2*
X-100072D1*
X81278D2*
X177902D1*
X409587D2*
X477168D1*
X-477163Y605743D2*
X-235046D1*
X-157273D2*
X-100072D1*
X76249D2*
X177902D1*
X409587D2*
X477168D1*
X-477163Y594063D2*
X-223373D1*
X-157112D2*
X-100072D1*
X76249D2*
X177902D1*
X409587D2*
X477168D1*
X-477163Y582383D2*
X-219474D1*
X-157112D2*
X-100072D1*
X76249D2*
X177902D1*
X409587D2*
X477168D1*
X-477163Y570703D2*
X-219474D1*
X-157112D2*
X-100072D1*
X48475D2*
X177902D1*
X409587D2*
X477168D1*
X-477163Y559024D2*
X-219474D1*
X-157112D2*
X-100072D1*
X48475D2*
X177902D1*
X409587D2*
X477168D1*
X-477163Y547344D2*
X-219474D1*
X-157112D2*
X-100072D1*
X48475D2*
X177902D1*
X409587D2*
X477168D1*
X-477163Y535664D2*
X-373525D1*
X-240295D2*
X-219474D1*
X-157112D2*
X-100072D1*
X48475D2*
X177902D1*
X409587D2*
X477168D1*
X-477163Y523984D2*
X-373525D1*
X-240295D2*
X-219474D1*
X-157112D2*
X-100072D1*
X48475D2*
X328470D1*
X409587D2*
X477168D1*
X-477163Y512304D2*
X-373525D1*
X-240295D2*
X-219474D1*
X-157112D2*
X-100072D1*
X48475D2*
X328470D1*
X409587D2*
X477168D1*
X-477163Y500625D2*
X-373525D1*
X-240295D2*
X-219474D1*
X-157112D2*
X-100072D1*
X48475D2*
X328470D1*
X409587D2*
X477168D1*
X-477163Y488945D2*
X-373525D1*
X-240295D2*
X-219474D1*
X-157112D2*
X-100072D1*
X48475D2*
X328470D1*
X409587D2*
X477168D1*
X-477163Y477265D2*
X-373525D1*
X-240295D2*
X-219474D1*
X-157112D2*
X-100072D1*
X48475D2*
X328470D1*
X409587D2*
X477168D1*
X-477163Y465585D2*
X-373525D1*
X-240295D2*
X-219474D1*
X-157112D2*
X-100072D1*
X48475D2*
X328470D1*
X409587D2*
X477168D1*
X-477163Y453906D2*
X-373525D1*
X-240295D2*
X-219474D1*
X-157112D2*
X-100072D1*
X48475D2*
X328470D1*
X409587D2*
X477168D1*
X-477163Y442226D2*
X-373525D1*
X-240295D2*
X-219474D1*
X-157112D2*
X-100072D1*
X48475D2*
X328470D1*
X409587D2*
X477168D1*
X-477163Y430546D2*
X-373525D1*
X-240295D2*
X-219474D1*
X-157112D2*
X-100072D1*
X48475D2*
X328470D1*
X409587D2*
X477168D1*
X-477163Y418866D2*
X-373525D1*
X-240295D2*
X-222358D1*
X-157112D2*
X-100072D1*
X48475D2*
X328470D1*
X409587D2*
X477168D1*
X-477163Y407186D2*
X-373525D1*
X-240295D2*
X-234033D1*
X-157180D2*
X-100072D1*
X-49520D2*
X323280D1*
X409587D2*
X477168D1*
X-477163Y395507D2*
X-245703D1*
X-160479D2*
X-100072D1*
X-49520D2*
X311584D1*
X409587D2*
X477168D1*
X-477163Y383827D2*
X-257353D1*
X-170168D2*
X-100072D1*
X-49520D2*
X299911D1*
X409587D2*
X477168D1*
X-477163Y372147D2*
X-264042D1*
X208339D2*
X288239D1*
X409587D2*
X477168D1*
X-477163Y360467D2*
X-265335D1*
X208339D2*
X276542D1*
X409587D2*
X477168D1*
X-477163Y348787D2*
X-265335D1*
X208339D2*
X264870D1*
X409587D2*
X477168D1*
X-477163Y337108D2*
X-265335D1*
X208339D2*
X253197D1*
X408387D2*
X477168D1*
X-477163Y325428D2*
X-265335D1*
X208339D2*
X241525D1*
X400337D2*
X477168D1*
X-477163Y313748D2*
X-265335D1*
X208339D2*
X229829D1*
X388664D2*
X477168D1*
X-472664Y302068D2*
X-265335D1*
X208339D2*
X218156D1*
X376992D2*
X472671D1*
X-466828Y290388D2*
X-265335D1*
X365295D2*
X466833D1*
X-335937Y278709D2*
X-265335D1*
X-196604D2*
X196150D1*
X-184908Y267029D2*
X193173D1*
X-173236Y255349D2*
X193173D1*
X-163755Y243669D2*
X193173D1*
X-160640Y231990D2*
X193173D1*
X-160594Y220310D2*
X193173D1*
X-160594Y208630D2*
X193173D1*
X-457486Y196950D2*
X-334332D1*
X-160594D2*
X193173D1*
X361581D2*
X457491D1*
X-457486Y185270D2*
X-334332D1*
X-160594D2*
X193173D1*
X361581D2*
X457491D1*
X-457486Y173591D2*
X-334332D1*
X-160594D2*
X193173D1*
X361581D2*
X457491D1*
X-437185Y161911D2*
X-377793D1*
X-160594D2*
X193173D1*
X377776D2*
X437168D1*
X-429526Y150231D2*
X-385428D1*
X-160594D2*
X193173D1*
X385434D2*
X429533D1*
X-427472Y138551D2*
X-387482D1*
X-160594D2*
X193173D1*
X387488D2*
X427479D1*
X-429871Y126871D2*
X-385105D1*
X-160594D2*
X193173D1*
X385089D2*
X429856D1*
X-438084Y115192D2*
X-376870D1*
X-160594D2*
X193173D1*
X376877D2*
X438091D1*
X-457486Y103512D2*
X-356016D1*
X-160594D2*
X193173D1*
X334339D2*
X457491D1*
X-457486Y91832D2*
X-367711D1*
X-160594D2*
X193173D1*
X334339D2*
X457491D1*
X-457486Y80152D2*
X-379385D1*
X-160594D2*
X193173D1*
X334339D2*
X457491D1*
X-160594Y68472D2*
X193173D1*
X-160594Y56793D2*
X193173D1*
X-160594Y45113D2*
X193173D1*
X136596Y33433D2*
X193173D1*
X148268Y21753D2*
X193173D1*
X159941Y10073D2*
X193173D1*
X171614Y-1606D2*
X193173D1*
X-460161Y-13286D2*
X-382291D1*
X-160594D2*
X112803D1*
X183310D2*
X193289D1*
X334339D2*
X351353D1*
X413993D2*
X460167D1*
X-466135Y-24966D2*
X-393987D1*
X-160594D2*
X124475D1*
X334339D2*
X358043D1*
X-472134Y-36646D2*
X-401000D1*
X-160594D2*
X136148D1*
X194705D2*
X236542D1*
X334339D2*
X358043D1*
X-477623Y-48325D2*
X-401576D1*
X-160594D2*
X144154D1*
X194705D2*
X236542D1*
X334339D2*
X358043D1*
X-477554Y-60005D2*
X-401576D1*
X-161448D2*
X144154D1*
X194705D2*
X236542D1*
X334339D2*
X358043D1*
X-477486Y-71685D2*
X-401576D1*
X-340436D2*
X-334337D1*
X-167261D2*
X144154D1*
X194705D2*
X236542D1*
X334339D2*
X358043D1*
X-477440Y-83365D2*
X-401576D1*
X-340436D2*
X-334337D1*
X-178703D2*
X144154D1*
X194705D2*
X236542D1*
X334339D2*
X358043D1*
X-477370Y-95045D2*
X-401576D1*
X-340436D2*
X-334337D1*
X-236535D2*
X144154D1*
X194705D2*
X236542D1*
X-477301Y-106724D2*
X-401576D1*
X-340436D2*
X-334337D1*
X-236535D2*
X144154D1*
X194705D2*
X236542D1*
X-477278Y-118404D2*
X-401576D1*
X-340436D2*
X-334337D1*
X-236535D2*
X144154D1*
X194705D2*
X236542D1*
X-477278Y-130084D2*
X-401576D1*
X-340436D2*
X-334337D1*
X-236535D2*
X144154D1*
X194705D2*
X236542D1*
X-477278Y-141764D2*
X-401576D1*
X-340436D2*
X-334337D1*
X-236535D2*
X144154D1*
X194705D2*
X236542D1*
X-477278Y-153444D2*
X-401576D1*
X-340436D2*
X144154D1*
X194705D2*
X277811D1*
X-477255Y-165123D2*
X-401576D1*
X-340436D2*
X144154D1*
X202802D2*
X277811D1*
X-446020Y-176803D2*
X-401576D1*
X-340436D2*
X146230D1*
X214475D2*
X277811D1*
X-426020Y-188483D2*
X-401576D1*
X-334138D2*
X155640D1*
X226171D2*
X277811D1*
X-415500Y-200163D2*
X-401576D1*
X-322442D2*
X167337D1*
X237843D2*
X277811D1*
X395123D2*
X415507D1*
X-409088Y-211843D2*
X-401576D1*
X-310770D2*
X179009D1*
X249516D2*
X277811D1*
X383428D2*
X409093D1*
X-299097Y-223522D2*
X190682D1*
X261188D2*
X277811D1*
X373392D2*
X405495D1*
X-292592Y-235202D2*
X202354D1*
X373392D2*
X404203D1*
X184978Y675411D2*
X202210D1*
X202199Y739538D1*
X75072Y612395D1*
X75073Y574619D1*
X-4612Y574642D1*
X-6795Y570846D1*
X47299D1*
Y408484D1*
X-48134D1*
Y540705D1*
X-50025Y542706D1*
X-50709Y541026D1*
Y382385D1*
X10945Y382362D1*
X207165D1*
Y289881D1*
X329638Y412371D1*
X329639Y585117D1*
X329070Y585942D1*
Y529508D1*
X254822D1*
X254820Y528797D1*
X179072D1*
Y675411D1*
X184978D1*
X427332Y-16820D2*
X463121D1*
X459766Y-10110D1*
X412030Y-10118D1*
X412865Y-13652D1*
X413088Y-15538D1*
X418277Y-16820D1*
X427332D1*
X359222Y-88115D2*
Y-21644D1*
X355694Y-18018D1*
X353471Y-14959D1*
X351753Y-11584D1*
X345945Y-10118D1*
X337126D1*
Y69567D1*
X458659D1*
X458661Y107060D1*
X453167Y107891D1*
X448396Y109441D1*
X443927Y111719D1*
X439867Y114668D1*
X436322Y118214D1*
X433373Y122273D1*
X431094Y126743D1*
X429545Y131513D1*
X428760Y136469D1*
Y141484D1*
X429545Y146440D1*
X431094Y151210D1*
X433373Y155680D1*
X436322Y159739D1*
X439867Y163285D1*
X443927Y166234D1*
X448396Y168512D1*
X453167Y170062D1*
X458122Y170846D1*
X458660Y170867D1*
X458661Y208377D1*
X360409Y208386D1*
X360408Y170352D1*
X364210Y169381D1*
X368844Y167461D1*
X373121Y164840D1*
X376936Y161581D1*
X380194Y157766D1*
X382815Y153490D1*
X384735Y148856D1*
X385906Y143978D1*
X386299Y138976D1*
X385906Y133975D1*
X384735Y129097D1*
X382815Y124463D1*
X380194Y120186D1*
X376936Y116371D1*
X373121Y113113D1*
X368844Y110492D1*
X364210Y108572D1*
X359332Y107402D1*
X354331Y107008D1*
X349329Y107402D1*
X344451Y108572D1*
X339818Y110492D1*
X335541Y113113D1*
X333144Y115060D1*
X333150Y-88102D1*
X359228Y-88110D1*
X-366446Y790588D2*
X-290298D1*
X-256415Y824333D1*
X-258581Y825373D1*
X-277243D1*
Y837853D1*
X-279105Y839694D1*
X-282765Y838287D1*
X-288543Y836899D1*
X-294469Y836433D1*
X-300394Y836899D1*
X-306172Y838287D1*
X-311663Y840562D1*
X-316730Y843667D1*
X-321249Y847526D1*
X-325109Y852046D1*
X-328214Y857113D1*
X-330488Y862604D1*
X-331877Y868382D1*
X-332343Y874307D1*
X-331877Y880232D1*
X-330488Y886010D1*
X-328214Y891501D1*
X-325109Y896568D1*
X-321249Y901088D1*
X-316730Y904948D1*
X-311663Y908052D1*
X-306172Y910327D1*
X-300394Y911715D1*
X-294469Y912181D1*
X-288543Y911715D1*
X-282765Y910327D1*
X-277274Y908052D1*
X-272207Y904948D1*
X-271291Y904307D1*
X-266598Y903938D1*
X-262021Y902839D1*
X-257672Y901037D1*
X-253657Y898577D1*
X-250077Y895521D1*
X-241810Y887341D1*
X-199526D1*
Y832461D1*
X-186699Y832458D1*
X-186692Y849940D1*
X-108975D1*
Y787971D1*
X-144339D1*
X-146345Y783114D1*
X-149127Y778573D1*
X-152585Y774524D1*
X-156635Y771066D1*
X-161176Y768283D1*
X-166096Y766245D1*
X-171274Y765001D1*
X-176583Y764584D1*
X-220344D1*
X-241486Y743344D1*
Y698199D1*
X-165480Y622075D1*
X-162714Y618266D1*
X-160576Y614072D1*
X-159122Y609596D1*
X-158385Y604946D1*
X-158293Y584875D1*
X-158385Y406958D1*
X-159122Y402308D1*
X-160576Y397832D1*
X-162714Y393638D1*
X-165480Y389829D1*
X-172804Y382374D1*
X-98892Y382362D1*
X-98823Y655122D1*
X-98232Y658856D1*
X-97063Y662451D1*
X-95348Y665820D1*
X-93125Y668879D1*
X-76524Y685585D1*
X-76516Y876008D1*
X-108982Y908471D1*
X-108975Y862774D1*
X-186692D1*
Y924743D1*
X-125251D1*
X-136831Y936425D1*
X-139054Y939484D1*
X-140769Y942853D1*
X-141940Y946455D1*
X-145752Y948010D1*
X-166382D1*
Y1023759D1*
X-19768D1*
X-19752Y1015647D1*
X-14731Y1018205D1*
X-9373Y1019946D1*
X-3808Y1020828D1*
X1827D1*
X7391Y1019946D1*
X12749Y1018205D1*
X17453Y1015825D1*
X73066Y1015823D1*
Y955823D1*
X19894D1*
X15310Y953041D1*
X10105Y950885D1*
X4626Y949570D1*
X-991Y949127D1*
X-6608Y949570D1*
X-12087Y950885D1*
X-17291Y953041D1*
X-19761Y954424D1*
X-19768Y948010D1*
X-80367D1*
X-34100Y901634D1*
X-31877Y898575D1*
X-30161Y895206D1*
X-28992Y891610D1*
X-28402Y887877D1*
X-28327Y856458D1*
X-28402Y673722D1*
X-28992Y669988D1*
X-30161Y666392D1*
X-31877Y663024D1*
X-34100Y659965D1*
X-43589Y650370D1*
X44916Y650367D1*
X161982Y767455D1*
X160537Y771130D1*
X159437Y775707D1*
X159068Y780400D1*
X159437Y785093D1*
X160537Y789671D1*
X162339Y794020D1*
X164798Y798034D1*
X167856Y801613D1*
X171434Y804671D1*
X175449Y807130D1*
X179798Y808932D1*
X184375Y810031D1*
X189068Y810400D1*
X193761Y810031D1*
X197693Y809114D1*
X177257Y829650D1*
X175034Y832709D1*
X173318Y836077D1*
X172150Y839673D1*
X171558Y843407D1*
X171484Y874825D1*
Y930812D1*
X146455Y955818D1*
X99680Y955823D1*
Y1015823D1*
X159680D1*
X159747Y1008084D1*
X163115Y1006367D1*
X166175Y1004144D1*
X188442Y981982D1*
X213900Y956419D1*
X216123Y953360D1*
X217840Y949991D1*
X219008Y946395D1*
X219600Y942661D1*
X219673Y911243D1*
Y855256D1*
X244615Y830231D1*
X246839Y827172D1*
X248555Y823803D1*
X249723Y820207D1*
X250315Y816474D1*
X250388Y785055D1*
Y675411D1*
X253322Y676122D1*
X329070D1*
Y660366D1*
X369105Y660299D1*
X372839Y659709D1*
X376434Y658539D1*
X379803Y656824D1*
X382862Y654601D1*
X401354Y636215D1*
X403810Y633340D1*
X405785Y630115D1*
X407231Y626623D1*
X408114Y622946D1*
X408411Y619177D1*
X408336Y342762D1*
X407745Y339029D1*
X406576Y335433D1*
X404861Y332064D1*
X402638Y329005D1*
X380475Y306738D1*
X361798Y288060D1*
X466861Y288071D1*
X478348Y311051D1*
X478346Y675832D1*
X473457Y675260D1*
X468504Y675066D1*
X463551Y675260D1*
X458630Y675843D1*
X453768Y676810D1*
X448997Y678155D1*
X444348Y679870D1*
X439846Y681946D1*
X435522Y684367D1*
X431402Y687121D1*
X427509Y690189D1*
X423869Y693554D1*
X420504Y697194D1*
X417436Y701087D1*
X414682Y705207D1*
X412261Y709531D1*
X410185Y714033D1*
X408470Y718682D1*
X407125Y723453D1*
X406157Y728315D1*
X405575Y733236D1*
X405381Y738189D1*
X405575Y743142D1*
X406157Y748063D1*
X407125Y752925D1*
X408470Y757696D1*
X410185Y762345D1*
X412261Y766846D1*
X414682Y771171D1*
X417436Y775291D1*
X420504Y779184D1*
X423869Y782824D1*
X427509Y786189D1*
X431402Y789257D1*
X435522Y792010D1*
X439846Y794432D1*
X444348Y796508D1*
X448997Y798223D1*
X453768Y799568D1*
X458630Y800535D1*
X463551Y801118D1*
X468504Y801312D1*
X473457Y801118D1*
X478360Y800538D1*
X478346Y832651D1*
X399310Y832283D1*
X397556Y832867D1*
X396070Y833965D1*
X394995Y835467D1*
X394437Y837228D1*
X394504Y855869D1*
X394678Y879283D1*
X344131Y902222D1*
X343115Y903168D1*
X295394Y959706D1*
X294770Y961445D1*
X282656Y1026209D1*
X285815Y1044580D1*
X294059Y1090584D1*
X294741Y1091793D1*
X325448Y1133608D1*
X340705Y1144316D1*
X374046Y1167525D1*
X374264Y1213101D1*
X-374911Y1212878D1*
X-375528Y1168371D1*
X-366749Y1158908D1*
X-321879Y1128701D1*
X-321030Y1127602D1*
X-293751Y1081951D1*
X-290100Y1063672D1*
X-284161Y1032699D1*
X-288427Y984197D1*
X-295479Y966942D1*
X-303539Y947692D1*
X-330188Y912802D1*
X-363428Y887157D1*
X-364701Y886605D1*
X-389735Y879096D1*
X-389143Y837854D1*
X-389710Y836096D1*
X-390793Y834600D1*
X-392286Y833510D1*
X-394042Y832936D1*
X-412682Y832824D1*
X-478346Y832677D1*
Y800543D1*
X-473457Y801118D1*
X-468504Y801312D1*
X-463551Y801118D1*
X-458630Y800535D1*
X-453768Y799568D1*
X-448997Y798223D1*
X-444348Y796508D1*
X-439846Y794432D1*
X-435522Y792010D1*
X-431402Y789257D1*
X-427509Y786189D1*
X-423869Y782824D1*
X-420504Y779184D1*
X-417436Y775291D1*
X-414682Y771171D1*
X-412261Y766846D1*
X-410185Y762345D1*
X-408470Y757696D1*
X-407125Y752925D1*
X-406157Y748063D1*
X-405575Y743142D1*
X-405381Y738189D1*
X-405575Y733236D1*
X-406157Y728315D1*
X-407125Y723453D1*
X-408470Y718682D1*
X-410185Y714033D1*
X-412261Y709531D1*
X-414682Y705207D1*
X-417436Y701087D1*
X-420504Y697194D1*
X-423869Y693554D1*
X-427509Y690189D1*
X-431402Y687121D1*
X-435522Y684367D1*
X-439846Y681946D1*
X-444348Y679870D1*
X-448997Y678155D1*
X-453768Y676810D1*
X-458630Y675843D1*
X-463551Y675260D1*
X-468504Y675066D1*
X-473457Y675260D1*
X-478360Y675840D1*
X-478346Y311034D1*
X-466848Y288052D1*
X-337126Y288071D1*
Y208386D1*
X-458657D1*
X-458661Y170883D1*
X-453167Y170062D1*
X-448396Y168512D1*
X-443927Y166234D1*
X-439867Y163285D1*
X-436322Y159739D1*
X-433373Y155680D1*
X-431094Y151210D1*
X-429545Y146440D1*
X-428760Y141484D1*
Y136469D1*
X-429545Y131513D1*
X-431094Y126743D1*
X-433373Y122273D1*
X-436322Y118214D1*
X-439867Y114668D1*
X-443927Y111719D1*
X-448396Y109441D1*
X-453167Y107891D1*
X-458122Y107106D1*
X-458660Y107085D1*
X-458661Y69567D1*
X-388507D1*
X-386367Y71983D1*
X-352123Y106122D1*
X-351823Y107106D1*
X-356839D1*
X-361794Y107891D1*
X-366564Y109441D1*
X-371034Y111719D1*
X-375093Y114668D1*
X-378639Y118214D1*
X-381588Y122273D1*
X-383866Y126743D1*
X-385416Y131513D1*
X-386201Y136469D1*
Y141484D1*
X-385416Y146440D1*
X-383866Y151210D1*
X-381588Y155680D1*
X-378639Y159739D1*
X-375093Y163285D1*
X-371034Y166234D1*
X-366564Y168512D1*
X-361794Y170062D1*
X-356839Y170846D1*
X-351823D1*
X-346867Y170062D1*
X-342097Y168512D1*
X-337627Y166234D1*
X-333568Y163285D1*
X-333144Y162892D1*
X-333150Y269764D1*
X-264013D1*
X-264159Y278571D1*
X-264067Y365801D1*
X-263329Y370450D1*
X-261875Y374927D1*
X-259738Y379121D1*
X-256971Y382929D1*
X-242845Y397186D1*
X-218295Y421736D1*
X-218293Y590146D1*
X-279990Y651862D1*
X-372352Y651848D1*
Y790588D1*
X-366446D1*
X-371171Y538606D2*
X-241486D1*
Y399866D1*
X-372352D1*
Y538606D1*
X-371171D1*
X-405575Y-241173D2*
X-405983Y-244614D1*
X-400408Y-244490D1*
X-400337Y-40003D1*
X-399794Y-36573D1*
X-398722Y-33272D1*
X-397146Y-30177D1*
X-395105Y-27369D1*
X-377955Y-10123D1*
X-459710Y-10118D1*
X-478807Y-47361D1*
X-478454Y-144385D1*
X-478378Y-173874D1*
X-473457Y-173291D1*
X-468504Y-173097D1*
X-463551Y-173291D1*
X-458630Y-173874D1*
X-453768Y-174841D1*
X-448997Y-176186D1*
X-444348Y-177902D1*
X-439846Y-179978D1*
X-435522Y-182399D1*
X-431402Y-185152D1*
X-427509Y-188220D1*
X-423869Y-191585D1*
X-420504Y-195226D1*
X-417436Y-199118D1*
X-414682Y-203239D1*
X-412261Y-207563D1*
X-410185Y-212064D1*
X-408470Y-216714D1*
X-407125Y-221484D1*
X-406157Y-226346D1*
X-405575Y-231268D1*
X-405381Y-236220D1*
X-405575Y-241173D1*
X405814Y-243192D2*
X405381Y-236220D1*
X405575Y-231268D1*
X406157Y-226346D1*
X407125Y-221484D1*
X408470Y-216714D1*
X410185Y-212064D1*
X412261Y-207563D1*
X414682Y-203239D1*
X417436Y-199118D1*
X420504Y-195226D1*
X422699Y-192850D1*
X418487Y-193214D1*
X400886D1*
X372198Y-221896D1*
X372213Y-238961D1*
X374741Y-243255D1*
X405789Y-243194D1*
X265172Y-228678D2*
X270033Y-229811D1*
X274382Y-231613D1*
X278396Y-234072D1*
X278996Y-234545D1*
X279001Y-144184D1*
X237717Y-144173D1*
Y-35108D1*
X216556Y-35020D1*
X212823Y-34428D1*
X209227Y-33260D1*
X205858Y-31543D1*
X202799Y-29322D1*
X200126Y-26648D1*
X197904Y-23589D1*
X196188Y-20220D1*
X195018Y-16625D1*
X194428Y-12890D1*
X194353Y18528D1*
X194428Y268997D1*
X195018Y272731D1*
X196188Y276327D1*
X197904Y279696D1*
X200126Y282755D1*
X201416Y284148D1*
X201260Y286929D1*
X-6772D1*
X-156772Y286953D1*
X-204159Y286929D1*
Y285083D1*
X-168957Y249759D1*
X-166190Y245950D1*
X-164052Y241756D1*
X-162598Y237280D1*
X-161861Y232630D1*
X-161769Y212559D1*
Y42475D1*
X118262Y42411D1*
X121996Y41820D1*
X125592Y40652D1*
X128961Y38936D1*
X132020Y36713D1*
X154287Y14550D1*
X187747Y-19014D1*
X189970Y-22073D1*
X191686Y-25442D1*
X192854Y-29038D1*
X193445Y-32772D1*
X193520Y-64190D1*
Y-157041D1*
X265167Y-228672D1*
X-333146Y-94173D2*
X-333176Y-52906D1*
X-341609Y-61339D1*
X-341619Y-182175D1*
X-298621Y-225268D1*
X-296579Y-228077D1*
X-295003Y-231171D1*
X-293930Y-234472D1*
X-293387Y-237902D1*
X-293319Y-242521D1*
X211510Y-243172D1*
X151104Y-182654D1*
X148881Y-179594D1*
X147164Y-176226D1*
X145996Y-172630D1*
X145404Y-168896D1*
X145331Y-137478D1*
Y-44627D1*
X106404Y-5717D1*
X-161764Y-5703D1*
X-161861Y-55186D1*
X-162598Y-59836D1*
X-164052Y-64312D1*
X-166190Y-68507D1*
X-168957Y-72315D1*
X-179929Y-83417D1*
X-183508Y-86475D1*
X-187522Y-88934D1*
X-191871Y-90736D1*
X-196449Y-91836D1*
X-201151Y-92205D1*
X-237705D1*
X-237717Y-144173D1*
X-333150D1*
Y-94175D1*
X-7604Y574638D2*
Y570854D1*
X216946Y568639D2*
D10*
Y528820D1*
X179096Y568639D2*
X216946D1*
X465993Y-16844D2*
Y-54694D1*
X-306919Y538583D2*
Y399890D1*
X-372328Y469236D2*
X-241509D1*
X-417Y452264D2*
Y408507D1*
X-48110Y452264D2*
X47277D1*
X-147833Y924719D2*
Y862797D1*
X-186668Y893759D2*
X-108997D1*
X291196Y569350D2*
Y529530D1*
Y569350D2*
X329047D1*
X-285433Y-112205D2*
Y-144150D1*
X-333126Y-112205D2*
X-237740D1*
X440945Y288047D2*
Y208409D1*
Y69543D2*
Y-10096D1*
X-440945Y288047D2*
Y208408D1*
Y69543D2*
Y-10096D1*
D23*
X216946Y635568D3*
Y568639D3*
D24*
X465993Y-54694D3*
X399064D3*
D25*
X-306919Y721218D3*
Y469236D3*
D26*
X-417Y452264D3*
Y527067D3*
D28*
X129680Y985823D3*
X43066D3*
D30*
X-147833Y893759D3*
Y818955D3*
X-238385Y856357D3*
D23*
X291196Y636280D3*
Y569350D3*
D24*
X-31698Y612493D3*
X35231D3*
X467416Y-115720D3*
X400487D3*
X-59610Y985885D3*
X-126539D3*
D35*
X-354331Y-412795D3*
Y-362795D3*
Y-462795D3*
Y-312795D3*
Y-462795D3*
Y-412795D3*
Y-512795D3*
Y-362795D3*
D36*
X-174803Y334646D3*
X-124803D3*
X-74803D3*
X-24803D3*
X25197D3*
X75197D3*
X125197D3*
X175197D3*
D37*
X285433Y237795D3*
Y187795D3*
Y137795D3*
Y87795D3*
Y37795D3*
Y-12205D3*
Y-62205D3*
Y-112205D3*
X-285433Y237795D3*
Y187795D3*
Y137795D3*
Y87795D3*
Y37795D3*
Y-12205D3*
Y-62205D3*
Y-112205D3*
D38*
X374016Y248228D3*
X440945D3*
X374016Y29724D3*
X440945D3*
X-440945Y248228D3*
X-374016D3*
X-440945Y29724D3*
X-374016D3*
X-28475Y3943043D2*
D12*
X-25475D1*
X-28475Y3941543D2*
X-21730D1*
X12025D2*
X22525D1*
X-28475Y3940043D2*
X-17912D1*
X9140D2*
X25917D1*
X-28469Y3938543D2*
X-14251D1*
X6784D2*
X28672D1*
X-28399Y3937043D2*
X-10953D1*
X4901D2*
X30695D1*
X-28223Y3935543D2*
X-8182D1*
X3393D2*
X32124D1*
X-27283Y3934043D2*
X-6003D1*
X2117D2*
X33187D1*
X-24859Y3932543D2*
X-4115D1*
X744D2*
X34064D1*
X-21753Y3931043D2*
X-2115D1*
X-995D2*
X14415D1*
X20610D2*
X34812D1*
X-18302Y3929543D2*
X10336D1*
X24038D2*
X35385D1*
X-14889Y3928043D2*
X7526D1*
X26513D2*
X35734D1*
X-11829Y3926543D2*
X5713D1*
X28358D2*
X35959D1*
X-9330Y3925043D2*
X4531D1*
X29171D2*
X36226D1*
X-7450Y3923543D2*
X3776D1*
X29696D2*
X36616D1*
X-6137Y3922043D2*
X3362D1*
X30116D2*
X37012D1*
X-5243Y3920543D2*
X3164D1*
X30573D2*
X37278D1*
X-4593Y3919043D2*
X3078D1*
X30996D2*
X37419D1*
X-4017Y3917543D2*
X3044D1*
X31272D2*
X37483D1*
X-3539Y3916043D2*
X3032D1*
X31417D2*
X37509D1*
X-3241Y3914543D2*
X3027D1*
X31482D2*
X37519D1*
X-3088Y3913043D2*
X3026D1*
X31509D2*
X37523D1*
X-3020Y3911543D2*
X3025D1*
X31519D2*
X37524D1*
X-2992Y3910043D2*
X3025D1*
X31523D2*
X37525D1*
X-2981Y3908543D2*
X3025D1*
X31524D2*
X37525D1*
X-2977Y3907043D2*
X3025D1*
X31525D2*
X37525D1*
X-2976Y3905543D2*
X3025D1*
X31525D2*
X37525D1*
X-28475Y3904043D2*
X37525D1*
X-28475Y3902543D2*
X37525D1*
X-28475Y3901043D2*
X37525D1*
X-28475Y3899543D2*
X37525D1*
X-28475Y3898043D2*
X37525D1*
X-28475Y3896543D2*
X37525D1*
X-28475Y3895043D2*
X37525D1*
X-4475Y3877043D2*
X12025D1*
X-10002Y3875543D2*
X17558D1*
X-14490Y3874043D2*
X22099D1*
X-17819Y3872543D2*
X25613D1*
X-20263Y3871043D2*
X28363D1*
X-22185Y3869543D2*
X30485D1*
X-23810Y3868043D2*
X32058D1*
X-25181Y3866543D2*
X33329D1*
X-26294Y3865043D2*
X-10117D1*
X17724D2*
X34459D1*
X-27221Y3863543D2*
X-13744D1*
X21537D2*
X35437D1*
X-28045Y3862043D2*
X-16631D1*
X24737D2*
X36252D1*
X-28772Y3860543D2*
X-18828D1*
X27175D2*
X36860D1*
X-29339Y3859043D2*
X-20481D1*
X28868D2*
X37225D1*
X-29680Y3857543D2*
X-21711D1*
X30021D2*
X37455D1*
X-29851Y3856043D2*
X-22634D1*
X30778D2*
X37725D1*
X-29926Y3854543D2*
X-23285D1*
X31245D2*
X38115D1*
X-29957Y3853043D2*
X-23660D1*
X31635D2*
X38512D1*
X-29969Y3851543D2*
X-23844D1*
X32074D2*
X38778D1*
X-29973Y3850043D2*
X-23924D1*
X32440D2*
X38919D1*
X-29974Y3848543D2*
X-23956D1*
X32523D2*
X38983D1*
X-29975Y3847043D2*
X-23963D1*
X32308D2*
X39003D1*
X-29975Y3845543D2*
X-23914D1*
X31983D2*
X38961D1*
X-29975Y3844043D2*
X-23719D1*
X31695D2*
X38773D1*
X-29969Y3842543D2*
X-23301D1*
X31369D2*
X38415D1*
X-29916Y3841043D2*
X-22667D1*
X30892D2*
X38025D1*
X-29719Y3839543D2*
X-21797D1*
X30226D2*
X37711D1*
X-29307Y3838043D2*
X-20652D1*
X29282D2*
X37375D1*
X-28726Y3836543D2*
X-19187D1*
X27814D2*
X36899D1*
X-28052Y3835043D2*
X-16945D1*
X25371D2*
X36291D1*
X-27332Y3833543D2*
X-12726D1*
X21064D2*
X35602D1*
X-26583Y3832043D2*
X-5076D1*
X13775D2*
X34825D1*
X-25730Y3830543D2*
X6266D1*
X3253D2*
X33883D1*
X-24589Y3829043D2*
X32671D1*
X-23008Y3827543D2*
X31139D1*
X-21032Y3826043D2*
X29233D1*
X-18622Y3824543D2*
X26823D1*
X-15558Y3823043D2*
X23632D1*
X-11734Y3821543D2*
X19558D1*
X-7475Y3820043D2*
X15025D1*
X-19475Y3806543D2*
X-8975D1*
X-21667Y3805043D2*
X-6726D1*
X-23592Y3803543D2*
X-4608D1*
X31525D2*
X37525D1*
X-25252Y3802043D2*
X-2584D1*
X31525D2*
X37525D1*
X-26605Y3800543D2*
X-793D1*
X31525D2*
X37531D1*
X-27587Y3799043D2*
X648D1*
X31525D2*
X37584D1*
X-28300Y3797543D2*
X1912D1*
X31525D2*
X37775D1*
X-28909Y3796043D2*
X-17623D1*
X-13770D2*
X3166D1*
X31531D2*
X38134D1*
X-29401Y3794543D2*
X-19802D1*
X-11393D2*
X4364D1*
X31584D2*
X38519D1*
X-29706Y3793043D2*
X-21387D1*
X-9390D2*
X5446D1*
X31775D2*
X38780D1*
X-29861Y3791543D2*
X-22496D1*
X-7647D2*
X6486D1*
X32134D2*
X38919D1*
X-29930Y3790043D2*
X-23230D1*
X-6047D2*
X7525D1*
X32519D2*
X38983D1*
X-29958Y3788543D2*
X-23640D1*
X-4558D2*
X8517D1*
X32774D2*
X39009D1*
X-29969Y3787043D2*
X-23837D1*
X-3233D2*
X9515D1*
X32861D2*
X39019D1*
X-29973Y3785543D2*
X-23922D1*
X-2093D2*
X10536D1*
X32733D2*
X39017D1*
X-29974Y3784043D2*
X-23955D1*
X-1028D2*
X11527D1*
X32400D2*
X38966D1*
X-29975Y3782543D2*
X-23968D1*
X20D2*
X12575D1*
X32020D2*
X38775D1*
X-29975Y3781043D2*
X-23973D1*
X1016D2*
X13786D1*
X31709D2*
X38416D1*
X-29975Y3779543D2*
X-23974D1*
X2015D2*
X15142D1*
X31369D2*
X38031D1*
X-29975Y3778043D2*
X-23969D1*
X3036D2*
X16645D1*
X30817D2*
X37764D1*
X-29969Y3776543D2*
X-23916D1*
X4027D2*
X18481D1*
X30045D2*
X37572D1*
X-29916Y3775043D2*
X-23725D1*
X5075D2*
X21038D1*
X27912D2*
X37311D1*
X-29725Y3773543D2*
X-23366D1*
X6286D2*
X24519D1*
X24770D2*
X36873D1*
X-29366Y3772043D2*
X-22976D1*
X7636D2*
X36281D1*
X-28981Y3770543D2*
X-22661D1*
X9069D2*
X35592D1*
X-28714Y3769043D2*
X-22330D1*
X10547D2*
X34765D1*
X-28518Y3767543D2*
X-21894D1*
X12094D2*
X33638D1*
X-28222Y3766043D2*
X-21421D1*
X13822D2*
X32108D1*
X-27682Y3764543D2*
X-20975D1*
X15833D2*
X30341D1*
X-26975Y3763043D2*
X-25475D1*
X18025D2*
X28525D1*
X-28475Y3745043D2*
X37525D1*
X-28475Y3743543D2*
X37525D1*
X-28475Y3742043D2*
X37525D1*
X-28475Y3740543D2*
X37525D1*
X-28475Y3739043D2*
X37525D1*
X-28475Y3737543D2*
X37525D1*
X-28475Y3736043D2*
X37525D1*
X-20051Y3734543D2*
X-1243D1*
X-14243Y3733043D2*
X629D1*
X-10563Y3731543D2*
X2517D1*
X-8096Y3730043D2*
X4280D1*
X-6205Y3728543D2*
X5919D1*
X-4556Y3727043D2*
X7483D1*
X-3003Y3725543D2*
X9009D1*
X-1484Y3724043D2*
X10519D1*
X22Y3722543D2*
X12023D1*
X1524Y3721043D2*
X13524D1*
X3025Y3719543D2*
X15025D1*
X4525Y3718043D2*
X16525D1*
X6031Y3716543D2*
X18025D1*
X7584Y3715043D2*
X19531D1*
X9275Y3713543D2*
X21084D1*
X11134Y3712043D2*
X22775D1*
X13019Y3710543D2*
X24634D1*
X14780Y3709043D2*
X26519D1*
X16419Y3707543D2*
X28280D1*
X17983Y3706043D2*
X29919D1*
X19509Y3704543D2*
X31483D1*
X21019Y3703043D2*
X33003D1*
X22523Y3701543D2*
X34455D1*
X-28475Y3700043D2*
X35709D1*
X-28475Y3698543D2*
X36601D1*
X-28475Y3697043D2*
X37108D1*
X-28475Y3695543D2*
X37353D1*
X-28475Y3694043D2*
X37459D1*
X-28475Y3692543D2*
X37502D1*
X-28475Y3691043D2*
X37525D1*
X-28475Y3671543D2*
X-22475D1*
X31525D2*
X37525D1*
X-28475Y3670043D2*
X-22475D1*
X31525D2*
X37525D1*
X-28475Y3668543D2*
X-22475D1*
X3025D2*
X9025D1*
X31525D2*
X37525D1*
X-28475Y3667043D2*
X-22475D1*
X3025D2*
X9025D1*
X31525D2*
X37525D1*
X-28475Y3665543D2*
X-22475D1*
X3025D2*
X9025D1*
X31525D2*
X37525D1*
X-28475Y3664043D2*
X-22475D1*
X3025D2*
X9025D1*
X31525D2*
X37525D1*
X-28475Y3662543D2*
X-22475D1*
X3025D2*
X9025D1*
X31525D2*
X37525D1*
X-28475Y3661043D2*
X-22475D1*
X3025D2*
X9025D1*
X31525D2*
X37525D1*
X-28475Y3659543D2*
X-22475D1*
X3025D2*
X9025D1*
X31525D2*
X37525D1*
X-28475Y3658043D2*
X-22475D1*
X3025D2*
X9025D1*
X31525D2*
X37525D1*
X-28475Y3656543D2*
X-22475D1*
X3025D2*
X9025D1*
X31525D2*
X37525D1*
X-28475Y3655043D2*
X-22475D1*
X3025D2*
X9025D1*
X31525D2*
X37525D1*
X-28475Y3653543D2*
X-22475D1*
X3025D2*
X9025D1*
X31525D2*
X37525D1*
X-28475Y3652043D2*
X-22475D1*
X3025D2*
X9025D1*
X31525D2*
X37525D1*
X-28475Y3650543D2*
X-22469D1*
X3025D2*
X9025D1*
X31525D2*
X37525D1*
X-28475Y3649043D2*
X-22411D1*
X3025D2*
X9025D1*
X31525D2*
X37525D1*
X-28475Y3647543D2*
X-22161D1*
X3025D2*
X9025D1*
X31525D2*
X37525D1*
X-28469Y3646043D2*
X-21552D1*
X3025D2*
X9025D1*
X31525D2*
X37525D1*
X-28416Y3644543D2*
X-20560D1*
X3025D2*
X9025D1*
X31525D2*
X37525D1*
X-28219Y3643043D2*
X-19316D1*
X3025D2*
X9025D1*
X31525D2*
X37525D1*
X-27807Y3641543D2*
X37525D1*
X-27226Y3640043D2*
X37525D1*
X-26541Y3638543D2*
X37525D1*
X-25697Y3637043D2*
X37525D1*
X-24666Y3635543D2*
X37525D1*
X-22241Y3634043D2*
X37525D1*
X-18886Y3632543D2*
X37525D1*
X-14975Y3631043D2*
X37525D1*
X-19475Y3614543D2*
X-8975D1*
X-21667Y3613043D2*
X-6726D1*
X-23592Y3611543D2*
X-4608D1*
X31525D2*
X37525D1*
X-25252Y3610043D2*
X-2584D1*
X31525D2*
X37525D1*
X-26605Y3608543D2*
X-793D1*
X31525D2*
X37531D1*
X-27587Y3607043D2*
X648D1*
X31525D2*
X37584D1*
X-28300Y3605543D2*
X1912D1*
X31525D2*
X37775D1*
X-28909Y3604043D2*
X-17623D1*
X-13770D2*
X3166D1*
X31531D2*
X38134D1*
X-29401Y3602543D2*
X-19802D1*
X-11393D2*
X4364D1*
X31584D2*
X38519D1*
X-29706Y3601043D2*
X-21387D1*
X-9390D2*
X5446D1*
X31775D2*
X38780D1*
X-29861Y3599543D2*
X-22496D1*
X-7647D2*
X6486D1*
X32134D2*
X38919D1*
X-29930Y3598043D2*
X-23230D1*
X-6047D2*
X7525D1*
X32519D2*
X38983D1*
X-29958Y3596543D2*
X-23640D1*
X-4558D2*
X8517D1*
X32774D2*
X39009D1*
X-29969Y3595043D2*
X-23837D1*
X-3233D2*
X9515D1*
X32861D2*
X39019D1*
X-29973Y3593543D2*
X-23922D1*
X-2093D2*
X10536D1*
X32733D2*
X39017D1*
X-29974Y3592043D2*
X-23955D1*
X-1028D2*
X11527D1*
X32400D2*
X38966D1*
X-29975Y3590543D2*
X-23968D1*
X20D2*
X12575D1*
X32020D2*
X38775D1*
X-29975Y3589043D2*
X-23973D1*
X1016D2*
X13786D1*
X31709D2*
X38416D1*
X-29975Y3587543D2*
X-23974D1*
X2015D2*
X15142D1*
X31369D2*
X38031D1*
X-29975Y3586043D2*
X-23969D1*
X3036D2*
X16645D1*
X30817D2*
X37764D1*
X-29969Y3584543D2*
X-23916D1*
X4027D2*
X18481D1*
X30045D2*
X37572D1*
X-29916Y3583043D2*
X-23725D1*
X5075D2*
X21038D1*
X27912D2*
X37311D1*
X-29725Y3581543D2*
X-23366D1*
X6286D2*
X24519D1*
X24770D2*
X36873D1*
X-29366Y3580043D2*
X-22976D1*
X7636D2*
X36281D1*
X-28981Y3578543D2*
X-22661D1*
X9069D2*
X35592D1*
X-28714Y3577043D2*
X-22330D1*
X10547D2*
X34765D1*
X-28518Y3575543D2*
X-21894D1*
X12094D2*
X33638D1*
X-28222Y3574043D2*
X-21421D1*
X13822D2*
X32108D1*
X-27682Y3572543D2*
X-20975D1*
X15833D2*
X30341D1*
X-26975Y3571043D2*
X-25475D1*
X18025D2*
X28525D1*
X-28475Y3529043D2*
X-22475D1*
X31525D2*
X37525D1*
X-28475Y3527543D2*
X-22475D1*
X31525D2*
X37525D1*
X-28475Y3526043D2*
X-22475D1*
X3025D2*
X9025D1*
X31525D2*
X37525D1*
X-28475Y3524543D2*
X-22475D1*
X3025D2*
X9025D1*
X31525D2*
X37525D1*
X-28475Y3523043D2*
X-22475D1*
X3025D2*
X9025D1*
X31525D2*
X37525D1*
X-28475Y3521543D2*
X-22475D1*
X3025D2*
X9025D1*
X31525D2*
X37525D1*
X-28475Y3520043D2*
X-22475D1*
X3025D2*
X9025D1*
X31525D2*
X37525D1*
X-28475Y3518543D2*
X-22475D1*
X3025D2*
X9025D1*
X31525D2*
X37525D1*
X-28475Y3517043D2*
X-22475D1*
X3025D2*
X9025D1*
X31525D2*
X37525D1*
X-28475Y3515543D2*
X-22475D1*
X3025D2*
X9025D1*
X31525D2*
X37525D1*
X-28475Y3514043D2*
X-22475D1*
X3025D2*
X9025D1*
X31525D2*
X37525D1*
X-28475Y3512543D2*
X-22475D1*
X3025D2*
X9025D1*
X31525D2*
X37525D1*
X-28475Y3511043D2*
X-22475D1*
X3025D2*
X9025D1*
X31525D2*
X37525D1*
X-28475Y3509543D2*
X-22475D1*
X3025D2*
X9025D1*
X31525D2*
X37525D1*
X-28475Y3508043D2*
X-22469D1*
X3025D2*
X9025D1*
X31525D2*
X37525D1*
X-28475Y3506543D2*
X-22411D1*
X3025D2*
X9025D1*
X31525D2*
X37525D1*
X-28475Y3505043D2*
X-22161D1*
X3025D2*
X9025D1*
X31525D2*
X37525D1*
X-28469Y3503543D2*
X-21552D1*
X3025D2*
X9025D1*
X31525D2*
X37525D1*
X-28416Y3502043D2*
X-20560D1*
X3025D2*
X9025D1*
X31525D2*
X37525D1*
X-28219Y3500543D2*
X-19316D1*
X3025D2*
X9025D1*
X31525D2*
X37525D1*
X-27807Y3499043D2*
X37525D1*
X-27226Y3497543D2*
X37525D1*
X-26541Y3496043D2*
X37525D1*
X-25697Y3494543D2*
X37525D1*
X-24666Y3493043D2*
X37525D1*
X-22241Y3491543D2*
X37525D1*
X-18886Y3490043D2*
X37525D1*
X-14975Y3488543D2*
X37525D1*
X-28475Y3472043D2*
X-25475D1*
X-28475Y3470543D2*
X-21730D1*
X12025D2*
X22525D1*
X-28475Y3469043D2*
X-17912D1*
X9140D2*
X25917D1*
X-28469Y3467543D2*
X-14251D1*
X6784D2*
X28672D1*
X-28399Y3466043D2*
X-10953D1*
X4901D2*
X30695D1*
X-28223Y3464543D2*
X-8182D1*
X3393D2*
X32124D1*
X-27283Y3463043D2*
X-6003D1*
X2117D2*
X33187D1*
X-24859Y3461543D2*
X-4115D1*
X744D2*
X34064D1*
X-21753Y3460043D2*
X-2115D1*
X-995D2*
X14415D1*
X20610D2*
X34812D1*
X-18302Y3458543D2*
X10336D1*
X24038D2*
X35385D1*
X-14889Y3457043D2*
X7526D1*
X26513D2*
X35734D1*
X-11829Y3455543D2*
X5713D1*
X28358D2*
X35959D1*
X-9330Y3454043D2*
X4531D1*
X29171D2*
X36226D1*
X-7450Y3452543D2*
X3776D1*
X29696D2*
X36616D1*
X-6137Y3451043D2*
X3362D1*
X30116D2*
X37012D1*
X-5243Y3449543D2*
X3164D1*
X30573D2*
X37278D1*
X-4593Y3448043D2*
X3078D1*
X30996D2*
X37419D1*
X-4017Y3446543D2*
X3044D1*
X31272D2*
X37483D1*
X-3539Y3445043D2*
X3032D1*
X31417D2*
X37509D1*
X-3241Y3443543D2*
X3027D1*
X31482D2*
X37519D1*
X-3088Y3442043D2*
X3026D1*
X31509D2*
X37523D1*
X-3020Y3440543D2*
X3025D1*
X31519D2*
X37524D1*
X-2992Y3439043D2*
X3025D1*
X31523D2*
X37525D1*
X-2981Y3437543D2*
X3025D1*
X31524D2*
X37525D1*
X-2977Y3436043D2*
X3025D1*
X31525D2*
X37525D1*
X-2976Y3434543D2*
X3025D1*
X31525D2*
X37525D1*
X-28475Y3433043D2*
X37525D1*
X-28475Y3431543D2*
X37525D1*
X-28475Y3430043D2*
X37525D1*
X-28475Y3428543D2*
X37525D1*
X-28475Y3427043D2*
X37525D1*
X-28475Y3425543D2*
X37525D1*
X-28475Y3424043D2*
X37525D1*
X-25475Y3403043D2*
X37525D1*
X-26225Y3401543D2*
X37525D1*
X-26848Y3400043D2*
X37525D1*
X-27425Y3398543D2*
X37525D1*
X-27912Y3397043D2*
X37525D1*
X-28266Y3395543D2*
X37525D1*
X-28611Y3394043D2*
X37525D1*
X-29039Y3392543D2*
X37525D1*
X-29452Y3391043D2*
X-22707D1*
X-29724Y3389543D2*
X-23079D1*
X-29867Y3388043D2*
X-23467D1*
X-29932Y3386543D2*
X-23730D1*
X-29959Y3385043D2*
X-23869D1*
X-29969Y3383543D2*
X-23933D1*
X-29973Y3382043D2*
X-23959D1*
X-29974Y3380543D2*
X-23969D1*
X-29975Y3379043D2*
X-23973D1*
X-29975Y3377543D2*
X-23974D1*
X-29975Y3376043D2*
X-23975D1*
X-29975Y3374543D2*
X-23969D1*
X-29975Y3373043D2*
X-23916D1*
X-29969Y3371543D2*
X-23719D1*
X-29916Y3370043D2*
X-23302D1*
X-29725Y3368543D2*
X-22661D1*
X-29360Y3367043D2*
X-21726D1*
X-28923Y3365543D2*
X-20285D1*
X-28464Y3364043D2*
X-18108D1*
X-27907Y3362543D2*
X-15092D1*
X-27209Y3361043D2*
X-11422D1*
X-26312Y3359543D2*
X37525D1*
X-25164Y3358043D2*
X37525D1*
X-23771Y3356543D2*
X37525D1*
X-21985Y3355043D2*
X37525D1*
X-19450Y3353543D2*
X37525D1*
X-15977Y3352043D2*
X37525D1*
X-11975Y3350543D2*
X37525D1*
X31525Y3338543D2*
X37525D1*
X31525Y3337043D2*
X37525D1*
X31525Y3335543D2*
X37525D1*
X31525Y3334043D2*
X37525D1*
X31525Y3332543D2*
X37525D1*
X31525Y3331043D2*
X37525D1*
X31525Y3329543D2*
X37525D1*
X31525Y3328043D2*
X37525D1*
X31525Y3326543D2*
X37525D1*
X31525Y3325043D2*
X37525D1*
X31525Y3323543D2*
X37525D1*
X31525Y3322043D2*
X37525D1*
X31525Y3320543D2*
X37525D1*
X31525Y3319043D2*
X37525D1*
X31525Y3317543D2*
X37525D1*
X-28475Y3316043D2*
X37525D1*
X-28475Y3314543D2*
X37525D1*
X-28475Y3313043D2*
X37525D1*
X-28475Y3311543D2*
X37525D1*
X-28475Y3310043D2*
X37525D1*
X-28475Y3308543D2*
X37525D1*
X-28475Y3307043D2*
X37525D1*
X31525Y3305543D2*
X37525D1*
X31525Y3304043D2*
X37525D1*
X31525Y3302543D2*
X37525D1*
X31525Y3301043D2*
X37525D1*
X31525Y3299543D2*
X37525D1*
X31525Y3298043D2*
X37525D1*
X31525Y3296543D2*
X37525D1*
X31525Y3295043D2*
X37525D1*
X31525Y3293543D2*
X37525D1*
X31525Y3292043D2*
X37525D1*
X31525Y3290543D2*
X37525D1*
X31525Y3289043D2*
X37525D1*
X31525Y3287543D2*
X37525D1*
X31525Y3286043D2*
X37525D1*
X31525Y3284543D2*
X37525D1*
X-19475Y3275543D2*
X-8975D1*
X-21667Y3274043D2*
X-6726D1*
X-23592Y3272543D2*
X-4608D1*
X31525D2*
X37525D1*
X-25252Y3271043D2*
X-2584D1*
X31525D2*
X37525D1*
X-26605Y3269543D2*
X-793D1*
X31525D2*
X37531D1*
X-27587Y3268043D2*
X648D1*
X31525D2*
X37584D1*
X-28300Y3266543D2*
X1912D1*
X31525D2*
X37775D1*
X-28909Y3265043D2*
X-17623D1*
X-13770D2*
X3166D1*
X31531D2*
X38134D1*
X-29401Y3263543D2*
X-19802D1*
X-11393D2*
X4364D1*
X31584D2*
X38519D1*
X-29706Y3262043D2*
X-21387D1*
X-9390D2*
X5446D1*
X31775D2*
X38780D1*
X-29861Y3260543D2*
X-22496D1*
X-7647D2*
X6486D1*
X32134D2*
X38919D1*
X-29930Y3259043D2*
X-23230D1*
X-6047D2*
X7525D1*
X32519D2*
X38983D1*
X-29958Y3257543D2*
X-23640D1*
X-4558D2*
X8517D1*
X32774D2*
X39009D1*
X-29969Y3256043D2*
X-23837D1*
X-3233D2*
X9515D1*
X32861D2*
X39019D1*
X-29973Y3254543D2*
X-23922D1*
X-2093D2*
X10536D1*
X32733D2*
X39017D1*
X-29974Y3253043D2*
X-23955D1*
X-1028D2*
X11527D1*
X32400D2*
X38966D1*
X-29975Y3251543D2*
X-23968D1*
X20D2*
X12575D1*
X32020D2*
X38775D1*
X-29975Y3250043D2*
X-23973D1*
X1016D2*
X13786D1*
X31709D2*
X38416D1*
X-29975Y3248543D2*
X-23974D1*
X2015D2*
X15142D1*
X31369D2*
X38031D1*
X-29975Y3247043D2*
X-23969D1*
X3036D2*
X16645D1*
X30817D2*
X37764D1*
X-29969Y3245543D2*
X-23916D1*
X4027D2*
X18481D1*
X30045D2*
X37572D1*
X-29916Y3244043D2*
X-23725D1*
X5075D2*
X21038D1*
X27912D2*
X37311D1*
X-29725Y3242543D2*
X-23366D1*
X6286D2*
X24519D1*
X24770D2*
X36873D1*
X-29366Y3241043D2*
X-22976D1*
X7636D2*
X36281D1*
X-28981Y3239543D2*
X-22661D1*
X9069D2*
X35592D1*
X-28714Y3238043D2*
X-22330D1*
X10547D2*
X34765D1*
X-28518Y3236543D2*
X-21894D1*
X12094D2*
X33638D1*
X-28222Y3235043D2*
X-21421D1*
X13822D2*
X32108D1*
X-27682Y3233543D2*
X-20975D1*
X15833D2*
X30341D1*
X-26975Y3232043D2*
X-25475D1*
X18025D2*
X28525D1*
X-28475Y3214043D2*
X37525D1*
X-28475Y3212543D2*
X37525D1*
X-28475Y3211043D2*
X37525D1*
X-28475Y3209543D2*
X37525D1*
X-28475Y3208043D2*
X37525D1*
X-28475Y3206543D2*
X37525D1*
X-28475Y3205043D2*
X37525D1*
X-4475Y3187043D2*
X12025D1*
X-10002Y3185543D2*
X17558D1*
X-14490Y3184043D2*
X22099D1*
X-17819Y3182543D2*
X25613D1*
X-20263Y3181043D2*
X28363D1*
X-22185Y3179543D2*
X30485D1*
X-23810Y3178043D2*
X32058D1*
X-25181Y3176543D2*
X33329D1*
X-26294Y3175043D2*
X-10117D1*
X17724D2*
X34459D1*
X-27221Y3173543D2*
X-13744D1*
X21537D2*
X35437D1*
X-28045Y3172043D2*
X-16631D1*
X24737D2*
X36252D1*
X-28772Y3170543D2*
X-18828D1*
X27175D2*
X36860D1*
X-29339Y3169043D2*
X-20481D1*
X28868D2*
X37225D1*
X-29680Y3167543D2*
X-21711D1*
X30021D2*
X37455D1*
X-29851Y3166043D2*
X-22634D1*
X30778D2*
X37725D1*
X-29926Y3164543D2*
X-23285D1*
X31245D2*
X38115D1*
X-29957Y3163043D2*
X-23660D1*
X31635D2*
X38512D1*
X-29969Y3161543D2*
X-23844D1*
X32074D2*
X38778D1*
X-29973Y3160043D2*
X-23924D1*
X32440D2*
X38919D1*
X-29974Y3158543D2*
X-23956D1*
X32523D2*
X38983D1*
X-29975Y3157043D2*
X-23963D1*
X32308D2*
X39003D1*
X-29975Y3155543D2*
X-23914D1*
X31983D2*
X38961D1*
X-29975Y3154043D2*
X-23719D1*
X31695D2*
X38773D1*
X-29969Y3152543D2*
X-23301D1*
X31369D2*
X38415D1*
X-29916Y3151043D2*
X-22667D1*
X30892D2*
X38025D1*
X-29719Y3149543D2*
X-21797D1*
X30226D2*
X37711D1*
X-29307Y3148043D2*
X-20652D1*
X29282D2*
X37375D1*
X-28726Y3146543D2*
X-19187D1*
X27814D2*
X36899D1*
X-28052Y3145043D2*
X-16945D1*
X25371D2*
X36291D1*
X-27332Y3143543D2*
X-12726D1*
X21064D2*
X35602D1*
X-26583Y3142043D2*
X-5076D1*
X13775D2*
X34825D1*
X-25730Y3140543D2*
X6266D1*
X3253D2*
X33883D1*
X-24589Y3139043D2*
X32671D1*
X-23008Y3137543D2*
X31139D1*
X-21032Y3136043D2*
X29233D1*
X-18622Y3134543D2*
X26823D1*
X-15558Y3133043D2*
X23632D1*
X-11734Y3131543D2*
X19558D1*
X-7475Y3130043D2*
X15025D1*
X-28475Y3112043D2*
X37525D1*
X-28475Y3110543D2*
X37525D1*
X-28475Y3109043D2*
X37525D1*
X-28475Y3107543D2*
X37525D1*
X-28475Y3106043D2*
X37513D1*
X-28475Y3104543D2*
X37402D1*
X-28475Y3103043D2*
X37138D1*
X22287Y3101543D2*
X35980D1*
X20363Y3100043D2*
X34370D1*
X18277Y3098543D2*
X32433D1*
X16103Y3097043D2*
X30322D1*
X13882Y3095543D2*
X28173D1*
X11644Y3094043D2*
X26086D1*
X9397Y3092543D2*
X24059D1*
X7150Y3091043D2*
X21980D1*
X4899Y3089543D2*
X19824D1*
X2645Y3088043D2*
X17620D1*
X352Y3086543D2*
X15388D1*
X-1976Y3085043D2*
X13146D1*
X-4140Y3083543D2*
X10898D1*
X-5996Y3082043D2*
X8656D1*
X-6751Y3080543D2*
X6467D1*
X-7164Y3079043D2*
X4489D1*
X-7347Y3077543D2*
X2877D1*
X-7365Y3076043D2*
X1525D1*
X-7139Y3074543D2*
X3955D1*
X-6667Y3073043D2*
X6310D1*
X-5346Y3071543D2*
X8614D1*
X-3646Y3070043D2*
X10885D1*
X-1662Y3068543D2*
X13145D1*
X471Y3067043D2*
X15398D1*
X2677Y3065543D2*
X17650D1*
X4909Y3064043D2*
X19899D1*
X7154Y3062543D2*
X22150D1*
X9400Y3061043D2*
X24399D1*
X11651Y3059543D2*
X26651D1*
X13899Y3058043D2*
X28899D1*
X16145Y3056543D2*
X31139D1*
X18341Y3055043D2*
X33276D1*
X20399Y3053543D2*
X35081D1*
X22262Y3052043D2*
X36514D1*
X-28475Y3050543D2*
X37036D1*
X-28475Y3049043D2*
X37317D1*
X-28475Y3047543D2*
X37444D1*
X-28475Y3046043D2*
X37495D1*
X-28475Y3044543D2*
X37514D1*
X-28475Y3043043D2*
X37522D1*
X-28475Y3041543D2*
X37525D1*
X-28475Y2999543D2*
X-22475D1*
X-28475Y2998043D2*
X-22475D1*
X-28475Y2996543D2*
X-22475D1*
X-28475Y2995043D2*
X-22475D1*
X-28475Y2993543D2*
X-22475D1*
X-28475Y2992043D2*
X-22475D1*
X-28475Y2990543D2*
X-22475D1*
X-28475Y2989043D2*
X-22475D1*
X-28475Y2987543D2*
X-22475D1*
X-28475Y2986043D2*
X-22475D1*
X-28475Y2984543D2*
X-22475D1*
X-28475Y2983043D2*
X-22475D1*
X-28475Y2981543D2*
X-22475D1*
X-28475Y2980043D2*
X-22475D1*
X-28475Y2978543D2*
X-22475D1*
X-28475Y2977043D2*
X-22475D1*
X-28475Y2975543D2*
X-22475D1*
X-28475Y2974043D2*
X-22475D1*
X-28475Y2972543D2*
X-22475D1*
X-28475Y2971043D2*
X37525D1*
X-28475Y2969543D2*
X37525D1*
X-28475Y2968043D2*
X37525D1*
X-28475Y2966543D2*
X37525D1*
X-28475Y2965043D2*
X37525D1*
X-28475Y2963543D2*
X37525D1*
X-28475Y2962043D2*
X37525D1*
X-28475Y2939543D2*
X37525D1*
X-28475Y2938043D2*
X37525D1*
X-28475Y2936543D2*
X37525D1*
X-28475Y2935043D2*
X37525D1*
X-28475Y2933543D2*
X37525D1*
X-28475Y2932043D2*
X37525D1*
X-28475Y2930543D2*
X37525D1*
X-4475Y2912543D2*
X12025D1*
X-10002Y2911043D2*
X17558D1*
X-14490Y2909543D2*
X22099D1*
X-17819Y2908043D2*
X25613D1*
X-20263Y2906543D2*
X28363D1*
X-22185Y2905043D2*
X30485D1*
X-23810Y2903543D2*
X32058D1*
X-25181Y2902043D2*
X33329D1*
X-26294Y2900543D2*
X-10117D1*
X17724D2*
X34459D1*
X-27221Y2899043D2*
X-13744D1*
X21537D2*
X35437D1*
X-28045Y2897543D2*
X-16631D1*
X24737D2*
X36252D1*
X-28772Y2896043D2*
X-18828D1*
X27175D2*
X36860D1*
X-29339Y2894543D2*
X-20481D1*
X28868D2*
X37225D1*
X-29680Y2893043D2*
X-21711D1*
X30021D2*
X37455D1*
X-29851Y2891543D2*
X-22634D1*
X30778D2*
X37725D1*
X-29926Y2890043D2*
X-23285D1*
X31245D2*
X38115D1*
X-29957Y2888543D2*
X-23660D1*
X31635D2*
X38512D1*
X-29969Y2887043D2*
X-23844D1*
X32074D2*
X38778D1*
X-29973Y2885543D2*
X-23924D1*
X32440D2*
X38919D1*
X-29974Y2884043D2*
X-23956D1*
X32523D2*
X38983D1*
X-29975Y2882543D2*
X-23963D1*
X32308D2*
X39003D1*
X-29975Y2881043D2*
X-23914D1*
X31983D2*
X38961D1*
X-29975Y2879543D2*
X-23719D1*
X31695D2*
X38773D1*
X-29969Y2878043D2*
X-23301D1*
X31369D2*
X38415D1*
X-29916Y2876543D2*
X-22667D1*
X30892D2*
X38025D1*
X-29719Y2875043D2*
X-21797D1*
X30226D2*
X37711D1*
X-29307Y2873543D2*
X-20652D1*
X29282D2*
X37375D1*
X-28726Y2872043D2*
X-19187D1*
X27814D2*
X36899D1*
X-28052Y2870543D2*
X-16945D1*
X25371D2*
X36291D1*
X-27332Y2869043D2*
X-12726D1*
X21064D2*
X35602D1*
X-26583Y2867543D2*
X-5076D1*
X13775D2*
X34825D1*
X-25730Y2866043D2*
X6266D1*
X3253D2*
X33883D1*
X-24589Y2864543D2*
X32671D1*
X-23008Y2863043D2*
X31139D1*
X-21032Y2861543D2*
X29233D1*
X-18622Y2860043D2*
X26823D1*
X-15558Y2858543D2*
X23632D1*
X-11734Y2857043D2*
X19558D1*
X-7475Y2855543D2*
X15025D1*
X-19475Y2842043D2*
X-8975D1*
X-21667Y2840543D2*
X-6726D1*
X-23592Y2839043D2*
X-4608D1*
X31525D2*
X37525D1*
X-25252Y2837543D2*
X-2584D1*
X31525D2*
X37525D1*
X-26605Y2836043D2*
X-793D1*
X31525D2*
X37531D1*
X-27587Y2834543D2*
X648D1*
X31525D2*
X37584D1*
X-28300Y2833043D2*
X1912D1*
X31525D2*
X37775D1*
X-28909Y2831543D2*
X-17623D1*
X-13770D2*
X3166D1*
X31531D2*
X38134D1*
X-29401Y2830043D2*
X-19802D1*
X-11393D2*
X4364D1*
X31584D2*
X38519D1*
X-29706Y2828543D2*
X-21387D1*
X-9390D2*
X5446D1*
X31775D2*
X38780D1*
X-29861Y2827043D2*
X-22496D1*
X-7647D2*
X6486D1*
X32134D2*
X38919D1*
X-29930Y2825543D2*
X-23230D1*
X-6047D2*
X7525D1*
X32519D2*
X38983D1*
X-29958Y2824043D2*
X-23640D1*
X-4558D2*
X8517D1*
X32774D2*
X39009D1*
X-29969Y2822543D2*
X-23837D1*
X-3233D2*
X9515D1*
X32861D2*
X39019D1*
X-29973Y2821043D2*
X-23922D1*
X-2093D2*
X10536D1*
X32733D2*
X39017D1*
X-29974Y2819543D2*
X-23955D1*
X-1028D2*
X11527D1*
X32400D2*
X38966D1*
X-29975Y2818043D2*
X-23968D1*
X20D2*
X12575D1*
X32020D2*
X38775D1*
X-29975Y2816543D2*
X-23973D1*
X1016D2*
X13786D1*
X31709D2*
X38416D1*
X-29975Y2815043D2*
X-23974D1*
X2015D2*
X15142D1*
X31369D2*
X38031D1*
X-29975Y2813543D2*
X-23969D1*
X3036D2*
X16645D1*
X30817D2*
X37764D1*
X-29969Y2812043D2*
X-23916D1*
X4027D2*
X18481D1*
X30045D2*
X37572D1*
X-29916Y2810543D2*
X-23725D1*
X5075D2*
X21038D1*
X27912D2*
X37311D1*
X-29725Y2809043D2*
X-23366D1*
X6286D2*
X24519D1*
X24770D2*
X36873D1*
X-29366Y2807543D2*
X-22976D1*
X7636D2*
X36281D1*
X-28981Y2806043D2*
X-22661D1*
X9069D2*
X35592D1*
X-28714Y2804543D2*
X-22330D1*
X10547D2*
X34765D1*
X-28518Y2803043D2*
X-21894D1*
X12094D2*
X33638D1*
X-28222Y2801543D2*
X-21421D1*
X13822D2*
X32108D1*
X-27682Y2800043D2*
X-20975D1*
X15833D2*
X30341D1*
X-26975Y2798543D2*
X-25475D1*
X18025D2*
X28525D1*
X-28475Y2756543D2*
X-22475D1*
X31525D2*
X37525D1*
X-28475Y2755043D2*
X-22475D1*
X31525D2*
X37525D1*
X-28475Y2753543D2*
X-22475D1*
X3025D2*
X9025D1*
X31525D2*
X37525D1*
X-28475Y2752043D2*
X-22475D1*
X3025D2*
X9025D1*
X31525D2*
X37525D1*
X-28475Y2750543D2*
X-22475D1*
X3025D2*
X9025D1*
X31525D2*
X37525D1*
X-28475Y2749043D2*
X-22475D1*
X3025D2*
X9025D1*
X31525D2*
X37525D1*
X-28475Y2747543D2*
X-22475D1*
X3025D2*
X9025D1*
X31525D2*
X37525D1*
X-28475Y2746043D2*
X-22475D1*
X3025D2*
X9025D1*
X31525D2*
X37525D1*
X-28475Y2744543D2*
X-22475D1*
X3025D2*
X9025D1*
X31525D2*
X37525D1*
X-28475Y2743043D2*
X-22475D1*
X3025D2*
X9025D1*
X31525D2*
X37525D1*
X-28475Y2741543D2*
X-22475D1*
X3025D2*
X9025D1*
X31525D2*
X37525D1*
X-28475Y2740043D2*
X-22475D1*
X3025D2*
X9025D1*
X31525D2*
X37525D1*
X-28475Y2738543D2*
X-22475D1*
X3025D2*
X9025D1*
X31525D2*
X37525D1*
X-28475Y2737043D2*
X-22475D1*
X3025D2*
X9025D1*
X31525D2*
X37525D1*
X-28475Y2735543D2*
X-22469D1*
X3025D2*
X9025D1*
X31525D2*
X37525D1*
X-28475Y2734043D2*
X-22411D1*
X3025D2*
X9025D1*
X31525D2*
X37525D1*
X-28475Y2732543D2*
X-22161D1*
X3025D2*
X9025D1*
X31525D2*
X37525D1*
X-28469Y2731043D2*
X-21552D1*
X3025D2*
X9025D1*
X31525D2*
X37525D1*
X-28416Y2729543D2*
X-20560D1*
X3025D2*
X9025D1*
X31525D2*
X37525D1*
X-28219Y2728043D2*
X-19316D1*
X3025D2*
X9025D1*
X31525D2*
X37525D1*
X-27807Y2726543D2*
X37525D1*
X-27226Y2725043D2*
X37525D1*
X-26541Y2723543D2*
X37525D1*
X-25697Y2722043D2*
X37525D1*
X-24666Y2720543D2*
X37525D1*
X-22241Y2719043D2*
X37525D1*
X-18886Y2717543D2*
X37525D1*
X-14975Y2716043D2*
X37525D1*
X33025Y2705543D2*
X37525D1*
X26627Y2704043D2*
X37525D1*
X20825Y2702543D2*
X37525D1*
X15657Y2701043D2*
X37501D1*
X11014Y2699543D2*
X37431D1*
X6788Y2698043D2*
X36681D1*
X2865Y2696543D2*
X33706D1*
X-791Y2695043D2*
X29343D1*
X-4219Y2693543D2*
X24165D1*
X-7594Y2692043D2*
X18935D1*
X-11033Y2690543D2*
X14009D1*
X-14450Y2689043D2*
X9461D1*
X-17718Y2687543D2*
X5269D1*
X-20797Y2686043D2*
X1353D1*
X-23554Y2684543D2*
X-2346D1*
X-25722Y2683043D2*
X-5911D1*
X-27376Y2681543D2*
X-9453D1*
X-27946Y2680043D2*
X-12922D1*
X-28251Y2678543D2*
X-16239D1*
X-28388Y2677043D2*
X-19475D1*
X-28437Y2675543D2*
X-15488D1*
X-28388Y2674043D2*
X-11440D1*
X-28221Y2672543D2*
X-7277D1*
X-27306Y2671043D2*
X-3115D1*
X-25048Y2669543D2*
X953D1*
X-22157Y2668043D2*
X4989D1*
X-18813Y2666543D2*
X9026D1*
X-15189Y2665043D2*
X13018D1*
X-11365Y2663543D2*
X17015D1*
X-7418Y2662043D2*
X21036D1*
X-3462Y2660543D2*
X25010D1*
X523Y2659043D2*
X28882D1*
X4538Y2657543D2*
X32344D1*
X8522Y2656043D2*
X35257D1*
X12517Y2654543D2*
X36610D1*
X16536Y2653043D2*
X37098D1*
X20522Y2651543D2*
X37350D1*
X24512Y2650043D2*
X37459D1*
X28490Y2648543D2*
X37501D1*
X32320Y2647043D2*
X37517D1*
X36025Y2645543D2*
X37525D1*
X-28475Y2633543D2*
X37525D1*
X-28475Y2632043D2*
X37525D1*
X-28475Y2630543D2*
X37525D1*
X-28475Y2629043D2*
X37525D1*
X-28475Y2627543D2*
X37525D1*
X-28475Y2626043D2*
X37525D1*
X-28475Y2624543D2*
X37525D1*
X31525Y2611043D2*
X37525D1*
X31525Y2609543D2*
X37525D1*
X31525Y2608043D2*
X37525D1*
X31525Y2606543D2*
X37525D1*
X31525Y2605043D2*
X37525D1*
X31525Y2603543D2*
X37525D1*
X31525Y2602043D2*
X37525D1*
X31525Y2600543D2*
X37525D1*
X31525Y2599043D2*
X37525D1*
X31525Y2597543D2*
X37525D1*
X31525Y2596043D2*
X37525D1*
X31525Y2594543D2*
X37525D1*
X31525Y2593043D2*
X37525D1*
X31525Y2591543D2*
X37525D1*
X31525Y2590043D2*
X37525D1*
X-28475Y2588543D2*
X37525D1*
X-28475Y2587043D2*
X37525D1*
X-28475Y2585543D2*
X37525D1*
X-28475Y2584043D2*
X37525D1*
X-28475Y2582543D2*
X37525D1*
X-28475Y2581043D2*
X37525D1*
X-28475Y2579543D2*
X37525D1*
X31525Y2578043D2*
X37525D1*
X31525Y2576543D2*
X37525D1*
X31525Y2575043D2*
X37525D1*
X31525Y2573543D2*
X37525D1*
X31525Y2572043D2*
X37525D1*
X31525Y2570543D2*
X37525D1*
X31525Y2569043D2*
X37525D1*
X31525Y2567543D2*
X37525D1*
X31525Y2566043D2*
X37525D1*
X31525Y2564543D2*
X37525D1*
X31525Y2563043D2*
X37525D1*
X31525Y2561543D2*
X37525D1*
X31525Y2560043D2*
X37525D1*
X31525Y2558543D2*
X37525D1*
X31525Y2557043D2*
X37525D1*
X-28475Y2543543D2*
X37525D1*
X-28475Y2542043D2*
X37525D1*
X-28475Y2540543D2*
X37525D1*
X-28475Y2539043D2*
X37525D1*
X-28475Y2537543D2*
X37525D1*
X-28475Y2536043D2*
X37525D1*
X-28475Y2534543D2*
X37525D1*
X-28475Y2518043D2*
X-23975D1*
X36025D2*
X37525D1*
X-28988Y2516543D2*
X-23340D1*
X30025D2*
X37525D1*
X-29434Y2515043D2*
X-22952D1*
X30717D2*
X37531D1*
X-29719Y2513543D2*
X-23205D1*
X31148D2*
X37584D1*
X-29866Y2512043D2*
X-23521D1*
X31366D2*
X37775D1*
X-29932Y2510543D2*
X-23751D1*
X31469D2*
X38134D1*
X-29959Y2509043D2*
X-23877D1*
X31561D2*
X38519D1*
X-29969Y2507543D2*
X-23936D1*
X31767D2*
X38780D1*
X-29973Y2506043D2*
X-23960D1*
X32131D2*
X38919D1*
X-29974Y2504543D2*
X-23970D1*
X32518D2*
X38983D1*
X-29975Y2503043D2*
X-23973D1*
X32774D2*
X39009D1*
X-29975Y2501543D2*
X-23974D1*
X32861D2*
X39019D1*
X-29975Y2500043D2*
X-23975D1*
X32733D2*
X39017D1*
X-29975Y2498543D2*
X-23969D1*
X32400D2*
X38966D1*
X-29975Y2497043D2*
X-23916D1*
X32020D2*
X38775D1*
X-29969Y2495543D2*
X-23719D1*
X31709D2*
X38416D1*
X-29916Y2494043D2*
X-23302D1*
X31374D2*
X38031D1*
X-29725Y2492543D2*
X-22667D1*
X30893D2*
X37764D1*
X-29360Y2491043D2*
X-21797D1*
X30227D2*
X37572D1*
X-28923Y2489543D2*
X-20652D1*
X29282D2*
X37311D1*
X-28464Y2488043D2*
X-19187D1*
X27814D2*
X36873D1*
X-27907Y2486543D2*
X-16945D1*
X25371D2*
X36281D1*
X-27215Y2485043D2*
X-12726D1*
X21064D2*
X35598D1*
X-26365Y2483543D2*
X-5076D1*
X13775D2*
X34823D1*
X-25361Y2482043D2*
X6266D1*
X3253D2*
X33889D1*
X-24200Y2480543D2*
X32724D1*
X-22745Y2479043D2*
X31330D1*
X-20892Y2477543D2*
X29592D1*
X-18559Y2476043D2*
X27207D1*
X-15531Y2474543D2*
X23891D1*
X-11725Y2473043D2*
X19680D1*
X-7475Y2471543D2*
X15025D1*
X-28475Y2455043D2*
X24025D1*
X-28475Y2453543D2*
X26730D1*
X-28475Y2452043D2*
X29107D1*
X-28475Y2450543D2*
X31104D1*
X-28475Y2449043D2*
X32789D1*
X-28475Y2447543D2*
X34150D1*
X-28475Y2446043D2*
X35136D1*
X-2975Y2444543D2*
X3025D1*
X21929D2*
X35849D1*
X-2975Y2443043D2*
X3025D1*
X25131D2*
X36459D1*
X-2975Y2441543D2*
X3025D1*
X27439D2*
X36957D1*
X-2975Y2440043D2*
X3025D1*
X29008D2*
X37314D1*
X-2975Y2438543D2*
X3025D1*
X30091D2*
X37660D1*
X-2975Y2437043D2*
X3025D1*
X30857D2*
X38089D1*
X-2975Y2435543D2*
X3025D1*
X31447D2*
X38502D1*
X-2975Y2434043D2*
X3025D1*
X31998D2*
X38774D1*
X-2975Y2432543D2*
X3025D1*
X32460D2*
X38917D1*
X-2975Y2431043D2*
X3025D1*
X32702D2*
X38982D1*
X-2975Y2429543D2*
X3025D1*
X32663D2*
X39003D1*
X-2975Y2428043D2*
X3025D1*
X32366D2*
X38961D1*
X-2975Y2426543D2*
X3025D1*
X31956D2*
X38773D1*
X-2975Y2425043D2*
X3025D1*
X31508D2*
X38415D1*
X-2975Y2423543D2*
X3025D1*
X30955D2*
X38025D1*
X-2975Y2422043D2*
X3025D1*
X30247D2*
X37711D1*
X-2975Y2420543D2*
X3025D1*
X29233D2*
X37381D1*
X-2975Y2419043D2*
X3025D1*
X27592D2*
X36952D1*
X-2975Y2417543D2*
X3025D1*
X25062D2*
X36483D1*
X-2975Y2416043D2*
X3025D1*
X21725D2*
X35961D1*
X-28475Y2414543D2*
X35209D1*
X-28475Y2413043D2*
X34145D1*
X-28475Y2411543D2*
X32799D1*
X-28475Y2410043D2*
X31087D1*
X-28475Y2408543D2*
X28790D1*
X-28475Y2407043D2*
X25833D1*
X-28475Y2405543D2*
X22525D1*
X10525Y2389043D2*
X22525D1*
X7127Y2387543D2*
X25917D1*
X4325Y2386043D2*
X28672D1*
X2157Y2384543D2*
X30695D1*
X514Y2383043D2*
X32124D1*
X-718Y2381543D2*
X33187D1*
X-1694Y2380043D2*
X34064D1*
X-2535Y2378543D2*
X12389D1*
X20435D2*
X34812D1*
X-3269Y2377043D2*
X8815D1*
X23684D2*
X35385D1*
X-3837Y2375543D2*
X6119D1*
X26130D2*
X35734D1*
X-4179Y2374043D2*
X4287D1*
X27868D2*
X35959D1*
X-4351Y2372543D2*
X3071D1*
X29163D2*
X36226D1*
X-4426Y2371043D2*
X2294D1*
X29665D2*
X36616D1*
X-4457Y2369543D2*
X1869D1*
X30097D2*
X37012D1*
X-4469Y2368043D2*
X1666D1*
X30565D2*
X37278D1*
X-4473Y2366543D2*
X1579D1*
X30993D2*
X37419D1*
X-4474Y2365043D2*
X1545D1*
X31271D2*
X37483D1*
X-4475Y2363543D2*
X1532D1*
X31416D2*
X37509D1*
X-4475Y2362043D2*
X1527D1*
X31482D2*
X37519D1*
X-4475Y2360543D2*
X1526D1*
X31509D2*
X37523D1*
X-4475Y2359043D2*
X1525D1*
X31519D2*
X37524D1*
X-4475Y2357543D2*
X1525D1*
X31523D2*
X37525D1*
X-4475Y2356043D2*
X1525D1*
X31524D2*
X37525D1*
X-4475Y2354543D2*
X1525D1*
X31525D2*
X37525D1*
X-4475Y2353043D2*
X1525D1*
X31525D2*
X37525D1*
X-28475Y2351543D2*
X37525D1*
X-28475Y2350043D2*
X37525D1*
X-28475Y2348543D2*
X37525D1*
X-28475Y2347043D2*
X37525D1*
X-28475Y2345543D2*
X37525D1*
X-28475Y2344043D2*
X37525D1*
X-28475Y2342543D2*
X37525D1*
X-28475Y2321543D2*
X24025D1*
X-28475Y2320043D2*
X26730D1*
X-28475Y2318543D2*
X29107D1*
X-28475Y2317043D2*
X31104D1*
X-28475Y2315543D2*
X32789D1*
X-28475Y2314043D2*
X34150D1*
X-28475Y2312543D2*
X35136D1*
X-2975Y2311043D2*
X3025D1*
X21929D2*
X35849D1*
X-2975Y2309543D2*
X3025D1*
X25131D2*
X36459D1*
X-2975Y2308043D2*
X3025D1*
X27439D2*
X36957D1*
X-2975Y2306543D2*
X3025D1*
X29008D2*
X37314D1*
X-2975Y2305043D2*
X3025D1*
X30091D2*
X37660D1*
X-2975Y2303543D2*
X3025D1*
X30857D2*
X38089D1*
X-2975Y2302043D2*
X3025D1*
X31447D2*
X38502D1*
X-2975Y2300543D2*
X3025D1*
X31998D2*
X38774D1*
X-2975Y2299043D2*
X3025D1*
X32460D2*
X38917D1*
X-2975Y2297543D2*
X3025D1*
X32702D2*
X38982D1*
X-2975Y2296043D2*
X3025D1*
X32663D2*
X39003D1*
X-2975Y2294543D2*
X3025D1*
X32366D2*
X38961D1*
X-2975Y2293043D2*
X3025D1*
X31956D2*
X38773D1*
X-2975Y2291543D2*
X3025D1*
X31508D2*
X38415D1*
X-2975Y2290043D2*
X3025D1*
X30955D2*
X38025D1*
X-2975Y2288543D2*
X3025D1*
X30247D2*
X37711D1*
X-2975Y2287043D2*
X3025D1*
X29233D2*
X37381D1*
X-2975Y2285543D2*
X3025D1*
X27592D2*
X36952D1*
X-2975Y2284043D2*
X3025D1*
X25062D2*
X36483D1*
X-2975Y2282543D2*
X3025D1*
X21725D2*
X35961D1*
X-28475Y2281043D2*
X35209D1*
X-28475Y2279543D2*
X34145D1*
X-28475Y2278043D2*
X32799D1*
X-28475Y2276543D2*
X31087D1*
X-28475Y2275043D2*
X28790D1*
X-28475Y2273543D2*
X25833D1*
X-28475Y2272043D2*
X22525D1*
X-28475Y2257043D2*
X-23975D1*
X36025D2*
X37525D1*
X-28988Y2255543D2*
X-23340D1*
X30025D2*
X37525D1*
X-29434Y2254043D2*
X-22952D1*
X30717D2*
X37531D1*
X-29719Y2252543D2*
X-23205D1*
X31148D2*
X37584D1*
X-29866Y2251043D2*
X-23521D1*
X31366D2*
X37775D1*
X-29932Y2249543D2*
X-23751D1*
X31469D2*
X38134D1*
X-29959Y2248043D2*
X-23877D1*
X31561D2*
X38519D1*
X-29969Y2246543D2*
X-23936D1*
X31767D2*
X38780D1*
X-29973Y2245043D2*
X-23960D1*
X32131D2*
X38919D1*
X-29974Y2243543D2*
X-23970D1*
X32518D2*
X38983D1*
X-29975Y2242043D2*
X-23973D1*
X32774D2*
X39009D1*
X-29975Y2240543D2*
X-23974D1*
X32861D2*
X39019D1*
X-29975Y2239043D2*
X-23975D1*
X32733D2*
X39017D1*
X-29975Y2237543D2*
X-23969D1*
X32400D2*
X38966D1*
X-29975Y2236043D2*
X-23916D1*
X32020D2*
X38775D1*
X-29969Y2234543D2*
X-23719D1*
X31709D2*
X38416D1*
X-29916Y2233043D2*
X-23302D1*
X31374D2*
X38031D1*
X-29725Y2231543D2*
X-22667D1*
X30893D2*
X37764D1*
X-29360Y2230043D2*
X-21797D1*
X30227D2*
X37572D1*
X-28923Y2228543D2*
X-20652D1*
X29282D2*
X37311D1*
X-28464Y2227043D2*
X-19187D1*
X27814D2*
X36873D1*
X-27907Y2225543D2*
X-16945D1*
X25371D2*
X36281D1*
X-27215Y2224043D2*
X-12726D1*
X21064D2*
X35598D1*
X-26365Y2222543D2*
X-5076D1*
X13775D2*
X34823D1*
X-25361Y2221043D2*
X6266D1*
X3253D2*
X33889D1*
X-24200Y2219543D2*
X32724D1*
X-22747Y2218043D2*
X31338D1*
X-20921Y2216543D2*
X29682D1*
X-18783Y2215043D2*
X27700D1*
X-16475Y2213543D2*
X25525D1*
X-75315Y1793575D2*
X83685D1*
X-76814Y1790575D2*
X86095D1*
X-78060Y1787575D2*
X87850D1*
X-79215Y1784575D2*
X88866D1*
X-80178Y1781575D2*
X89459D1*
X-80791Y1778575D2*
X90052D1*
X-81205Y1775575D2*
X90855D1*
X-81725Y1772575D2*
X-66327D1*
X75149D2*
X91667D1*
X-82500Y1769575D2*
X-66432D1*
X75892D2*
X92307D1*
X-83302Y1766575D2*
X-66814D1*
X76669D2*
X92971D1*
X-83939Y1763575D2*
X-67533D1*
X77195D2*
X93818D1*
X-84602Y1760575D2*
X-68302D1*
X77485D2*
X94641D1*
X-85448Y1757575D2*
X-68825D1*
X77718D2*
X95196D1*
X-86271Y1754575D2*
X-69115D1*
X78153D2*
X95587D1*
X-86826Y1751575D2*
X-69348D1*
X78892D2*
X96099D1*
X-87217Y1748575D2*
X-69783D1*
X79680D2*
X96871D1*
X-87729Y1745575D2*
X-70522D1*
X80311D2*
X97673D1*
X-88501Y1742575D2*
X-71310D1*
X80973D2*
X98309D1*
X-89302Y1739575D2*
X-71941D1*
X81819D2*
X98972D1*
X-89939Y1736575D2*
X-72603D1*
X82641D2*
X99819D1*
X-90602Y1733575D2*
X-73449D1*
X83196D2*
X100641D1*
X-91448Y1730575D2*
X-74271D1*
X83587D2*
X101196D1*
X-92271Y1727575D2*
X-74826D1*
X84099D2*
X101587D1*
X-92826Y1724575D2*
X-75217D1*
X84871D2*
X102099D1*
X-93217Y1721575D2*
X-75729D1*
X85673D2*
X102871D1*
X-93729Y1718575D2*
X-76501D1*
X86309D2*
X103673D1*
X-94501Y1715575D2*
X-77291D1*
X86972D2*
X104309D1*
X-95302Y1712575D2*
X-77833D1*
X87819D2*
X104972D1*
X-95939Y1709575D2*
X-78219D1*
X88641D2*
X105819D1*
X-96602Y1706575D2*
X-78730D1*
X89196D2*
X106641D1*
X-97448Y1703575D2*
X-79501D1*
X89587D2*
X107196D1*
X-98271Y1700575D2*
X-80303D1*
X90099D2*
X107587D1*
X-98826Y1697575D2*
X-80939D1*
X90871D2*
X108099D1*
X-99217Y1694575D2*
X-81602D1*
X91661D2*
X108871D1*
X-99729Y1691575D2*
X-82448D1*
X92203D2*
X109661D1*
X-100560Y1688575D2*
X-83271D1*
X92601D2*
X110192D1*
X-101888Y1685575D2*
X-83814D1*
X93228D2*
X110473D1*
X-103779Y1682575D2*
X-84100D1*
X94489D2*
X110606D1*
X-108528Y1679575D2*
X-84235D1*
X96428D2*
X110685D1*
X-113343Y1676575D2*
X119098D1*
X-117375Y1673575D2*
X125916D1*
X-118895Y1670575D2*
X129241D1*
X-119714Y1667575D2*
X130523D1*
X-120081Y1664575D2*
X131199D1*
X-120229Y1661575D2*
X131498D1*
X-120285Y1658575D2*
X-105315D1*
X113685D2*
X131617D1*
X-120305Y1655575D2*
X-105315D1*
X113685D2*
X131661D1*
X-120312Y1652575D2*
X-105315D1*
X113685D2*
X131677D1*
X-120314Y1649575D2*
X-105315D1*
X113685D2*
X131682D1*
X-120315Y1646575D2*
X-105315D1*
X113685D2*
X131684D1*
X-120315Y1643575D2*
X-105315D1*
X113685D2*
X131685D1*
X-120315Y1640575D2*
X-105315D1*
X113685D2*
X131685D1*
X-120315Y1637575D2*
X-105315D1*
X113685D2*
X131685D1*
X-120315Y1634575D2*
X-105315D1*
X113685D2*
X131685D1*
X-120315Y1631575D2*
X-105315D1*
X113685D2*
X131685D1*
X-120315Y1628575D2*
X-105315D1*
X113685D2*
X131685D1*
X-120315Y1625575D2*
X131673D1*
X-120303Y1622575D2*
X131556D1*
X-120189Y1619575D2*
X131057D1*
X-119725Y1616575D2*
X129850D1*
X-118700Y1613575D2*
X127931D1*
X-117315Y1610575D2*
X125685D1*
X-3315Y1607575D2*
X11685D1*
X-3327Y1604575D2*
X11685D1*
X-3432Y1601575D2*
X11685D1*
X-3814Y1598575D2*
X11685D1*
X-4545Y1595575D2*
X11685D1*
X-5419Y1592575D2*
X11697D1*
X-6337Y1589575D2*
X11802D1*
X-84315Y1586575D2*
X-69315D1*
X-7451D2*
X12185D1*
X-96880Y1583575D2*
X-56888D1*
X-8835D2*
X12903D1*
X-107207Y1580575D2*
X-47167D1*
X-10523D2*
X13672D1*
X-115403Y1577575D2*
X-40573D1*
X-12426D2*
X14207D1*
X-121971Y1574575D2*
X-35969D1*
X-14353D2*
X14591D1*
X-127198Y1571575D2*
X-34378D1*
X-16428D2*
X15100D1*
X-131384Y1568575D2*
X-34076D1*
X-18841D2*
X15883D1*
X-134937Y1565575D2*
X-95714D1*
X-57315D2*
X-35032D1*
X-21551D2*
X16778D1*
X-138171Y1562575D2*
X-103363D1*
X-45315D2*
X-36315D1*
X-24521D2*
X17703D1*
X-141263Y1559575D2*
X-109973D1*
X-27859D2*
X18819D1*
X53685D2*
X98685D1*
X-144285Y1556575D2*
X-115625D1*
X-31662D2*
X-6905D1*
X2799D2*
X20204D1*
X48505D2*
X107084D1*
X-147192Y1553575D2*
X-120567D1*
X-35817D2*
X-8138D1*
X3196D2*
X21893D1*
X44426D2*
X114721D1*
X-149813Y1550575D2*
X-124910D1*
X-40174D2*
X-10016D1*
X4020D2*
X23796D1*
X42799D2*
X121226D1*
X-152085Y1547575D2*
X-128664D1*
X-44708D2*
X-12030D1*
X5183D2*
X25711D1*
X42468D2*
X126495D1*
X-154210Y1544575D2*
X-131932D1*
X-49471D2*
X-13601D1*
X6531D2*
X27681D1*
X43412D2*
X130719D1*
X-156293Y1541575D2*
X-134712D1*
X-54406D2*
X-14530D1*
X7960D2*
X29712D1*
X44685D2*
X59685D1*
X91494D2*
X134293D1*
X-158191Y1538575D2*
X-137047D1*
X-59357D2*
X-14988D1*
X9318D2*
X31691D1*
X100898D2*
X137535D1*
X-159912Y1535575D2*
X-139197D1*
X-64542D2*
X-15188D1*
X10312D2*
X33786D1*
X108513D2*
X140631D1*
X-161606Y1532575D2*
X-141289D1*
X-70352D2*
X-15280D1*
X10865D2*
X36208D1*
X114652D2*
X143666D1*
X-163421Y1529575D2*
X-143190D1*
X-76886D2*
X-15416D1*
X10275D2*
X38908D1*
X119805D2*
X146667D1*
X-165276Y1526575D2*
X-144900D1*
X-84007D2*
X-42201D1*
X-33429D2*
X-15809D1*
X9501D2*
X41773D1*
X124231D2*
X149566D1*
X-166830Y1523575D2*
X-146501D1*
X-91564D2*
X-47816D1*
X-33825D2*
X-16531D1*
X8643D2*
X44718D1*
X128029D2*
X152185D1*
X-168088Y1520575D2*
X-148039D1*
X-99192D2*
X-53109D1*
X-34650D2*
X-17313D1*
X7667D2*
X47708D1*
X131402D2*
X154455D1*
X-169342Y1517575D2*
X-149557D1*
X-106092D2*
X-58445D1*
X-35813D2*
X-17942D1*
X6778D2*
X50806D1*
X134463D2*
X156581D1*
X-170682Y1514575D2*
X-151061D1*
X-111597D2*
X-64316D1*
X-37161D2*
X-18615D1*
X6205D2*
X23571D1*
X30286D2*
X54186D1*
X137147D2*
X158675D1*
X-172011Y1511575D2*
X-152565D1*
X-116019D2*
X-70873D1*
X-38602D2*
X-19566D1*
X5907D2*
X23186D1*
X31293D2*
X57915D1*
X139442D2*
X160667D1*
X-173192Y1508575D2*
X-154063D1*
X-118083D2*
X-78014D1*
X-40088D2*
X-20782D1*
X5773D2*
X22467D1*
X33929D2*
X61790D1*
X141576D2*
X162665D1*
X-174235Y1505575D2*
X-155554D1*
X-118207D2*
X-85694D1*
X-41688D2*
X-22149D1*
X5718D2*
X21698D1*
X37225D2*
X65695D1*
X143674D2*
X164695D1*
X-175288Y1502575D2*
X-156958D1*
X-117835D2*
X-93886D1*
X-43576D2*
X-23598D1*
X5697D2*
X21175D1*
X40799D2*
X69703D1*
X145666D2*
X166561D1*
X-176218Y1499575D2*
X-158181D1*
X-117315D2*
X-102315D1*
X-45914D2*
X-25087D1*
X5689D2*
X20896D1*
X44254D2*
X73705D1*
X147665D2*
X168169D1*
X-176907Y1496575D2*
X-159321D1*
X-48691D2*
X-26676D1*
X5686D2*
X20769D1*
X47608D2*
X77675D1*
X149695D2*
X169478D1*
X-177590Y1493575D2*
X-160703D1*
X-52040D2*
X-28459D1*
X5685D2*
X20728D1*
X51106D2*
X81798D1*
X151561D2*
X170586D1*
X-178445Y1490575D2*
X-162315D1*
X-56197D2*
X-30402D1*
X5685D2*
X20813D1*
X54885D2*
X86095D1*
X153169D2*
X171764D1*
X-179258Y1487575D2*
X-153881D1*
X-61161D2*
X-32356D1*
X5685D2*
X21188D1*
X58779D2*
X90510D1*
X154478D2*
X173084D1*
X-179673Y1484575D2*
X-143240D1*
X-66662D2*
X-34542D1*
X5697D2*
X21904D1*
X62703D2*
X95078D1*
X155586D2*
X174494D1*
X-179705Y1481575D2*
X-130689D1*
X-72441D2*
X-37352D1*
X5802D2*
X22684D1*
X66808D2*
X99954D1*
X156764D2*
X175947D1*
X-178239Y1478575D2*
X-40886D1*
X6185D2*
X23313D1*
X71099D2*
X105274D1*
X158084D2*
X177337D1*
X-174104Y1475575D2*
X-45031D1*
X6903D2*
X23985D1*
X75499D2*
X110910D1*
X159494D2*
X178545D1*
X-168037Y1472575D2*
X-49845D1*
X7684D2*
X24936D1*
X79961D2*
X116536D1*
X160947D2*
X179599D1*
X-159503Y1469575D2*
X-55703D1*
X8313D2*
X26152D1*
X84454D2*
X121581D1*
X162337D2*
X180668D1*
X-147943Y1466575D2*
X-63003D1*
X8985D2*
X27531D1*
X89056D2*
X125504D1*
X163545D2*
X181693D1*
X-133391Y1463575D2*
X-71780D1*
X9936D2*
X29085D1*
X93946D2*
X128228D1*
X164599D2*
X182659D1*
X-117315Y1460575D2*
X-81315D1*
X11152D2*
X30956D1*
X99272D2*
X130240D1*
X165668D2*
X183679D1*
X12531Y1457575D2*
X33275D1*
X104932D2*
X130730D1*
X166693D2*
X184595D1*
X14074Y1454575D2*
X35934D1*
X110775D2*
X129881D1*
X167659D2*
X185280D1*
X15839Y1451575D2*
X38794D1*
X116685D2*
X128685D1*
X168679D2*
X185961D1*
X17776Y1448575D2*
X41850D1*
X169549D2*
X186815D1*
X19716Y1445575D2*
X45326D1*
X169959D2*
X187639D1*
X21795Y1442575D2*
X49559D1*
X170030D2*
X188184D1*
X24211Y1439575D2*
X54778D1*
X164219D2*
X188470D1*
X26921Y1436575D2*
X61285D1*
X154997D2*
X188588D1*
X29902Y1433575D2*
X69488D1*
X142197D2*
X188501D1*
X33346Y1430575D2*
X79238D1*
X126934D2*
X188175D1*
X37543Y1427575D2*
X186252D1*
X42546Y1424575D2*
X180706D1*
X48282Y1421575D2*
X172625D1*
X54997Y1418575D2*
X161869D1*
X62961Y1415575D2*
X148846D1*
X71685Y1412575D2*
X134685D1*
X-28475Y3943043D2*
Y3941543D1*
Y3940043D1*
X-28469Y3938543D1*
X-28399Y3937043D1*
X-28223Y3935543D1*
X-27283Y3934043D1*
X-24859Y3932543D1*
X-21753Y3931043D1*
X-18302Y3929543D1*
X-14889Y3928043D1*
X-11829Y3926543D1*
X-9330Y3925043D1*
X-7450Y3923543D1*
X-6137Y3922043D1*
X-5243Y3920543D1*
X-4593Y3919043D1*
X-4017Y3917543D1*
X-3539Y3916043D1*
X-3241Y3914543D1*
X-3088Y3913043D1*
X-3020Y3911543D1*
X-2992Y3910043D1*
X-2981Y3908543D1*
X-2977Y3907043D1*
X-2976Y3905543D1*
X-2975Y3904043D1*
X-25475Y3943043D2*
X-21730Y3941543D1*
X-17912Y3940043D1*
X-14251Y3938543D1*
X-10953Y3937043D1*
X-8182Y3935543D1*
X-6003Y3934043D1*
X-4115Y3932543D1*
X-2115Y3931043D1*
X25Y3929543D1*
X12025Y3941543D2*
X9140Y3940043D1*
X6784Y3938543D1*
X4901Y3937043D1*
X3393Y3935543D1*
X2117Y3934043D1*
X744Y3932543D1*
X-995Y3931043D1*
X-2975Y3929543D1*
X22525Y3941543D2*
X25917Y3940043D1*
X28672Y3938543D1*
X30695Y3937043D1*
X32124Y3935543D1*
X33187Y3934043D1*
X34064Y3932543D1*
X34812Y3931043D1*
X35385Y3929543D1*
X35734Y3928043D1*
X35959Y3926543D1*
X36226Y3925043D1*
X36616Y3923543D1*
X37012Y3922043D1*
X37278Y3920543D1*
X37419Y3919043D1*
X37483Y3917543D1*
X37509Y3916043D1*
X37519Y3914543D1*
X37523Y3913043D1*
X37524Y3911543D1*
X37525Y3910043D1*
Y3908543D1*
Y3907043D1*
Y3905543D1*
Y3904043D1*
Y3902543D1*
Y3901043D1*
Y3899543D1*
Y3898043D1*
Y3896543D1*
Y3895043D1*
X19525Y3932543D2*
X14415Y3931043D1*
X10336Y3929543D1*
X7526Y3928043D1*
X5713Y3926543D1*
X4531Y3925043D1*
X3776Y3923543D1*
X3362Y3922043D1*
X3164Y3920543D1*
X3078Y3919043D1*
X3044Y3917543D1*
X3032Y3916043D1*
X3027Y3914543D1*
X3026Y3913043D1*
X3025Y3911543D1*
Y3910043D1*
Y3908543D1*
Y3907043D1*
Y3905543D1*
Y3904043D1*
X16525Y3932543D2*
X20610Y3931043D1*
X24038Y3929543D1*
X26513Y3928043D1*
X28358Y3926543D1*
X29171Y3925043D1*
X29696Y3923543D1*
X30116Y3922043D1*
X30573Y3920543D1*
X30996Y3919043D1*
X31272Y3917543D1*
X31417Y3916043D1*
X31482Y3914543D1*
X31509Y3913043D1*
X31519Y3911543D1*
X31523Y3910043D1*
X31524Y3908543D1*
X31525Y3907043D1*
Y3905543D1*
Y3904043D1*
X-28475D2*
Y3902543D1*
Y3901043D1*
Y3899543D1*
Y3898043D1*
Y3896543D1*
Y3895043D1*
X-4475Y3877043D2*
X-10002Y3875543D1*
X-14490Y3874043D1*
X-17819Y3872543D1*
X-20263Y3871043D1*
X-22185Y3869543D1*
X-23810Y3868043D1*
X-25181Y3866543D1*
X-26294Y3865043D1*
X-27221Y3863543D1*
X-28045Y3862043D1*
X-28772Y3860543D1*
X-29339Y3859043D1*
X-29680Y3857543D1*
X-29851Y3856043D1*
X-29926Y3854543D1*
X-29957Y3853043D1*
X-29969Y3851543D1*
X-29973Y3850043D1*
X-29974Y3848543D1*
X-29975Y3847043D1*
Y3845543D1*
Y3844043D1*
X-29969Y3842543D1*
X-29916Y3841043D1*
X-29719Y3839543D1*
X-29307Y3838043D1*
X-28726Y3836543D1*
X-28052Y3835043D1*
X-27332Y3833543D1*
X-26583Y3832043D1*
X-25730Y3830543D1*
X-24589Y3829043D1*
X-23008Y3827543D1*
X-21032Y3826043D1*
X-18622Y3824543D1*
X-15558Y3823043D1*
X-11734Y3821543D1*
X-7475Y3820043D1*
X12025Y3877043D2*
X17558Y3875543D1*
X22099Y3874043D1*
X25613Y3872543D1*
X28363Y3871043D1*
X30485Y3869543D1*
X32058Y3868043D1*
X33329Y3866543D1*
X34459Y3865043D1*
X35437Y3863543D1*
X36252Y3862043D1*
X36860Y3860543D1*
X37225Y3859043D1*
X37455Y3857543D1*
X37725Y3856043D1*
X38115Y3854543D1*
X38512Y3853043D1*
X38778Y3851543D1*
X38919Y3850043D1*
X38983Y3848543D1*
X39003Y3847043D1*
X38961Y3845543D1*
X38773Y3844043D1*
X38415Y3842543D1*
X38025Y3841043D1*
X37711Y3839543D1*
X37375Y3838043D1*
X36899Y3836543D1*
X36291Y3835043D1*
X35602Y3833543D1*
X34825Y3832043D1*
X33883Y3830543D1*
X32671Y3829043D1*
X31139Y3827543D1*
X29233Y3826043D1*
X26823Y3824543D1*
X23632Y3823043D1*
X19558Y3821543D1*
X15025Y3820043D1*
X-5975Y3866543D2*
X-10117Y3865043D1*
X-13744Y3863543D1*
X-16631Y3862043D1*
X-18828Y3860543D1*
X-20481Y3859043D1*
X-21711Y3857543D1*
X-22634Y3856043D1*
X-23285Y3854543D1*
X-23660Y3853043D1*
X-23844Y3851543D1*
X-23924Y3850043D1*
X-23956Y3848543D1*
X-23963Y3847043D1*
X-23914Y3845543D1*
X-23719Y3844043D1*
X-23301Y3842543D1*
X-22667Y3841043D1*
X-21797Y3839543D1*
X-20652Y3838043D1*
X-19187Y3836543D1*
X-16945Y3835043D1*
X-12726Y3833543D1*
X-5076Y3832043D1*
X6266Y3830543D1*
X19525Y3829043D1*
X13525Y3866543D2*
X17724Y3865043D1*
X21537Y3863543D1*
X24737Y3862043D1*
X27175Y3860543D1*
X28868Y3859043D1*
X30021Y3857543D1*
X30778Y3856043D1*
X31245Y3854543D1*
X31635Y3853043D1*
X32074Y3851543D1*
X32440Y3850043D1*
X32523Y3848543D1*
X32308Y3847043D1*
X31983Y3845543D1*
X31695Y3844043D1*
X31369Y3842543D1*
X30892Y3841043D1*
X30226Y3839543D1*
X29282Y3838043D1*
X27814Y3836543D1*
X25371Y3835043D1*
X21064Y3833543D1*
X13775Y3832043D1*
X3253Y3830543D1*
X-8975Y3829043D1*
X-19475Y3806543D2*
X-21667Y3805043D1*
X-23592Y3803543D1*
X-25252Y3802043D1*
X-26605Y3800543D1*
X-27587Y3799043D1*
X-28300Y3797543D1*
X-28909Y3796043D1*
X-29401Y3794543D1*
X-29706Y3793043D1*
X-29861Y3791543D1*
X-29930Y3790043D1*
X-29958Y3788543D1*
X-29969Y3787043D1*
X-29973Y3785543D1*
X-29974Y3784043D1*
X-29975Y3782543D1*
Y3781043D1*
Y3779543D1*
Y3778043D1*
X-29969Y3776543D1*
X-29916Y3775043D1*
X-29725Y3773543D1*
X-29366Y3772043D1*
X-28981Y3770543D1*
X-28714Y3769043D1*
X-28518Y3767543D1*
X-28222Y3766043D1*
X-27682Y3764543D1*
X-26975Y3763043D1*
X-8975Y3806543D2*
X-6726Y3805043D1*
X-4608Y3803543D1*
X-2584Y3802043D1*
X-793Y3800543D1*
X648Y3799043D1*
X1912Y3797543D1*
X3166Y3796043D1*
X4364Y3794543D1*
X5446Y3793043D1*
X6486Y3791543D1*
X7525Y3790043D1*
X8517Y3788543D1*
X9515Y3787043D1*
X10536Y3785543D1*
X11527Y3784043D1*
X12575Y3782543D1*
X13786Y3781043D1*
X15142Y3779543D1*
X16645Y3778043D1*
X18481Y3776543D1*
X21038Y3775043D1*
X24519Y3773543D1*
X28525Y3772043D1*
X31525Y3803543D2*
Y3802043D1*
Y3800543D1*
Y3799043D1*
Y3797543D1*
X31531Y3796043D1*
X31584Y3794543D1*
X31775Y3793043D1*
X32134Y3791543D1*
X32519Y3790043D1*
X32774Y3788543D1*
X32861Y3787043D1*
X32733Y3785543D1*
X32400Y3784043D1*
X32020Y3782543D1*
X31709Y3781043D1*
X31369Y3779543D1*
X30817Y3778043D1*
X30045Y3776543D1*
X27912Y3775043D1*
X24770Y3773543D1*
X21025Y3772043D1*
X37525Y3803543D2*
Y3802043D1*
X37531Y3800543D1*
X37584Y3799043D1*
X37775Y3797543D1*
X38134Y3796043D1*
X38519Y3794543D1*
X38780Y3793043D1*
X38919Y3791543D1*
X38983Y3790043D1*
X39009Y3788543D1*
X39019Y3787043D1*
X39017Y3785543D1*
X38966Y3784043D1*
X38775Y3782543D1*
X38416Y3781043D1*
X38031Y3779543D1*
X37764Y3778043D1*
X37572Y3776543D1*
X37311Y3775043D1*
X36873Y3773543D1*
X36281Y3772043D1*
X35592Y3770543D1*
X34765Y3769043D1*
X33638Y3767543D1*
X32108Y3766043D1*
X30341Y3764543D1*
X28525Y3763043D1*
X-14975Y3797543D2*
X-17623Y3796043D1*
X-19802Y3794543D1*
X-21387Y3793043D1*
X-22496Y3791543D1*
X-23230Y3790043D1*
X-23640Y3788543D1*
X-23837Y3787043D1*
X-23922Y3785543D1*
X-23955Y3784043D1*
X-23968Y3782543D1*
X-23973Y3781043D1*
X-23974Y3779543D1*
X-23969Y3778043D1*
X-23916Y3776543D1*
X-23725Y3775043D1*
X-23366Y3773543D1*
X-22976Y3772043D1*
X-22661Y3770543D1*
X-22330Y3769043D1*
X-21894Y3767543D1*
X-21421Y3766043D1*
X-20975Y3764543D1*
X-25475Y3763043D1*
X-16475Y3797543D2*
X-13770Y3796043D1*
X-11393Y3794543D1*
X-9390Y3793043D1*
X-7647Y3791543D1*
X-6047Y3790043D1*
X-4558Y3788543D1*
X-3233Y3787043D1*
X-2093Y3785543D1*
X-1028Y3784043D1*
X20Y3782543D1*
X1016Y3781043D1*
X2015Y3779543D1*
X3036Y3778043D1*
X4027Y3776543D1*
X5075Y3775043D1*
X6286Y3773543D1*
X7636Y3772043D1*
X9069Y3770543D1*
X10547Y3769043D1*
X12094Y3767543D1*
X13822Y3766043D1*
X15833Y3764543D1*
X18025Y3763043D1*
X-28475Y3745043D2*
Y3743543D1*
Y3742043D1*
Y3740543D1*
Y3739043D1*
Y3737543D1*
Y3736043D1*
X-20051Y3734543D1*
X-14243Y3733043D1*
X-10563Y3731543D1*
X-8096Y3730043D1*
X-6205Y3728543D1*
X-4556Y3727043D1*
X-3003Y3725543D1*
X-1484Y3724043D1*
X22Y3722543D1*
X1524Y3721043D1*
X3025Y3719543D1*
X4525Y3718043D1*
X6031Y3716543D1*
X7584Y3715043D1*
X9275Y3713543D1*
X11134Y3712043D1*
X13019Y3710543D1*
X14780Y3709043D1*
X16419Y3707543D1*
X17983Y3706043D1*
X19509Y3704543D1*
X21019Y3703043D1*
X22523Y3701543D1*
X24025Y3700043D1*
X37525Y3745043D2*
Y3743543D1*
Y3742043D1*
Y3740543D1*
Y3739043D1*
Y3737543D1*
Y3736043D1*
X-2975D2*
X-1243Y3734543D1*
X629Y3733043D1*
X2517Y3731543D1*
X4280Y3730043D1*
X5919Y3728543D1*
X7483Y3727043D1*
X9009Y3725543D1*
X10519Y3724043D1*
X12023Y3722543D1*
X13524Y3721043D1*
X15025Y3719543D1*
X16525Y3718043D1*
X18025Y3716543D1*
X19531Y3715043D1*
X21084Y3713543D1*
X22775Y3712043D1*
X24634Y3710543D1*
X26519Y3709043D1*
X28280Y3707543D1*
X29919Y3706043D1*
X31483Y3704543D1*
X33003Y3703043D1*
X34455Y3701543D1*
X35709Y3700043D1*
X36601Y3698543D1*
X37108Y3697043D1*
X37353Y3695543D1*
X37459Y3694043D1*
X37502Y3692543D1*
X37525Y3691043D1*
X-28475Y3700043D2*
Y3698543D1*
Y3697043D1*
Y3695543D1*
Y3694043D1*
Y3692543D1*
Y3691043D1*
Y3671543D2*
Y3670043D1*
Y3668543D1*
Y3667043D1*
Y3665543D1*
Y3664043D1*
Y3662543D1*
Y3661043D1*
Y3659543D1*
Y3658043D1*
Y3656543D1*
Y3655043D1*
Y3653543D1*
Y3652043D1*
Y3650543D1*
Y3649043D1*
Y3647543D1*
X-28469Y3646043D1*
X-28416Y3644543D1*
X-28219Y3643043D1*
X-27807Y3641543D1*
X-27226Y3640043D1*
X-26541Y3638543D1*
X-25697Y3637043D1*
X-24666Y3635543D1*
X-22241Y3634043D1*
X-18886Y3632543D1*
X-14975Y3631043D1*
X-22475Y3671543D2*
Y3670043D1*
Y3668543D1*
Y3667043D1*
Y3665543D1*
Y3664043D1*
Y3662543D1*
Y3661043D1*
Y3659543D1*
Y3658043D1*
Y3656543D1*
Y3655043D1*
Y3653543D1*
Y3652043D1*
X-22469Y3650543D1*
X-22411Y3649043D1*
X-22161Y3647543D1*
X-21552Y3646043D1*
X-20560Y3644543D1*
X-19316Y3643043D1*
X-17975Y3641543D1*
X31525Y3671543D2*
Y3670043D1*
Y3668543D1*
Y3667043D1*
Y3665543D1*
Y3664043D1*
Y3662543D1*
Y3661043D1*
Y3659543D1*
Y3658043D1*
Y3656543D1*
Y3655043D1*
Y3653543D1*
Y3652043D1*
Y3650543D1*
Y3649043D1*
Y3647543D1*
Y3646043D1*
Y3644543D1*
Y3643043D1*
Y3641543D1*
X37525Y3671543D2*
Y3670043D1*
Y3668543D1*
Y3667043D1*
Y3665543D1*
Y3664043D1*
Y3662543D1*
Y3661043D1*
Y3659543D1*
Y3658043D1*
Y3656543D1*
Y3655043D1*
Y3653543D1*
Y3652043D1*
Y3650543D1*
Y3649043D1*
Y3647543D1*
Y3646043D1*
Y3644543D1*
Y3643043D1*
Y3641543D1*
Y3640043D1*
Y3638543D1*
Y3637043D1*
Y3635543D1*
Y3634043D1*
Y3632543D1*
Y3631043D1*
X3025Y3668543D2*
Y3667043D1*
Y3665543D1*
Y3664043D1*
Y3662543D1*
Y3661043D1*
Y3659543D1*
Y3658043D1*
Y3656543D1*
Y3655043D1*
Y3653543D1*
Y3652043D1*
Y3650543D1*
Y3649043D1*
Y3647543D1*
Y3646043D1*
Y3644543D1*
Y3643043D1*
Y3641543D1*
X9025Y3668543D2*
Y3667043D1*
Y3665543D1*
Y3664043D1*
Y3662543D1*
Y3661043D1*
Y3659543D1*
Y3658043D1*
Y3656543D1*
Y3655043D1*
Y3653543D1*
Y3652043D1*
Y3650543D1*
Y3649043D1*
Y3647543D1*
Y3646043D1*
Y3644543D1*
Y3643043D1*
Y3641543D1*
X-19475Y3614543D2*
X-21667Y3613043D1*
X-23592Y3611543D1*
X-25252Y3610043D1*
X-26605Y3608543D1*
X-27587Y3607043D1*
X-28300Y3605543D1*
X-28909Y3604043D1*
X-29401Y3602543D1*
X-29706Y3601043D1*
X-29861Y3599543D1*
X-29930Y3598043D1*
X-29958Y3596543D1*
X-29969Y3595043D1*
X-29973Y3593543D1*
X-29974Y3592043D1*
X-29975Y3590543D1*
Y3589043D1*
Y3587543D1*
Y3586043D1*
X-29969Y3584543D1*
X-29916Y3583043D1*
X-29725Y3581543D1*
X-29366Y3580043D1*
X-28981Y3578543D1*
X-28714Y3577043D1*
X-28518Y3575543D1*
X-28222Y3574043D1*
X-27682Y3572543D1*
X-26975Y3571043D1*
X-8975Y3614543D2*
X-6726Y3613043D1*
X-4608Y3611543D1*
X-2584Y3610043D1*
X-793Y3608543D1*
X648Y3607043D1*
X1912Y3605543D1*
X3166Y3604043D1*
X4364Y3602543D1*
X5446Y3601043D1*
X6486Y3599543D1*
X7525Y3598043D1*
X8517Y3596543D1*
X9515Y3595043D1*
X10536Y3593543D1*
X11527Y3592043D1*
X12575Y3590543D1*
X13786Y3589043D1*
X15142Y3587543D1*
X16645Y3586043D1*
X18481Y3584543D1*
X21038Y3583043D1*
X24519Y3581543D1*
X28525Y3580043D1*
X31525Y3611543D2*
Y3610043D1*
Y3608543D1*
Y3607043D1*
Y3605543D1*
X31531Y3604043D1*
X31584Y3602543D1*
X31775Y3601043D1*
X32134Y3599543D1*
X32519Y3598043D1*
X32774Y3596543D1*
X32861Y3595043D1*
X32733Y3593543D1*
X32400Y3592043D1*
X32020Y3590543D1*
X31709Y3589043D1*
X31369Y3587543D1*
X30817Y3586043D1*
X30045Y3584543D1*
X27912Y3583043D1*
X24770Y3581543D1*
X21025Y3580043D1*
X37525Y3611543D2*
Y3610043D1*
X37531Y3608543D1*
X37584Y3607043D1*
X37775Y3605543D1*
X38134Y3604043D1*
X38519Y3602543D1*
X38780Y3601043D1*
X38919Y3599543D1*
X38983Y3598043D1*
X39009Y3596543D1*
X39019Y3595043D1*
X39017Y3593543D1*
X38966Y3592043D1*
X38775Y3590543D1*
X38416Y3589043D1*
X38031Y3587543D1*
X37764Y3586043D1*
X37572Y3584543D1*
X37311Y3583043D1*
X36873Y3581543D1*
X36281Y3580043D1*
X35592Y3578543D1*
X34765Y3577043D1*
X33638Y3575543D1*
X32108Y3574043D1*
X30341Y3572543D1*
X28525Y3571043D1*
X-14975Y3605543D2*
X-17623Y3604043D1*
X-19802Y3602543D1*
X-21387Y3601043D1*
X-22496Y3599543D1*
X-23230Y3598043D1*
X-23640Y3596543D1*
X-23837Y3595043D1*
X-23922Y3593543D1*
X-23955Y3592043D1*
X-23968Y3590543D1*
X-23973Y3589043D1*
X-23974Y3587543D1*
X-23969Y3586043D1*
X-23916Y3584543D1*
X-23725Y3583043D1*
X-23366Y3581543D1*
X-22976Y3580043D1*
X-22661Y3578543D1*
X-22330Y3577043D1*
X-21894Y3575543D1*
X-21421Y3574043D1*
X-20975Y3572543D1*
X-25475Y3571043D1*
X-16475Y3605543D2*
X-13770Y3604043D1*
X-11393Y3602543D1*
X-9390Y3601043D1*
X-7647Y3599543D1*
X-6047Y3598043D1*
X-4558Y3596543D1*
X-3233Y3595043D1*
X-2093Y3593543D1*
X-1028Y3592043D1*
X20Y3590543D1*
X1016Y3589043D1*
X2015Y3587543D1*
X3036Y3586043D1*
X4027Y3584543D1*
X5075Y3583043D1*
X6286Y3581543D1*
X7636Y3580043D1*
X9069Y3578543D1*
X10547Y3577043D1*
X12094Y3575543D1*
X13822Y3574043D1*
X15833Y3572543D1*
X18025Y3571043D1*
X-28475Y3529043D2*
Y3527543D1*
Y3526043D1*
Y3524543D1*
Y3523043D1*
Y3521543D1*
Y3520043D1*
Y3518543D1*
Y3517043D1*
Y3515543D1*
Y3514043D1*
Y3512543D1*
Y3511043D1*
Y3509543D1*
Y3508043D1*
Y3506543D1*
Y3505043D1*
X-28469Y3503543D1*
X-28416Y3502043D1*
X-28219Y3500543D1*
X-27807Y3499043D1*
X-27226Y3497543D1*
X-26541Y3496043D1*
X-25697Y3494543D1*
X-24666Y3493043D1*
X-22241Y3491543D1*
X-18886Y3490043D1*
X-14975Y3488543D1*
X-22475Y3529043D2*
Y3527543D1*
Y3526043D1*
Y3524543D1*
Y3523043D1*
Y3521543D1*
Y3520043D1*
Y3518543D1*
Y3517043D1*
Y3515543D1*
Y3514043D1*
Y3512543D1*
Y3511043D1*
Y3509543D1*
X-22469Y3508043D1*
X-22411Y3506543D1*
X-22161Y3505043D1*
X-21552Y3503543D1*
X-20560Y3502043D1*
X-19316Y3500543D1*
X-17975Y3499043D1*
X31525Y3529043D2*
Y3527543D1*
Y3526043D1*
Y3524543D1*
Y3523043D1*
Y3521543D1*
Y3520043D1*
Y3518543D1*
Y3517043D1*
Y3515543D1*
Y3514043D1*
Y3512543D1*
Y3511043D1*
Y3509543D1*
Y3508043D1*
Y3506543D1*
Y3505043D1*
Y3503543D1*
Y3502043D1*
Y3500543D1*
Y3499043D1*
X37525Y3529043D2*
Y3527543D1*
Y3526043D1*
Y3524543D1*
Y3523043D1*
Y3521543D1*
Y3520043D1*
Y3518543D1*
Y3517043D1*
Y3515543D1*
Y3514043D1*
Y3512543D1*
Y3511043D1*
Y3509543D1*
Y3508043D1*
Y3506543D1*
Y3505043D1*
Y3503543D1*
Y3502043D1*
Y3500543D1*
Y3499043D1*
Y3497543D1*
Y3496043D1*
Y3494543D1*
Y3493043D1*
Y3491543D1*
Y3490043D1*
Y3488543D1*
X3025Y3526043D2*
Y3524543D1*
Y3523043D1*
Y3521543D1*
Y3520043D1*
Y3518543D1*
Y3517043D1*
Y3515543D1*
Y3514043D1*
Y3512543D1*
Y3511043D1*
Y3509543D1*
Y3508043D1*
Y3506543D1*
Y3505043D1*
Y3503543D1*
Y3502043D1*
Y3500543D1*
Y3499043D1*
X9025Y3526043D2*
Y3524543D1*
Y3523043D1*
Y3521543D1*
Y3520043D1*
Y3518543D1*
Y3517043D1*
Y3515543D1*
Y3514043D1*
Y3512543D1*
Y3511043D1*
Y3509543D1*
Y3508043D1*
Y3506543D1*
Y3505043D1*
Y3503543D1*
Y3502043D1*
Y3500543D1*
Y3499043D1*
X-28475Y3472043D2*
Y3470543D1*
Y3469043D1*
X-28469Y3467543D1*
X-28399Y3466043D1*
X-28223Y3464543D1*
X-27283Y3463043D1*
X-24859Y3461543D1*
X-21753Y3460043D1*
X-18302Y3458543D1*
X-14889Y3457043D1*
X-11829Y3455543D1*
X-9330Y3454043D1*
X-7450Y3452543D1*
X-6137Y3451043D1*
X-5243Y3449543D1*
X-4593Y3448043D1*
X-4017Y3446543D1*
X-3539Y3445043D1*
X-3241Y3443543D1*
X-3088Y3442043D1*
X-3020Y3440543D1*
X-2992Y3439043D1*
X-2981Y3437543D1*
X-2977Y3436043D1*
X-2976Y3434543D1*
X-2975Y3433043D1*
X-25475Y3472043D2*
X-21730Y3470543D1*
X-17912Y3469043D1*
X-14251Y3467543D1*
X-10953Y3466043D1*
X-8182Y3464543D1*
X-6003Y3463043D1*
X-4115Y3461543D1*
X-2115Y3460043D1*
X25Y3458543D1*
X12025Y3470543D2*
X9140Y3469043D1*
X6784Y3467543D1*
X4901Y3466043D1*
X3393Y3464543D1*
X2117Y3463043D1*
X744Y3461543D1*
X-995Y3460043D1*
X-2975Y3458543D1*
X22525Y3470543D2*
X25917Y3469043D1*
X28672Y3467543D1*
X30695Y3466043D1*
X32124Y3464543D1*
X33187Y3463043D1*
X34064Y3461543D1*
X34812Y3460043D1*
X35385Y3458543D1*
X35734Y3457043D1*
X35959Y3455543D1*
X36226Y3454043D1*
X36616Y3452543D1*
X37012Y3451043D1*
X37278Y3449543D1*
X37419Y3448043D1*
X37483Y3446543D1*
X37509Y3445043D1*
X37519Y3443543D1*
X37523Y3442043D1*
X37524Y3440543D1*
X37525Y3439043D1*
Y3437543D1*
Y3436043D1*
Y3434543D1*
Y3433043D1*
Y3431543D1*
Y3430043D1*
Y3428543D1*
Y3427043D1*
Y3425543D1*
Y3424043D1*
X19525Y3461543D2*
X14415Y3460043D1*
X10336Y3458543D1*
X7526Y3457043D1*
X5713Y3455543D1*
X4531Y3454043D1*
X3776Y3452543D1*
X3362Y3451043D1*
X3164Y3449543D1*
X3078Y3448043D1*
X3044Y3446543D1*
X3032Y3445043D1*
X3027Y3443543D1*
X3026Y3442043D1*
X3025Y3440543D1*
Y3439043D1*
Y3437543D1*
Y3436043D1*
Y3434543D1*
Y3433043D1*
X16525Y3461543D2*
X20610Y3460043D1*
X24038Y3458543D1*
X26513Y3457043D1*
X28358Y3455543D1*
X29171Y3454043D1*
X29696Y3452543D1*
X30116Y3451043D1*
X30573Y3449543D1*
X30996Y3448043D1*
X31272Y3446543D1*
X31417Y3445043D1*
X31482Y3443543D1*
X31509Y3442043D1*
X31519Y3440543D1*
X31523Y3439043D1*
X31524Y3437543D1*
X31525Y3436043D1*
Y3434543D1*
Y3433043D1*
X-28475D2*
Y3431543D1*
Y3430043D1*
Y3428543D1*
Y3427043D1*
Y3425543D1*
Y3424043D1*
X-25475Y3403043D2*
X-26225Y3401543D1*
X-26848Y3400043D1*
X-27425Y3398543D1*
X-27912Y3397043D1*
X-28266Y3395543D1*
X-28611Y3394043D1*
X-29039Y3392543D1*
X-29452Y3391043D1*
X-29724Y3389543D1*
X-29867Y3388043D1*
X-29932Y3386543D1*
X-29959Y3385043D1*
X-29969Y3383543D1*
X-29973Y3382043D1*
X-29974Y3380543D1*
X-29975Y3379043D1*
Y3377543D1*
Y3376043D1*
Y3374543D1*
Y3373043D1*
X-29969Y3371543D1*
X-29916Y3370043D1*
X-29725Y3368543D1*
X-29360Y3367043D1*
X-28923Y3365543D1*
X-28464Y3364043D1*
X-27907Y3362543D1*
X-27209Y3361043D1*
X-26312Y3359543D1*
X-25164Y3358043D1*
X-23771Y3356543D1*
X-21985Y3355043D1*
X-19450Y3353543D1*
X-15977Y3352043D1*
X-11975Y3350543D1*
X37525Y3403043D2*
Y3401543D1*
Y3400043D1*
Y3398543D1*
Y3397043D1*
Y3395543D1*
Y3394043D1*
Y3392543D1*
X-22475D2*
X-22707Y3391043D1*
X-23079Y3389543D1*
X-23467Y3388043D1*
X-23730Y3386543D1*
X-23869Y3385043D1*
X-23933Y3383543D1*
X-23959Y3382043D1*
X-23969Y3380543D1*
X-23973Y3379043D1*
X-23974Y3377543D1*
X-23975Y3376043D1*
X-23969Y3374543D1*
X-23916Y3373043D1*
X-23719Y3371543D1*
X-23302Y3370043D1*
X-22661Y3368543D1*
X-21726Y3367043D1*
X-20285Y3365543D1*
X-18108Y3364043D1*
X-15092Y3362543D1*
X-11422Y3361043D1*
X-7475Y3359543D1*
X37525D2*
Y3358043D1*
Y3356543D1*
Y3355043D1*
Y3353543D1*
Y3352043D1*
Y3350543D1*
X31525Y3338543D2*
Y3337043D1*
Y3335543D1*
Y3334043D1*
Y3332543D1*
Y3331043D1*
Y3329543D1*
Y3328043D1*
Y3326543D1*
Y3325043D1*
Y3323543D1*
Y3322043D1*
Y3320543D1*
Y3319043D1*
Y3317543D1*
Y3316043D1*
X37525Y3338543D2*
Y3337043D1*
Y3335543D1*
Y3334043D1*
Y3332543D1*
Y3331043D1*
Y3329543D1*
Y3328043D1*
Y3326543D1*
Y3325043D1*
Y3323543D1*
Y3322043D1*
Y3320543D1*
Y3319043D1*
Y3317543D1*
Y3316043D1*
Y3314543D1*
Y3313043D1*
Y3311543D1*
Y3310043D1*
Y3308543D1*
Y3307043D1*
Y3305543D1*
Y3304043D1*
Y3302543D1*
Y3301043D1*
Y3299543D1*
Y3298043D1*
Y3296543D1*
Y3295043D1*
Y3293543D1*
Y3292043D1*
Y3290543D1*
Y3289043D1*
Y3287543D1*
Y3286043D1*
Y3284543D1*
X-28475Y3316043D2*
Y3314543D1*
Y3313043D1*
Y3311543D1*
Y3310043D1*
Y3308543D1*
Y3307043D1*
X31525D2*
Y3305543D1*
Y3304043D1*
Y3302543D1*
Y3301043D1*
Y3299543D1*
Y3298043D1*
Y3296543D1*
Y3295043D1*
Y3293543D1*
Y3292043D1*
Y3290543D1*
Y3289043D1*
Y3287543D1*
Y3286043D1*
Y3284543D1*
X-19475Y3275543D2*
X-21667Y3274043D1*
X-23592Y3272543D1*
X-25252Y3271043D1*
X-26605Y3269543D1*
X-27587Y3268043D1*
X-28300Y3266543D1*
X-28909Y3265043D1*
X-29401Y3263543D1*
X-29706Y3262043D1*
X-29861Y3260543D1*
X-29930Y3259043D1*
X-29958Y3257543D1*
X-29969Y3256043D1*
X-29973Y3254543D1*
X-29974Y3253043D1*
X-29975Y3251543D1*
Y3250043D1*
Y3248543D1*
Y3247043D1*
X-29969Y3245543D1*
X-29916Y3244043D1*
X-29725Y3242543D1*
X-29366Y3241043D1*
X-28981Y3239543D1*
X-28714Y3238043D1*
X-28518Y3236543D1*
X-28222Y3235043D1*
X-27682Y3233543D1*
X-26975Y3232043D1*
X-8975Y3275543D2*
X-6726Y3274043D1*
X-4608Y3272543D1*
X-2584Y3271043D1*
X-793Y3269543D1*
X648Y3268043D1*
X1912Y3266543D1*
X3166Y3265043D1*
X4364Y3263543D1*
X5446Y3262043D1*
X6486Y3260543D1*
X7525Y3259043D1*
X8517Y3257543D1*
X9515Y3256043D1*
X10536Y3254543D1*
X11527Y3253043D1*
X12575Y3251543D1*
X13786Y3250043D1*
X15142Y3248543D1*
X16645Y3247043D1*
X18481Y3245543D1*
X21038Y3244043D1*
X24519Y3242543D1*
X28525Y3241043D1*
X31525Y3272543D2*
Y3271043D1*
Y3269543D1*
Y3268043D1*
Y3266543D1*
X31531Y3265043D1*
X31584Y3263543D1*
X31775Y3262043D1*
X32134Y3260543D1*
X32519Y3259043D1*
X32774Y3257543D1*
X32861Y3256043D1*
X32733Y3254543D1*
X32400Y3253043D1*
X32020Y3251543D1*
X31709Y3250043D1*
X31369Y3248543D1*
X30817Y3247043D1*
X30045Y3245543D1*
X27912Y3244043D1*
X24770Y3242543D1*
X21025Y3241043D1*
X37525Y3272543D2*
Y3271043D1*
X37531Y3269543D1*
X37584Y3268043D1*
X37775Y3266543D1*
X38134Y3265043D1*
X38519Y3263543D1*
X38780Y3262043D1*
X38919Y3260543D1*
X38983Y3259043D1*
X39009Y3257543D1*
X39019Y3256043D1*
X39017Y3254543D1*
X38966Y3253043D1*
X38775Y3251543D1*
X38416Y3250043D1*
X38031Y3248543D1*
X37764Y3247043D1*
X37572Y3245543D1*
X37311Y3244043D1*
X36873Y3242543D1*
X36281Y3241043D1*
X35592Y3239543D1*
X34765Y3238043D1*
X33638Y3236543D1*
X32108Y3235043D1*
X30341Y3233543D1*
X28525Y3232043D1*
X-14975Y3266543D2*
X-17623Y3265043D1*
X-19802Y3263543D1*
X-21387Y3262043D1*
X-22496Y3260543D1*
X-23230Y3259043D1*
X-23640Y3257543D1*
X-23837Y3256043D1*
X-23922Y3254543D1*
X-23955Y3253043D1*
X-23968Y3251543D1*
X-23973Y3250043D1*
X-23974Y3248543D1*
X-23969Y3247043D1*
X-23916Y3245543D1*
X-23725Y3244043D1*
X-23366Y3242543D1*
X-22976Y3241043D1*
X-22661Y3239543D1*
X-22330Y3238043D1*
X-21894Y3236543D1*
X-21421Y3235043D1*
X-20975Y3233543D1*
X-25475Y3232043D1*
X-16475Y3266543D2*
X-13770Y3265043D1*
X-11393Y3263543D1*
X-9390Y3262043D1*
X-7647Y3260543D1*
X-6047Y3259043D1*
X-4558Y3257543D1*
X-3233Y3256043D1*
X-2093Y3254543D1*
X-1028Y3253043D1*
X20Y3251543D1*
X1016Y3250043D1*
X2015Y3248543D1*
X3036Y3247043D1*
X4027Y3245543D1*
X5075Y3244043D1*
X6286Y3242543D1*
X7636Y3241043D1*
X9069Y3239543D1*
X10547Y3238043D1*
X12094Y3236543D1*
X13822Y3235043D1*
X15833Y3233543D1*
X18025Y3232043D1*
X-28475Y3214043D2*
Y3212543D1*
Y3211043D1*
Y3209543D1*
Y3208043D1*
Y3206543D1*
Y3205043D1*
X37525Y3214043D2*
Y3212543D1*
Y3211043D1*
Y3209543D1*
Y3208043D1*
Y3206543D1*
Y3205043D1*
X-4475Y3187043D2*
X-10002Y3185543D1*
X-14490Y3184043D1*
X-17819Y3182543D1*
X-20263Y3181043D1*
X-22185Y3179543D1*
X-23810Y3178043D1*
X-25181Y3176543D1*
X-26294Y3175043D1*
X-27221Y3173543D1*
X-28045Y3172043D1*
X-28772Y3170543D1*
X-29339Y3169043D1*
X-29680Y3167543D1*
X-29851Y3166043D1*
X-29926Y3164543D1*
X-29957Y3163043D1*
X-29969Y3161543D1*
X-29973Y3160043D1*
X-29974Y3158543D1*
X-29975Y3157043D1*
Y3155543D1*
Y3154043D1*
X-29969Y3152543D1*
X-29916Y3151043D1*
X-29719Y3149543D1*
X-29307Y3148043D1*
X-28726Y3146543D1*
X-28052Y3145043D1*
X-27332Y3143543D1*
X-26583Y3142043D1*
X-25730Y3140543D1*
X-24589Y3139043D1*
X-23008Y3137543D1*
X-21032Y3136043D1*
X-18622Y3134543D1*
X-15558Y3133043D1*
X-11734Y3131543D1*
X-7475Y3130043D1*
X12025Y3187043D2*
X17558Y3185543D1*
X22099Y3184043D1*
X25613Y3182543D1*
X28363Y3181043D1*
X30485Y3179543D1*
X32058Y3178043D1*
X33329Y3176543D1*
X34459Y3175043D1*
X35437Y3173543D1*
X36252Y3172043D1*
X36860Y3170543D1*
X37225Y3169043D1*
X37455Y3167543D1*
X37725Y3166043D1*
X38115Y3164543D1*
X38512Y3163043D1*
X38778Y3161543D1*
X38919Y3160043D1*
X38983Y3158543D1*
X39003Y3157043D1*
X38961Y3155543D1*
X38773Y3154043D1*
X38415Y3152543D1*
X38025Y3151043D1*
X37711Y3149543D1*
X37375Y3148043D1*
X36899Y3146543D1*
X36291Y3145043D1*
X35602Y3143543D1*
X34825Y3142043D1*
X33883Y3140543D1*
X32671Y3139043D1*
X31139Y3137543D1*
X29233Y3136043D1*
X26823Y3134543D1*
X23632Y3133043D1*
X19558Y3131543D1*
X15025Y3130043D1*
X-5975Y3176543D2*
X-10117Y3175043D1*
X-13744Y3173543D1*
X-16631Y3172043D1*
X-18828Y3170543D1*
X-20481Y3169043D1*
X-21711Y3167543D1*
X-22634Y3166043D1*
X-23285Y3164543D1*
X-23660Y3163043D1*
X-23844Y3161543D1*
X-23924Y3160043D1*
X-23956Y3158543D1*
X-23963Y3157043D1*
X-23914Y3155543D1*
X-23719Y3154043D1*
X-23301Y3152543D1*
X-22667Y3151043D1*
X-21797Y3149543D1*
X-20652Y3148043D1*
X-19187Y3146543D1*
X-16945Y3145043D1*
X-12726Y3143543D1*
X-5076Y3142043D1*
X6266Y3140543D1*
X19525Y3139043D1*
X13525Y3176543D2*
X17724Y3175043D1*
X21537Y3173543D1*
X24737Y3172043D1*
X27175Y3170543D1*
X28868Y3169043D1*
X30021Y3167543D1*
X30778Y3166043D1*
X31245Y3164543D1*
X31635Y3163043D1*
X32074Y3161543D1*
X32440Y3160043D1*
X32523Y3158543D1*
X32308Y3157043D1*
X31983Y3155543D1*
X31695Y3154043D1*
X31369Y3152543D1*
X30892Y3151043D1*
X30226Y3149543D1*
X29282Y3148043D1*
X27814Y3146543D1*
X25371Y3145043D1*
X21064Y3143543D1*
X13775Y3142043D1*
X3253Y3140543D1*
X-8975Y3139043D1*
X-28475Y3112043D2*
Y3110543D1*
Y3109043D1*
Y3107543D1*
Y3106043D1*
Y3104543D1*
Y3103043D1*
X37525Y3112043D2*
Y3110543D1*
Y3109043D1*
Y3107543D1*
X37513Y3106043D1*
X37402Y3104543D1*
X37138Y3103043D1*
X35980Y3101543D1*
X34370Y3100043D1*
X32433Y3098543D1*
X30322Y3097043D1*
X28173Y3095543D1*
X26086Y3094043D1*
X24059Y3092543D1*
X21980Y3091043D1*
X19824Y3089543D1*
X17620Y3088043D1*
X15388Y3086543D1*
X13146Y3085043D1*
X10898Y3083543D1*
X8656Y3082043D1*
X6467Y3080543D1*
X4489Y3079043D1*
X2877Y3077543D1*
X1525Y3076043D1*
X3955Y3074543D1*
X6310Y3073043D1*
X8614Y3071543D1*
X10885Y3070043D1*
X13145Y3068543D1*
X15398Y3067043D1*
X17650Y3065543D1*
X19899Y3064043D1*
X22150Y3062543D1*
X24399Y3061043D1*
X26651Y3059543D1*
X28899Y3058043D1*
X31139Y3056543D1*
X33276Y3055043D1*
X35081Y3053543D1*
X36514Y3052043D1*
X37036Y3050543D1*
X37317Y3049043D1*
X37444Y3047543D1*
X37495Y3046043D1*
X37514Y3044543D1*
X37522Y3043043D1*
X37525Y3041543D1*
X24025Y3103043D2*
X22287Y3101543D1*
X20363Y3100043D1*
X18277Y3098543D1*
X16103Y3097043D1*
X13882Y3095543D1*
X11644Y3094043D1*
X9397Y3092543D1*
X7150Y3091043D1*
X4899Y3089543D1*
X2645Y3088043D1*
X352Y3086543D1*
X-1976Y3085043D1*
X-4140Y3083543D1*
X-5996Y3082043D1*
X-6751Y3080543D1*
X-7164Y3079043D1*
X-7347Y3077543D1*
X-7365Y3076043D1*
X-7139Y3074543D1*
X-6667Y3073043D1*
X-5346Y3071543D1*
X-3646Y3070043D1*
X-1662Y3068543D1*
X471Y3067043D1*
X2677Y3065543D1*
X4909Y3064043D1*
X7154Y3062543D1*
X9400Y3061043D1*
X11651Y3059543D1*
X13899Y3058043D1*
X16145Y3056543D1*
X18341Y3055043D1*
X20399Y3053543D1*
X22262Y3052043D1*
X24025Y3050543D1*
X-28475D2*
Y3049043D1*
Y3047543D1*
Y3046043D1*
Y3044543D1*
Y3043043D1*
Y3041543D1*
Y2999543D2*
Y2998043D1*
Y2996543D1*
Y2995043D1*
Y2993543D1*
Y2992043D1*
Y2990543D1*
Y2989043D1*
Y2987543D1*
Y2986043D1*
Y2984543D1*
Y2983043D1*
Y2981543D1*
Y2980043D1*
Y2978543D1*
Y2977043D1*
Y2975543D1*
Y2974043D1*
Y2972543D1*
Y2971043D1*
Y2969543D1*
Y2968043D1*
Y2966543D1*
Y2965043D1*
Y2963543D1*
Y2962043D1*
X-22475Y2999543D2*
Y2998043D1*
Y2996543D1*
Y2995043D1*
Y2993543D1*
Y2992043D1*
Y2990543D1*
Y2989043D1*
Y2987543D1*
Y2986043D1*
Y2984543D1*
Y2983043D1*
Y2981543D1*
Y2980043D1*
Y2978543D1*
Y2977043D1*
Y2975543D1*
Y2974043D1*
Y2972543D1*
Y2971043D1*
X37525D2*
Y2969543D1*
Y2968043D1*
Y2966543D1*
Y2965043D1*
Y2963543D1*
Y2962043D1*
X-28475Y2939543D2*
Y2938043D1*
Y2936543D1*
Y2935043D1*
Y2933543D1*
Y2932043D1*
Y2930543D1*
X37525Y2939543D2*
Y2938043D1*
Y2936543D1*
Y2935043D1*
Y2933543D1*
Y2932043D1*
Y2930543D1*
X-4475Y2912543D2*
X-10002Y2911043D1*
X-14490Y2909543D1*
X-17819Y2908043D1*
X-20263Y2906543D1*
X-22185Y2905043D1*
X-23810Y2903543D1*
X-25181Y2902043D1*
X-26294Y2900543D1*
X-27221Y2899043D1*
X-28045Y2897543D1*
X-28772Y2896043D1*
X-29339Y2894543D1*
X-29680Y2893043D1*
X-29851Y2891543D1*
X-29926Y2890043D1*
X-29957Y2888543D1*
X-29969Y2887043D1*
X-29973Y2885543D1*
X-29974Y2884043D1*
X-29975Y2882543D1*
Y2881043D1*
Y2879543D1*
X-29969Y2878043D1*
X-29916Y2876543D1*
X-29719Y2875043D1*
X-29307Y2873543D1*
X-28726Y2872043D1*
X-28052Y2870543D1*
X-27332Y2869043D1*
X-26583Y2867543D1*
X-25730Y2866043D1*
X-24589Y2864543D1*
X-23008Y2863043D1*
X-21032Y2861543D1*
X-18622Y2860043D1*
X-15558Y2858543D1*
X-11734Y2857043D1*
X-7475Y2855543D1*
X12025Y2912543D2*
X17558Y2911043D1*
X22099Y2909543D1*
X25613Y2908043D1*
X28363Y2906543D1*
X30485Y2905043D1*
X32058Y2903543D1*
X33329Y2902043D1*
X34459Y2900543D1*
X35437Y2899043D1*
X36252Y2897543D1*
X36860Y2896043D1*
X37225Y2894543D1*
X37455Y2893043D1*
X37725Y2891543D1*
X38115Y2890043D1*
X38512Y2888543D1*
X38778Y2887043D1*
X38919Y2885543D1*
X38983Y2884043D1*
X39003Y2882543D1*
X38961Y2881043D1*
X38773Y2879543D1*
X38415Y2878043D1*
X38025Y2876543D1*
X37711Y2875043D1*
X37375Y2873543D1*
X36899Y2872043D1*
X36291Y2870543D1*
X35602Y2869043D1*
X34825Y2867543D1*
X33883Y2866043D1*
X32671Y2864543D1*
X31139Y2863043D1*
X29233Y2861543D1*
X26823Y2860043D1*
X23632Y2858543D1*
X19558Y2857043D1*
X15025Y2855543D1*
X-5975Y2902043D2*
X-10117Y2900543D1*
X-13744Y2899043D1*
X-16631Y2897543D1*
X-18828Y2896043D1*
X-20481Y2894543D1*
X-21711Y2893043D1*
X-22634Y2891543D1*
X-23285Y2890043D1*
X-23660Y2888543D1*
X-23844Y2887043D1*
X-23924Y2885543D1*
X-23956Y2884043D1*
X-23963Y2882543D1*
X-23914Y2881043D1*
X-23719Y2879543D1*
X-23301Y2878043D1*
X-22667Y2876543D1*
X-21797Y2875043D1*
X-20652Y2873543D1*
X-19187Y2872043D1*
X-16945Y2870543D1*
X-12726Y2869043D1*
X-5076Y2867543D1*
X6266Y2866043D1*
X19525Y2864543D1*
X13525Y2902043D2*
X17724Y2900543D1*
X21537Y2899043D1*
X24737Y2897543D1*
X27175Y2896043D1*
X28868Y2894543D1*
X30021Y2893043D1*
X30778Y2891543D1*
X31245Y2890043D1*
X31635Y2888543D1*
X32074Y2887043D1*
X32440Y2885543D1*
X32523Y2884043D1*
X32308Y2882543D1*
X31983Y2881043D1*
X31695Y2879543D1*
X31369Y2878043D1*
X30892Y2876543D1*
X30226Y2875043D1*
X29282Y2873543D1*
X27814Y2872043D1*
X25371Y2870543D1*
X21064Y2869043D1*
X13775Y2867543D1*
X3253Y2866043D1*
X-8975Y2864543D1*
X-19475Y2842043D2*
X-21667Y2840543D1*
X-23592Y2839043D1*
X-25252Y2837543D1*
X-26605Y2836043D1*
X-27587Y2834543D1*
X-28300Y2833043D1*
X-28909Y2831543D1*
X-29401Y2830043D1*
X-29706Y2828543D1*
X-29861Y2827043D1*
X-29930Y2825543D1*
X-29958Y2824043D1*
X-29969Y2822543D1*
X-29973Y2821043D1*
X-29974Y2819543D1*
X-29975Y2818043D1*
Y2816543D1*
Y2815043D1*
Y2813543D1*
X-29969Y2812043D1*
X-29916Y2810543D1*
X-29725Y2809043D1*
X-29366Y2807543D1*
X-28981Y2806043D1*
X-28714Y2804543D1*
X-28518Y2803043D1*
X-28222Y2801543D1*
X-27682Y2800043D1*
X-26975Y2798543D1*
X-8975Y2842043D2*
X-6726Y2840543D1*
X-4608Y2839043D1*
X-2584Y2837543D1*
X-793Y2836043D1*
X648Y2834543D1*
X1912Y2833043D1*
X3166Y2831543D1*
X4364Y2830043D1*
X5446Y2828543D1*
X6486Y2827043D1*
X7525Y2825543D1*
X8517Y2824043D1*
X9515Y2822543D1*
X10536Y2821043D1*
X11527Y2819543D1*
X12575Y2818043D1*
X13786Y2816543D1*
X15142Y2815043D1*
X16645Y2813543D1*
X18481Y2812043D1*
X21038Y2810543D1*
X24519Y2809043D1*
X28525Y2807543D1*
X31525Y2839043D2*
Y2837543D1*
Y2836043D1*
Y2834543D1*
Y2833043D1*
X31531Y2831543D1*
X31584Y2830043D1*
X31775Y2828543D1*
X32134Y2827043D1*
X32519Y2825543D1*
X32774Y2824043D1*
X32861Y2822543D1*
X32733Y2821043D1*
X32400Y2819543D1*
X32020Y2818043D1*
X31709Y2816543D1*
X31369Y2815043D1*
X30817Y2813543D1*
X30045Y2812043D1*
X27912Y2810543D1*
X24770Y2809043D1*
X21025Y2807543D1*
X37525Y2839043D2*
Y2837543D1*
X37531Y2836043D1*
X37584Y2834543D1*
X37775Y2833043D1*
X38134Y2831543D1*
X38519Y2830043D1*
X38780Y2828543D1*
X38919Y2827043D1*
X38983Y2825543D1*
X39009Y2824043D1*
X39019Y2822543D1*
X39017Y2821043D1*
X38966Y2819543D1*
X38775Y2818043D1*
X38416Y2816543D1*
X38031Y2815043D1*
X37764Y2813543D1*
X37572Y2812043D1*
X37311Y2810543D1*
X36873Y2809043D1*
X36281Y2807543D1*
X35592Y2806043D1*
X34765Y2804543D1*
X33638Y2803043D1*
X32108Y2801543D1*
X30341Y2800043D1*
X28525Y2798543D1*
X-14975Y2833043D2*
X-17623Y2831543D1*
X-19802Y2830043D1*
X-21387Y2828543D1*
X-22496Y2827043D1*
X-23230Y2825543D1*
X-23640Y2824043D1*
X-23837Y2822543D1*
X-23922Y2821043D1*
X-23955Y2819543D1*
X-23968Y2818043D1*
X-23973Y2816543D1*
X-23974Y2815043D1*
X-23969Y2813543D1*
X-23916Y2812043D1*
X-23725Y2810543D1*
X-23366Y2809043D1*
X-22976Y2807543D1*
X-22661Y2806043D1*
X-22330Y2804543D1*
X-21894Y2803043D1*
X-21421Y2801543D1*
X-20975Y2800043D1*
X-25475Y2798543D1*
X-16475Y2833043D2*
X-13770Y2831543D1*
X-11393Y2830043D1*
X-9390Y2828543D1*
X-7647Y2827043D1*
X-6047Y2825543D1*
X-4558Y2824043D1*
X-3233Y2822543D1*
X-2093Y2821043D1*
X-1028Y2819543D1*
X20Y2818043D1*
X1016Y2816543D1*
X2015Y2815043D1*
X3036Y2813543D1*
X4027Y2812043D1*
X5075Y2810543D1*
X6286Y2809043D1*
X7636Y2807543D1*
X9069Y2806043D1*
X10547Y2804543D1*
X12094Y2803043D1*
X13822Y2801543D1*
X15833Y2800043D1*
X18025Y2798543D1*
X-28475Y2756543D2*
Y2755043D1*
Y2753543D1*
Y2752043D1*
Y2750543D1*
Y2749043D1*
Y2747543D1*
Y2746043D1*
Y2744543D1*
Y2743043D1*
Y2741543D1*
Y2740043D1*
Y2738543D1*
Y2737043D1*
Y2735543D1*
Y2734043D1*
Y2732543D1*
X-28469Y2731043D1*
X-28416Y2729543D1*
X-28219Y2728043D1*
X-27807Y2726543D1*
X-27226Y2725043D1*
X-26541Y2723543D1*
X-25697Y2722043D1*
X-24666Y2720543D1*
X-22241Y2719043D1*
X-18886Y2717543D1*
X-14975Y2716043D1*
X-22475Y2756543D2*
Y2755043D1*
Y2753543D1*
Y2752043D1*
Y2750543D1*
Y2749043D1*
Y2747543D1*
Y2746043D1*
Y2744543D1*
Y2743043D1*
Y2741543D1*
Y2740043D1*
Y2738543D1*
Y2737043D1*
X-22469Y2735543D1*
X-22411Y2734043D1*
X-22161Y2732543D1*
X-21552Y2731043D1*
X-20560Y2729543D1*
X-19316Y2728043D1*
X-17975Y2726543D1*
X31525Y2756543D2*
Y2755043D1*
Y2753543D1*
Y2752043D1*
Y2750543D1*
Y2749043D1*
Y2747543D1*
Y2746043D1*
Y2744543D1*
Y2743043D1*
Y2741543D1*
Y2740043D1*
Y2738543D1*
Y2737043D1*
Y2735543D1*
Y2734043D1*
Y2732543D1*
Y2731043D1*
Y2729543D1*
Y2728043D1*
Y2726543D1*
X37525Y2756543D2*
Y2755043D1*
Y2753543D1*
Y2752043D1*
Y2750543D1*
Y2749043D1*
Y2747543D1*
Y2746043D1*
Y2744543D1*
Y2743043D1*
Y2741543D1*
Y2740043D1*
Y2738543D1*
Y2737043D1*
Y2735543D1*
Y2734043D1*
Y2732543D1*
Y2731043D1*
Y2729543D1*
Y2728043D1*
Y2726543D1*
Y2725043D1*
Y2723543D1*
Y2722043D1*
Y2720543D1*
Y2719043D1*
Y2717543D1*
Y2716043D1*
X3025Y2753543D2*
Y2752043D1*
Y2750543D1*
Y2749043D1*
Y2747543D1*
Y2746043D1*
Y2744543D1*
Y2743043D1*
Y2741543D1*
Y2740043D1*
Y2738543D1*
Y2737043D1*
Y2735543D1*
Y2734043D1*
Y2732543D1*
Y2731043D1*
Y2729543D1*
Y2728043D1*
Y2726543D1*
X9025Y2753543D2*
Y2752043D1*
Y2750543D1*
Y2749043D1*
Y2747543D1*
Y2746043D1*
Y2744543D1*
Y2743043D1*
Y2741543D1*
Y2740043D1*
Y2738543D1*
Y2737043D1*
Y2735543D1*
Y2734043D1*
Y2732543D1*
Y2731043D1*
Y2729543D1*
Y2728043D1*
Y2726543D1*
X33025Y2705543D2*
X26627Y2704043D1*
X20825Y2702543D1*
X15657Y2701043D1*
X11014Y2699543D1*
X6788Y2698043D1*
X2865Y2696543D1*
X-791Y2695043D1*
X-4219Y2693543D1*
X-7594Y2692043D1*
X-11033Y2690543D1*
X-14450Y2689043D1*
X-17718Y2687543D1*
X-20797Y2686043D1*
X-23554Y2684543D1*
X-25722Y2683043D1*
X-27376Y2681543D1*
X-27946Y2680043D1*
X-28251Y2678543D1*
X-28388Y2677043D1*
X-28437Y2675543D1*
X-28388Y2674043D1*
X-28221Y2672543D1*
X-27306Y2671043D1*
X-25048Y2669543D1*
X-22157Y2668043D1*
X-18813Y2666543D1*
X-15189Y2665043D1*
X-11365Y2663543D1*
X-7418Y2662043D1*
X-3462Y2660543D1*
X523Y2659043D1*
X4538Y2657543D1*
X8522Y2656043D1*
X12517Y2654543D1*
X16536Y2653043D1*
X20522Y2651543D1*
X24512Y2650043D1*
X28490Y2648543D1*
X32320Y2647043D1*
X36025Y2645543D1*
X37525Y2705543D2*
Y2704043D1*
Y2702543D1*
X37501Y2701043D1*
X37431Y2699543D1*
X36681Y2698043D1*
X33706Y2696543D1*
X29343Y2695043D1*
X24165Y2693543D1*
X18935Y2692043D1*
X14009Y2690543D1*
X9461Y2689043D1*
X5269Y2687543D1*
X1353Y2686043D1*
X-2346Y2684543D1*
X-5911Y2683043D1*
X-9453Y2681543D1*
X-12922Y2680043D1*
X-16239Y2678543D1*
X-19475Y2677043D1*
X-15488Y2675543D1*
X-11440Y2674043D1*
X-7277Y2672543D1*
X-3115Y2671043D1*
X953Y2669543D1*
X4989Y2668043D1*
X9026Y2666543D1*
X13018Y2665043D1*
X17015Y2663543D1*
X21036Y2662043D1*
X25010Y2660543D1*
X28882Y2659043D1*
X32344Y2657543D1*
X35257Y2656043D1*
X36610Y2654543D1*
X37098Y2653043D1*
X37350Y2651543D1*
X37459Y2650043D1*
X37501Y2648543D1*
X37517Y2647043D1*
X37525Y2645543D1*
X-28475Y2633543D2*
Y2632043D1*
Y2630543D1*
Y2629043D1*
Y2627543D1*
Y2626043D1*
Y2624543D1*
X37525Y2633543D2*
Y2632043D1*
Y2630543D1*
Y2629043D1*
Y2627543D1*
Y2626043D1*
Y2624543D1*
X31525Y2611043D2*
Y2609543D1*
Y2608043D1*
Y2606543D1*
Y2605043D1*
Y2603543D1*
Y2602043D1*
Y2600543D1*
Y2599043D1*
Y2597543D1*
Y2596043D1*
Y2594543D1*
Y2593043D1*
Y2591543D1*
Y2590043D1*
Y2588543D1*
X37525Y2611043D2*
Y2609543D1*
Y2608043D1*
Y2606543D1*
Y2605043D1*
Y2603543D1*
Y2602043D1*
Y2600543D1*
Y2599043D1*
Y2597543D1*
Y2596043D1*
Y2594543D1*
Y2593043D1*
Y2591543D1*
Y2590043D1*
Y2588543D1*
Y2587043D1*
Y2585543D1*
Y2584043D1*
Y2582543D1*
Y2581043D1*
Y2579543D1*
Y2578043D1*
Y2576543D1*
Y2575043D1*
Y2573543D1*
Y2572043D1*
Y2570543D1*
Y2569043D1*
Y2567543D1*
Y2566043D1*
Y2564543D1*
Y2563043D1*
Y2561543D1*
Y2560043D1*
Y2558543D1*
Y2557043D1*
X-28475Y2588543D2*
Y2587043D1*
Y2585543D1*
Y2584043D1*
Y2582543D1*
Y2581043D1*
Y2579543D1*
X31525D2*
Y2578043D1*
Y2576543D1*
Y2575043D1*
Y2573543D1*
Y2572043D1*
Y2570543D1*
Y2569043D1*
Y2567543D1*
Y2566043D1*
Y2564543D1*
Y2563043D1*
Y2561543D1*
Y2560043D1*
Y2558543D1*
Y2557043D1*
X-28475Y2543543D2*
Y2542043D1*
Y2540543D1*
Y2539043D1*
Y2537543D1*
Y2536043D1*
Y2534543D1*
X37525Y2543543D2*
Y2542043D1*
Y2540543D1*
Y2539043D1*
Y2537543D1*
Y2536043D1*
Y2534543D1*
X-28475Y2518043D2*
X-28988Y2516543D1*
X-29434Y2515043D1*
X-29719Y2513543D1*
X-29866Y2512043D1*
X-29932Y2510543D1*
X-29959Y2509043D1*
X-29969Y2507543D1*
X-29973Y2506043D1*
X-29974Y2504543D1*
X-29975Y2503043D1*
Y2501543D1*
Y2500043D1*
Y2498543D1*
Y2497043D1*
X-29969Y2495543D1*
X-29916Y2494043D1*
X-29725Y2492543D1*
X-29360Y2491043D1*
X-28923Y2489543D1*
X-28464Y2488043D1*
X-27907Y2486543D1*
X-27215Y2485043D1*
X-26365Y2483543D1*
X-25361Y2482043D1*
X-24200Y2480543D1*
X-22745Y2479043D1*
X-20892Y2477543D1*
X-18559Y2476043D1*
X-15531Y2474543D1*
X-11725Y2473043D1*
X-7475Y2471543D1*
X-23975Y2518043D2*
X-23340Y2516543D1*
X-22952Y2515043D1*
X-23205Y2513543D1*
X-23521Y2512043D1*
X-23751Y2510543D1*
X-23877Y2509043D1*
X-23936Y2507543D1*
X-23960Y2506043D1*
X-23970Y2504543D1*
X-23973Y2503043D1*
X-23974Y2501543D1*
X-23975Y2500043D1*
X-23969Y2498543D1*
X-23916Y2497043D1*
X-23719Y2495543D1*
X-23302Y2494043D1*
X-22667Y2492543D1*
X-21797Y2491043D1*
X-20652Y2489543D1*
X-19187Y2488043D1*
X-16945Y2486543D1*
X-12726Y2485043D1*
X-5076Y2483543D1*
X6266Y2482043D1*
X19525Y2480543D1*
X36025Y2518043D2*
X30025Y2516543D1*
X30717Y2515043D1*
X31148Y2513543D1*
X31366Y2512043D1*
X31469Y2510543D1*
X31561Y2509043D1*
X31767Y2507543D1*
X32131Y2506043D1*
X32518Y2504543D1*
X32774Y2503043D1*
X32861Y2501543D1*
X32733Y2500043D1*
X32400Y2498543D1*
X32020Y2497043D1*
X31709Y2495543D1*
X31374Y2494043D1*
X30893Y2492543D1*
X30227Y2491043D1*
X29282Y2489543D1*
X27814Y2488043D1*
X25371Y2486543D1*
X21064Y2485043D1*
X13775Y2483543D1*
X3253Y2482043D1*
X-8975Y2480543D1*
X37525Y2518043D2*
Y2516543D1*
X37531Y2515043D1*
X37584Y2513543D1*
X37775Y2512043D1*
X38134Y2510543D1*
X38519Y2509043D1*
X38780Y2507543D1*
X38919Y2506043D1*
X38983Y2504543D1*
X39009Y2503043D1*
X39019Y2501543D1*
X39017Y2500043D1*
X38966Y2498543D1*
X38775Y2497043D1*
X38416Y2495543D1*
X38031Y2494043D1*
X37764Y2492543D1*
X37572Y2491043D1*
X37311Y2489543D1*
X36873Y2488043D1*
X36281Y2486543D1*
X35598Y2485043D1*
X34823Y2483543D1*
X33889Y2482043D1*
X32724Y2480543D1*
X31330Y2479043D1*
X29592Y2477543D1*
X27207Y2476043D1*
X23891Y2474543D1*
X19680Y2473043D1*
X15025Y2471543D1*
X-28475Y2455043D2*
Y2453543D1*
Y2452043D1*
Y2450543D1*
Y2449043D1*
Y2447543D1*
Y2446043D1*
X24025Y2455043D2*
X26730Y2453543D1*
X29107Y2452043D1*
X31104Y2450543D1*
X32789Y2449043D1*
X34150Y2447543D1*
X35136Y2446043D1*
X35849Y2444543D1*
X36459Y2443043D1*
X36957Y2441543D1*
X37314Y2440043D1*
X37660Y2438543D1*
X38089Y2437043D1*
X38502Y2435543D1*
X38774Y2434043D1*
X38917Y2432543D1*
X38982Y2431043D1*
X39003Y2429543D1*
X38961Y2428043D1*
X38773Y2426543D1*
X38415Y2425043D1*
X38025Y2423543D1*
X37711Y2422043D1*
X37381Y2420543D1*
X36952Y2419043D1*
X36483Y2417543D1*
X35961Y2416043D1*
X35209Y2414543D1*
X34145Y2413043D1*
X32799Y2411543D1*
X31087Y2410043D1*
X28790Y2408543D1*
X25833Y2407043D1*
X22525Y2405543D1*
X-2975Y2446043D2*
Y2444543D1*
Y2443043D1*
Y2441543D1*
Y2440043D1*
Y2438543D1*
Y2437043D1*
Y2435543D1*
Y2434043D1*
Y2432543D1*
Y2431043D1*
Y2429543D1*
Y2428043D1*
Y2426543D1*
Y2425043D1*
Y2423543D1*
Y2422043D1*
Y2420543D1*
Y2419043D1*
Y2417543D1*
Y2416043D1*
Y2414543D1*
X3025Y2446043D2*
Y2444543D1*
Y2443043D1*
Y2441543D1*
Y2440043D1*
Y2438543D1*
Y2437043D1*
Y2435543D1*
Y2434043D1*
Y2432543D1*
Y2431043D1*
Y2429543D1*
Y2428043D1*
Y2426543D1*
Y2425043D1*
Y2423543D1*
Y2422043D1*
Y2420543D1*
Y2419043D1*
Y2417543D1*
Y2416043D1*
Y2414543D1*
X18025Y2446043D2*
X21929Y2444543D1*
X25131Y2443043D1*
X27439Y2441543D1*
X29008Y2440043D1*
X30091Y2438543D1*
X30857Y2437043D1*
X31447Y2435543D1*
X31998Y2434043D1*
X32460Y2432543D1*
X32702Y2431043D1*
X32663Y2429543D1*
X32366Y2428043D1*
X31956Y2426543D1*
X31508Y2425043D1*
X30955Y2423543D1*
X30247Y2422043D1*
X29233Y2420543D1*
X27592Y2419043D1*
X25062Y2417543D1*
X21725Y2416043D1*
X18025Y2414543D1*
X-28475D2*
Y2413043D1*
Y2411543D1*
Y2410043D1*
Y2408543D1*
Y2407043D1*
Y2405543D1*
X10525Y2389043D2*
X7127Y2387543D1*
X4325Y2386043D1*
X2157Y2384543D1*
X514Y2383043D1*
X-718Y2381543D1*
X-1694Y2380043D1*
X-2535Y2378543D1*
X-3269Y2377043D1*
X-3837Y2375543D1*
X-4179Y2374043D1*
X-4351Y2372543D1*
X-4426Y2371043D1*
X-4457Y2369543D1*
X-4469Y2368043D1*
X-4473Y2366543D1*
X-4474Y2365043D1*
X-4475Y2363543D1*
Y2362043D1*
Y2360543D1*
Y2359043D1*
Y2357543D1*
Y2356043D1*
Y2354543D1*
Y2353043D1*
Y2351543D1*
X22525Y2389043D2*
X25917Y2387543D1*
X28672Y2386043D1*
X30695Y2384543D1*
X32124Y2383043D1*
X33187Y2381543D1*
X34064Y2380043D1*
X34812Y2378543D1*
X35385Y2377043D1*
X35734Y2375543D1*
X35959Y2374043D1*
X36226Y2372543D1*
X36616Y2371043D1*
X37012Y2369543D1*
X37278Y2368043D1*
X37419Y2366543D1*
X37483Y2365043D1*
X37509Y2363543D1*
X37519Y2362043D1*
X37523Y2360543D1*
X37524Y2359043D1*
X37525Y2357543D1*
Y2356043D1*
Y2354543D1*
Y2353043D1*
Y2351543D1*
Y2350043D1*
Y2348543D1*
Y2347043D1*
Y2345543D1*
Y2344043D1*
Y2342543D1*
X16525Y2380043D2*
X12389Y2378543D1*
X8815Y2377043D1*
X6119Y2375543D1*
X4287Y2374043D1*
X3071Y2372543D1*
X2294Y2371043D1*
X1869Y2369543D1*
X1666Y2368043D1*
X1579Y2366543D1*
X1545Y2365043D1*
X1532Y2363543D1*
X1527Y2362043D1*
X1526Y2360543D1*
X1525Y2359043D1*
Y2357543D1*
Y2356043D1*
Y2354543D1*
Y2353043D1*
Y2351543D1*
X16525Y2380043D2*
X20435Y2378543D1*
X23684Y2377043D1*
X26130Y2375543D1*
X27868Y2374043D1*
X29163Y2372543D1*
X29665Y2371043D1*
X30097Y2369543D1*
X30565Y2368043D1*
X30993Y2366543D1*
X31271Y2365043D1*
X31416Y2363543D1*
X31482Y2362043D1*
X31509Y2360543D1*
X31519Y2359043D1*
X31523Y2357543D1*
X31524Y2356043D1*
X31525Y2354543D1*
Y2353043D1*
Y2351543D1*
X-28475D2*
Y2350043D1*
Y2348543D1*
Y2347043D1*
Y2345543D1*
Y2344043D1*
Y2342543D1*
Y2321543D2*
Y2320043D1*
Y2318543D1*
Y2317043D1*
Y2315543D1*
Y2314043D1*
Y2312543D1*
X24025Y2321543D2*
X26730Y2320043D1*
X29107Y2318543D1*
X31104Y2317043D1*
X32789Y2315543D1*
X34150Y2314043D1*
X35136Y2312543D1*
X35849Y2311043D1*
X36459Y2309543D1*
X36957Y2308043D1*
X37314Y2306543D1*
X37660Y2305043D1*
X38089Y2303543D1*
X38502Y2302043D1*
X38774Y2300543D1*
X38917Y2299043D1*
X38982Y2297543D1*
X39003Y2296043D1*
X38961Y2294543D1*
X38773Y2293043D1*
X38415Y2291543D1*
X38025Y2290043D1*
X37711Y2288543D1*
X37381Y2287043D1*
X36952Y2285543D1*
X36483Y2284043D1*
X35961Y2282543D1*
X35209Y2281043D1*
X34145Y2279543D1*
X32799Y2278043D1*
X31087Y2276543D1*
X28790Y2275043D1*
X25833Y2273543D1*
X22525Y2272043D1*
X-2975Y2312543D2*
Y2311043D1*
Y2309543D1*
Y2308043D1*
Y2306543D1*
Y2305043D1*
Y2303543D1*
Y2302043D1*
Y2300543D1*
Y2299043D1*
Y2297543D1*
Y2296043D1*
Y2294543D1*
Y2293043D1*
Y2291543D1*
Y2290043D1*
Y2288543D1*
Y2287043D1*
Y2285543D1*
Y2284043D1*
Y2282543D1*
Y2281043D1*
X3025Y2312543D2*
Y2311043D1*
Y2309543D1*
Y2308043D1*
Y2306543D1*
Y2305043D1*
Y2303543D1*
Y2302043D1*
Y2300543D1*
Y2299043D1*
Y2297543D1*
Y2296043D1*
Y2294543D1*
Y2293043D1*
Y2291543D1*
Y2290043D1*
Y2288543D1*
Y2287043D1*
Y2285543D1*
Y2284043D1*
Y2282543D1*
Y2281043D1*
X18025Y2312543D2*
X21929Y2311043D1*
X25131Y2309543D1*
X27439Y2308043D1*
X29008Y2306543D1*
X30091Y2305043D1*
X30857Y2303543D1*
X31447Y2302043D1*
X31998Y2300543D1*
X32460Y2299043D1*
X32702Y2297543D1*
X32663Y2296043D1*
X32366Y2294543D1*
X31956Y2293043D1*
X31508Y2291543D1*
X30955Y2290043D1*
X30247Y2288543D1*
X29233Y2287043D1*
X27592Y2285543D1*
X25062Y2284043D1*
X21725Y2282543D1*
X18025Y2281043D1*
X-28475D2*
Y2279543D1*
Y2278043D1*
Y2276543D1*
Y2275043D1*
Y2273543D1*
Y2272043D1*
Y2257043D2*
X-28988Y2255543D1*
X-29434Y2254043D1*
X-29719Y2252543D1*
X-29866Y2251043D1*
X-29932Y2249543D1*
X-29959Y2248043D1*
X-29969Y2246543D1*
X-29973Y2245043D1*
X-29974Y2243543D1*
X-29975Y2242043D1*
Y2240543D1*
Y2239043D1*
Y2237543D1*
Y2236043D1*
X-29969Y2234543D1*
X-29916Y2233043D1*
X-29725Y2231543D1*
X-29360Y2230043D1*
X-28923Y2228543D1*
X-28464Y2227043D1*
X-27907Y2225543D1*
X-27215Y2224043D1*
X-26365Y2222543D1*
X-25361Y2221043D1*
X-24200Y2219543D1*
X-22747Y2218043D1*
X-20921Y2216543D1*
X-18783Y2215043D1*
X-16475Y2213543D1*
X-23975Y2257043D2*
X-23340Y2255543D1*
X-22952Y2254043D1*
X-23205Y2252543D1*
X-23521Y2251043D1*
X-23751Y2249543D1*
X-23877Y2248043D1*
X-23936Y2246543D1*
X-23960Y2245043D1*
X-23970Y2243543D1*
X-23973Y2242043D1*
X-23974Y2240543D1*
X-23975Y2239043D1*
X-23969Y2237543D1*
X-23916Y2236043D1*
X-23719Y2234543D1*
X-23302Y2233043D1*
X-22667Y2231543D1*
X-21797Y2230043D1*
X-20652Y2228543D1*
X-19187Y2227043D1*
X-16945Y2225543D1*
X-12726Y2224043D1*
X-5076Y2222543D1*
X6266Y2221043D1*
X19525Y2219543D1*
X36025Y2257043D2*
X30025Y2255543D1*
X30717Y2254043D1*
X31148Y2252543D1*
X31366Y2251043D1*
X31469Y2249543D1*
X31561Y2248043D1*
X31767Y2246543D1*
X32131Y2245043D1*
X32518Y2243543D1*
X32774Y2242043D1*
X32861Y2240543D1*
X32733Y2239043D1*
X32400Y2237543D1*
X32020Y2236043D1*
X31709Y2234543D1*
X31374Y2233043D1*
X30893Y2231543D1*
X30227Y2230043D1*
X29282Y2228543D1*
X27814Y2227043D1*
X25371Y2225543D1*
X21064Y2224043D1*
X13775Y2222543D1*
X3253Y2221043D1*
X-8975Y2219543D1*
X37525Y2257043D2*
Y2255543D1*
X37531Y2254043D1*
X37584Y2252543D1*
X37775Y2251043D1*
X38134Y2249543D1*
X38519Y2248043D1*
X38780Y2246543D1*
X38919Y2245043D1*
X38983Y2243543D1*
X39009Y2242043D1*
X39019Y2240543D1*
X39017Y2239043D1*
X38966Y2237543D1*
X38775Y2236043D1*
X38416Y2234543D1*
X38031Y2233043D1*
X37764Y2231543D1*
X37572Y2230043D1*
X37311Y2228543D1*
X36873Y2227043D1*
X36281Y2225543D1*
X35598Y2224043D1*
X34823Y2222543D1*
X33889Y2221043D1*
X32724Y2219543D1*
X31338Y2218043D1*
X29682Y2216543D1*
X27700Y2215043D1*
X25525Y2213543D1*
X-75315Y1793575D2*
X-76814Y1790575D1*
X-78060Y1787575D1*
X-79215Y1784575D1*
X-80178Y1781575D1*
X-80791Y1778575D1*
X-81205Y1775575D1*
X-81725Y1772575D1*
X-82500Y1769575D1*
X-83302Y1766575D1*
X-83939Y1763575D1*
X-84602Y1760575D1*
X-85448Y1757575D1*
X-86271Y1754575D1*
X-86826Y1751575D1*
X-87217Y1748575D1*
X-87729Y1745575D1*
X-88501Y1742575D1*
X-89302Y1739575D1*
X-89939Y1736575D1*
X-90602Y1733575D1*
X-91448Y1730575D1*
X-92271Y1727575D1*
X-92826Y1724575D1*
X-93217Y1721575D1*
X-93729Y1718575D1*
X-94501Y1715575D1*
X-95302Y1712575D1*
X-95939Y1709575D1*
X-96602Y1706575D1*
X-97448Y1703575D1*
X-98271Y1700575D1*
X-98826Y1697575D1*
X-99217Y1694575D1*
X-99729Y1691575D1*
X-100560Y1688575D1*
X-101888Y1685575D1*
X-103779Y1682575D1*
X-108528Y1679575D1*
X-113343Y1676575D1*
X-117375Y1673575D1*
X-118895Y1670575D1*
X-119714Y1667575D1*
X-120081Y1664575D1*
X-120229Y1661575D1*
X-120285Y1658575D1*
X-120305Y1655575D1*
X-120312Y1652575D1*
X-120314Y1649575D1*
X-120315Y1646575D1*
Y1643575D1*
Y1640575D1*
Y1637575D1*
Y1634575D1*
Y1631575D1*
Y1628575D1*
Y1625575D1*
X-120303Y1622575D1*
X-120189Y1619575D1*
X-119725Y1616575D1*
X-118700Y1613575D1*
X-117315Y1610575D1*
X83685Y1793575D2*
X86095Y1790575D1*
X87850Y1787575D1*
X88866Y1784575D1*
X89459Y1781575D1*
X90052Y1778575D1*
X90855Y1775575D1*
X91667Y1772575D1*
X92307Y1769575D1*
X92971Y1766575D1*
X93818Y1763575D1*
X94641Y1760575D1*
X95196Y1757575D1*
X95587Y1754575D1*
X96099Y1751575D1*
X96871Y1748575D1*
X97673Y1745575D1*
X98309Y1742575D1*
X98972Y1739575D1*
X99819Y1736575D1*
X100641Y1733575D1*
X101196Y1730575D1*
X101587Y1727575D1*
X102099Y1724575D1*
X102871Y1721575D1*
X103673Y1718575D1*
X104309Y1715575D1*
X104972Y1712575D1*
X105819Y1709575D1*
X106641Y1706575D1*
X107196Y1703575D1*
X107587Y1700575D1*
X108099Y1697575D1*
X108871Y1694575D1*
X109661Y1691575D1*
X110192Y1688575D1*
X110473Y1685575D1*
X110606Y1682575D1*
X110685Y1679575D1*
X119098Y1676575D1*
X125916Y1673575D1*
X129241Y1670575D1*
X130523Y1667575D1*
X131199Y1664575D1*
X131498Y1661575D1*
X131617Y1658575D1*
X131661Y1655575D1*
X131677Y1652575D1*
X131682Y1649575D1*
X131684Y1646575D1*
X131685Y1643575D1*
Y1640575D1*
Y1637575D1*
Y1634575D1*
Y1631575D1*
Y1628575D1*
X131673Y1625575D1*
X131556Y1622575D1*
X131057Y1619575D1*
X129850Y1616575D1*
X127931Y1613575D1*
X125685Y1610575D1*
X-66315Y1775575D2*
X-66327Y1772575D1*
X-66432Y1769575D1*
X-66814Y1766575D1*
X-67533Y1763575D1*
X-68302Y1760575D1*
X-68825Y1757575D1*
X-69115Y1754575D1*
X-69348Y1751575D1*
X-69783Y1748575D1*
X-70522Y1745575D1*
X-71310Y1742575D1*
X-71941Y1739575D1*
X-72603Y1736575D1*
X-73449Y1733575D1*
X-74271Y1730575D1*
X-74826Y1727575D1*
X-75217Y1724575D1*
X-75729Y1721575D1*
X-76501Y1718575D1*
X-77291Y1715575D1*
X-77833Y1712575D1*
X-78219Y1709575D1*
X-78730Y1706575D1*
X-79501Y1703575D1*
X-80303Y1700575D1*
X-80939Y1697575D1*
X-81602Y1694575D1*
X-82448Y1691575D1*
X-83271Y1688575D1*
X-83814Y1685575D1*
X-84100Y1682575D1*
X-84235Y1679575D1*
X-84315Y1676575D1*
X74685Y1775575D2*
X75149Y1772575D1*
X75892Y1769575D1*
X76669Y1766575D1*
X77195Y1763575D1*
X77485Y1760575D1*
X77718Y1757575D1*
X78153Y1754575D1*
X78892Y1751575D1*
X79680Y1748575D1*
X80311Y1745575D1*
X80973Y1742575D1*
X81819Y1739575D1*
X82641Y1736575D1*
X83196Y1733575D1*
X83587Y1730575D1*
X84099Y1727575D1*
X84871Y1724575D1*
X85673Y1721575D1*
X86309Y1718575D1*
X86972Y1715575D1*
X87819Y1712575D1*
X88641Y1709575D1*
X89196Y1706575D1*
X89587Y1703575D1*
X90099Y1700575D1*
X90871Y1697575D1*
X91661Y1694575D1*
X92203Y1691575D1*
X92601Y1688575D1*
X93228Y1685575D1*
X94489Y1682575D1*
X96428Y1679575D1*
X98685Y1676575D1*
X-105315Y1661575D2*
Y1658575D1*
Y1655575D1*
Y1652575D1*
Y1649575D1*
Y1646575D1*
Y1643575D1*
Y1640575D1*
Y1637575D1*
Y1634575D1*
Y1631575D1*
Y1628575D1*
Y1625575D1*
X113685Y1661575D2*
Y1658575D1*
Y1655575D1*
Y1652575D1*
Y1649575D1*
Y1646575D1*
Y1643575D1*
Y1640575D1*
Y1637575D1*
Y1634575D1*
Y1631575D1*
Y1628575D1*
Y1625575D1*
X-3315Y1610575D2*
Y1607575D1*
X-3327Y1604575D1*
X-3432Y1601575D1*
X-3814Y1598575D1*
X-4545Y1595575D1*
X-5419Y1592575D1*
X-6337Y1589575D1*
X-7451Y1586575D1*
X-8835Y1583575D1*
X-10523Y1580575D1*
X-12426Y1577575D1*
X-14353Y1574575D1*
X-16428Y1571575D1*
X-18841Y1568575D1*
X-21551Y1565575D1*
X-24521Y1562575D1*
X-27859Y1559575D1*
X-31662Y1556575D1*
X-35817Y1553575D1*
X-40174Y1550575D1*
X-44708Y1547575D1*
X-49471Y1544575D1*
X-54406Y1541575D1*
X-59357Y1538575D1*
X-64542Y1535575D1*
X-70352Y1532575D1*
X-76886Y1529575D1*
X-84007Y1526575D1*
X-91564Y1523575D1*
X-99192Y1520575D1*
X-106092Y1517575D1*
X-111597Y1514575D1*
X-116019Y1511575D1*
X-118083Y1508575D1*
X-118207Y1505575D1*
X-117835Y1502575D1*
X-117315Y1499575D1*
X11685Y1610575D2*
Y1607575D1*
Y1604575D1*
Y1601575D1*
Y1598575D1*
Y1595575D1*
X11697Y1592575D1*
X11802Y1589575D1*
X12185Y1586575D1*
X12903Y1583575D1*
X13672Y1580575D1*
X14207Y1577575D1*
X14591Y1574575D1*
X15100Y1571575D1*
X15883Y1568575D1*
X16778Y1565575D1*
X17703Y1562575D1*
X18819Y1559575D1*
X20204Y1556575D1*
X21893Y1553575D1*
X23796Y1550575D1*
X25711Y1547575D1*
X27681Y1544575D1*
X29712Y1541575D1*
X31691Y1538575D1*
X33786Y1535575D1*
X36208Y1532575D1*
X38908Y1529575D1*
X41773Y1526575D1*
X44718Y1523575D1*
X47708Y1520575D1*
X50806Y1517575D1*
X54186Y1514575D1*
X57915Y1511575D1*
X61790Y1508575D1*
X65695Y1505575D1*
X69703Y1502575D1*
X73705Y1499575D1*
X77675Y1496575D1*
X81798Y1493575D1*
X86095Y1490575D1*
X90510Y1487575D1*
X95078Y1484575D1*
X99954Y1481575D1*
X105274Y1478575D1*
X110910Y1475575D1*
X116536Y1472575D1*
X121581Y1469575D1*
X125504Y1466575D1*
X128228Y1463575D1*
X130240Y1460575D1*
X130730Y1457575D1*
X129881Y1454575D1*
X128685Y1451575D1*
X-84315Y1586575D2*
X-96880Y1583575D1*
X-107207Y1580575D1*
X-115403Y1577575D1*
X-121971Y1574575D1*
X-127198Y1571575D1*
X-131384Y1568575D1*
X-134937Y1565575D1*
X-138171Y1562575D1*
X-141263Y1559575D1*
X-144285Y1556575D1*
X-147192Y1553575D1*
X-149813Y1550575D1*
X-152085Y1547575D1*
X-154210Y1544575D1*
X-156293Y1541575D1*
X-158191Y1538575D1*
X-159912Y1535575D1*
X-161606Y1532575D1*
X-163421Y1529575D1*
X-165276Y1526575D1*
X-166830Y1523575D1*
X-168088Y1520575D1*
X-169342Y1517575D1*
X-170682Y1514575D1*
X-172011Y1511575D1*
X-173192Y1508575D1*
X-174235Y1505575D1*
X-175288Y1502575D1*
X-176218Y1499575D1*
X-176907Y1496575D1*
X-177590Y1493575D1*
X-178445Y1490575D1*
X-179258Y1487575D1*
X-179673Y1484575D1*
X-179705Y1481575D1*
X-178239Y1478575D1*
X-174104Y1475575D1*
X-168037Y1472575D1*
X-159503Y1469575D1*
X-147943Y1466575D1*
X-133391Y1463575D1*
X-117315Y1460575D1*
X-69315Y1586575D2*
X-56888Y1583575D1*
X-47167Y1580575D1*
X-40573Y1577575D1*
X-35969Y1574575D1*
X-34378Y1571575D1*
X-34076Y1568575D1*
X-35032Y1565575D1*
X-36315Y1562575D1*
X-87315Y1568575D2*
X-95714Y1565575D1*
X-103363Y1562575D1*
X-109973Y1559575D1*
X-115625Y1556575D1*
X-120567Y1553575D1*
X-124910Y1550575D1*
X-128664Y1547575D1*
X-131932Y1544575D1*
X-134712Y1541575D1*
X-137047Y1538575D1*
X-139197Y1535575D1*
X-141289Y1532575D1*
X-143190Y1529575D1*
X-144900Y1526575D1*
X-146501Y1523575D1*
X-148039Y1520575D1*
X-149557Y1517575D1*
X-151061Y1514575D1*
X-152565Y1511575D1*
X-154063Y1508575D1*
X-155554Y1505575D1*
X-156958Y1502575D1*
X-158181Y1499575D1*
X-159321Y1496575D1*
X-160703Y1493575D1*
X-162315Y1490575D1*
X-153881Y1487575D1*
X-143240Y1484575D1*
X-130689Y1481575D1*
X-117315Y1478575D1*
X-69315Y1568575D2*
X-57315Y1565575D1*
X-45315Y1562575D1*
X53685Y1559575D2*
X48505Y1556575D1*
X44426Y1553575D1*
X42799Y1550575D1*
X42468Y1547575D1*
X43412Y1544575D1*
X44685Y1541575D1*
X98685Y1559575D2*
X107084Y1556575D1*
X114721Y1553575D1*
X121226Y1550575D1*
X126495Y1547575D1*
X130719Y1544575D1*
X134293Y1541575D1*
X137535Y1538575D1*
X140631Y1535575D1*
X143666Y1532575D1*
X146667Y1529575D1*
X149566Y1526575D1*
X152185Y1523575D1*
X154455Y1520575D1*
X156581Y1517575D1*
X158675Y1514575D1*
X160667Y1511575D1*
X162665Y1508575D1*
X164695Y1505575D1*
X166561Y1502575D1*
X168169Y1499575D1*
X169478Y1496575D1*
X170586Y1493575D1*
X171764Y1490575D1*
X173084Y1487575D1*
X174494Y1484575D1*
X175947Y1481575D1*
X177337Y1478575D1*
X178545Y1475575D1*
X179599Y1472575D1*
X180668Y1469575D1*
X181693Y1466575D1*
X182659Y1463575D1*
X183679Y1460575D1*
X184595Y1457575D1*
X185280Y1454575D1*
X185961Y1451575D1*
X186815Y1448575D1*
X187639Y1445575D1*
X188184Y1442575D1*
X188470Y1439575D1*
X188588Y1436575D1*
X188501Y1433575D1*
X188175Y1430575D1*
X186252Y1427575D1*
X180706Y1424575D1*
X172625Y1421575D1*
X161869Y1418575D1*
X148846Y1415575D1*
X134685Y1412575D1*
X-6315Y1559575D2*
X-6905Y1556575D1*
X-8138Y1553575D1*
X-10016Y1550575D1*
X-12030Y1547575D1*
X-13601Y1544575D1*
X-14530Y1541575D1*
X-14988Y1538575D1*
X-15188Y1535575D1*
X-15280Y1532575D1*
X-15416Y1529575D1*
X-15809Y1526575D1*
X-16531Y1523575D1*
X-17313Y1520575D1*
X-17942Y1517575D1*
X-18615Y1514575D1*
X-19566Y1511575D1*
X-20782Y1508575D1*
X-22149Y1505575D1*
X-23598Y1502575D1*
X-25087Y1499575D1*
X-26676Y1496575D1*
X-28459Y1493575D1*
X-30402Y1490575D1*
X-32356Y1487575D1*
X-34542Y1484575D1*
X-37352Y1481575D1*
X-40886Y1478575D1*
X-45031Y1475575D1*
X-49845Y1472575D1*
X-55703Y1469575D1*
X-63003Y1466575D1*
X-71780Y1463575D1*
X-81315Y1460575D1*
X2685Y1559575D2*
X2799Y1556575D1*
X3196Y1553575D1*
X4020Y1550575D1*
X5183Y1547575D1*
X6531Y1544575D1*
X7960Y1541575D1*
X9318Y1538575D1*
X10312Y1535575D1*
X10865Y1532575D1*
X10275Y1529575D1*
X9501Y1526575D1*
X8643Y1523575D1*
X7667Y1520575D1*
X6778Y1517575D1*
X6205Y1514575D1*
X5907Y1511575D1*
X5773Y1508575D1*
X5718Y1505575D1*
X5697Y1502575D1*
X5689Y1499575D1*
X5686Y1496575D1*
X5685Y1493575D1*
Y1490575D1*
Y1487575D1*
X5697Y1484575D1*
X5802Y1481575D1*
X6185Y1478575D1*
X6903Y1475575D1*
X7684Y1472575D1*
X8313Y1469575D1*
X8985Y1466575D1*
X9936Y1463575D1*
X11152Y1460575D1*
X12531Y1457575D1*
X14074Y1454575D1*
X15839Y1451575D1*
X17776Y1448575D1*
X19716Y1445575D1*
X21795Y1442575D1*
X24211Y1439575D1*
X26921Y1436575D1*
X29902Y1433575D1*
X33346Y1430575D1*
X37543Y1427575D1*
X42546Y1424575D1*
X48282Y1421575D1*
X54997Y1418575D1*
X62961Y1415575D1*
X71685Y1412575D1*
X62685Y1544575D2*
X59685Y1541575D1*
X80685Y1544575D2*
X91494Y1541575D1*
X100898Y1538575D1*
X108513Y1535575D1*
X114652Y1532575D1*
X119805Y1529575D1*
X124231Y1526575D1*
X128029Y1523575D1*
X131402Y1520575D1*
X134463Y1517575D1*
X137147Y1514575D1*
X139442Y1511575D1*
X141576Y1508575D1*
X143674Y1505575D1*
X145666Y1502575D1*
X147665Y1499575D1*
X149695Y1496575D1*
X151561Y1493575D1*
X153169Y1490575D1*
X154478Y1487575D1*
X155586Y1484575D1*
X156764Y1481575D1*
X158084Y1478575D1*
X159494Y1475575D1*
X160947Y1472575D1*
X162337Y1469575D1*
X163545Y1466575D1*
X164599Y1463575D1*
X165668Y1460575D1*
X166693Y1457575D1*
X167659Y1454575D1*
X168679Y1451575D1*
X169549Y1448575D1*
X169959Y1445575D1*
X170030Y1442575D1*
X164219Y1439575D1*
X154997Y1436575D1*
X142197Y1433575D1*
X126934Y1430575D1*
X110685Y1427575D1*
X-36315Y1529575D2*
X-42201Y1526575D1*
X-47816Y1523575D1*
X-53109Y1520575D1*
X-58445Y1517575D1*
X-64316Y1514575D1*
X-70873Y1511575D1*
X-78014Y1508575D1*
X-85694Y1505575D1*
X-93886Y1502575D1*
X-102315Y1499575D1*
X-33315Y1529575D2*
X-33429Y1526575D1*
X-33825Y1523575D1*
X-34650Y1520575D1*
X-35813Y1517575D1*
X-37161Y1514575D1*
X-38602Y1511575D1*
X-40088Y1508575D1*
X-41688Y1505575D1*
X-43576Y1502575D1*
X-45914Y1499575D1*
X-48691Y1496575D1*
X-52040Y1493575D1*
X-56197Y1490575D1*
X-61161Y1487575D1*
X-66662Y1484575D1*
X-72441Y1481575D1*
X-78315Y1478575D1*
X23685Y1517575D2*
X23571Y1514575D1*
X23186Y1511575D1*
X22467Y1508575D1*
X21698Y1505575D1*
X21175Y1502575D1*
X20896Y1499575D1*
X20769Y1496575D1*
X20728Y1493575D1*
X20813Y1490575D1*
X21188Y1487575D1*
X21904Y1484575D1*
X22684Y1481575D1*
X23313Y1478575D1*
X23985Y1475575D1*
X24936Y1472575D1*
X26152Y1469575D1*
X27531Y1466575D1*
X29085Y1463575D1*
X30956Y1460575D1*
X33275Y1457575D1*
X35934Y1454575D1*
X38794Y1451575D1*
X41850Y1448575D1*
X45326Y1445575D1*
X49559Y1442575D1*
X54778Y1439575D1*
X61285Y1436575D1*
X69488Y1433575D1*
X79238Y1430575D1*
X89685Y1427575D1*
X29685Y1517575D2*
X30286Y1514575D1*
X31293Y1511575D1*
X33929Y1508575D1*
X37225Y1505575D1*
X40799Y1502575D1*
X44254Y1499575D1*
X47608Y1496575D1*
X51106Y1493575D1*
X54885Y1490575D1*
X58779Y1487575D1*
X62703Y1484575D1*
X66808Y1481575D1*
X71099Y1478575D1*
X75499Y1475575D1*
X79961Y1472575D1*
X84454Y1469575D1*
X89056Y1466575D1*
X93946Y1463575D1*
X99272Y1460575D1*
X104932Y1457575D1*
X110775Y1454575D1*
X116685Y1451575D1*
M02*
