M48
INCH
T01C0.0118
T02C0.0157
T03C0.0197
T04C0.0256
T05C0.0276
T06C0.0571
%
T06
X-004685Y+007382
X+004685Y+007382
X-004685Y-002362
X+004685Y-002362
T01
X+002770Y+011946
X+003624Y+011946
X-003631Y+011938
X+003221Y+011938
X-003203Y+011927
X-002793Y+011922
T03
X-002945Y+008743
T02
X+001693Y+004848
T01
X-001891Y+008952
X+002922Y+008773
T02
X-000010Y+009850
T01
X-001493Y+009246
X+003928Y+007598
X+003909Y+008180
X-004686Y+008211
X+004519Y+006578
X+004669Y+008186
X-003477Y+008364
X-003842Y+008645
X-001454Y+006786
X-004642Y+006530
X+001561Y+006324
X-002890Y+005390
X-004657Y+005675
X+001891Y+007804
X+004554Y+005798
T02
X-003703Y+004732
T01
X-002631Y+005900
X+001361Y+005388
X+003537Y+006030
X-003230Y+005389
X+002584Y+004347
X+003260Y+007933
X-004226Y+004102
X-000014Y+003956
X+004684Y+003914
X+004654Y+003251
X-003307Y+003383
X+004402Y+002875
X-004416Y+002829
X+000005Y+002240
X-000547Y+002044
X+000523Y+002036
X+000005Y+001736
X+000523Y+001536
X-000533Y+001524
X-000013Y+001206
X-001227Y-000172
X+001192Y-000351
X+004548Y-000163
T02
X-000004Y-000606
T01
X-004656Y-001287
X+002140Y-001033
X-002214Y-002003
X+004007Y-002188
X+002364Y-001905
X+001206Y-001346
X-001589Y-001203
X+002608Y-002583
X+003478Y-002563
X-001629Y-003366
T04
X-003543Y-004128
X-003543Y-003628
X-003543Y-004628
X-003543Y-003128
X-003543Y-005128
T05
X+003543Y+001390
X+004606Y+001390
X-004606Y+001390
X-003543Y+001390
T00
M30
