G04 DipTrace 3.2.0.1*
G04 TopSilk.gbr*
%MOIN*%
G04 #@! TF.FileFunction,Legend,Top*
G04 #@! TF.Part,Single*
%ADD10C,0.009843*%
%ADD12C,0.003*%
%ADD13C,0.002625*%
%ADD14C,0.001969*%
%ADD18C,0.03937*%
%ADD21C,0.005906*%
%ADD74C,0.004632*%
%FSLAX26Y26*%
G04*
G70*
G90*
G75*
G01*
G04 TopSilk*
%LPD*%
X-97299Y736013D2*
D10*
G03X-337037Y599398I80789J-420430D01*
G01*
X106919Y-228967D2*
G03X98696Y732917I-104894J480080D01*
G01*
X-97299Y-234045D2*
G02X-337037Y-97429I80789J420430D01*
G01*
X-382311Y-283211D2*
D21*
X-326869D1*
Y-540150D1*
X-382311D1*
Y-283211D1*
X-325181Y1863640D2*
D18*
X328165Y1862782D1*
X429916Y325093D2*
D14*
X449601D1*
X428633Y324109D2*
X451036D1*
X427645Y323125D2*
X452264D1*
X426902Y322140D2*
X453228D1*
X426301Y321156D2*
X432119D1*
X448382D2*
X453984D1*
X425799Y320172D2*
X430724D1*
X449777D2*
X454261D1*
X425418Y319188D2*
X429651D1*
X450850D2*
X454411D1*
X425190Y318203D2*
X429278D1*
X451219D2*
X454479D1*
X425081Y317219D2*
X429082D1*
X451385D2*
X454506D1*
X425065Y316235D2*
X429031D1*
X451349D2*
X454517D1*
X425174Y315251D2*
X429159D1*
X451149D2*
X454517D1*
X425441Y314266D2*
X429541D1*
X450908D2*
X454479D1*
X425854Y313282D2*
X430166D1*
X450726D2*
X454316D1*
X426428Y312298D2*
X453913D1*
X427209Y311314D2*
X453223D1*
X428226Y310329D2*
X452248D1*
X429493Y309345D2*
X450999D1*
X430900Y308361D2*
X449601D1*
X441727Y301471D2*
X448617D1*
X424995Y300487D2*
X428932D1*
X439838D2*
X450472D1*
X424995Y299503D2*
X428932D1*
X438323D2*
X451892D1*
X424995Y298518D2*
X428932D1*
X437182D2*
X452888D1*
X424995Y297534D2*
X428932D1*
X436345D2*
X453583D1*
X424995Y296550D2*
X428932D1*
X435726D2*
X439952D1*
X449560D2*
X454047D1*
X424995Y295566D2*
X428932D1*
X435293D2*
X439376D1*
X450379D2*
X454308D1*
X424995Y294581D2*
X428932D1*
X435049D2*
X439047D1*
X450960D2*
X454433D1*
X424995Y293597D2*
X428932D1*
X434962D2*
X438891D1*
X451348D2*
X454488D1*
X424995Y292613D2*
X428932D1*
X435035D2*
X438860D1*
X451315D2*
X454506D1*
X424995Y291629D2*
X428932D1*
X435258D2*
X438993D1*
X451132D2*
X454479D1*
X424995Y290644D2*
X428932D1*
X435543D2*
X439343D1*
X450900D2*
X454353D1*
X424995Y289660D2*
X428932D1*
X435822D2*
X439828D1*
X450723D2*
X454076D1*
X424995Y288676D2*
X440251D1*
X447633D2*
X453622D1*
X424995Y287692D2*
X440514D1*
X447633D2*
X452887D1*
X424995Y286707D2*
X440654D1*
X447633D2*
X451748D1*
X424995Y285723D2*
X440743D1*
X447633D2*
X450260D1*
X447633Y284739D2*
X448617D1*
X446648Y278833D2*
X449601D1*
X446648Y277849D2*
X449601D1*
X437790Y276865D2*
X454522D1*
X437790Y275881D2*
X454522D1*
X437790Y274896D2*
X454522D1*
X437790Y273912D2*
X454522D1*
X424995Y272928D2*
X426963D1*
X437790D2*
X454522D1*
X425077Y271944D2*
X429268D1*
X446648D2*
X449601D1*
X425264Y270959D2*
X431530D1*
X446648D2*
X449601D1*
X426171Y269975D2*
X433685D1*
X446648D2*
X449601D1*
X427501Y268991D2*
X435750D1*
X446648D2*
X449601D1*
X429159Y268007D2*
X437769D1*
X446641D2*
X449601D1*
X431025Y267022D2*
X439831D1*
X446566D2*
X449601D1*
X433064Y266038D2*
X442110D1*
X446387D2*
X449601D1*
X435248Y265054D2*
X444754D1*
X445620D2*
X449601D1*
X437462Y264070D2*
X449601D1*
X439599Y263085D2*
X449601D1*
X441658Y262101D2*
X449601D1*
X443670Y261117D2*
X449601D1*
X445664Y260133D2*
X449601D1*
X429916Y253243D2*
X435822D1*
X451570D2*
X454522D1*
X428519Y252259D2*
X437412D1*
X451570D2*
X454522D1*
X427413Y251274D2*
X438927D1*
X451570D2*
X454522D1*
X426650Y250290D2*
X440344D1*
X451570D2*
X454522D1*
X426129Y249306D2*
X430942D1*
X433618D2*
X441689D1*
X451570D2*
X454522D1*
X425707Y248322D2*
X430122D1*
X435998D2*
X443030D1*
X451570D2*
X454522D1*
X425376Y247337D2*
X429537D1*
X437900D2*
X444353D1*
X451570D2*
X454522D1*
X425177Y246353D2*
X429205D1*
X439411D2*
X445659D1*
X451566D2*
X454522D1*
X425109Y245369D2*
X429052D1*
X440750D2*
X447016D1*
X451528D2*
X454522D1*
X425188Y244385D2*
X429056D1*
X442071D2*
X448452D1*
X451376D2*
X454522D1*
X425409Y243400D2*
X429194D1*
X443380D2*
X449978D1*
X451040D2*
X454522D1*
X425693Y242416D2*
X429871D1*
X444676D2*
X454522D1*
X426030Y241432D2*
X430630D1*
X445996D2*
X454522D1*
X426557Y240448D2*
X431230D1*
X447313D2*
X454522D1*
X427402Y239463D2*
X431586D1*
X448640D2*
X454522D1*
X428572Y238479D2*
X431770D1*
X450064D2*
X454522D1*
X429916Y237495D2*
X431885D1*
X451570D2*
X454522D1*
X453538Y230605D2*
X454522D1*
X429916Y229621D2*
X437790D1*
X451607D2*
X454518D1*
X428633Y228636D2*
X438782D1*
X449757D2*
X454476D1*
X427645Y227652D2*
X439841D1*
X447950D2*
X454372D1*
X426902Y226668D2*
X441130D1*
X445932D2*
X453874D1*
X426301Y225684D2*
X432119D1*
X435587D2*
X442787D1*
X443477D2*
X452700D1*
X425799Y224699D2*
X430724D1*
X436982D2*
X451193D1*
X425418Y223715D2*
X429651D1*
X438055D2*
X449447D1*
X425190Y222731D2*
X429278D1*
X438428D2*
X447581D1*
X425077Y221747D2*
X429078D1*
X438628D2*
X445727D1*
X425027Y220762D2*
X428989D1*
X438717D2*
X444100D1*
X425007Y219778D2*
X428953D1*
X438753D2*
X442752D1*
X424999Y218794D2*
X428939D1*
X438767D2*
X442227D1*
X424996Y217810D2*
X428934D1*
X438772D2*
X441941D1*
X424995Y216825D2*
X428933D1*
X438773D2*
X441811D1*
X424995Y215841D2*
X428932D1*
X438774D2*
X441758D1*
X424995Y214857D2*
X428932D1*
X438774D2*
X441738D1*
X424995Y213873D2*
X428932D1*
X438774D2*
X441731D1*
X424995Y212888D2*
X454522D1*
X424995Y211904D2*
X454522D1*
X424995Y210920D2*
X454522D1*
X424995Y209936D2*
X454522D1*
X446648Y203046D2*
X447633D1*
X430900Y202062D2*
X432869D1*
X446656D2*
X449370D1*
X429499Y201077D2*
X432824D1*
X446729D2*
X450804D1*
X428362Y200093D2*
X432719D1*
X446902D2*
X451878D1*
X427505Y199109D2*
X432160D1*
X447625D2*
X452731D1*
X426839Y198125D2*
X431385D1*
X448547D2*
X453449D1*
X426275Y197140D2*
X430579D1*
X449509D2*
X453970D1*
X425789Y196156D2*
X429907D1*
X450353D2*
X454271D1*
X425414Y195172D2*
X429430D1*
X450952D2*
X454418D1*
X425189Y194188D2*
X429158D1*
X451291D2*
X454482D1*
X425080Y193203D2*
X429029D1*
X451451D2*
X454507D1*
X425065Y192219D2*
X429010D1*
X451483D2*
X454517D1*
X425174Y191235D2*
X429151D1*
X451347D2*
X454517D1*
X425437Y190251D2*
X429542D1*
X450958D2*
X454479D1*
X425816Y189266D2*
X430191D1*
X450310D2*
X454320D1*
X426261Y188282D2*
X431013D1*
X449488D2*
X453951D1*
X426772Y187298D2*
X431925D1*
X448576D2*
X453390D1*
X427423Y186314D2*
X452669D1*
X428347Y185329D2*
X451696D1*
X429615Y184345D2*
X450352D1*
X431177Y183361D2*
X448616D1*
X432869Y182377D2*
X446648D1*
X-291761Y-444948D2*
D13*
X-287824D1*
X-291761Y-446260D2*
X-287824D1*
X-291761Y-447572D2*
X-287824D1*
X-291761Y-448885D2*
X-287824D1*
X-291761Y-450197D2*
X-287824D1*
X-291761Y-451509D2*
X-287824D1*
X-291761Y-452822D2*
X-287824D1*
X-291761Y-454134D2*
X-287824D1*
X-303572Y-455446D2*
X-277325D1*
X-303572Y-456759D2*
X-277325D1*
X-303572Y-458071D2*
X-277325D1*
X-291761Y-459383D2*
X-287824D1*
X-291761Y-460696D2*
X-287824D1*
X-291761Y-462008D2*
X-287824D1*
X-291761Y-463320D2*
X-287824D1*
X-291761Y-464633D2*
X-287824D1*
X-291761Y-465945D2*
X-287824D1*
X-291761Y-467257D2*
X-287824D1*
X-294802Y-228735D2*
X-280366D1*
X-294802Y-230047D2*
X-280366D1*
X-294802Y-231360D2*
X-280366D1*
X-292549Y-382268D2*
X-282050D1*
X-295072Y-383580D2*
X-278887D1*
X-268927D2*
X-243992D1*
X-238743D2*
X-232181D1*
X-212496D2*
X-208559D1*
X-297133Y-384892D2*
X-276225D1*
X-268927D2*
X-243992D1*
X-237633D2*
X-231480D1*
X-212496D2*
X-208559D1*
X-298776Y-386205D2*
X-275000D1*
X-268927D2*
X-243992D1*
X-236646D2*
X-230590D1*
X-212496D2*
X-208559D1*
X-300039Y-387517D2*
X-292286D1*
X-282050D2*
X-274558D1*
X-268927D2*
X-243992D1*
X-235674D2*
X-229636D1*
X-212496D2*
X-208559D1*
X-301028Y-388829D2*
X-294314D1*
X-279425D2*
X-274322D1*
X-247929D2*
X-243992D1*
X-234596D2*
X-228723D1*
X-212496D2*
X-208559D1*
X-301441Y-390142D2*
X-295847D1*
X-276801D2*
X-274176D1*
X-247929D2*
X-243992D1*
X-233452D2*
X-227781D1*
X-212496D2*
X-208559D1*
X-301801Y-391454D2*
X-297012D1*
X-247929D2*
X-243992D1*
X-232363D2*
X-226716D1*
X-212496D2*
X-208559D1*
X-302159Y-392766D2*
X-297413D1*
X-247929D2*
X-243992D1*
X-231388D2*
X-225576D1*
X-212496D2*
X-208559D1*
X-302364Y-394079D2*
X-297581D1*
X-247929D2*
X-243992D1*
X-230426D2*
X-224488D1*
X-212496D2*
X-208559D1*
X-302288Y-395391D2*
X-297580D1*
X-247929D2*
X-243992D1*
X-229392D2*
X-223488D1*
X-212496D2*
X-208559D1*
X-302032Y-396703D2*
X-297060D1*
X-247929D2*
X-243992D1*
X-228375D2*
X-222271D1*
X-212496D2*
X-208559D1*
X-301688Y-398016D2*
X-295564D1*
X-247929D2*
X-243992D1*
X-227494D2*
X-220178D1*
X-212496D2*
X-208559D1*
X-301219Y-399328D2*
X-293204D1*
X-247929D2*
X-243992D1*
X-226735D2*
X-216752D1*
X-212496D2*
X-208559D1*
X-300561Y-400640D2*
X-289980D1*
X-247929D2*
X-243992D1*
X-226466D2*
X-208559D1*
X-299719Y-401953D2*
X-286439D1*
X-247929D2*
X-243992D1*
X-227017D2*
X-208559D1*
X-297762Y-403265D2*
X-283223D1*
X-267614D2*
X-243992D1*
X-228220D2*
X-208559D1*
X-295001Y-404577D2*
X-280650D1*
X-267614D2*
X-243992D1*
X-229467D2*
X-208559D1*
X-291527Y-405890D2*
X-278705D1*
X-267614D2*
X-243992D1*
X-230577D2*
X-224302D1*
X-212496D2*
X-208559D1*
X-287901Y-407202D2*
X-277292D1*
X-267614D2*
X-243992D1*
X-231414D2*
X-225563D1*
X-212496D2*
X-208559D1*
X-284798Y-408514D2*
X-276221D1*
X-247929D2*
X-243992D1*
X-232030D2*
X-226657D1*
X-212496D2*
X-208559D1*
X-282561Y-409827D2*
X-275843D1*
X-247929D2*
X-243992D1*
X-232562D2*
X-227436D1*
X-212496D2*
X-208559D1*
X-280902Y-411139D2*
X-275639D1*
X-247929D2*
X-243992D1*
X-232992D2*
X-227879D1*
X-212496D2*
X-208559D1*
X-280190Y-412451D2*
X-275547D1*
X-247929D2*
X-243992D1*
X-233253D2*
X-228088D1*
X-212496D2*
X-208559D1*
X-279703Y-413764D2*
X-275510D1*
X-247929D2*
X-243992D1*
X-233342D2*
X-228125D1*
X-212496D2*
X-208559D1*
X-279698Y-415076D2*
X-275501D1*
X-247929D2*
X-243992D1*
X-233230D2*
X-228033D1*
X-212496D2*
X-208559D1*
X-280162Y-416388D2*
X-275547D1*
X-247929D2*
X-243992D1*
X-232890D2*
X-227213D1*
X-212496D2*
X-208559D1*
X-281325Y-417701D2*
X-275764D1*
X-247929D2*
X-243992D1*
X-232344D2*
X-223825D1*
X-212496D2*
X-208559D1*
X-300423Y-419013D2*
X-297798D1*
X-284457D2*
X-276296D1*
X-247929D2*
X-243992D1*
X-231581D2*
X-218217D1*
X-212496D2*
X-208559D1*
X-300357Y-420325D2*
X-290170D1*
X-289275D2*
X-277176D1*
X-268927D2*
X-243992D1*
X-230541D2*
X-208559D1*
X-300202Y-421638D2*
X-278374D1*
X-268927D2*
X-243992D1*
X-229185D2*
X-208559D1*
X-299391Y-422950D2*
X-279999D1*
X-268927D2*
X-243992D1*
X-227496D2*
X-208559D1*
X-297439Y-424262D2*
X-282171D1*
X-268927D2*
X-243992D1*
X-225619D2*
X-208559D1*
X-295173Y-425575D2*
X-284675D1*
X-440385Y467293D2*
X-410201D1*
X-442248Y465980D2*
X-410201D1*
X-443722Y464668D2*
X-410201D1*
X-444739Y463356D2*
X-410201D1*
X-445433Y462043D2*
X-410201D1*
X-445996Y460731D2*
X-441489D1*
X-429886D2*
X-427261D1*
X-412825D2*
X-410201D1*
X-446438Y459419D2*
X-442425D1*
X-429886D2*
X-427261D1*
X-412825D2*
X-410201D1*
X-446708Y458106D2*
X-443179D1*
X-429886D2*
X-427261D1*
X-412825D2*
X-410201D1*
X-446845Y456794D2*
X-443728D1*
X-429886D2*
X-427261D1*
X-412825D2*
X-410201D1*
X-446907Y455482D2*
X-444049D1*
X-429886D2*
X-427261D1*
X-412825D2*
X-410201D1*
X-446931Y454169D2*
X-444208D1*
X-429886D2*
X-427261D1*
X-412825D2*
X-410201D1*
X-446941Y452857D2*
X-444277D1*
X-429886D2*
X-427261D1*
X-412825D2*
X-410201D1*
X-446944Y451545D2*
X-444305D1*
X-429886D2*
X-427261D1*
X-412825D2*
X-410201D1*
X-446946Y450232D2*
X-444316D1*
X-429886D2*
X-427261D1*
X-412825D2*
X-410201D1*
X-446946Y448920D2*
X-444320D1*
X-429886D2*
X-427261D1*
X-412825D2*
X-410201D1*
X-446946Y447608D2*
X-444321D1*
X-429886D2*
X-427261D1*
X-412825D2*
X-410201D1*
X-446946Y446295D2*
X-444321D1*
X-412825D2*
X-410201D1*
X-446946Y444983D2*
X-444322D1*
X-412825D2*
X-410201D1*
X-446946Y433172D2*
X-410201D1*
X-446946Y431860D2*
X-410201D1*
X-446946Y430547D2*
X-410201D1*
X-446946Y429235D2*
X-410201D1*
X-429886Y427923D2*
X-427261D1*
X-412825D2*
X-410201D1*
X-429886Y426610D2*
X-427261D1*
X-412825D2*
X-410201D1*
X-429886Y425298D2*
X-427261D1*
X-412825D2*
X-410201D1*
X-429886Y423986D2*
X-427261D1*
X-412825D2*
X-410201D1*
X-429886Y422673D2*
X-427261D1*
X-412825D2*
X-410201D1*
X-429886Y421361D2*
X-427261D1*
X-412825D2*
X-410201D1*
X-429886Y420049D2*
X-427261D1*
X-412825D2*
X-410201D1*
X-429886Y418736D2*
X-427261D1*
X-412825D2*
X-410201D1*
X-429886Y417424D2*
X-427261D1*
X-412825D2*
X-410201D1*
X-429886Y416112D2*
X-427261D1*
X-412825D2*
X-410201D1*
X-429886Y414799D2*
X-427261D1*
X-412825D2*
X-410201D1*
X-429886Y413487D2*
X-427261D1*
X-412825D2*
X-410201D1*
X-412825Y412175D2*
X-410201D1*
X-440385Y402988D2*
X-410201D1*
X-442248Y401676D2*
X-410201D1*
X-443722Y400364D2*
X-410201D1*
X-444739Y399051D2*
X-410201D1*
X-445433Y397739D2*
X-410201D1*
X-445996Y396427D2*
X-441489D1*
X-429886D2*
X-427261D1*
X-412825D2*
X-410201D1*
X-446438Y395114D2*
X-442425D1*
X-429886D2*
X-427261D1*
X-412825D2*
X-410201D1*
X-446708Y393802D2*
X-443179D1*
X-429886D2*
X-427261D1*
X-412825D2*
X-410201D1*
X-446845Y392490D2*
X-443728D1*
X-429886D2*
X-427261D1*
X-412825D2*
X-410201D1*
X-446907Y391177D2*
X-444049D1*
X-429886D2*
X-427261D1*
X-412825D2*
X-410201D1*
X-446931Y389865D2*
X-444208D1*
X-429886D2*
X-427261D1*
X-412825D2*
X-410201D1*
X-446941Y388552D2*
X-444277D1*
X-429886D2*
X-427261D1*
X-412825D2*
X-410201D1*
X-446944Y387240D2*
X-444305D1*
X-429886D2*
X-427261D1*
X-412825D2*
X-410201D1*
X-446946Y385928D2*
X-444316D1*
X-429886D2*
X-427261D1*
X-412825D2*
X-410201D1*
X-446946Y384615D2*
X-444320D1*
X-429886D2*
X-427261D1*
X-412825D2*
X-410201D1*
X-446946Y383303D2*
X-444321D1*
X-429886D2*
X-427261D1*
X-412825D2*
X-410201D1*
X-446946Y381991D2*
X-444321D1*
X-412825D2*
X-410201D1*
X-446946Y380678D2*
X-444322D1*
X-412825D2*
X-410201D1*
X-446946Y368867D2*
X-410201D1*
X-446946Y367555D2*
X-410201D1*
X-446946Y366243D2*
X-410201D1*
X-446946Y364930D2*
X-410201D1*
X-440788Y363618D2*
X-430144D1*
X-436460Y362306D2*
X-428064D1*
X-433619Y360993D2*
X-426312D1*
X-431604Y359681D2*
X-424781D1*
X-429886Y358369D2*
X-423331D1*
X-430750Y357056D2*
X-421815D1*
X-431676Y355744D2*
X-420174D1*
X-432791Y354432D2*
X-418520D1*
X-434199Y353119D2*
X-427216D1*
X-423324D2*
X-416977D1*
X-436032Y351807D2*
X-428407D1*
X-422012D2*
X-415543D1*
X-438347Y350495D2*
X-429577D1*
X-420694D2*
X-414180D1*
X-440960Y349182D2*
X-430918D1*
X-419336D2*
X-412896D1*
X-443388Y347870D2*
X-432557D1*
X-417856D2*
X-411793D1*
X-445416Y346558D2*
X-434509D1*
X-416229D2*
X-411010D1*
X-446334Y345245D2*
X-436756D1*
X-414577D2*
X-410565D1*
X-446662Y343933D2*
X-439199D1*
X-413016D2*
X-410340D1*
X-446838Y342621D2*
X-441743D1*
X-411513D2*
X-410201D1*
X-446946Y341308D2*
X-444322D1*
X-412825Y337371D2*
X-410201D1*
X-412825Y336059D2*
X-410201D1*
X-412825Y334747D2*
X-410201D1*
X-412825Y333434D2*
X-410201D1*
X-412825Y332122D2*
X-410201D1*
X-412825Y330810D2*
X-410201D1*
X-412825Y329497D2*
X-410201D1*
X-412825Y328185D2*
X-410201D1*
X-412825Y326873D2*
X-410201D1*
X-446946Y325560D2*
X-410201D1*
X-446946Y324248D2*
X-410201D1*
X-446946Y322936D2*
X-410201D1*
X-446946Y321623D2*
X-410201D1*
X-446946Y320311D2*
X-410201D1*
X-412825Y318999D2*
X-410201D1*
X-412825Y317686D2*
X-410201D1*
X-412825Y316374D2*
X-410201D1*
X-412825Y315062D2*
X-410201D1*
X-412825Y313749D2*
X-410201D1*
X-412825Y312437D2*
X-410201D1*
X-412825Y311125D2*
X-410201D1*
X-412825Y309812D2*
X-410201D1*
X-412825Y308500D2*
X-410201D1*
X-412825Y307188D2*
X-410201D1*
X-446946Y300626D2*
X-416762D1*
X-446946Y299314D2*
X-414894D1*
X-446946Y298001D2*
X-413378D1*
X-446946Y296689D2*
X-412241D1*
X-432510Y295377D2*
X-428316D1*
X-419908D2*
X-411399D1*
X-432510Y294064D2*
X-429083D1*
X-417112D2*
X-410814D1*
X-432510Y292752D2*
X-429523D1*
X-414866D2*
X-410480D1*
X-432510Y291440D2*
X-429736D1*
X-413712D2*
X-410317D1*
X-432510Y290127D2*
X-429828D1*
X-413251D2*
X-410246D1*
X-432510Y288815D2*
X-429865D1*
X-413005D2*
X-410217D1*
X-432510Y287503D2*
X-429878D1*
X-412900D2*
X-410207D1*
X-432510Y286190D2*
X-429883D1*
X-412902D2*
X-410203D1*
X-432510Y284878D2*
X-429885D1*
X-413058D2*
X-410201D1*
X-432510Y283566D2*
X-429886D1*
X-413469D2*
X-410206D1*
X-432510Y282253D2*
X-429886D1*
X-414113D2*
X-410252D1*
X-432510Y280941D2*
X-429886D1*
X-417205D2*
X-410424D1*
X-432510Y279629D2*
X-429886D1*
X-422735D2*
X-410795D1*
X-446946Y278316D2*
X-411401D1*
X-446946Y277004D2*
X-412381D1*
X-446946Y275692D2*
X-413899D1*
X-446946Y274379D2*
X-415884D1*
X-446946Y273067D2*
X-418075D1*
X-446946Y259944D2*
X-410201D1*
X-446946Y258631D2*
X-410201D1*
X-446946Y257319D2*
X-410201D1*
X-446946Y256007D2*
X-410201D1*
X-446946Y254694D2*
X-444322D1*
X-446946Y253382D2*
X-444322D1*
X-446946Y252070D2*
X-444322D1*
X-446946Y250757D2*
X-444322D1*
X-446946Y249445D2*
X-444322D1*
X-446946Y248133D2*
X-444322D1*
X-446946Y246820D2*
X-444322D1*
X-446946Y245508D2*
X-444322D1*
X-446946Y244196D2*
X-444322D1*
X-446946Y242883D2*
X-444322D1*
X-446946Y241571D2*
X-444322D1*
X-446946Y240259D2*
X-444322D1*
X-446946Y238946D2*
X-444322D1*
X-446946Y231072D2*
X-416762D1*
X-446946Y229760D2*
X-414894D1*
X-446946Y228448D2*
X-413378D1*
X-446946Y227135D2*
X-412241D1*
X-432510Y225823D2*
X-428316D1*
X-419908D2*
X-411399D1*
X-432510Y224510D2*
X-429083D1*
X-417112D2*
X-410814D1*
X-432510Y223198D2*
X-429523D1*
X-414866D2*
X-410480D1*
X-432510Y221886D2*
X-429736D1*
X-413712D2*
X-410317D1*
X-432510Y220573D2*
X-429828D1*
X-413251D2*
X-410246D1*
X-432510Y219261D2*
X-429865D1*
X-413005D2*
X-410217D1*
X-432510Y217949D2*
X-429878D1*
X-412900D2*
X-410207D1*
X-432510Y216636D2*
X-429883D1*
X-412902D2*
X-410203D1*
X-432510Y215324D2*
X-429885D1*
X-413058D2*
X-410201D1*
X-432510Y214012D2*
X-429886D1*
X-413469D2*
X-410206D1*
X-432510Y212699D2*
X-429886D1*
X-414113D2*
X-410252D1*
X-432510Y211387D2*
X-429886D1*
X-417205D2*
X-410424D1*
X-432510Y210075D2*
X-429886D1*
X-422735D2*
X-410795D1*
X-446946Y208762D2*
X-411401D1*
X-446946Y207450D2*
X-412381D1*
X-446946Y206138D2*
X-413899D1*
X-446946Y204825D2*
X-415884D1*
X-446946Y203513D2*
X-418075D1*
X-444322Y191702D2*
X-410201D1*
X-444927Y190390D2*
X-410201D1*
X-445309Y189077D2*
X-410201D1*
X-445546Y187765D2*
X-410201D1*
X-445798Y186453D2*
X-410201D1*
X-446147Y185140D2*
X-443059D1*
X-429886D2*
X-427261D1*
X-412825D2*
X-410201D1*
X-446496Y183828D2*
X-443227D1*
X-429886D2*
X-427261D1*
X-412825D2*
X-410201D1*
X-446730Y182516D2*
X-443542D1*
X-429886D2*
X-427256D1*
X-412825D2*
X-410201D1*
X-446853Y181203D2*
X-443873D1*
X-429886D2*
X-427210D1*
X-412825D2*
X-410201D1*
X-446909Y179891D2*
X-444056D1*
X-429886D2*
X-427043D1*
X-412825D2*
X-410201D1*
X-446927Y178579D2*
X-444011D1*
X-429891D2*
X-426723D1*
X-412831D2*
X-410201D1*
X-446890Y177266D2*
X-443747D1*
X-429942D2*
X-426330D1*
X-412887D2*
X-410201D1*
X-446726Y175954D2*
X-443351D1*
X-430065D2*
X-425816D1*
X-413025D2*
X-410206D1*
X-446408Y174642D2*
X-442878D1*
X-430693D2*
X-425090D1*
X-413751D2*
X-410252D1*
X-446025Y173329D2*
X-441346D1*
X-433026D2*
X-422807D1*
X-415997D2*
X-410424D1*
X-445624Y172017D2*
X-437311D1*
X-436868D2*
X-419455D1*
X-419331D2*
X-410790D1*
X-445132Y170705D2*
X-411345D1*
X-444472Y169392D2*
X-428573D1*
X-425949D2*
X-412103D1*
X-443488Y168080D2*
X-429886D1*
X-424636D2*
X-413071D1*
X-442062Y166768D2*
X-431198D1*
X-423324D2*
X-414138D1*
X-440385Y165455D2*
X-432510D1*
X-445634Y156269D2*
X-443009D1*
X-446033Y154957D2*
X-442409D1*
X-446362Y153644D2*
X-442082D1*
X-446205Y152332D2*
X-441967D1*
X-445930Y151020D2*
X-442423D1*
X-445634Y149707D2*
X-443009D1*
X-436448Y140521D2*
X-419387D1*
X-438966Y139209D2*
X-417026D1*
X-440986Y137896D2*
X-414997D1*
X-442508Y136584D2*
X-413458D1*
X-443624Y135272D2*
X-430369D1*
X-425465D2*
X-412420D1*
X-444455Y133959D2*
X-435072D1*
X-420763D2*
X-411717D1*
X-445077Y132647D2*
X-438431D1*
X-417404D2*
X-411152D1*
X-445575Y131335D2*
X-440939D1*
X-414895D2*
X-410709D1*
X-446051Y130022D2*
X-442010D1*
X-413716D2*
X-410439D1*
X-446458Y128710D2*
X-442762D1*
X-413251D2*
X-410302D1*
X-446716Y127398D2*
X-443353D1*
X-413004D2*
X-410240D1*
X-446848Y126085D2*
X-443802D1*
X-412895D2*
X-410215D1*
X-446907Y124773D2*
X-444030D1*
X-412851D2*
X-410206D1*
X-446927Y123461D2*
X-444002D1*
X-412834D2*
X-410203D1*
X-446890Y122148D2*
X-443749D1*
X-412828D2*
X-410201D1*
X-446726Y120836D2*
X-443437D1*
X-412826D2*
X-410201D1*
X-446413Y119524D2*
X-443218D1*
X-412826D2*
X-410201D1*
X-446073Y118211D2*
X-443100D1*
X-412826D2*
X-410201D1*
X-445825Y116899D2*
X-443043D1*
X-412825D2*
X-410201D1*
X-445634Y115587D2*
X-443009D1*
X-412825D2*
X-410201D1*
X-436448Y107713D2*
X-419387D1*
X-438966Y106400D2*
X-417026D1*
X-440986Y105088D2*
X-414992D1*
X-442508Y103776D2*
X-413412D1*
X-443624Y102463D2*
X-430369D1*
X-425465D2*
X-412252D1*
X-444455Y101151D2*
X-435072D1*
X-420763D2*
X-411403D1*
X-445077Y99839D2*
X-438431D1*
X-417404D2*
X-410816D1*
X-445575Y98526D2*
X-440939D1*
X-414895D2*
X-410480D1*
X-446051Y97214D2*
X-442010D1*
X-413716D2*
X-410317D1*
X-446458Y95902D2*
X-442762D1*
X-413251D2*
X-410246D1*
X-446716Y94589D2*
X-443348D1*
X-413004D2*
X-410217D1*
X-446843Y93277D2*
X-443755D1*
X-412895D2*
X-410207D1*
X-446856Y91965D2*
X-443975D1*
X-412856D2*
X-410203D1*
X-446713Y90652D2*
X-443665D1*
X-412891D2*
X-410201D1*
X-446408Y89340D2*
X-443191D1*
X-413103D2*
X-410206D1*
X-446070Y88028D2*
X-442560D1*
X-413510D2*
X-410252D1*
X-445791Y86715D2*
X-441790D1*
X-414683D2*
X-410424D1*
X-445451Y85403D2*
X-440160D1*
X-416274D2*
X-410790D1*
X-444863Y84091D2*
X-435477D1*
X-421388D2*
X-411345D1*
X-443965Y82778D2*
X-428245D1*
X-429339D2*
X-412112D1*
X-442797Y81466D2*
X-413164D1*
X-441256Y80154D2*
X-414636D1*
X-439045Y78841D2*
X-416813D1*
X-436010Y77529D2*
X-419833D1*
X-432510Y76217D2*
X-423324D1*
X-446946Y65718D2*
X-410201D1*
X-446946Y64406D2*
X-410206D1*
X-446946Y63093D2*
X-410257D1*
X-446946Y61781D2*
X-410481D1*
X-418283Y60469D2*
X-410906D1*
X-419967Y59156D2*
X-412063D1*
X-421791Y57844D2*
X-413550D1*
X-423694Y56531D2*
X-415286D1*
X-425637Y55219D2*
X-417153D1*
X-427594Y53907D2*
X-419083D1*
X-429550Y52594D2*
X-421035D1*
X-431419Y51282D2*
X-422994D1*
X-432997Y49970D2*
X-424914D1*
X-434251Y48657D2*
X-426714D1*
X-434765Y47345D2*
X-428343D1*
X-434808Y46033D2*
X-429886D1*
X-434248Y44720D2*
X-427760D1*
X-432902Y43408D2*
X-425699D1*
X-431271Y42096D2*
X-423684D1*
X-429458Y40783D2*
X-421697D1*
X-427552Y39471D2*
X-419719D1*
X-425608Y38159D2*
X-417749D1*
X-423652Y36846D2*
X-415788D1*
X-421734Y35534D2*
X-413918D1*
X-419934Y34222D2*
X-412339D1*
X-418305Y32909D2*
X-411085D1*
X-446946Y31597D2*
X-410629D1*
X-446946Y30285D2*
X-410382D1*
X-446946Y28972D2*
X-410272D1*
X-446946Y27660D2*
X-410225D1*
X-446946Y26348D2*
X-410201D1*
X-195857Y1444867D2*
D12*
X-185357D1*
X-147857D2*
X-137357D1*
X-98357D2*
X-87857D1*
X-57857D2*
X-45857D1*
X-9857D2*
X643D1*
X21643D2*
X53143D1*
X120643D2*
X131143D1*
X152143D2*
X183643D1*
X-195857Y1443367D2*
X-185357D1*
X-147857D2*
X-137357D1*
X-98357D2*
X-87857D1*
X-57338D2*
X-45287D1*
X-9857D2*
X643D1*
X21643D2*
X56946D1*
X120643D2*
X131143D1*
X152143D2*
X187446D1*
X-195857Y1441867D2*
X-185357D1*
X-147857D2*
X-137357D1*
X-98357D2*
X-87857D1*
X-56839D2*
X-44642D1*
X-9857D2*
X643D1*
X21643D2*
X60058D1*
X120643D2*
X131143D1*
X152143D2*
X190558D1*
X-195857Y1440367D2*
X-185357D1*
X-147857D2*
X-137357D1*
X-98357D2*
X-87857D1*
X-56358D2*
X-43946D1*
X-9857D2*
X643D1*
X21643D2*
X62403D1*
X120643D2*
X131143D1*
X152143D2*
X192903D1*
X-195857Y1438867D2*
X-185357D1*
X-147857D2*
X-137357D1*
X-98357D2*
X-87857D1*
X-55799D2*
X-43223D1*
X-9857D2*
X643D1*
X21643D2*
X64044D1*
X120643D2*
X131143D1*
X152143D2*
X194544D1*
X-195857Y1437367D2*
X-185357D1*
X-147857D2*
X-137357D1*
X-98357D2*
X-87857D1*
X-55151D2*
X-42530D1*
X-9857D2*
X643D1*
X21643D2*
X65219D1*
X120643D2*
X131143D1*
X152143D2*
X195719D1*
X-195857Y1435867D2*
X-185357D1*
X-147857D2*
X-137357D1*
X-98357D2*
X-87857D1*
X-54450D2*
X-41927D1*
X-9857D2*
X643D1*
X51291D2*
X66148D1*
X120643D2*
X131143D1*
X181791D2*
X196648D1*
X-195857Y1434367D2*
X-185357D1*
X-147857D2*
X-137357D1*
X-98357D2*
X-87857D1*
X-53719D2*
X-41394D1*
X-9857D2*
X643D1*
X53470D2*
X66917D1*
X120643D2*
X131143D1*
X183970D2*
X197417D1*
X-195857Y1432867D2*
X-185357D1*
X-147857D2*
X-137357D1*
X-98357D2*
X-87857D1*
X-52978D2*
X-40813D1*
X-9857D2*
X643D1*
X55054D2*
X67498D1*
X120643D2*
X131143D1*
X185554D2*
X197998D1*
X-195857Y1431367D2*
X-185357D1*
X-147857D2*
X-137357D1*
X-98357D2*
X-87857D1*
X-52236D2*
X-40156D1*
X-9857D2*
X643D1*
X56164D2*
X67845D1*
X120643D2*
X131143D1*
X186664D2*
X198345D1*
X-195857Y1429867D2*
X-185357D1*
X-147857D2*
X-137357D1*
X-98357D2*
X-87857D1*
X-51535D2*
X-39452D1*
X-9857D2*
X643D1*
X56898D2*
X68018D1*
X120643D2*
X131143D1*
X187398D2*
X198518D1*
X-195857Y1428367D2*
X-185357D1*
X-147857D2*
X-137357D1*
X-98357D2*
X-87857D1*
X-50928D2*
X-38720D1*
X-9863D2*
X643D1*
X57308D2*
X68094D1*
X120643D2*
X131143D1*
X187808D2*
X198594D1*
X-195857Y1426867D2*
X-185357D1*
X-147857D2*
X-137357D1*
X-98357D2*
X-87857D1*
X-50394D2*
X-37973D1*
X-9916D2*
X643D1*
X57505D2*
X68125D1*
X120643D2*
X131143D1*
X188005D2*
X198625D1*
X-195857Y1425367D2*
X-185357D1*
X-147857D2*
X-137357D1*
X-98357D2*
X-87857D1*
X-49813D2*
X-37177D1*
X-10113D2*
X643D1*
X57590D2*
X68137D1*
X120643D2*
X131143D1*
X188090D2*
X198637D1*
X-195857Y1423867D2*
X-185357D1*
X-147857D2*
X-137357D1*
X-98357D2*
X-87857D1*
X-49156D2*
X-36285D1*
X-10530D2*
X643D1*
X57623D2*
X68141D1*
X120643D2*
X131143D1*
X188123D2*
X198641D1*
X-195857Y1422367D2*
X-185357D1*
X-147857D2*
X-137357D1*
X-98357D2*
X-87857D1*
X-48446D2*
X-35313D1*
X-11165D2*
X643D1*
X57636D2*
X68142D1*
X120643D2*
X131143D1*
X188136D2*
X198642D1*
X-195857Y1420867D2*
X-185357D1*
X-147857D2*
X-137357D1*
X-98357D2*
X-87857D1*
X-47667D2*
X-34342D1*
X-12035D2*
X643D1*
X57641D2*
X68143D1*
X120643D2*
X131143D1*
X188141D2*
X198643D1*
X-195857Y1419367D2*
X-185357D1*
X-147857D2*
X-137357D1*
X-98357D2*
X-87857D1*
X-46781D2*
X-33296D1*
X-13168D2*
X643D1*
X57642D2*
X68143D1*
X120643D2*
X131143D1*
X188142D2*
X198643D1*
X-195857Y1417867D2*
X-185357D1*
X-147857D2*
X-137357D1*
X-98357D2*
X-87857D1*
X-45812D2*
X-32006D1*
X-14510D2*
X643D1*
X57643D2*
X68143D1*
X120643D2*
X131143D1*
X188143D2*
X198643D1*
X-195857Y1416367D2*
X-137357D1*
X-98357D2*
X-87857D1*
X-44842D2*
X-30179D1*
X-16159D2*
X643D1*
X57643D2*
X68143D1*
X120643D2*
X131143D1*
X188143D2*
X198643D1*
X-195857Y1414867D2*
X-137357D1*
X-98357D2*
X-87857D1*
X-43802D2*
X-27216D1*
X-18555D2*
X643D1*
X57643D2*
X68143D1*
X120643D2*
X131143D1*
X188143D2*
X198643D1*
X-195857Y1413367D2*
X-137357D1*
X-98357D2*
X-87857D1*
X-42594D2*
X-22734D1*
X-22094D2*
X643D1*
X57643D2*
X68143D1*
X120643D2*
X131143D1*
X188143D2*
X198643D1*
X-195857Y1411867D2*
X-137357D1*
X-98357D2*
X-87857D1*
X-41245D2*
X643D1*
X57643D2*
X68143D1*
X120643D2*
X131143D1*
X188143D2*
X198643D1*
X-195857Y1410367D2*
X-137357D1*
X-98357D2*
X-87857D1*
X-39807D2*
X643D1*
X57643D2*
X68143D1*
X90643D2*
X131143D1*
X188143D2*
X198643D1*
X-195857Y1408867D2*
X-137357D1*
X-98357D2*
X-87857D1*
X-38276D2*
X643D1*
X26143D2*
X68143D1*
X90643D2*
X131143D1*
X156643D2*
X198643D1*
X-195857Y1407367D2*
X-185357D1*
X-147857D2*
X-137357D1*
X-98357D2*
X-87857D1*
X-36549D2*
X-12800D1*
X-9857D2*
X643D1*
X26143D2*
X68143D1*
X90643D2*
X131143D1*
X156643D2*
X198643D1*
X-195857Y1405867D2*
X-185357D1*
X-147857D2*
X-137357D1*
X-98357D2*
X-87857D1*
X-34566D2*
X-14108D1*
X-9857D2*
X643D1*
X26143D2*
X68143D1*
X90643D2*
X131143D1*
X156643D2*
X198643D1*
X-195857Y1404367D2*
X-185357D1*
X-147857D2*
X-137357D1*
X-98357D2*
X-87857D1*
X-32632D2*
X-15248D1*
X-9857D2*
X643D1*
X26143D2*
X68143D1*
X90643D2*
X131143D1*
X156643D2*
X198643D1*
X-195857Y1402867D2*
X-185357D1*
X-147857D2*
X-137357D1*
X-98357D2*
X-87857D1*
X-31011D2*
X-16363D1*
X-9857D2*
X643D1*
X26143D2*
X68143D1*
X90643D2*
X131143D1*
X156643D2*
X198643D1*
X-195857Y1401367D2*
X-185357D1*
X-147857D2*
X-137357D1*
X-98357D2*
X-87857D1*
X-30357D2*
X-17602D1*
X-9857D2*
X643D1*
X26143D2*
X68143D1*
X120643D2*
X131143D1*
X156643D2*
X198643D1*
X-195857Y1399867D2*
X-185357D1*
X-147857D2*
X-137357D1*
X-98357D2*
X-87857D1*
X-31369D2*
X-18957D1*
X-9857D2*
X643D1*
X57643D2*
X68143D1*
X120643D2*
X131143D1*
X188143D2*
X198643D1*
X-195857Y1398367D2*
X-185357D1*
X-147857D2*
X-137357D1*
X-98357D2*
X-87857D1*
X-32578D2*
X-20340D1*
X-9857D2*
X643D1*
X57643D2*
X68143D1*
X120643D2*
X131143D1*
X188143D2*
X198643D1*
X-195857Y1396867D2*
X-185357D1*
X-147863D2*
X-137357D1*
X-98357D2*
X-87857D1*
X-33890D2*
X-21623D1*
X-9857D2*
X643D1*
X57643D2*
X68143D1*
X120643D2*
X131143D1*
X188143D2*
X198643D1*
X-195857Y1395367D2*
X-185351D1*
X-147916D2*
X-137357D1*
X-98357D2*
X-87857D1*
X-35142D2*
X-22754D1*
X-9857D2*
X643D1*
X57643D2*
X68143D1*
X120643D2*
X131143D1*
X188143D2*
X198643D1*
X-195857Y1393867D2*
X-185298D1*
X-148107D2*
X-137363D1*
X-98357D2*
X-87857D1*
X-36260D2*
X-23865D1*
X-9857D2*
X643D1*
X57643D2*
X68143D1*
X120643D2*
X131143D1*
X188143D2*
X198643D1*
X-195857Y1392367D2*
X-185107D1*
X-148466D2*
X-137416D1*
X-98357D2*
X-87857D1*
X-37368D2*
X-25102D1*
X-9857D2*
X643D1*
X57643D2*
X68143D1*
X120643D2*
X131143D1*
X188143D2*
X198643D1*
X-195851Y1390867D2*
X-184748D1*
X-148851D2*
X-137607D1*
X-98357D2*
X-87857D1*
X-38603D2*
X-26463D1*
X-9857D2*
X643D1*
X57643D2*
X68143D1*
X120643D2*
X131143D1*
X188143D2*
X198643D1*
X-195798Y1389367D2*
X-184357D1*
X-149118D2*
X-137966D1*
X-98357D2*
X-87857D1*
X-39963D2*
X-27893D1*
X-9857D2*
X643D1*
X57643D2*
X68143D1*
X120643D2*
X131143D1*
X188143D2*
X198643D1*
X-195607Y1387867D2*
X-184043D1*
X-149310D2*
X-138351D1*
X-98357D2*
X-87857D1*
X-41393D2*
X-29314D1*
X-9857D2*
X643D1*
X57643D2*
X68143D1*
X120643D2*
X131143D1*
X188143D2*
X198643D1*
X-195242Y1386367D2*
X-183707D1*
X-149571D2*
X-138618D1*
X-98357D2*
X-87857D1*
X-42814D2*
X-30613D1*
X-9857D2*
X643D1*
X57643D2*
X68143D1*
X120643D2*
X131143D1*
X188143D2*
X198643D1*
X-194805Y1384867D2*
X-183226D1*
X-150015D2*
X-138810D1*
X-98357D2*
X-87857D1*
X-44113D2*
X-31750D1*
X-9857D2*
X643D1*
X57643D2*
X68143D1*
X120643D2*
X131143D1*
X188143D2*
X198643D1*
X-194346Y1383367D2*
X-182565D1*
X-150659D2*
X-139071D1*
X-98357D2*
X-87857D1*
X-45250D2*
X-32864D1*
X-9857D2*
X643D1*
X57643D2*
X68143D1*
X120643D2*
X131143D1*
X188143D2*
X198643D1*
X-193795Y1381867D2*
X-181672D1*
X-151545D2*
X-139515D1*
X-98357D2*
X-87857D1*
X-46364D2*
X-34102D1*
X-9857D2*
X643D1*
X57643D2*
X68143D1*
X120643D2*
X131143D1*
X188143D2*
X198643D1*
X-193150Y1380367D2*
X-180372D1*
X-152843D2*
X-140153D1*
X-98357D2*
X-87857D1*
X-47602D2*
X-35457D1*
X-9857D2*
X643D1*
X57643D2*
X68143D1*
X120643D2*
X131143D1*
X188143D2*
X198643D1*
X-192444Y1378867D2*
X-178671D1*
X-154543D2*
X-140975D1*
X-98357D2*
X-87857D1*
X-48963D2*
X-36840D1*
X-9857D2*
X643D1*
X57643D2*
X68143D1*
X120643D2*
X131143D1*
X188143D2*
X198643D1*
X-191660Y1377367D2*
X-173757D1*
X-159457D2*
X-141924D1*
X-98357D2*
X-87857D1*
X-50393D2*
X-38123D1*
X-9857D2*
X643D1*
X57643D2*
X68143D1*
X120643D2*
X131143D1*
X188143D2*
X198643D1*
X-190717Y1375867D2*
X-166161D1*
X-167053D2*
X-142936D1*
X-123857D2*
X-62357D1*
X-51814D2*
X-39254D1*
X-9857D2*
X643D1*
X23143D2*
X68143D1*
X86143D2*
X131143D1*
X153643D2*
X198643D1*
X-189498Y1374367D2*
X-144169D1*
X-123857D2*
X-62357D1*
X-53113D2*
X-40365D1*
X-9857D2*
X643D1*
X23143D2*
X68143D1*
X86143D2*
X131143D1*
X153643D2*
X198643D1*
X-187913Y1372867D2*
X-145806D1*
X-123857D2*
X-62357D1*
X-54250D2*
X-41602D1*
X-9857D2*
X643D1*
X23143D2*
X68143D1*
X86143D2*
X131143D1*
X153643D2*
X198643D1*
X-185822Y1371367D2*
X-147903D1*
X-123857D2*
X-62357D1*
X-55360D2*
X-42963D1*
X-9857D2*
X643D1*
X23143D2*
X68143D1*
X86143D2*
X131143D1*
X153643D2*
X198643D1*
X-183129Y1369867D2*
X-150665D1*
X-123857D2*
X-62357D1*
X-56575D2*
X-44396D1*
X-9857D2*
X643D1*
X23143D2*
X68143D1*
X86143D2*
X131143D1*
X153643D2*
X198643D1*
X-179885Y1368367D2*
X-154268D1*
X-123857D2*
X-62357D1*
X-57857D2*
X-45857D1*
X-9857D2*
X643D1*
X23143D2*
X68143D1*
X86143D2*
X131143D1*
X153643D2*
X198643D1*
X-176357Y1366867D2*
X-158357D1*
X-302542Y-323862D2*
D13*
X-277608D1*
X-268421D2*
X-261860D1*
X-253986D2*
X-229051D1*
X-302542Y-325175D2*
X-277613D1*
X-268421D2*
X-261860D1*
X-253986D2*
X-229056D1*
X-302542Y-326487D2*
X-277664D1*
X-268421D2*
X-261860D1*
X-253986D2*
X-229108D1*
X-302542Y-327799D2*
X-277883D1*
X-268421D2*
X-261860D1*
X-253986D2*
X-229326D1*
X-282857Y-329112D2*
X-278415D1*
X-268421D2*
X-261860D1*
X-234301D2*
X-229859D1*
X-284169Y-330424D2*
X-279285D1*
X-268421D2*
X-261860D1*
X-235613D2*
X-230728D1*
X-285482Y-331736D2*
X-280383D1*
X-236925D2*
X-231826D1*
X-286794Y-333049D2*
X-281603D1*
X-238238D2*
X-233046D1*
X-288106Y-334361D2*
X-282878D1*
X-239550D2*
X-234322D1*
X-289419Y-335673D2*
X-284177D1*
X-240862D2*
X-235620D1*
X-290731Y-336986D2*
X-285484D1*
X-242175D2*
X-236928D1*
X-292038Y-338298D2*
X-286790D1*
X-243482D2*
X-238233D1*
X-293304Y-339610D2*
X-288055D1*
X-244748D2*
X-239499D1*
X-294449Y-340923D2*
X-289200D1*
X-245893D2*
X-240644D1*
X-295442Y-342235D2*
X-290193D1*
X-246886D2*
X-241637D1*
X-296372Y-343547D2*
X-291123D1*
X-247816D2*
X-242566D1*
X-297283Y-344860D2*
X-292034D1*
X-248727D2*
X-243477D1*
X-298108Y-346172D2*
X-292864D1*
X-249552D2*
X-244308D1*
X-298810Y-347484D2*
X-293612D1*
X-250254D2*
X-245055D1*
X-299343Y-348797D2*
X-294307D1*
X-250786D2*
X-245750D1*
X-299701Y-350109D2*
X-294934D1*
X-251145D2*
X-246377D1*
X-300019Y-351421D2*
X-295425D1*
X-251462D2*
X-246869D1*
X-300355Y-352734D2*
X-295717D1*
X-251799D2*
X-247161D1*
X-300552Y-354046D2*
X-295820D1*
X-251996D2*
X-247264D1*
X-300477Y-355358D2*
X-295709D1*
X-251921D2*
X-247153D1*
X-300261Y-356671D2*
X-295426D1*
X-251704D2*
X-246869D1*
X-300038Y-357983D2*
X-294593D1*
X-251481D2*
X-246036D1*
X-299721Y-359295D2*
X-291818D1*
X-251164D2*
X-243262D1*
X-230364D2*
D3*
X-299136Y-360608D2*
X-287252D1*
X-282857D2*
X-278920D1*
X-250580D2*
X-238695D1*
X-237991D2*
X-230364D1*
X-298197Y-361920D2*
X-279002D1*
X-249641D2*
X-230446D1*
X-296889Y-363232D2*
X-279617D1*
X-248333D2*
X-231061D1*
X-295221Y-364545D2*
X-281663D1*
X-246664D2*
X-233106D1*
X-293356Y-365857D2*
X-284169D1*
X-244799D2*
X-235613D1*
X-301088Y-269840D2*
X-281403D1*
X-269592D2*
X-263030D1*
X-255156D2*
X-230222D1*
X-301088Y-271152D2*
X-281403D1*
X-269592D2*
X-263030D1*
X-255156D2*
X-230227D1*
X-301088Y-272465D2*
X-281403D1*
X-269592D2*
X-263030D1*
X-255156D2*
X-230278D1*
X-301088Y-273777D2*
X-281403D1*
X-269592D2*
X-263030D1*
X-255156D2*
X-230497D1*
X-293214Y-275089D2*
X-289277D1*
X-269592D2*
X-263030D1*
X-235471D2*
X-231029D1*
X-293214Y-276402D2*
X-289277D1*
X-269592D2*
X-263030D1*
X-236783D2*
X-231899D1*
X-293214Y-277714D2*
X-289277D1*
X-238096D2*
X-232997D1*
X-293214Y-279026D2*
X-289277D1*
X-239408D2*
X-234217D1*
X-293214Y-280339D2*
X-289277D1*
X-240720D2*
X-235492D1*
X-293214Y-281651D2*
X-289277D1*
X-242033D2*
X-236791D1*
X-293214Y-282963D2*
X-289277D1*
X-243345D2*
X-238098D1*
X-293214Y-284276D2*
X-289277D1*
X-244652D2*
X-239404D1*
X-293214Y-285588D2*
X-289277D1*
X-245919D2*
X-240669D1*
X-293214Y-286900D2*
X-289277D1*
X-247064D2*
X-241814D1*
X-293214Y-288213D2*
X-289277D1*
X-248057D2*
X-242807D1*
X-293214Y-289525D2*
X-289277D1*
X-248986D2*
X-243737D1*
X-293214Y-290837D2*
X-289277D1*
X-249897D2*
X-244648D1*
X-293214Y-292150D2*
X-289277D1*
X-250722D2*
X-245478D1*
X-293214Y-293462D2*
X-289277D1*
X-251424D2*
X-246226D1*
X-293214Y-294774D2*
X-289277D1*
X-251957D2*
X-246921D1*
X-293214Y-296087D2*
X-289277D1*
X-252315D2*
X-247548D1*
X-293214Y-297399D2*
X-289277D1*
X-252633D2*
X-248039D1*
X-293214Y-298711D2*
X-289277D1*
X-252969D2*
X-248332D1*
X-293214Y-300024D2*
X-289277D1*
X-253166D2*
X-248435D1*
X-293214Y-301336D2*
X-289277D1*
X-253091D2*
X-248323D1*
X-293214Y-302648D2*
X-281403D1*
X-252875D2*
X-248040D1*
X-293214Y-303961D2*
X-282059D1*
X-252652D2*
X-247207D1*
X-293214Y-305273D2*
X-283938D1*
X-252335D2*
X-244432D1*
X-293214Y-306585D2*
X-286144D1*
X-251750D2*
X-239866D1*
X-235471D2*
X-231534D1*
X-293214Y-307898D2*
X-288085D1*
X-250811D2*
X-231616D1*
X-293214Y-309210D2*
X-289491D1*
X-249503D2*
X-232231D1*
X-293214Y-310522D2*
X-290589D1*
X-247835D2*
X-234277D1*
X-245970Y-311835D2*
X-236783D1*
X-6318Y1778451D2*
D12*
X14682D1*
X-21293Y1775451D2*
X29096D1*
X-33387Y1772451D2*
X41040D1*
X-42704Y1769451D2*
X50554D1*
X-50247Y1766451D2*
X58235D1*
X-56786Y1763451D2*
X64644D1*
X-62544Y1760451D2*
X70138D1*
X-67432Y1757451D2*
X74996D1*
X-71584Y1754451D2*
X79313D1*
X-75467Y1751451D2*
X83157D1*
X-79401Y1748451D2*
X86802D1*
X-83256Y1745451D2*
X90311D1*
X-86799Y1742451D2*
X93520D1*
X-89974Y1739451D2*
X96575D1*
X-92642Y1736451D2*
X-9318D1*
X8682D2*
X99675D1*
X-94672Y1733451D2*
X-60318D1*
X58377D2*
X102566D1*
X-96318Y1730451D2*
X-93318D1*
X67396D2*
X105141D1*
X74281Y1727451D2*
X107481D1*
X79545Y1724451D2*
X109599D1*
X-63318Y1721451D2*
X44682D1*
X83780D2*
X111739D1*
X-82769Y1718451D2*
X41682D1*
X87105D2*
X114076D1*
X-96699Y1715451D2*
X38682D1*
X89612D2*
X116390D1*
X-106506Y1712451D2*
X35682D1*
X91585D2*
X118422D1*
X-110184Y1709451D2*
X32694D1*
X93184D2*
X120111D1*
X-112791Y1706451D2*
X29800D1*
X94375D2*
X121454D1*
X-114672Y1703451D2*
X27182D1*
X95068D2*
X122575D1*
X-116072Y1700451D2*
X24900D1*
X95301D2*
X123759D1*
X-117207Y1697451D2*
X22670D1*
X95211D2*
X125080D1*
X-118394Y1694451D2*
X20193D1*
X93864D2*
X126491D1*
X-119704Y1691451D2*
X17471D1*
X91852D2*
X127945D1*
X-121021Y1688451D2*
X14598D1*
X89338D2*
X129322D1*
X-122198Y1685451D2*
X11651D1*
X86549D2*
X130437D1*
X-123239Y1682451D2*
X8671D1*
X83634D2*
X131214D1*
X-124291Y1679451D2*
X5679D1*
X80665D2*
X131935D1*
X-125209Y1676451D2*
X2681D1*
X77677D2*
X132804D1*
X-125804Y1673451D2*
X-318D1*
X74692D2*
X133634D1*
X-126211Y1670451D2*
X-3318D1*
X71799D2*
X134192D1*
X-126729Y1667451D2*
X-6318D1*
X69182D2*
X134584D1*
X-127503Y1664451D2*
X-9306D1*
X66900D2*
X135096D1*
X-128293Y1661451D2*
X-12200D1*
X64670D2*
X135868D1*
X-128824Y1658451D2*
X-14830D1*
X62193D2*
X136658D1*
X-129105Y1655451D2*
X-17205D1*
X59471D2*
X137189D1*
X-129233Y1652451D2*
X-19713D1*
X56598D2*
X137470D1*
X-129286Y1649451D2*
X-22526D1*
X53651D2*
X137598D1*
X-129306Y1646451D2*
X-25298D1*
X50671D2*
X137651D1*
X-129314Y1643451D2*
X-27925D1*
X47679D2*
X137671D1*
X-129316Y1640451D2*
X-30627D1*
X44681D2*
X137679D1*
X-129317Y1637451D2*
X-33456D1*
X41682D2*
X137681D1*
X-129317Y1634451D2*
X-36374D1*
X38682D2*
X137682D1*
X-129318Y1631451D2*
X-39339D1*
X35694D2*
X137671D1*
X-129318Y1628451D2*
X-42325D1*
X32800D2*
X137565D1*
X-129306Y1625451D2*
X-45320D1*
X30182D2*
X137183D1*
X-129200Y1622451D2*
X-48318D1*
X27900D2*
X136464D1*
X-128818Y1619451D2*
X-51318D1*
X25670D2*
X135695D1*
X-128100Y1616451D2*
X-54306D1*
X23193D2*
X135172D1*
X-127330Y1613451D2*
X-57212D1*
X20471D2*
X134882D1*
X-126795Y1610451D2*
X-59924D1*
X17598D2*
X134649D1*
X-126412Y1607451D2*
X-62482D1*
X14651D2*
X134214D1*
X-125902Y1604451D2*
X-65049D1*
X11671D2*
X133464D1*
X-125119Y1601451D2*
X-67576D1*
X8679D2*
X132582D1*
X-124224Y1598451D2*
X-70052D1*
X5681D2*
X131674D1*
X-123300Y1595451D2*
X-72680D1*
X2694D2*
X130664D1*
X-122195Y1592451D2*
X-75476D1*
X-212D2*
X129662D1*
X-120915Y1589451D2*
X-78381D1*
X-2924D2*
X128692D1*
X-119609Y1586451D2*
X-81330D1*
X-5482D2*
X127570D1*
X-118436Y1583451D2*
X-84197D1*
X-8049D2*
X126272D1*
X-117384Y1580451D2*
X-86680D1*
X-10576D2*
X124870D1*
X-116227Y1577451D2*
X-88707D1*
X-13052D2*
X123407D1*
X-114915Y1574451D2*
X-89326D1*
X-15680D2*
X121925D1*
X-113496Y1571451D2*
X-88829D1*
X-18476D2*
X120428D1*
X-111926Y1568451D2*
X-88090D1*
X-21381D2*
X118909D1*
X-110061Y1565451D2*
X-87147D1*
X-24342D2*
X117103D1*
X-107845Y1562451D2*
X-85772D1*
X-27315D2*
X114837D1*
X-105569Y1559451D2*
X-83945D1*
X-30195D2*
X106969D1*
X-103450Y1556451D2*
X-81698D1*
X-32729D2*
X93230D1*
X-101374Y1553451D2*
X-78707D1*
X-34703D2*
X73399D1*
X-99198Y1550451D2*
X-74504D1*
X-36318D2*
X50682D1*
X-96832Y1547451D2*
X-68500D1*
X-94107Y1544451D2*
X-59889D1*
X-91191Y1541451D2*
X-48177D1*
X80682D2*
X98682D1*
X-88303Y1538451D2*
X-33827D1*
X53682D2*
X95682D1*
X-85210Y1535451D2*
X92671D1*
X-81880Y1532451D2*
X89565D1*
X-78487Y1529451D2*
X86171D1*
X-74835Y1526451D2*
X82335D1*
X-70644Y1523451D2*
X78079D1*
X-65993Y1520451D2*
X73431D1*
X-61082Y1517451D2*
X68442D1*
X-55652Y1514451D2*
X63118D1*
X-49310Y1511451D2*
X57098D1*
X-41916Y1508451D2*
X49983D1*
X-33440Y1505451D2*
X41682D1*
X-24318Y1502451D2*
X32682D1*
X429916Y325093D2*
D14*
X428633Y324109D1*
X427645Y323125D1*
X426902Y322140D1*
X426301Y321156D1*
X425799Y320172D1*
X425418Y319188D1*
X425190Y318203D1*
X425081Y317219D1*
X425065Y316235D1*
X425174Y315251D1*
X425441Y314266D1*
X425854Y313282D1*
X426428Y312298D1*
X427209Y311314D1*
X428226Y310329D1*
X429493Y309345D1*
X430900Y308361D1*
X449601Y325093D2*
X451036Y324109D1*
X452264Y323125D1*
X453228Y322140D1*
X453984Y321156D1*
X454261Y320172D1*
X454411Y319188D1*
X454479Y318203D1*
X454506Y317219D1*
X454517Y316235D1*
Y315251D1*
X454479Y314266D1*
X454316Y313282D1*
X453913Y312298D1*
X453223Y311314D1*
X452248Y310329D1*
X450999Y309345D1*
X449601Y308361D1*
X433853Y322140D2*
X432119Y321156D1*
X430724Y320172D1*
X429651Y319188D1*
X429278Y318203D1*
X429082Y317219D1*
X429031Y316235D1*
X429159Y315251D1*
X429541Y314266D1*
X430166Y313282D1*
X430900Y312298D1*
X446648Y322140D2*
X448382Y321156D1*
X449777Y320172D1*
X450850Y319188D1*
X451219Y318203D1*
X451385Y317219D1*
X451349Y316235D1*
X451149Y315251D1*
X450908Y314266D1*
X450726Y313282D1*
X450585Y312298D1*
X441727Y301471D2*
X439838Y300487D1*
X438323Y299503D1*
X437182Y298518D1*
X436345Y297534D1*
X435726Y296550D1*
X435293Y295566D1*
X435049Y294581D1*
X434962Y293597D1*
X435035Y292613D1*
X435258Y291629D1*
X435543Y290644D1*
X435822Y289660D1*
X429916Y288676D1*
X448617Y301471D2*
X450472Y300487D1*
X451892Y299503D1*
X452888Y298518D1*
X453583Y297534D1*
X454047Y296550D1*
X454308Y295566D1*
X454433Y294581D1*
X454488Y293597D1*
X454506Y292613D1*
X454479Y291629D1*
X454353Y290644D1*
X454076Y289660D1*
X453622Y288676D1*
X452887Y287692D1*
X451748Y286707D1*
X450260Y285723D1*
X448617Y284739D1*
X424995Y300487D2*
Y299503D1*
Y298518D1*
Y297534D1*
Y296550D1*
Y295566D1*
Y294581D1*
Y293597D1*
Y292613D1*
Y291629D1*
Y290644D1*
Y289660D1*
Y288676D1*
Y287692D1*
Y286707D1*
Y285723D1*
X428932Y300487D2*
Y299503D1*
Y298518D1*
Y297534D1*
Y296550D1*
Y295566D1*
Y294581D1*
Y293597D1*
Y292613D1*
Y291629D1*
Y290644D1*
Y289660D1*
X434837Y288676D1*
X440743Y297534D2*
X439952Y296550D1*
X439376Y295566D1*
X439047Y294581D1*
X438891Y293597D1*
X438860Y292613D1*
X438993Y291629D1*
X439343Y290644D1*
X439828Y289660D1*
X440251Y288676D1*
X440514Y287692D1*
X440654Y286707D1*
X440743Y285723D1*
X448617Y297534D2*
X449560Y296550D1*
X450379Y295566D1*
X450960Y294581D1*
X451348Y293597D1*
X451315Y292613D1*
X451132Y291629D1*
X450900Y290644D1*
X450723Y289660D1*
X450585Y288676D1*
X447633D1*
Y287692D1*
Y286707D1*
Y285723D1*
Y284739D1*
X446648Y278833D2*
Y277849D1*
Y276865D1*
X437790D1*
Y275881D1*
Y274896D1*
Y273912D1*
Y272928D1*
Y271944D1*
X446648D1*
Y270959D1*
Y269975D1*
Y268991D1*
X446641Y268007D1*
X446566Y267022D1*
X446387Y266038D1*
X445620Y265054D1*
X444680Y264070D1*
X449601Y278833D2*
Y277849D1*
Y276865D1*
X454522D1*
Y275881D1*
Y274896D1*
Y273912D1*
Y272928D1*
Y271944D1*
X449601D1*
Y270959D1*
Y269975D1*
Y268991D1*
Y268007D1*
Y267022D1*
Y266038D1*
Y265054D1*
Y264070D1*
Y263085D1*
Y262101D1*
Y261117D1*
Y260133D1*
X424995Y272928D2*
X425077Y271944D1*
X425264Y270959D1*
X426171Y269975D1*
X427501Y268991D1*
X429159Y268007D1*
X431025Y267022D1*
X433064Y266038D1*
X435248Y265054D1*
X437462Y264070D1*
X439599Y263085D1*
X441658Y262101D1*
X443670Y261117D1*
X445664Y260133D1*
X426963Y272928D2*
X429268Y271944D1*
X431530Y270959D1*
X433685Y269975D1*
X435750Y268991D1*
X437769Y268007D1*
X439831Y267022D1*
X442110Y266038D1*
X444754Y265054D1*
X447633Y264070D1*
X429916Y253243D2*
X428519Y252259D1*
X427413Y251274D1*
X426650Y250290D1*
X426129Y249306D1*
X425707Y248322D1*
X425376Y247337D1*
X425177Y246353D1*
X425109Y245369D1*
X425188Y244385D1*
X425409Y243400D1*
X425693Y242416D1*
X426030Y241432D1*
X426557Y240448D1*
X427402Y239463D1*
X428572Y238479D1*
X429916Y237495D1*
X435822Y253243D2*
X437412Y252259D1*
X438927Y251274D1*
X440344Y250290D1*
X441689Y249306D1*
X443030Y248322D1*
X444353Y247337D1*
X445659Y246353D1*
X447016Y245369D1*
X448452Y244385D1*
X449978Y243400D1*
X451570Y242416D1*
Y253243D2*
Y252259D1*
Y251274D1*
Y250290D1*
Y249306D1*
Y248322D1*
Y247337D1*
X451566Y246353D1*
X451528Y245369D1*
X451376Y244385D1*
X451040Y243400D1*
X450585Y242416D1*
X454522Y253243D2*
Y252259D1*
Y251274D1*
Y250290D1*
Y249306D1*
Y248322D1*
Y247337D1*
Y246353D1*
Y245369D1*
Y244385D1*
Y243400D1*
Y242416D1*
Y241432D1*
Y240448D1*
Y239463D1*
Y238479D1*
Y237495D1*
X431885Y250290D2*
X430942Y249306D1*
X430122Y248322D1*
X429537Y247337D1*
X429205Y246353D1*
X429052Y245369D1*
X429056Y244385D1*
X429194Y243400D1*
X429871Y242416D1*
X430630Y241432D1*
X431230Y240448D1*
X431586Y239463D1*
X431770Y238479D1*
X431885Y237495D1*
X430900Y250290D2*
X433618Y249306D1*
X435998Y248322D1*
X437900Y247337D1*
X439411Y246353D1*
X440750Y245369D1*
X442071Y244385D1*
X443380Y243400D1*
X444676Y242416D1*
X445996Y241432D1*
X447313Y240448D1*
X448640Y239463D1*
X450064Y238479D1*
X451570Y237495D1*
X453538Y230605D2*
X451607Y229621D1*
X449757Y228636D1*
X447950Y227652D1*
X445932Y226668D1*
X443477Y225684D1*
X440743Y224699D1*
X454522Y230605D2*
X454518Y229621D1*
X454476Y228636D1*
X454372Y227652D1*
X453874Y226668D1*
X452700Y225684D1*
X451193Y224699D1*
X449447Y223715D1*
X447581Y222731D1*
X445727Y221747D1*
X444100Y220762D1*
X442752Y219778D1*
X442227Y218794D1*
X441941Y217810D1*
X441811Y216825D1*
X441758Y215841D1*
X441738Y214857D1*
X441731Y213873D1*
X441727Y212888D1*
X429916Y229621D2*
X428633Y228636D1*
X427645Y227652D1*
X426902Y226668D1*
X426301Y225684D1*
X425799Y224699D1*
X425418Y223715D1*
X425190Y222731D1*
X425077Y221747D1*
X425027Y220762D1*
X425007Y219778D1*
X424999Y218794D1*
X424996Y217810D1*
X424995Y216825D1*
Y215841D1*
Y214857D1*
Y213873D1*
Y212888D1*
Y211904D1*
Y210920D1*
Y209936D1*
X437790Y229621D2*
X438782Y228636D1*
X439841Y227652D1*
X441130Y226668D1*
X442787Y225684D1*
X444680Y224699D1*
X433853Y226668D2*
X432119Y225684D1*
X430724Y224699D1*
X429651Y223715D1*
X429278Y222731D1*
X429078Y221747D1*
X428989Y220762D1*
X428953Y219778D1*
X428939Y218794D1*
X428934Y217810D1*
X428933Y216825D1*
X428932Y215841D1*
Y214857D1*
Y213873D1*
X437790Y212888D1*
X433853Y226668D2*
X435587Y225684D1*
X436982Y224699D1*
X438055Y223715D1*
X438428Y222731D1*
X438628Y221747D1*
X438717Y220762D1*
X438753Y219778D1*
X438767Y218794D1*
X438772Y217810D1*
X438773Y216825D1*
X438774Y215841D1*
Y214857D1*
Y213873D1*
X429916Y212888D1*
X454522D2*
Y211904D1*
Y210920D1*
Y209936D1*
X446648Y203046D2*
X446656Y202062D1*
X446729Y201077D1*
X446902Y200093D1*
X447625Y199109D1*
X448547Y198125D1*
X449509Y197140D1*
X450353Y196156D1*
X450952Y195172D1*
X451291Y194188D1*
X451451Y193203D1*
X451483Y192219D1*
X451347Y191235D1*
X450958Y190251D1*
X450310Y189266D1*
X449488Y188282D1*
X448576Y187298D1*
X447633Y186314D1*
Y203046D2*
X449370Y202062D1*
X450804Y201077D1*
X451878Y200093D1*
X452731Y199109D1*
X453449Y198125D1*
X453970Y197140D1*
X454271Y196156D1*
X454418Y195172D1*
X454482Y194188D1*
X454507Y193203D1*
X454517Y192219D1*
Y191235D1*
X454479Y190251D1*
X454320Y189266D1*
X453951Y188282D1*
X453390Y187298D1*
X452669Y186314D1*
X451696Y185329D1*
X450352Y184345D1*
X448616Y183361D1*
X446648Y182377D1*
X430900Y202062D2*
X429499Y201077D1*
X428362Y200093D1*
X427505Y199109D1*
X426839Y198125D1*
X426275Y197140D1*
X425789Y196156D1*
X425414Y195172D1*
X425189Y194188D1*
X425080Y193203D1*
X425065Y192219D1*
X425174Y191235D1*
X425437Y190251D1*
X425816Y189266D1*
X426261Y188282D1*
X426772Y187298D1*
X427423Y186314D1*
X428347Y185329D1*
X429615Y184345D1*
X431177Y183361D1*
X432869Y182377D1*
Y202062D2*
X432824Y201077D1*
X432719Y200093D1*
X432160Y199109D1*
X431385Y198125D1*
X430579Y197140D1*
X429907Y196156D1*
X429430Y195172D1*
X429158Y194188D1*
X429029Y193203D1*
X429010Y192219D1*
X429151Y191235D1*
X429542Y190251D1*
X430191Y189266D1*
X431013Y188282D1*
X431925Y187298D1*
X432869Y186314D1*
X-291761Y-444948D2*
D13*
Y-446260D1*
Y-447572D1*
Y-448885D1*
Y-450197D1*
Y-451509D1*
Y-452822D1*
Y-454134D1*
Y-455446D1*
X-303572D1*
Y-456759D1*
Y-458071D1*
Y-459383D1*
X-291761D1*
Y-460696D1*
Y-462008D1*
Y-463320D1*
Y-464633D1*
Y-465945D1*
Y-467257D1*
X-287824Y-444948D2*
Y-446260D1*
Y-447572D1*
Y-448885D1*
Y-450197D1*
Y-451509D1*
Y-452822D1*
Y-454134D1*
Y-455446D1*
X-277325D1*
Y-456759D1*
Y-458071D1*
Y-459383D1*
X-287824D1*
Y-460696D1*
Y-462008D1*
Y-463320D1*
Y-464633D1*
Y-465945D1*
Y-467257D1*
X-294802Y-228735D2*
Y-230047D1*
Y-231360D1*
X-280366Y-228735D2*
Y-230047D1*
Y-231360D1*
X-292549Y-382268D2*
X-295072Y-383580D1*
X-297133Y-384892D1*
X-298776Y-386205D1*
X-300039Y-387517D1*
X-301028Y-388829D1*
X-301441Y-390142D1*
X-301801Y-391454D1*
X-302159Y-392766D1*
X-302364Y-394079D1*
X-302288Y-395391D1*
X-302032Y-396703D1*
X-301688Y-398016D1*
X-301219Y-399328D1*
X-300561Y-400640D1*
X-299719Y-401953D1*
X-297762Y-403265D1*
X-295001Y-404577D1*
X-291527Y-405890D1*
X-287901Y-407202D1*
X-284798Y-408514D1*
X-282561Y-409827D1*
X-280902Y-411139D1*
X-280190Y-412451D1*
X-279703Y-413764D1*
X-279698Y-415076D1*
X-280162Y-416388D1*
X-281325Y-417701D1*
X-284457Y-419013D1*
X-289275Y-420325D1*
X-295173Y-421638D1*
X-282050Y-382268D2*
X-278887Y-383580D1*
X-276225Y-384892D1*
X-275000Y-386205D1*
X-274558Y-387517D1*
X-274322Y-388829D1*
X-274176Y-390142D1*
X-268927Y-383580D2*
Y-384892D1*
Y-386205D1*
Y-387517D1*
X-243992Y-383580D2*
Y-384892D1*
Y-386205D1*
Y-387517D1*
Y-388829D1*
Y-390142D1*
Y-391454D1*
Y-392766D1*
Y-394079D1*
Y-395391D1*
Y-396703D1*
Y-398016D1*
Y-399328D1*
Y-400640D1*
Y-401953D1*
Y-403265D1*
Y-404577D1*
Y-405890D1*
Y-407202D1*
Y-408514D1*
Y-409827D1*
Y-411139D1*
Y-412451D1*
Y-413764D1*
Y-415076D1*
Y-416388D1*
Y-417701D1*
Y-419013D1*
Y-420325D1*
Y-421638D1*
Y-422950D1*
Y-424262D1*
X-238743Y-383580D2*
X-237633Y-384892D1*
X-236646Y-386205D1*
X-235674Y-387517D1*
X-234596Y-388829D1*
X-233452Y-390142D1*
X-232363Y-391454D1*
X-231388Y-392766D1*
X-230426Y-394079D1*
X-229392Y-395391D1*
X-228375Y-396703D1*
X-227494Y-398016D1*
X-226735Y-399328D1*
X-226466Y-400640D1*
X-227017Y-401953D1*
X-228220Y-403265D1*
X-229467Y-404577D1*
X-230577Y-405890D1*
X-231414Y-407202D1*
X-232030Y-408514D1*
X-232562Y-409827D1*
X-232992Y-411139D1*
X-233253Y-412451D1*
X-233342Y-413764D1*
X-233230Y-415076D1*
X-232890Y-416388D1*
X-232344Y-417701D1*
X-231581Y-419013D1*
X-230541Y-420325D1*
X-229185Y-421638D1*
X-227496Y-422950D1*
X-225619Y-424262D1*
X-232181Y-383580D2*
X-231480Y-384892D1*
X-230590Y-386205D1*
X-229636Y-387517D1*
X-228723Y-388829D1*
X-227781Y-390142D1*
X-226716Y-391454D1*
X-225576Y-392766D1*
X-224488Y-394079D1*
X-223488Y-395391D1*
X-222271Y-396703D1*
X-220178Y-398016D1*
X-216752Y-399328D1*
X-212496Y-400640D1*
Y-383580D2*
Y-384892D1*
Y-386205D1*
Y-387517D1*
Y-388829D1*
Y-390142D1*
Y-391454D1*
Y-392766D1*
Y-394079D1*
Y-395391D1*
Y-396703D1*
Y-398016D1*
Y-399328D1*
X-219058Y-400640D1*
X-208559Y-383580D2*
Y-384892D1*
Y-386205D1*
Y-387517D1*
Y-388829D1*
Y-390142D1*
Y-391454D1*
Y-392766D1*
Y-394079D1*
Y-395391D1*
Y-396703D1*
Y-398016D1*
Y-399328D1*
Y-400640D1*
Y-401953D1*
Y-403265D1*
Y-404577D1*
Y-405890D1*
Y-407202D1*
Y-408514D1*
Y-409827D1*
Y-411139D1*
Y-412451D1*
Y-413764D1*
Y-415076D1*
Y-416388D1*
Y-417701D1*
Y-419013D1*
Y-420325D1*
Y-421638D1*
Y-422950D1*
Y-424262D1*
X-289924Y-386205D2*
X-292286Y-387517D1*
X-294314Y-388829D1*
X-295847Y-390142D1*
X-297012Y-391454D1*
X-297413Y-392766D1*
X-297581Y-394079D1*
X-297580Y-395391D1*
X-297060Y-396703D1*
X-295564Y-398016D1*
X-293204Y-399328D1*
X-289980Y-400640D1*
X-286439Y-401953D1*
X-283223Y-403265D1*
X-280650Y-404577D1*
X-278705Y-405890D1*
X-277292Y-407202D1*
X-276221Y-408514D1*
X-275843Y-409827D1*
X-275639Y-411139D1*
X-275547Y-412451D1*
X-275510Y-413764D1*
X-275501Y-415076D1*
X-275547Y-416388D1*
X-275764Y-417701D1*
X-276296Y-419013D1*
X-277176Y-420325D1*
X-278374Y-421638D1*
X-279999Y-422950D1*
X-282171Y-424262D1*
X-284675Y-425575D1*
Y-386205D2*
X-282050Y-387517D1*
X-279425Y-388829D1*
X-276801Y-390142D1*
X-247929Y-387517D2*
Y-388829D1*
Y-390142D1*
Y-391454D1*
Y-392766D1*
Y-394079D1*
Y-395391D1*
Y-396703D1*
Y-398016D1*
Y-399328D1*
Y-400640D1*
Y-401953D1*
Y-403265D1*
X-267614D2*
Y-404577D1*
Y-405890D1*
Y-407202D1*
X-222995Y-404577D2*
X-224302Y-405890D1*
X-225563Y-407202D1*
X-226657Y-408514D1*
X-227436Y-409827D1*
X-227879Y-411139D1*
X-228088Y-412451D1*
X-228125Y-413764D1*
X-228033Y-415076D1*
X-227213Y-416388D1*
X-223825Y-417701D1*
X-218217Y-419013D1*
X-211184Y-420325D1*
X-212496Y-404577D2*
Y-405890D1*
Y-407202D1*
Y-408514D1*
Y-409827D1*
Y-411139D1*
Y-412451D1*
Y-413764D1*
Y-415076D1*
Y-416388D1*
Y-417701D1*
Y-419013D1*
X-222995Y-420325D1*
X-247929Y-407202D2*
Y-408514D1*
Y-409827D1*
Y-411139D1*
Y-412451D1*
Y-413764D1*
Y-415076D1*
Y-416388D1*
Y-417701D1*
Y-419013D1*
Y-420325D1*
X-300423Y-419013D2*
X-300357Y-420325D1*
X-300202Y-421638D1*
X-299391Y-422950D1*
X-297439Y-424262D1*
X-295173Y-425575D1*
X-297798Y-419013D2*
X-290170Y-420325D1*
X-282050Y-421638D1*
X-268927Y-420325D2*
Y-421638D1*
Y-422950D1*
Y-424262D1*
X-440385Y467293D2*
X-442248Y465980D1*
X-443722Y464668D1*
X-444739Y463356D1*
X-445433Y462043D1*
X-445996Y460731D1*
X-446438Y459419D1*
X-446708Y458106D1*
X-446845Y456794D1*
X-446907Y455482D1*
X-446931Y454169D1*
X-446941Y452857D1*
X-446944Y451545D1*
X-446946Y450232D1*
Y448920D1*
Y447608D1*
Y446295D1*
Y444983D1*
X-410201Y467293D2*
Y465980D1*
Y464668D1*
Y463356D1*
Y462043D1*
Y460731D1*
Y459419D1*
Y458106D1*
Y456794D1*
Y455482D1*
Y454169D1*
Y452857D1*
Y451545D1*
Y450232D1*
Y448920D1*
Y447608D1*
Y446295D1*
Y444983D1*
X-440385Y462043D2*
X-441489Y460731D1*
X-442425Y459419D1*
X-443179Y458106D1*
X-443728Y456794D1*
X-444049Y455482D1*
X-444208Y454169D1*
X-444277Y452857D1*
X-444305Y451545D1*
X-444316Y450232D1*
X-444320Y448920D1*
X-444321Y447608D1*
Y446295D1*
X-444322Y444983D1*
X-429886Y462043D2*
Y460731D1*
Y459419D1*
Y458106D1*
Y456794D1*
Y455482D1*
Y454169D1*
Y452857D1*
Y451545D1*
Y450232D1*
Y448920D1*
Y447608D1*
X-427261Y462043D2*
Y460731D1*
Y459419D1*
Y458106D1*
Y456794D1*
Y455482D1*
Y454169D1*
Y452857D1*
Y451545D1*
Y450232D1*
Y448920D1*
Y447608D1*
X-412825Y462043D2*
Y460731D1*
Y459419D1*
Y458106D1*
Y456794D1*
Y455482D1*
Y454169D1*
Y452857D1*
Y451545D1*
Y450232D1*
Y448920D1*
Y447608D1*
Y446295D1*
Y444983D1*
X-446946Y433172D2*
Y431860D1*
Y430547D1*
Y429235D1*
X-410201Y433172D2*
Y431860D1*
Y430547D1*
Y429235D1*
Y427923D1*
Y426610D1*
Y425298D1*
Y423986D1*
Y422673D1*
Y421361D1*
Y420049D1*
Y418736D1*
Y417424D1*
Y416112D1*
Y414799D1*
Y413487D1*
Y412175D1*
X-429886Y429235D2*
Y427923D1*
Y426610D1*
Y425298D1*
Y423986D1*
Y422673D1*
Y421361D1*
Y420049D1*
Y418736D1*
Y417424D1*
Y416112D1*
Y414799D1*
Y413487D1*
X-427261Y429235D2*
Y427923D1*
Y426610D1*
Y425298D1*
Y423986D1*
Y422673D1*
Y421361D1*
Y420049D1*
Y418736D1*
Y417424D1*
Y416112D1*
Y414799D1*
Y413487D1*
X-412825Y429235D2*
Y427923D1*
Y426610D1*
Y425298D1*
Y423986D1*
Y422673D1*
Y421361D1*
Y420049D1*
Y418736D1*
Y417424D1*
Y416112D1*
Y414799D1*
Y413487D1*
Y412175D1*
X-440385Y402988D2*
X-442248Y401676D1*
X-443722Y400364D1*
X-444739Y399051D1*
X-445433Y397739D1*
X-445996Y396427D1*
X-446438Y395114D1*
X-446708Y393802D1*
X-446845Y392490D1*
X-446907Y391177D1*
X-446931Y389865D1*
X-446941Y388552D1*
X-446944Y387240D1*
X-446946Y385928D1*
Y384615D1*
Y383303D1*
Y381991D1*
Y380678D1*
X-410201Y402988D2*
Y401676D1*
Y400364D1*
Y399051D1*
Y397739D1*
Y396427D1*
Y395114D1*
Y393802D1*
Y392490D1*
Y391177D1*
Y389865D1*
Y388552D1*
Y387240D1*
Y385928D1*
Y384615D1*
Y383303D1*
Y381991D1*
Y380678D1*
X-440385Y397739D2*
X-441489Y396427D1*
X-442425Y395114D1*
X-443179Y393802D1*
X-443728Y392490D1*
X-444049Y391177D1*
X-444208Y389865D1*
X-444277Y388552D1*
X-444305Y387240D1*
X-444316Y385928D1*
X-444320Y384615D1*
X-444321Y383303D1*
Y381991D1*
X-444322Y380678D1*
X-429886Y397739D2*
Y396427D1*
Y395114D1*
Y393802D1*
Y392490D1*
Y391177D1*
Y389865D1*
Y388552D1*
Y387240D1*
Y385928D1*
Y384615D1*
Y383303D1*
X-427261Y397739D2*
Y396427D1*
Y395114D1*
Y393802D1*
Y392490D1*
Y391177D1*
Y389865D1*
Y388552D1*
Y387240D1*
Y385928D1*
Y384615D1*
Y383303D1*
X-412825Y397739D2*
Y396427D1*
Y395114D1*
Y393802D1*
Y392490D1*
Y391177D1*
Y389865D1*
Y388552D1*
Y387240D1*
Y385928D1*
Y384615D1*
Y383303D1*
Y381991D1*
Y380678D1*
X-446946Y368867D2*
Y367555D1*
Y366243D1*
Y364930D1*
X-440788Y363618D1*
X-436460Y362306D1*
X-433619Y360993D1*
X-431604Y359681D1*
X-429886Y358369D1*
X-430750Y357056D1*
X-431676Y355744D1*
X-432791Y354432D1*
X-434199Y353119D1*
X-436032Y351807D1*
X-438347Y350495D1*
X-440960Y349182D1*
X-443388Y347870D1*
X-445416Y346558D1*
X-446334Y345245D1*
X-446662Y343933D1*
X-446838Y342621D1*
X-446946Y341308D1*
X-410201Y368867D2*
Y367555D1*
Y366243D1*
Y364930D1*
X-432510D2*
X-430144Y363618D1*
X-428064Y362306D1*
X-426312Y360993D1*
X-424781Y359681D1*
X-423331Y358369D1*
X-421815Y357056D1*
X-420174Y355744D1*
X-418520Y354432D1*
X-416977Y353119D1*
X-415543Y351807D1*
X-414180Y350495D1*
X-412896Y349182D1*
X-411793Y347870D1*
X-411010Y346558D1*
X-410565Y345245D1*
X-410340Y343933D1*
X-410201Y342621D1*
X-425949Y354432D2*
X-427216Y353119D1*
X-428407Y351807D1*
X-429577Y350495D1*
X-430918Y349182D1*
X-432557Y347870D1*
X-434509Y346558D1*
X-436756Y345245D1*
X-439199Y343933D1*
X-441743Y342621D1*
X-444322Y341308D1*
X-424636Y354432D2*
X-423324Y353119D1*
X-422012Y351807D1*
X-420694Y350495D1*
X-419336Y349182D1*
X-417856Y347870D1*
X-416229Y346558D1*
X-414577Y345245D1*
X-413016Y343933D1*
X-411513Y342621D1*
X-412825Y337371D2*
Y336059D1*
Y334747D1*
Y333434D1*
Y332122D1*
Y330810D1*
Y329497D1*
Y328185D1*
Y326873D1*
Y325560D1*
X-410201Y337371D2*
Y336059D1*
Y334747D1*
Y333434D1*
Y332122D1*
Y330810D1*
Y329497D1*
Y328185D1*
Y326873D1*
Y325560D1*
Y324248D1*
Y322936D1*
Y321623D1*
Y320311D1*
Y318999D1*
Y317686D1*
Y316374D1*
Y315062D1*
Y313749D1*
Y312437D1*
Y311125D1*
Y309812D1*
Y308500D1*
Y307188D1*
X-446946Y325560D2*
Y324248D1*
Y322936D1*
Y321623D1*
Y320311D1*
X-412825D2*
Y318999D1*
Y317686D1*
Y316374D1*
Y315062D1*
Y313749D1*
Y312437D1*
Y311125D1*
Y309812D1*
Y308500D1*
Y307188D1*
X-446946Y300626D2*
Y299314D1*
Y298001D1*
Y296689D1*
Y295377D1*
X-432510D1*
Y294064D1*
Y292752D1*
Y291440D1*
Y290127D1*
Y288815D1*
Y287503D1*
Y286190D1*
Y284878D1*
Y283566D1*
Y282253D1*
Y280941D1*
Y279629D1*
Y278316D1*
X-446946D1*
Y277004D1*
Y275692D1*
Y274379D1*
Y273067D1*
X-416762Y300626D2*
X-414894Y299314D1*
X-413378Y298001D1*
X-412241Y296689D1*
X-411399Y295377D1*
X-410814Y294064D1*
X-410480Y292752D1*
X-410317Y291440D1*
X-410246Y290127D1*
X-410217Y288815D1*
X-410207Y287503D1*
X-410203Y286190D1*
X-410201Y284878D1*
X-410206Y283566D1*
X-410252Y282253D1*
X-410424Y280941D1*
X-410795Y279629D1*
X-411401Y278316D1*
X-412381Y277004D1*
X-413899Y275692D1*
X-415884Y274379D1*
X-418075Y273067D1*
X-427261Y296689D2*
X-428316Y295377D1*
X-429083Y294064D1*
X-429523Y292752D1*
X-429736Y291440D1*
X-429828Y290127D1*
X-429865Y288815D1*
X-429878Y287503D1*
X-429883Y286190D1*
X-429885Y284878D1*
X-429886Y283566D1*
Y282253D1*
Y280941D1*
Y279629D1*
X-416762Y278316D1*
X-423324Y296689D2*
X-419908Y295377D1*
X-417112Y294064D1*
X-414866Y292752D1*
X-413712Y291440D1*
X-413251Y290127D1*
X-413005Y288815D1*
X-412900Y287503D1*
X-412902Y286190D1*
X-413058Y284878D1*
X-413469Y283566D1*
X-414113Y282253D1*
X-417205Y280941D1*
X-422735Y279629D1*
X-429886Y278316D1*
X-446946Y259944D2*
Y258631D1*
Y257319D1*
Y256007D1*
Y254694D1*
Y253382D1*
Y252070D1*
Y250757D1*
Y249445D1*
Y248133D1*
Y246820D1*
Y245508D1*
Y244196D1*
Y242883D1*
Y241571D1*
Y240259D1*
Y238946D1*
X-410201Y259944D2*
Y258631D1*
Y257319D1*
Y256007D1*
X-444322D2*
Y254694D1*
Y253382D1*
Y252070D1*
Y250757D1*
Y249445D1*
Y248133D1*
Y246820D1*
Y245508D1*
Y244196D1*
Y242883D1*
Y241571D1*
Y240259D1*
Y238946D1*
X-446946Y231072D2*
Y229760D1*
Y228448D1*
Y227135D1*
Y225823D1*
X-432510D1*
Y224510D1*
Y223198D1*
Y221886D1*
Y220573D1*
Y219261D1*
Y217949D1*
Y216636D1*
Y215324D1*
Y214012D1*
Y212699D1*
Y211387D1*
Y210075D1*
Y208762D1*
X-446946D1*
Y207450D1*
Y206138D1*
Y204825D1*
Y203513D1*
X-416762Y231072D2*
X-414894Y229760D1*
X-413378Y228448D1*
X-412241Y227135D1*
X-411399Y225823D1*
X-410814Y224510D1*
X-410480Y223198D1*
X-410317Y221886D1*
X-410246Y220573D1*
X-410217Y219261D1*
X-410207Y217949D1*
X-410203Y216636D1*
X-410201Y215324D1*
X-410206Y214012D1*
X-410252Y212699D1*
X-410424Y211387D1*
X-410795Y210075D1*
X-411401Y208762D1*
X-412381Y207450D1*
X-413899Y206138D1*
X-415884Y204825D1*
X-418075Y203513D1*
X-427261Y227135D2*
X-428316Y225823D1*
X-429083Y224510D1*
X-429523Y223198D1*
X-429736Y221886D1*
X-429828Y220573D1*
X-429865Y219261D1*
X-429878Y217949D1*
X-429883Y216636D1*
X-429885Y215324D1*
X-429886Y214012D1*
Y212699D1*
Y211387D1*
Y210075D1*
X-416762Y208762D1*
X-423324Y227135D2*
X-419908Y225823D1*
X-417112Y224510D1*
X-414866Y223198D1*
X-413712Y221886D1*
X-413251Y220573D1*
X-413005Y219261D1*
X-412900Y217949D1*
X-412902Y216636D1*
X-413058Y215324D1*
X-413469Y214012D1*
X-414113Y212699D1*
X-417205Y211387D1*
X-422735Y210075D1*
X-429886Y208762D1*
X-444322Y191702D2*
X-444927Y190390D1*
X-445309Y189077D1*
X-445546Y187765D1*
X-445798Y186453D1*
X-446147Y185140D1*
X-446496Y183828D1*
X-446730Y182516D1*
X-446853Y181203D1*
X-446909Y179891D1*
X-446927Y178579D1*
X-446890Y177266D1*
X-446726Y175954D1*
X-446408Y174642D1*
X-446025Y173329D1*
X-445624Y172017D1*
X-445132Y170705D1*
X-444472Y169392D1*
X-443488Y168080D1*
X-442062Y166768D1*
X-440385Y165455D1*
X-410201Y191702D2*
Y190390D1*
Y189077D1*
Y187765D1*
Y186453D1*
Y185140D1*
Y183828D1*
Y182516D1*
Y181203D1*
Y179891D1*
Y178579D1*
Y177266D1*
X-410206Y175954D1*
X-410252Y174642D1*
X-410424Y173329D1*
X-410790Y172017D1*
X-411345Y170705D1*
X-412103Y169392D1*
X-413071Y168080D1*
X-414138Y166768D1*
X-443009Y186453D2*
X-443059Y185140D1*
X-443227Y183828D1*
X-443542Y182516D1*
X-443873Y181203D1*
X-444056Y179891D1*
X-444011Y178579D1*
X-443747Y177266D1*
X-443351Y175954D1*
X-442878Y174642D1*
X-441346Y173329D1*
X-437311Y172017D1*
X-432510Y170705D1*
X-429886Y186453D2*
Y185140D1*
Y183828D1*
Y182516D1*
Y181203D1*
Y179891D1*
X-429891Y178579D1*
X-429942Y177266D1*
X-430065Y175954D1*
X-430693Y174642D1*
X-433026Y173329D1*
X-436868Y172017D1*
X-441697Y170705D1*
X-427261Y186453D2*
Y185140D1*
Y183828D1*
X-427256Y182516D1*
X-427210Y181203D1*
X-427043Y179891D1*
X-426723Y178579D1*
X-426330Y177266D1*
X-425816Y175954D1*
X-425090Y174642D1*
X-422807Y173329D1*
X-419455Y172017D1*
X-415450Y170705D1*
X-412825Y186453D2*
Y185140D1*
Y183828D1*
Y182516D1*
Y181203D1*
Y179891D1*
X-412831Y178579D1*
X-412887Y177266D1*
X-413025Y175954D1*
X-413751Y174642D1*
X-415997Y173329D1*
X-419331Y172017D1*
X-423324Y170705D1*
X-427261D2*
X-428573Y169392D1*
X-429886Y168080D1*
X-431198Y166768D1*
X-432510Y165455D1*
X-427261Y170705D2*
X-425949Y169392D1*
X-424636Y168080D1*
X-423324Y166768D1*
X-445634Y156269D2*
X-446033Y154957D1*
X-446362Y153644D1*
X-446205Y152332D1*
X-445930Y151020D1*
X-445634Y149707D1*
X-443009Y156269D2*
X-442409Y154957D1*
X-442082Y153644D1*
X-441967Y152332D1*
X-442423Y151020D1*
X-443009Y149707D1*
X-436448Y140521D2*
X-438966Y139209D1*
X-440986Y137896D1*
X-442508Y136584D1*
X-443624Y135272D1*
X-444455Y133959D1*
X-445077Y132647D1*
X-445575Y131335D1*
X-446051Y130022D1*
X-446458Y128710D1*
X-446716Y127398D1*
X-446848Y126085D1*
X-446907Y124773D1*
X-446927Y123461D1*
X-446890Y122148D1*
X-446726Y120836D1*
X-446413Y119524D1*
X-446073Y118211D1*
X-445825Y116899D1*
X-445634Y115587D1*
X-419387Y140521D2*
X-417026Y139209D1*
X-414997Y137896D1*
X-413458Y136584D1*
X-412420Y135272D1*
X-411717Y133959D1*
X-411152Y132647D1*
X-410709Y131335D1*
X-410439Y130022D1*
X-410302Y128710D1*
X-410240Y127398D1*
X-410215Y126085D1*
X-410206Y124773D1*
X-410203Y123461D1*
X-410201Y122148D1*
Y120836D1*
Y119524D1*
Y118211D1*
Y116899D1*
Y115587D1*
X-424636Y136584D2*
X-430369Y135272D1*
X-435072Y133959D1*
X-438431Y132647D1*
X-440939Y131335D1*
X-442010Y130022D1*
X-442762Y128710D1*
X-443353Y127398D1*
X-443802Y126085D1*
X-444030Y124773D1*
X-444002Y123461D1*
X-443749Y122148D1*
X-443437Y120836D1*
X-443218Y119524D1*
X-443100Y118211D1*
X-443043Y116899D1*
X-443009Y115587D1*
X-431198Y136584D2*
X-425465Y135272D1*
X-420763Y133959D1*
X-417404Y132647D1*
X-414895Y131335D1*
X-413716Y130022D1*
X-413251Y128710D1*
X-413004Y127398D1*
X-412895Y126085D1*
X-412851Y124773D1*
X-412834Y123461D1*
X-412828Y122148D1*
X-412826Y120836D1*
Y119524D1*
Y118211D1*
X-412825Y116899D1*
Y115587D1*
X-436448Y107713D2*
X-438966Y106400D1*
X-440986Y105088D1*
X-442508Y103776D1*
X-443624Y102463D1*
X-444455Y101151D1*
X-445077Y99839D1*
X-445575Y98526D1*
X-446051Y97214D1*
X-446458Y95902D1*
X-446716Y94589D1*
X-446843Y93277D1*
X-446856Y91965D1*
X-446713Y90652D1*
X-446408Y89340D1*
X-446070Y88028D1*
X-445791Y86715D1*
X-445451Y85403D1*
X-444863Y84091D1*
X-443965Y82778D1*
X-442797Y81466D1*
X-441256Y80154D1*
X-439045Y78841D1*
X-436010Y77529D1*
X-432510Y76217D1*
X-419387Y107713D2*
X-417026Y106400D1*
X-414992Y105088D1*
X-413412Y103776D1*
X-412252Y102463D1*
X-411403Y101151D1*
X-410816Y99839D1*
X-410480Y98526D1*
X-410317Y97214D1*
X-410246Y95902D1*
X-410217Y94589D1*
X-410207Y93277D1*
X-410203Y91965D1*
X-410201Y90652D1*
X-410206Y89340D1*
X-410252Y88028D1*
X-410424Y86715D1*
X-410790Y85403D1*
X-411345Y84091D1*
X-412112Y82778D1*
X-413164Y81466D1*
X-414636Y80154D1*
X-416813Y78841D1*
X-419833Y77529D1*
X-423324Y76217D1*
X-424636Y103776D2*
X-430369Y102463D1*
X-435072Y101151D1*
X-438431Y99839D1*
X-440939Y98526D1*
X-442010Y97214D1*
X-442762Y95902D1*
X-443348Y94589D1*
X-443755Y93277D1*
X-443975Y91965D1*
X-443665Y90652D1*
X-443191Y89340D1*
X-442560Y88028D1*
X-441790Y86715D1*
X-440160Y85403D1*
X-435477Y84091D1*
X-428245Y82778D1*
X-419387Y81466D1*
X-431198Y103776D2*
X-425465Y102463D1*
X-420763Y101151D1*
X-417404Y99839D1*
X-414895Y98526D1*
X-413716Y97214D1*
X-413251Y95902D1*
X-413004Y94589D1*
X-412895Y93277D1*
X-412856Y91965D1*
X-412891Y90652D1*
X-413103Y89340D1*
X-413510Y88028D1*
X-414683Y86715D1*
X-416274Y85403D1*
X-421388Y84091D1*
X-429339Y82778D1*
X-439072Y81466D1*
X-446946Y65718D2*
Y64406D1*
Y63093D1*
Y61781D1*
X-410201Y65718D2*
X-410206Y64406D1*
X-410257Y63093D1*
X-410481Y61781D1*
X-410906Y60469D1*
X-412063Y59156D1*
X-413550Y57844D1*
X-415286Y56531D1*
X-417153Y55219D1*
X-419083Y53907D1*
X-421035Y52594D1*
X-422994Y51282D1*
X-424914Y49970D1*
X-426714Y48657D1*
X-428343Y47345D1*
X-429886Y46033D1*
X-427760Y44720D1*
X-425699Y43408D1*
X-423684Y42096D1*
X-421697Y40783D1*
X-419719Y39471D1*
X-417749Y38159D1*
X-415788Y36846D1*
X-413918Y35534D1*
X-412339Y34222D1*
X-411085Y32909D1*
X-410629Y31597D1*
X-410382Y30285D1*
X-410272Y28972D1*
X-410225Y27660D1*
X-410201Y26348D1*
X-416762Y61781D2*
X-418283Y60469D1*
X-419967Y59156D1*
X-421791Y57844D1*
X-423694Y56531D1*
X-425637Y55219D1*
X-427594Y53907D1*
X-429550Y52594D1*
X-431419Y51282D1*
X-432997Y49970D1*
X-434251Y48657D1*
X-434765Y47345D1*
X-434808Y46033D1*
X-434248Y44720D1*
X-432902Y43408D1*
X-431271Y42096D1*
X-429458Y40783D1*
X-427552Y39471D1*
X-425608Y38159D1*
X-423652Y36846D1*
X-421734Y35534D1*
X-419934Y34222D1*
X-418305Y32909D1*
X-416762Y31597D1*
X-446946D2*
Y30285D1*
Y28972D1*
Y27660D1*
Y26348D1*
X-195857Y1444867D2*
D12*
Y1443367D1*
Y1441867D1*
Y1440367D1*
Y1438867D1*
Y1437367D1*
Y1435867D1*
Y1434367D1*
Y1432867D1*
Y1431367D1*
Y1429867D1*
Y1428367D1*
Y1426867D1*
Y1425367D1*
Y1423867D1*
Y1422367D1*
Y1420867D1*
Y1419367D1*
Y1417867D1*
Y1416367D1*
Y1414867D1*
Y1413367D1*
Y1411867D1*
Y1410367D1*
Y1408867D1*
Y1407367D1*
Y1405867D1*
Y1404367D1*
Y1402867D1*
Y1401367D1*
Y1399867D1*
Y1398367D1*
Y1396867D1*
Y1395367D1*
Y1393867D1*
Y1392367D1*
X-195851Y1390867D1*
X-195798Y1389367D1*
X-195607Y1387867D1*
X-195242Y1386367D1*
X-194805Y1384867D1*
X-194346Y1383367D1*
X-193795Y1381867D1*
X-193150Y1380367D1*
X-192444Y1378867D1*
X-191660Y1377367D1*
X-190717Y1375867D1*
X-189498Y1374367D1*
X-187913Y1372867D1*
X-185822Y1371367D1*
X-183129Y1369867D1*
X-179885Y1368367D1*
X-176357Y1366867D1*
X-185357Y1444867D2*
Y1443367D1*
Y1441867D1*
Y1440367D1*
Y1438867D1*
Y1437367D1*
Y1435867D1*
Y1434367D1*
Y1432867D1*
Y1431367D1*
Y1429867D1*
Y1428367D1*
Y1426867D1*
Y1425367D1*
Y1423867D1*
Y1422367D1*
Y1420867D1*
Y1419367D1*
Y1417867D1*
Y1416367D1*
X-147857Y1444867D2*
Y1443367D1*
Y1441867D1*
Y1440367D1*
Y1438867D1*
Y1437367D1*
Y1435867D1*
Y1434367D1*
Y1432867D1*
Y1431367D1*
Y1429867D1*
Y1428367D1*
Y1426867D1*
Y1425367D1*
Y1423867D1*
Y1422367D1*
Y1420867D1*
Y1419367D1*
Y1417867D1*
Y1416367D1*
X-137357Y1444867D2*
Y1443367D1*
Y1441867D1*
Y1440367D1*
Y1438867D1*
Y1437367D1*
Y1435867D1*
Y1434367D1*
Y1432867D1*
Y1431367D1*
Y1429867D1*
Y1428367D1*
Y1426867D1*
Y1425367D1*
Y1423867D1*
Y1422367D1*
Y1420867D1*
Y1419367D1*
Y1417867D1*
Y1416367D1*
Y1414867D1*
Y1413367D1*
Y1411867D1*
Y1410367D1*
Y1408867D1*
Y1407367D1*
Y1405867D1*
Y1404367D1*
Y1402867D1*
Y1401367D1*
Y1399867D1*
Y1398367D1*
Y1396867D1*
Y1395367D1*
X-137363Y1393867D1*
X-137416Y1392367D1*
X-137607Y1390867D1*
X-137966Y1389367D1*
X-138351Y1387867D1*
X-138618Y1386367D1*
X-138810Y1384867D1*
X-139071Y1383367D1*
X-139515Y1381867D1*
X-140153Y1380367D1*
X-140975Y1378867D1*
X-141924Y1377367D1*
X-142936Y1375867D1*
X-144169Y1374367D1*
X-145806Y1372867D1*
X-147903Y1371367D1*
X-150665Y1369867D1*
X-154268Y1368367D1*
X-158357Y1366867D1*
X-98357Y1444867D2*
Y1443367D1*
Y1441867D1*
Y1440367D1*
Y1438867D1*
Y1437367D1*
Y1435867D1*
Y1434367D1*
Y1432867D1*
Y1431367D1*
Y1429867D1*
Y1428367D1*
Y1426867D1*
Y1425367D1*
Y1423867D1*
Y1422367D1*
Y1420867D1*
Y1419367D1*
Y1417867D1*
Y1416367D1*
Y1414867D1*
Y1413367D1*
Y1411867D1*
Y1410367D1*
Y1408867D1*
Y1407367D1*
Y1405867D1*
Y1404367D1*
Y1402867D1*
Y1401367D1*
Y1399867D1*
Y1398367D1*
Y1396867D1*
Y1395367D1*
Y1393867D1*
Y1392367D1*
Y1390867D1*
Y1389367D1*
Y1387867D1*
Y1386367D1*
Y1384867D1*
Y1383367D1*
Y1381867D1*
Y1380367D1*
Y1378867D1*
Y1377367D1*
Y1375867D1*
X-87857Y1444867D2*
Y1443367D1*
Y1441867D1*
Y1440367D1*
Y1438867D1*
Y1437367D1*
Y1435867D1*
Y1434367D1*
Y1432867D1*
Y1431367D1*
Y1429867D1*
Y1428367D1*
Y1426867D1*
Y1425367D1*
Y1423867D1*
Y1422367D1*
Y1420867D1*
Y1419367D1*
Y1417867D1*
Y1416367D1*
Y1414867D1*
Y1413367D1*
Y1411867D1*
Y1410367D1*
Y1408867D1*
Y1407367D1*
Y1405867D1*
Y1404367D1*
Y1402867D1*
Y1401367D1*
Y1399867D1*
Y1398367D1*
Y1396867D1*
Y1395367D1*
Y1393867D1*
Y1392367D1*
Y1390867D1*
Y1389367D1*
Y1387867D1*
Y1386367D1*
Y1384867D1*
Y1383367D1*
Y1381867D1*
Y1380367D1*
Y1378867D1*
Y1377367D1*
Y1375867D1*
X-57857Y1444867D2*
X-57338Y1443367D1*
X-56839Y1441867D1*
X-56358Y1440367D1*
X-55799Y1438867D1*
X-55151Y1437367D1*
X-54450Y1435867D1*
X-53719Y1434367D1*
X-52978Y1432867D1*
X-52236Y1431367D1*
X-51535Y1429867D1*
X-50928Y1428367D1*
X-50394Y1426867D1*
X-49813Y1425367D1*
X-49156Y1423867D1*
X-48446Y1422367D1*
X-47667Y1420867D1*
X-46781Y1419367D1*
X-45812Y1417867D1*
X-44842Y1416367D1*
X-43802Y1414867D1*
X-42594Y1413367D1*
X-41245Y1411867D1*
X-39807Y1410367D1*
X-38276Y1408867D1*
X-36549Y1407367D1*
X-34566Y1405867D1*
X-32632Y1404367D1*
X-31011Y1402867D1*
X-30357Y1401367D1*
X-31369Y1399867D1*
X-32578Y1398367D1*
X-33890Y1396867D1*
X-35142Y1395367D1*
X-36260Y1393867D1*
X-37368Y1392367D1*
X-38603Y1390867D1*
X-39963Y1389367D1*
X-41393Y1387867D1*
X-42814Y1386367D1*
X-44113Y1384867D1*
X-45250Y1383367D1*
X-46364Y1381867D1*
X-47602Y1380367D1*
X-48963Y1378867D1*
X-50393Y1377367D1*
X-51814Y1375867D1*
X-53113Y1374367D1*
X-54250Y1372867D1*
X-55360Y1371367D1*
X-56575Y1369867D1*
X-57857Y1368367D1*
X-45857Y1444867D2*
X-45287Y1443367D1*
X-44642Y1441867D1*
X-43946Y1440367D1*
X-43223Y1438867D1*
X-42530Y1437367D1*
X-41927Y1435867D1*
X-41394Y1434367D1*
X-40813Y1432867D1*
X-40156Y1431367D1*
X-39452Y1429867D1*
X-38720Y1428367D1*
X-37973Y1426867D1*
X-37177Y1425367D1*
X-36285Y1423867D1*
X-35313Y1422367D1*
X-34342Y1420867D1*
X-33296Y1419367D1*
X-32006Y1417867D1*
X-30179Y1416367D1*
X-27216Y1414867D1*
X-22734Y1413367D1*
X-17357Y1411867D1*
X-9857Y1444867D2*
Y1443367D1*
Y1441867D1*
Y1440367D1*
Y1438867D1*
Y1437367D1*
Y1435867D1*
Y1434367D1*
Y1432867D1*
Y1431367D1*
Y1429867D1*
X-9863Y1428367D1*
X-9916Y1426867D1*
X-10113Y1425367D1*
X-10530Y1423867D1*
X-11165Y1422367D1*
X-12035Y1420867D1*
X-13168Y1419367D1*
X-14510Y1417867D1*
X-16159Y1416367D1*
X-18555Y1414867D1*
X-22094Y1413367D1*
X-26357Y1411867D1*
X643Y1444867D2*
Y1443367D1*
Y1441867D1*
Y1440367D1*
Y1438867D1*
Y1437367D1*
Y1435867D1*
Y1434367D1*
Y1432867D1*
Y1431367D1*
Y1429867D1*
Y1428367D1*
Y1426867D1*
Y1425367D1*
Y1423867D1*
Y1422367D1*
Y1420867D1*
Y1419367D1*
Y1417867D1*
Y1416367D1*
Y1414867D1*
Y1413367D1*
Y1411867D1*
Y1410367D1*
Y1408867D1*
Y1407367D1*
Y1405867D1*
Y1404367D1*
Y1402867D1*
Y1401367D1*
Y1399867D1*
Y1398367D1*
Y1396867D1*
Y1395367D1*
Y1393867D1*
Y1392367D1*
Y1390867D1*
Y1389367D1*
Y1387867D1*
Y1386367D1*
Y1384867D1*
Y1383367D1*
Y1381867D1*
Y1380367D1*
Y1378867D1*
Y1377367D1*
Y1375867D1*
Y1374367D1*
Y1372867D1*
Y1371367D1*
Y1369867D1*
Y1368367D1*
X21643Y1444867D2*
Y1443367D1*
Y1441867D1*
Y1440367D1*
Y1438867D1*
Y1437367D1*
X53143Y1444867D2*
X56946Y1443367D1*
X60058Y1441867D1*
X62403Y1440367D1*
X64044Y1438867D1*
X65219Y1437367D1*
X66148Y1435867D1*
X66917Y1434367D1*
X67498Y1432867D1*
X67845Y1431367D1*
X68018Y1429867D1*
X68094Y1428367D1*
X68125Y1426867D1*
X68137Y1425367D1*
X68141Y1423867D1*
X68142Y1422367D1*
X68143Y1420867D1*
Y1419367D1*
Y1417867D1*
Y1416367D1*
Y1414867D1*
Y1413367D1*
Y1411867D1*
Y1410367D1*
Y1408867D1*
Y1407367D1*
Y1405867D1*
Y1404367D1*
Y1402867D1*
Y1401367D1*
Y1399867D1*
Y1398367D1*
Y1396867D1*
Y1395367D1*
Y1393867D1*
Y1392367D1*
Y1390867D1*
Y1389367D1*
Y1387867D1*
Y1386367D1*
Y1384867D1*
Y1383367D1*
Y1381867D1*
Y1380367D1*
Y1378867D1*
Y1377367D1*
Y1375867D1*
Y1374367D1*
Y1372867D1*
Y1371367D1*
Y1369867D1*
Y1368367D1*
X120643Y1444867D2*
Y1443367D1*
Y1441867D1*
Y1440367D1*
Y1438867D1*
Y1437367D1*
Y1435867D1*
Y1434367D1*
Y1432867D1*
Y1431367D1*
Y1429867D1*
Y1428367D1*
Y1426867D1*
Y1425367D1*
Y1423867D1*
Y1422367D1*
Y1420867D1*
Y1419367D1*
Y1417867D1*
Y1416367D1*
Y1414867D1*
Y1413367D1*
Y1411867D1*
Y1410367D1*
X131143Y1444867D2*
Y1443367D1*
Y1441867D1*
Y1440367D1*
Y1438867D1*
Y1437367D1*
Y1435867D1*
Y1434367D1*
Y1432867D1*
Y1431367D1*
Y1429867D1*
Y1428367D1*
Y1426867D1*
Y1425367D1*
Y1423867D1*
Y1422367D1*
Y1420867D1*
Y1419367D1*
Y1417867D1*
Y1416367D1*
Y1414867D1*
Y1413367D1*
Y1411867D1*
Y1410367D1*
Y1408867D1*
Y1407367D1*
Y1405867D1*
Y1404367D1*
Y1402867D1*
Y1401367D1*
Y1399867D1*
Y1398367D1*
Y1396867D1*
Y1395367D1*
Y1393867D1*
Y1392367D1*
Y1390867D1*
Y1389367D1*
Y1387867D1*
Y1386367D1*
Y1384867D1*
Y1383367D1*
Y1381867D1*
Y1380367D1*
Y1378867D1*
Y1377367D1*
Y1375867D1*
Y1374367D1*
Y1372867D1*
Y1371367D1*
Y1369867D1*
Y1368367D1*
X152143Y1444867D2*
Y1443367D1*
Y1441867D1*
Y1440367D1*
Y1438867D1*
Y1437367D1*
X183643Y1444867D2*
X187446Y1443367D1*
X190558Y1441867D1*
X192903Y1440367D1*
X194544Y1438867D1*
X195719Y1437367D1*
X196648Y1435867D1*
X197417Y1434367D1*
X197998Y1432867D1*
X198345Y1431367D1*
X198518Y1429867D1*
X198594Y1428367D1*
X198625Y1426867D1*
X198637Y1425367D1*
X198641Y1423867D1*
X198642Y1422367D1*
X198643Y1420867D1*
Y1419367D1*
Y1417867D1*
Y1416367D1*
Y1414867D1*
Y1413367D1*
Y1411867D1*
Y1410367D1*
Y1408867D1*
Y1407367D1*
Y1405867D1*
Y1404367D1*
Y1402867D1*
Y1401367D1*
Y1399867D1*
Y1398367D1*
Y1396867D1*
Y1395367D1*
Y1393867D1*
Y1392367D1*
Y1390867D1*
Y1389367D1*
Y1387867D1*
Y1386367D1*
Y1384867D1*
Y1383367D1*
Y1381867D1*
Y1380367D1*
Y1378867D1*
Y1377367D1*
Y1375867D1*
Y1374367D1*
Y1372867D1*
Y1371367D1*
Y1369867D1*
Y1368367D1*
X48643Y1437367D2*
X51291Y1435867D1*
X53470Y1434367D1*
X55054Y1432867D1*
X56164Y1431367D1*
X56898Y1429867D1*
X57308Y1428367D1*
X57505Y1426867D1*
X57590Y1425367D1*
X57623Y1423867D1*
X57636Y1422367D1*
X57641Y1420867D1*
X57642Y1419367D1*
X57643Y1417867D1*
Y1416367D1*
Y1414867D1*
Y1413367D1*
Y1411867D1*
Y1410367D1*
Y1408867D1*
X179143Y1437367D2*
X181791Y1435867D1*
X183970Y1434367D1*
X185554Y1432867D1*
X186664Y1431367D1*
X187398Y1429867D1*
X187808Y1428367D1*
X188005Y1426867D1*
X188090Y1425367D1*
X188123Y1423867D1*
X188136Y1422367D1*
X188141Y1420867D1*
X188142Y1419367D1*
X188143Y1417867D1*
Y1416367D1*
Y1414867D1*
Y1413367D1*
Y1411867D1*
Y1410367D1*
Y1408867D1*
X90643Y1410367D2*
Y1408867D1*
Y1407367D1*
Y1405867D1*
Y1404367D1*
Y1402867D1*
X26143Y1408867D2*
Y1407367D1*
Y1405867D1*
Y1404367D1*
Y1402867D1*
Y1401367D1*
X156643Y1408867D2*
Y1407367D1*
Y1405867D1*
Y1404367D1*
Y1402867D1*
Y1401367D1*
X-185357Y1408867D2*
Y1407367D1*
Y1405867D1*
Y1404367D1*
Y1402867D1*
Y1401367D1*
Y1399867D1*
Y1398367D1*
Y1396867D1*
X-185351Y1395367D1*
X-185298Y1393867D1*
X-185107Y1392367D1*
X-184748Y1390867D1*
X-184357Y1389367D1*
X-184043Y1387867D1*
X-183707Y1386367D1*
X-183226Y1384867D1*
X-182565Y1383367D1*
X-181672Y1381867D1*
X-180372Y1380367D1*
X-178671Y1378867D1*
X-173757Y1377367D1*
X-166161Y1375867D1*
X-156857Y1374367D1*
X-147857Y1408867D2*
Y1407367D1*
Y1405867D1*
Y1404367D1*
Y1402867D1*
Y1401367D1*
Y1399867D1*
Y1398367D1*
X-147863Y1396867D1*
X-147916Y1395367D1*
X-148107Y1393867D1*
X-148466Y1392367D1*
X-148851Y1390867D1*
X-149118Y1389367D1*
X-149310Y1387867D1*
X-149571Y1386367D1*
X-150015Y1384867D1*
X-150659Y1383367D1*
X-151545Y1381867D1*
X-152843Y1380367D1*
X-154543Y1378867D1*
X-159457Y1377367D1*
X-167053Y1375867D1*
X-176357Y1374367D1*
X-11357Y1408867D2*
X-12800Y1407367D1*
X-14108Y1405867D1*
X-15248Y1404367D1*
X-16363Y1402867D1*
X-17602Y1401367D1*
X-18957Y1399867D1*
X-20340Y1398367D1*
X-21623Y1396867D1*
X-22754Y1395367D1*
X-23865Y1393867D1*
X-25102Y1392367D1*
X-26463Y1390867D1*
X-27893Y1389367D1*
X-29314Y1387867D1*
X-30613Y1386367D1*
X-31750Y1384867D1*
X-32864Y1383367D1*
X-34102Y1381867D1*
X-35457Y1380367D1*
X-36840Y1378867D1*
X-38123Y1377367D1*
X-39254Y1375867D1*
X-40365Y1374367D1*
X-41602Y1372867D1*
X-42963Y1371367D1*
X-44396Y1369867D1*
X-45857Y1368367D1*
X-9857Y1408867D2*
Y1407367D1*
Y1405867D1*
Y1404367D1*
Y1402867D1*
Y1401367D1*
Y1399867D1*
Y1398367D1*
Y1396867D1*
Y1395367D1*
Y1393867D1*
Y1392367D1*
Y1390867D1*
Y1389367D1*
Y1387867D1*
Y1386367D1*
Y1384867D1*
Y1383367D1*
Y1381867D1*
Y1380367D1*
Y1378867D1*
Y1377367D1*
Y1375867D1*
Y1374367D1*
Y1372867D1*
Y1371367D1*
Y1369867D1*
Y1368367D1*
X120643Y1402867D2*
Y1401367D1*
Y1399867D1*
Y1398367D1*
Y1396867D1*
Y1395367D1*
Y1393867D1*
Y1392367D1*
Y1390867D1*
Y1389367D1*
Y1387867D1*
Y1386367D1*
Y1384867D1*
Y1383367D1*
Y1381867D1*
Y1380367D1*
Y1378867D1*
Y1377367D1*
Y1375867D1*
X57643Y1401367D2*
Y1399867D1*
Y1398367D1*
Y1396867D1*
Y1395367D1*
Y1393867D1*
Y1392367D1*
Y1390867D1*
Y1389367D1*
Y1387867D1*
Y1386367D1*
Y1384867D1*
Y1383367D1*
Y1381867D1*
Y1380367D1*
Y1378867D1*
Y1377367D1*
Y1375867D1*
X188143Y1401367D2*
Y1399867D1*
Y1398367D1*
Y1396867D1*
Y1395367D1*
Y1393867D1*
Y1392367D1*
Y1390867D1*
Y1389367D1*
Y1387867D1*
Y1386367D1*
Y1384867D1*
Y1383367D1*
Y1381867D1*
Y1380367D1*
Y1378867D1*
Y1377367D1*
Y1375867D1*
X-123857D2*
Y1374367D1*
Y1372867D1*
Y1371367D1*
Y1369867D1*
Y1368367D1*
X-62357Y1375867D2*
Y1374367D1*
Y1372867D1*
Y1371367D1*
Y1369867D1*
Y1368367D1*
X23143Y1375867D2*
Y1374367D1*
Y1372867D1*
Y1371367D1*
Y1369867D1*
Y1368367D1*
X86143Y1375867D2*
Y1374367D1*
Y1372867D1*
Y1371367D1*
Y1369867D1*
Y1368367D1*
X153643Y1375867D2*
Y1374367D1*
Y1372867D1*
Y1371367D1*
Y1369867D1*
Y1368367D1*
X-302542Y-323862D2*
D13*
Y-325175D1*
Y-326487D1*
Y-327799D1*
X-277608Y-323862D2*
X-277613Y-325175D1*
X-277664Y-326487D1*
X-277883Y-327799D1*
X-278415Y-329112D1*
X-279285Y-330424D1*
X-280383Y-331736D1*
X-281603Y-333049D1*
X-282878Y-334361D1*
X-284177Y-335673D1*
X-285484Y-336986D1*
X-286790Y-338298D1*
X-288055Y-339610D1*
X-289200Y-340923D1*
X-290193Y-342235D1*
X-291123Y-343547D1*
X-292034Y-344860D1*
X-292864Y-346172D1*
X-293612Y-347484D1*
X-294307Y-348797D1*
X-294934Y-350109D1*
X-295425Y-351421D1*
X-295717Y-352734D1*
X-295820Y-354046D1*
X-295709Y-355358D1*
X-295426Y-356671D1*
X-294593Y-357983D1*
X-291818Y-359295D1*
X-287252Y-360608D1*
X-281545Y-361920D1*
X-268421Y-323862D2*
Y-325175D1*
Y-326487D1*
Y-327799D1*
Y-329112D1*
Y-330424D1*
X-261860Y-323862D2*
Y-325175D1*
Y-326487D1*
Y-327799D1*
Y-329112D1*
Y-330424D1*
X-253986Y-323862D2*
Y-325175D1*
Y-326487D1*
Y-327799D1*
X-229051Y-323862D2*
X-229056Y-325175D1*
X-229108Y-326487D1*
X-229326Y-327799D1*
X-229859Y-329112D1*
X-230728Y-330424D1*
X-231826Y-331736D1*
X-233046Y-333049D1*
X-234322Y-334361D1*
X-235620Y-335673D1*
X-236928Y-336986D1*
X-238233Y-338298D1*
X-239499Y-339610D1*
X-240644Y-340923D1*
X-241637Y-342235D1*
X-242566Y-343547D1*
X-243477Y-344860D1*
X-244308Y-346172D1*
X-245055Y-347484D1*
X-245750Y-348797D1*
X-246377Y-350109D1*
X-246869Y-351421D1*
X-247161Y-352734D1*
X-247264Y-354046D1*
X-247153Y-355358D1*
X-246869Y-356671D1*
X-246036Y-357983D1*
X-243262Y-359295D1*
X-238695Y-360608D1*
X-232988Y-361920D1*
X-281545Y-327799D2*
X-282857Y-329112D1*
X-284169Y-330424D1*
X-285482Y-331736D1*
X-286794Y-333049D1*
X-288106Y-334361D1*
X-289419Y-335673D1*
X-290731Y-336986D1*
X-292038Y-338298D1*
X-293304Y-339610D1*
X-294449Y-340923D1*
X-295442Y-342235D1*
X-296372Y-343547D1*
X-297283Y-344860D1*
X-298108Y-346172D1*
X-298810Y-347484D1*
X-299343Y-348797D1*
X-299701Y-350109D1*
X-300019Y-351421D1*
X-300355Y-352734D1*
X-300552Y-354046D1*
X-300477Y-355358D1*
X-300261Y-356671D1*
X-300038Y-357983D1*
X-299721Y-359295D1*
X-299136Y-360608D1*
X-298197Y-361920D1*
X-296889Y-363232D1*
X-295221Y-364545D1*
X-293356Y-365857D1*
X-232988Y-327799D2*
X-234301Y-329112D1*
X-235613Y-330424D1*
X-236925Y-331736D1*
X-238238Y-333049D1*
X-239550Y-334361D1*
X-240862Y-335673D1*
X-242175Y-336986D1*
X-243482Y-338298D1*
X-244748Y-339610D1*
X-245893Y-340923D1*
X-246886Y-342235D1*
X-247816Y-343547D1*
X-248727Y-344860D1*
X-249552Y-346172D1*
X-250254Y-347484D1*
X-250786Y-348797D1*
X-251145Y-350109D1*
X-251462Y-351421D1*
X-251799Y-352734D1*
X-251996Y-354046D1*
X-251921Y-355358D1*
X-251704Y-356671D1*
X-251481Y-357983D1*
X-251164Y-359295D1*
X-250580Y-360608D1*
X-249641Y-361920D1*
X-248333Y-363232D1*
X-246664Y-364545D1*
X-244799Y-365857D1*
X-230364Y-359295D2*
X-237991Y-360608D1*
X-246112Y-361920D1*
X-282857Y-360608D2*
X-284169Y-361920D1*
X-278920Y-360608D2*
X-279002Y-361920D1*
X-279617Y-363232D1*
X-281663Y-364545D1*
X-284169Y-365857D1*
X-230364Y-360608D2*
X-230446Y-361920D1*
X-231061Y-363232D1*
X-233106Y-364545D1*
X-235613Y-365857D1*
X-301088Y-269840D2*
Y-271152D1*
Y-272465D1*
Y-273777D1*
Y-275089D1*
X-293214D1*
Y-276402D1*
Y-277714D1*
Y-279026D1*
Y-280339D1*
Y-281651D1*
Y-282963D1*
Y-284276D1*
Y-285588D1*
Y-286900D1*
Y-288213D1*
Y-289525D1*
Y-290837D1*
Y-292150D1*
Y-293462D1*
Y-294774D1*
Y-296087D1*
Y-297399D1*
Y-298711D1*
Y-300024D1*
Y-301336D1*
Y-302648D1*
Y-303961D1*
Y-305273D1*
Y-306585D1*
Y-307898D1*
Y-309210D1*
Y-310522D1*
X-281403Y-269840D2*
Y-271152D1*
Y-272465D1*
Y-273777D1*
Y-275089D1*
X-289277D1*
Y-276402D1*
Y-277714D1*
Y-279026D1*
Y-280339D1*
Y-281651D1*
Y-282963D1*
Y-284276D1*
Y-285588D1*
Y-286900D1*
Y-288213D1*
Y-289525D1*
Y-290837D1*
Y-292150D1*
Y-293462D1*
Y-294774D1*
Y-296087D1*
Y-297399D1*
Y-298711D1*
Y-300024D1*
Y-301336D1*
Y-302648D1*
X-281403D1*
X-282059Y-303961D1*
X-283938Y-305273D1*
X-286144Y-306585D1*
X-288085Y-307898D1*
X-289491Y-309210D1*
X-290589Y-310522D1*
X-269592Y-269840D2*
Y-271152D1*
Y-272465D1*
Y-273777D1*
Y-275089D1*
Y-276402D1*
X-263030Y-269840D2*
Y-271152D1*
Y-272465D1*
Y-273777D1*
Y-275089D1*
Y-276402D1*
X-255156Y-269840D2*
Y-271152D1*
Y-272465D1*
Y-273777D1*
X-230222Y-269840D2*
X-230227Y-271152D1*
X-230278Y-272465D1*
X-230497Y-273777D1*
X-231029Y-275089D1*
X-231899Y-276402D1*
X-232997Y-277714D1*
X-234217Y-279026D1*
X-235492Y-280339D1*
X-236791Y-281651D1*
X-238098Y-282963D1*
X-239404Y-284276D1*
X-240669Y-285588D1*
X-241814Y-286900D1*
X-242807Y-288213D1*
X-243737Y-289525D1*
X-244648Y-290837D1*
X-245478Y-292150D1*
X-246226Y-293462D1*
X-246921Y-294774D1*
X-247548Y-296087D1*
X-248039Y-297399D1*
X-248332Y-298711D1*
X-248435Y-300024D1*
X-248323Y-301336D1*
X-248040Y-302648D1*
X-247207Y-303961D1*
X-244432Y-305273D1*
X-239866Y-306585D1*
X-234159Y-307898D1*
Y-273777D2*
X-235471Y-275089D1*
X-236783Y-276402D1*
X-238096Y-277714D1*
X-239408Y-279026D1*
X-240720Y-280339D1*
X-242033Y-281651D1*
X-243345Y-282963D1*
X-244652Y-284276D1*
X-245919Y-285588D1*
X-247064Y-286900D1*
X-248057Y-288213D1*
X-248986Y-289525D1*
X-249897Y-290837D1*
X-250722Y-292150D1*
X-251424Y-293462D1*
X-251957Y-294774D1*
X-252315Y-296087D1*
X-252633Y-297399D1*
X-252969Y-298711D1*
X-253166Y-300024D1*
X-253091Y-301336D1*
X-252875Y-302648D1*
X-252652Y-303961D1*
X-252335Y-305273D1*
X-251750Y-306585D1*
X-250811Y-307898D1*
X-249503Y-309210D1*
X-247835Y-310522D1*
X-245970Y-311835D1*
X-235471Y-306585D2*
X-236783Y-307898D1*
X-231534Y-306585D2*
X-231616Y-307898D1*
X-232231Y-309210D1*
X-234277Y-310522D1*
X-236783Y-311835D1*
X-6318Y1778451D2*
D12*
X-21293Y1775451D1*
X-33387Y1772451D1*
X-42704Y1769451D1*
X-50247Y1766451D1*
X-56786Y1763451D1*
X-62544Y1760451D1*
X-67432Y1757451D1*
X-71584Y1754451D1*
X-75467Y1751451D1*
X-79401Y1748451D1*
X-83256Y1745451D1*
X-86799Y1742451D1*
X-89974Y1739451D1*
X-92642Y1736451D1*
X-94672Y1733451D1*
X-96318Y1730451D1*
X14682Y1778451D2*
X29096Y1775451D1*
X41040Y1772451D1*
X50554Y1769451D1*
X58235Y1766451D1*
X64644Y1763451D1*
X70138Y1760451D1*
X74996Y1757451D1*
X79313Y1754451D1*
X83157Y1751451D1*
X86802Y1748451D1*
X90311Y1745451D1*
X93520Y1742451D1*
X96575Y1739451D1*
X99675Y1736451D1*
X102566Y1733451D1*
X105141Y1730451D1*
X107481Y1727451D1*
X109599Y1724451D1*
X111739Y1721451D1*
X114076Y1718451D1*
X116390Y1715451D1*
X118422Y1712451D1*
X120111Y1709451D1*
X121454Y1706451D1*
X122575Y1703451D1*
X123759Y1700451D1*
X125080Y1697451D1*
X126491Y1694451D1*
X127945Y1691451D1*
X129322Y1688451D1*
X130437Y1685451D1*
X131214Y1682451D1*
X131935Y1679451D1*
X132804Y1676451D1*
X133634Y1673451D1*
X134192Y1670451D1*
X134584Y1667451D1*
X135096Y1664451D1*
X135868Y1661451D1*
X136658Y1658451D1*
X137189Y1655451D1*
X137470Y1652451D1*
X137598Y1649451D1*
X137651Y1646451D1*
X137671Y1643451D1*
X137679Y1640451D1*
X137681Y1637451D1*
X137682Y1634451D1*
X137671Y1631451D1*
X137565Y1628451D1*
X137183Y1625451D1*
X136464Y1622451D1*
X135695Y1619451D1*
X135172Y1616451D1*
X134882Y1613451D1*
X134649Y1610451D1*
X134214Y1607451D1*
X133464Y1604451D1*
X132582Y1601451D1*
X131674Y1598451D1*
X130664Y1595451D1*
X129662Y1592451D1*
X128692Y1589451D1*
X127570Y1586451D1*
X126272Y1583451D1*
X124870Y1580451D1*
X123407Y1577451D1*
X121925Y1574451D1*
X120428Y1571451D1*
X118909Y1568451D1*
X117103Y1565451D1*
X114837Y1562451D1*
X106969Y1559451D1*
X93230Y1556451D1*
X73399Y1553451D1*
X50682Y1550451D1*
X-6318Y1739451D2*
X-9318Y1736451D1*
X5682Y1739451D2*
X8682Y1736451D1*
X-27318D2*
X-60318Y1733451D1*
X-93318Y1730451D1*
X47682Y1736451D2*
X58377Y1733451D1*
X67396Y1730451D1*
X74281Y1727451D1*
X79545Y1724451D1*
X83780Y1721451D1*
X87105Y1718451D1*
X89612Y1715451D1*
X91585Y1712451D1*
X93184Y1709451D1*
X94375Y1706451D1*
X95068Y1703451D1*
X95301Y1700451D1*
X95211Y1697451D1*
X93864Y1694451D1*
X91852Y1691451D1*
X89338Y1688451D1*
X86549Y1685451D1*
X83634Y1682451D1*
X80665Y1679451D1*
X77677Y1676451D1*
X74692Y1673451D1*
X71799Y1670451D1*
X69182Y1667451D1*
X66900Y1664451D1*
X64670Y1661451D1*
X62193Y1658451D1*
X59471Y1655451D1*
X56598Y1652451D1*
X53651Y1649451D1*
X50671Y1646451D1*
X47679Y1643451D1*
X44681Y1640451D1*
X41682Y1637451D1*
X38682Y1634451D1*
X35694Y1631451D1*
X32800Y1628451D1*
X30182Y1625451D1*
X27900Y1622451D1*
X25670Y1619451D1*
X23193Y1616451D1*
X20471Y1613451D1*
X17598Y1610451D1*
X14651Y1607451D1*
X11671Y1604451D1*
X8679Y1601451D1*
X5681Y1598451D1*
X2694Y1595451D1*
X-212Y1592451D1*
X-2924Y1589451D1*
X-5482Y1586451D1*
X-8049Y1583451D1*
X-10576Y1580451D1*
X-13052Y1577451D1*
X-15680Y1574451D1*
X-18476Y1571451D1*
X-21381Y1568451D1*
X-24342Y1565451D1*
X-27315Y1562451D1*
X-30195Y1559451D1*
X-32729Y1556451D1*
X-34703Y1553451D1*
X-36318Y1550451D1*
X-63318Y1721451D2*
X-82769Y1718451D1*
X-96699Y1715451D1*
X-106506Y1712451D1*
X-110184Y1709451D1*
X-112791Y1706451D1*
X-114672Y1703451D1*
X-116072Y1700451D1*
X-117207Y1697451D1*
X-118394Y1694451D1*
X-119704Y1691451D1*
X-121021Y1688451D1*
X-122198Y1685451D1*
X-123239Y1682451D1*
X-124291Y1679451D1*
X-125209Y1676451D1*
X-125804Y1673451D1*
X-126211Y1670451D1*
X-126729Y1667451D1*
X-127503Y1664451D1*
X-128293Y1661451D1*
X-128824Y1658451D1*
X-129105Y1655451D1*
X-129233Y1652451D1*
X-129286Y1649451D1*
X-129306Y1646451D1*
X-129314Y1643451D1*
X-129316Y1640451D1*
X-129317Y1637451D1*
Y1634451D1*
X-129318Y1631451D1*
Y1628451D1*
X-129306Y1625451D1*
X-129200Y1622451D1*
X-128818Y1619451D1*
X-128100Y1616451D1*
X-127330Y1613451D1*
X-126795Y1610451D1*
X-126412Y1607451D1*
X-125902Y1604451D1*
X-125119Y1601451D1*
X-124224Y1598451D1*
X-123300Y1595451D1*
X-122195Y1592451D1*
X-120915Y1589451D1*
X-119609Y1586451D1*
X-118436Y1583451D1*
X-117384Y1580451D1*
X-116227Y1577451D1*
X-114915Y1574451D1*
X-113496Y1571451D1*
X-111926Y1568451D1*
X-110061Y1565451D1*
X-107845Y1562451D1*
X-105569Y1559451D1*
X-103450Y1556451D1*
X-101374Y1553451D1*
X-99198Y1550451D1*
X-96832Y1547451D1*
X-94107Y1544451D1*
X-91191Y1541451D1*
X-88303Y1538451D1*
X-85210Y1535451D1*
X-81880Y1532451D1*
X-78487Y1529451D1*
X-74835Y1526451D1*
X-70644Y1523451D1*
X-65993Y1520451D1*
X-61082Y1517451D1*
X-55652Y1514451D1*
X-49310Y1511451D1*
X-41916Y1508451D1*
X-33440Y1505451D1*
X-24318Y1502451D1*
X44682Y1721451D2*
X41682Y1718451D1*
X38682Y1715451D1*
X35682Y1712451D1*
X32694Y1709451D1*
X29800Y1706451D1*
X27182Y1703451D1*
X24900Y1700451D1*
X22670Y1697451D1*
X20193Y1694451D1*
X17471Y1691451D1*
X14598Y1688451D1*
X11651Y1685451D1*
X8671Y1682451D1*
X5679Y1679451D1*
X2681Y1676451D1*
X-318Y1673451D1*
X-3318Y1670451D1*
X-6318Y1667451D1*
X-9306Y1664451D1*
X-12200Y1661451D1*
X-14830Y1658451D1*
X-17205Y1655451D1*
X-19713Y1652451D1*
X-22526Y1649451D1*
X-25298Y1646451D1*
X-27925Y1643451D1*
X-30627Y1640451D1*
X-33456Y1637451D1*
X-36374Y1634451D1*
X-39339Y1631451D1*
X-42325Y1628451D1*
X-45320Y1625451D1*
X-48318Y1622451D1*
X-51318Y1619451D1*
X-54306Y1616451D1*
X-57212Y1613451D1*
X-59924Y1610451D1*
X-62482Y1607451D1*
X-65049Y1604451D1*
X-67576Y1601451D1*
X-70052Y1598451D1*
X-72680Y1595451D1*
X-75476Y1592451D1*
X-78381Y1589451D1*
X-81330Y1586451D1*
X-84197Y1583451D1*
X-86680Y1580451D1*
X-88707Y1577451D1*
X-89326Y1574451D1*
X-88829Y1571451D1*
X-88090Y1568451D1*
X-87147Y1565451D1*
X-85772Y1562451D1*
X-83945Y1559451D1*
X-81698Y1556451D1*
X-78707Y1553451D1*
X-74504Y1550451D1*
X-68500Y1547451D1*
X-59889Y1544451D1*
X-48177Y1541451D1*
X-33827Y1538451D1*
X-18318Y1535451D1*
X80682Y1541451D2*
X53682Y1538451D1*
X26682Y1535451D1*
X98682Y1541451D2*
X95682Y1538451D1*
X92671Y1535451D1*
X89565Y1532451D1*
X86171Y1529451D1*
X82335Y1526451D1*
X78079Y1523451D1*
X73431Y1520451D1*
X68442Y1517451D1*
X63118Y1514451D1*
X57098Y1511451D1*
X49983Y1508451D1*
X41682Y1505451D1*
X32682Y1502451D1*
X250417Y1051162D2*
D74*
X253269Y1048277D1*
X257580Y1046851D1*
X263317D1*
X267628Y1048277D1*
X270513Y1051162D1*
Y1054014D1*
X269054Y1056899D1*
X267628Y1058325D1*
X264776Y1059751D1*
X256154Y1062636D1*
X253269Y1064062D1*
X251843Y1065521D1*
X250417Y1068373D1*
Y1072684D1*
X253269Y1075536D1*
X257580Y1076995D1*
X263317D1*
X267628Y1075536D1*
X270513Y1072684D1*
X233991Y1056899D2*
X236843Y1058325D1*
X239728Y1061210D1*
X241154Y1065521D1*
Y1068373D1*
X239728Y1072684D1*
X236843Y1075536D1*
X233991Y1076995D1*
X229680D1*
X226795Y1075536D1*
X223943Y1072684D1*
X222484Y1068373D1*
Y1065521D1*
X223943Y1061210D1*
X226795Y1058325D1*
X229680Y1056899D1*
X233991D1*
X213220D2*
Y1071258D1*
X211794Y1075536D1*
X208909Y1076995D1*
X204598D1*
X201746Y1075536D1*
X197435Y1071258D1*
Y1056899D2*
Y1076995D1*
X188172Y1056899D2*
Y1076995D1*
Y1065521D2*
X186713Y1061210D1*
X183861Y1058325D1*
X180976Y1056899D1*
X176665D1*
X150157Y1061210D2*
X153042Y1058325D1*
X155927Y1056899D1*
X160205D1*
X163090Y1058325D1*
X165942Y1061210D1*
X167401Y1065521D1*
Y1068373D1*
X165942Y1072684D1*
X163090Y1075536D1*
X160205Y1076995D1*
X155927D1*
X153042Y1075536D1*
X150157Y1072684D1*
X140894Y1065521D2*
X123683D1*
Y1062636D1*
X125109Y1059751D1*
X126534Y1058325D1*
X129420Y1056899D1*
X133731D1*
X136582Y1058325D1*
X139468Y1061210D1*
X140894Y1065521D1*
Y1068373D1*
X139468Y1072684D1*
X136583Y1075536D1*
X133731Y1076995D1*
X129420D1*
X126535Y1075536D1*
X123683Y1072684D1*
X85258Y1046851D2*
Y1076995D1*
Y1061210D2*
X82373Y1058325D1*
X79521Y1056899D1*
X75210D1*
X72359Y1058325D1*
X69473Y1061210D1*
X68048Y1065521D1*
Y1068373D1*
X69473Y1072684D1*
X72359Y1075536D1*
X75210Y1076995D1*
X79521D1*
X82373Y1075536D1*
X85258Y1072684D1*
X57325Y1056899D2*
X48736Y1076995D1*
X51588Y1082732D1*
X54473Y1085617D1*
X57325Y1087043D1*
X58784D1*
X40114Y1056899D2*
X48736Y1076995D1*
X-14095Y1054047D2*
X-9784D1*
X-6932Y1055473D1*
X-5473Y1056899D1*
X-4047Y1059784D1*
Y1065521D1*
X-5473Y1066947D1*
X-8358D1*
X-14095Y1065521D1*
X-15521Y1068373D1*
X-16947D1*
X-19832Y1065521D1*
X-21258Y1058358D1*
X-19832Y1054047D1*
X-18406Y1051162D1*
X-15521Y1048310D1*
X-12669Y1046884D1*
X-6932D1*
X-4047Y1048310D1*
X-1195Y1051162D1*
X264Y1054047D1*
X1690Y1058358D1*
Y1065521D1*
X264Y1069832D1*
X-1195Y1072684D1*
X-4047Y1075569D1*
X-6932Y1076995D1*
X-12669D1*
X-15521Y1075569D1*
X-18406Y1072684D1*
X-14095Y1052621D2*
Y1065521D1*
X-47733Y1056899D2*
Y1076995D1*
Y1061210D2*
X-44881Y1058325D1*
X-41996Y1056899D1*
X-37718D1*
X-34833Y1058325D1*
X-31981Y1061210D1*
X-30522Y1065521D1*
Y1068373D1*
X-31981Y1072684D1*
X-34833Y1075536D1*
X-37718Y1076995D1*
X-41996D1*
X-44881Y1075536D1*
X-47733Y1072684D1*
X-56996Y1056899D2*
Y1076995D1*
Y1062636D2*
X-61307Y1058325D1*
X-64192Y1056899D1*
X-68470D1*
X-71355Y1058325D1*
X-72781Y1062636D1*
Y1076995D1*
X-89208Y1056899D2*
X-86356Y1058325D1*
X-83471Y1061210D1*
X-82045Y1065521D1*
Y1068373D1*
X-83471Y1072684D1*
X-86356Y1075536D1*
X-89208Y1076995D1*
X-93519D1*
X-96404Y1075536D1*
X-99256Y1072684D1*
X-100715Y1068373D1*
Y1065521D1*
X-99256Y1061210D1*
X-96404Y1058325D1*
X-93519Y1056899D1*
X-89208D1*
X-109978D2*
Y1076995D1*
Y1062636D2*
X-114289Y1058325D1*
X-117174Y1056899D1*
X-121452D1*
X-124337Y1058325D1*
X-125763Y1062636D1*
Y1076995D1*
X-136486Y1056899D2*
X-145075Y1076995D1*
X-142223Y1082732D1*
X-139338Y1085617D1*
X-136486Y1087043D1*
X-135027D1*
X-153697Y1056899D2*
X-145075Y1076995D1*
X-162960Y1056899D2*
Y1076995D1*
Y1062636D2*
X-167271Y1058325D1*
X-170156Y1056899D1*
X-174434D1*
X-177319Y1058325D1*
X-178745Y1062636D1*
Y1076995D1*
Y1062636D2*
X-183056Y1058325D1*
X-185941Y1056899D1*
X-190219D1*
X-193104Y1058325D1*
X-194563Y1062636D1*
Y1076995D1*
X-221038Y1056899D2*
Y1076995D1*
Y1061210D2*
X-218186Y1058325D1*
X-215301Y1056899D1*
X-211023D1*
X-208138Y1058325D1*
X-205286Y1061210D1*
X-203827Y1065521D1*
Y1068373D1*
X-205286Y1072684D1*
X-208138Y1075536D1*
X-211023Y1076995D1*
X-215301D1*
X-218186Y1075536D1*
X-221038Y1072684D1*
X-246087Y1061210D2*
X-244661Y1058325D1*
X-240350Y1056899D1*
X-236039D1*
X-231727Y1058325D1*
X-230302Y1061210D1*
X-231727Y1064062D1*
X-234613Y1065521D1*
X-241775Y1066947D1*
X-244661Y1068373D1*
X-246087Y1071258D1*
Y1072684D1*
X-244661Y1075536D1*
X-240350Y1076995D1*
X-236039D1*
X-231727Y1075536D1*
X-230302Y1072684D1*
X-271135Y1061210D2*
X-269709Y1058325D1*
X-265398Y1056899D1*
X-261087D1*
X-256776Y1058325D1*
X-255350Y1061210D1*
X-256776Y1064062D1*
X-259661Y1065521D1*
X-266824Y1066947D1*
X-269709Y1068373D1*
X-271135Y1071258D1*
Y1072684D1*
X-269709Y1075536D1*
X-265398Y1076995D1*
X-261087D1*
X-256776Y1075536D1*
X-255350Y1072684D1*
X297086Y947540D2*
X284153D1*
X279875Y946114D1*
X278416Y944655D1*
X276990Y941803D1*
Y937492D1*
X278416Y934640D1*
X279875Y933181D1*
X284152Y931755D1*
X297086D1*
Y961899D1*
X267726Y931755D2*
X260530Y961899D1*
X253367Y931755D1*
X246204Y961899D1*
X239008Y931755D1*
X209649Y936066D2*
X212500Y933181D1*
X216811Y931755D1*
X222548D1*
X226859Y933181D1*
X229745Y936066D1*
Y938918D1*
X228285Y941803D1*
X226859Y943229D1*
X224008Y944655D1*
X215386Y947540D1*
X212500Y948966D1*
X211074Y950425D1*
X209649Y953277D1*
Y957588D1*
X212500Y960440D1*
X216811Y961899D1*
X222548D1*
X226859Y960440D1*
X229745Y957588D1*
X200385Y931755D2*
X180289D1*
X200385Y961899D1*
X180289D1*
X171025Y966874D2*
X143767D1*
X134503Y931755D2*
X123029Y961899D1*
X111555Y931755D1*
X100832Y938951D2*
Y937525D1*
X99406Y934640D1*
X97980Y933214D1*
X95095Y931788D1*
X89358D1*
X86507Y933214D1*
X85081Y934640D1*
X83621Y937525D1*
Y940377D1*
X85081Y943262D1*
X87932Y947540D1*
X102291Y961899D1*
X82195D1*
X71506Y959014D2*
X72932Y960473D1*
X71506Y961899D1*
X70047Y960473D1*
X71506Y959014D1*
X46424Y961899D2*
Y931788D1*
X60783Y951851D1*
X39261D1*
X837Y946114D2*
X-12063D1*
X-16374Y944655D1*
X-17833Y943229D1*
X-19259Y940377D1*
Y937492D1*
X-17833Y934640D1*
X-16374Y933181D1*
X-12063Y931755D1*
X837D1*
Y961899D1*
X-9211Y946114D2*
X-19259Y961899D1*
X-29981Y938951D2*
Y937525D1*
X-31407Y934640D1*
X-32833Y933214D1*
X-35718Y931788D1*
X-41455D1*
X-44307Y933214D1*
X-45733Y934640D1*
X-47192Y937525D1*
Y940377D1*
X-45733Y943262D1*
X-42881Y947540D1*
X-28522Y961899D1*
X-48618D1*
X-87042Y923896D2*
Y969792D1*
X-125467Y937525D2*
X-128352Y936066D1*
X-132663Y931788D1*
Y961899D1*
X-143385Y938951D2*
Y937525D1*
X-144811Y934640D1*
X-146237Y933214D1*
X-149122Y931788D1*
X-154859D1*
X-157711Y933214D1*
X-159137Y934640D1*
X-160596Y937525D1*
Y940377D1*
X-159137Y943262D1*
X-156285Y947540D1*
X-141926Y961899D1*
X-162022D1*
X-172712Y959014D2*
X-171286Y960473D1*
X-172712Y961899D1*
X-174171Y960473D1*
X-172712Y959014D1*
X-184893Y938951D2*
Y937525D1*
X-186319Y934640D1*
X-187745Y933214D1*
X-190630Y931788D1*
X-196367D1*
X-199219Y933214D1*
X-200645Y934640D1*
X-202104Y937525D1*
Y940377D1*
X-200645Y943262D1*
X-197793Y947540D1*
X-183434Y961899D1*
X-203530D1*
X-221416Y931788D2*
X-217105Y933214D1*
X-214220Y937525D1*
X-212794Y944688D1*
Y948999D1*
X-214220Y956162D1*
X-217105Y960473D1*
X-221416Y961899D1*
X-224268D1*
X-228579Y960473D1*
X-231431Y956162D1*
X-232890Y948999D1*
Y944688D1*
X-231431Y937525D1*
X-228579Y933214D1*
X-224268Y931788D1*
X-221416D1*
X-231431Y937525D2*
X-214220Y956162D1*
X-243613Y938951D2*
Y937525D1*
X-245039Y934640D1*
X-246464Y933214D1*
X-249350Y931788D1*
X-255087D1*
X-257938Y933214D1*
X-259364Y934640D1*
X-260824Y937525D1*
Y940377D1*
X-259364Y943262D1*
X-256512Y947540D1*
X-242153Y961899D1*
X-262249D1*
X-280135Y931788D2*
X-275824Y933214D1*
X-272939Y937525D1*
X-271513Y944688D1*
Y948999D1*
X-272939Y956162D1*
X-275824Y960473D1*
X-280135Y961899D1*
X-282987D1*
X-287298Y960473D1*
X-290150Y956162D1*
X-291609Y948999D1*
Y944688D1*
X-290150Y937525D1*
X-287298Y933214D1*
X-282987Y931788D1*
X-280135D1*
X-290150Y937525D2*
X-272939Y956162D1*
X107805Y993816D2*
Y1023960D1*
Y1008175D2*
X104920Y1005290D1*
X102068Y1003864D1*
X97757D1*
X94905Y1005290D1*
X92020Y1008175D1*
X90594Y1012486D1*
Y1015338D1*
X92020Y1019649D1*
X94905Y1022501D1*
X97757Y1023960D1*
X102068D1*
X104920Y1022501D1*
X107805Y1019649D1*
X64119Y1003864D2*
Y1023960D1*
Y1008175D2*
X66971Y1005290D1*
X69856Y1003864D1*
X74134D1*
X77019Y1005290D1*
X79871Y1008175D1*
X81330Y1012486D1*
Y1015338D1*
X79871Y1019649D1*
X77019Y1022501D1*
X74134Y1023960D1*
X69856D1*
X66971Y1022501D1*
X64119Y1019649D1*
X39071Y1008175D2*
X40497Y1005290D1*
X44808Y1003864D1*
X49119D1*
X53430Y1005290D1*
X54856Y1008175D1*
X53430Y1011027D1*
X50545Y1012486D1*
X43382Y1013912D1*
X40497Y1015338D1*
X39071Y1018223D1*
Y1019649D1*
X40497Y1022501D1*
X44808Y1023960D1*
X49119D1*
X53430Y1022501D1*
X54856Y1019649D1*
X29807Y1012486D2*
X12596D1*
Y1009601D1*
X14022Y1006716D1*
X15448Y1005290D1*
X18333Y1003864D1*
X22644D1*
X25496Y1005290D1*
X28381Y1008175D1*
X29807Y1012486D1*
Y1015338D1*
X28381Y1019649D1*
X25496Y1022501D1*
X22644Y1023960D1*
X18333D1*
X15448Y1022501D1*
X12596Y1019649D1*
X-13878Y993816D2*
Y1023960D1*
Y1008175D2*
X-11026Y1005290D1*
X-8141Y1003864D1*
X-3830D1*
X-978Y1005290D1*
X1907Y1008175D1*
X3333Y1012486D1*
Y1015338D1*
X1907Y1019649D1*
X-978Y1022501D1*
X-3830Y1023960D1*
X-8141D1*
X-11026Y1022501D1*
X-13878Y1019649D1*
X-59465Y1003864D2*
X-56613Y1005290D1*
X-53728Y1008175D1*
X-52302Y1012486D1*
Y1015338D1*
X-53728Y1019649D1*
X-56613Y1022501D1*
X-59465Y1023960D1*
X-63776D1*
X-66661Y1022501D1*
X-69513Y1019649D1*
X-70972Y1015338D1*
Y1012486D1*
X-69513Y1008175D1*
X-66661Y1005290D1*
X-63776Y1003864D1*
X-59465D1*
X-80236D2*
Y1023960D1*
Y1009601D2*
X-84547Y1005290D1*
X-87432Y1003864D1*
X-91710D1*
X-94595Y1005290D1*
X-96021Y1009601D1*
Y1023960D1*
X-106743Y1003864D2*
X-105284Y1005323D1*
X-106743Y1006749D1*
X-108169Y1005323D1*
X-106743Y1003864D1*
Y1021075D2*
X-105284Y1022534D1*
X-106743Y1023960D1*
X-108169Y1022534D1*
X-106743Y1021075D1*
X74996Y1105614D2*
Y1135758D1*
X64948D1*
X60637Y1134298D1*
X57752Y1131447D1*
X56326Y1128562D1*
X54900Y1124284D1*
Y1117088D1*
X56326Y1112777D1*
X57752Y1109925D1*
X60637Y1107040D1*
X64948Y1105614D1*
X74996D1*
X45637D2*
Y1135758D1*
X36373Y1105614D2*
X24899Y1119973D1*
Y1135758D1*
X13425Y1105614D2*
X24899Y1119973D1*
X4162D2*
X-8738D1*
X-13049Y1118513D1*
X-14508Y1117088D1*
X-15934Y1114236D1*
Y1111351D1*
X-14508Y1108499D1*
X-13049Y1107040D1*
X-8738Y1105614D1*
X4162D1*
Y1135758D1*
X-5886Y1119973D2*
X-15934Y1135758D1*
X-25198Y1105614D2*
Y1127136D1*
X-26624Y1131447D1*
X-29509Y1134298D1*
X-33820Y1135758D1*
X-36672D1*
X-40983Y1134298D1*
X-43868Y1131447D1*
X-45294Y1127136D1*
Y1105614D1*
X-54557D2*
X-74653D1*
X-54557Y1135758D1*
X-74653D1*
M02*
