G04 DipTrace 3.2.0.1*
G04 BottomSilk.gbr*
%MOIN*%
G04 #@! TF.FileFunction,Legend,Bot*
G04 #@! TF.Part,Single*
%ADD12C,0.003*%
%ADD13C,0.002625*%
%ADD31C,0.004632*%
%FSLAX26Y26*%
G04*
G70*
G90*
G75*
G01*
G04 BotSilk*
%LPD*%
X-224058Y707260D2*
D13*
X-217496D1*
X-224058Y705948D2*
X-210940D1*
X-224058Y704635D2*
X-204444D1*
X-217293Y703323D2*
X-198260D1*
X-210406Y702010D2*
X-192938D1*
X-203501Y700698D2*
X-189063D1*
X-196690Y699386D2*
X-186298D1*
X-189937Y698073D2*
X-185053D1*
X-196096Y696761D2*
X-185128D1*
X-202585Y695449D2*
X-187985D1*
X-209086Y694136D2*
X-192147D1*
X-214868Y692824D2*
X-197451D1*
X-219168Y691512D2*
X-203440D1*
X-222257Y690199D2*
X-209764D1*
X-223283Y688887D2*
X-216232D1*
X-224058Y687575D2*
X-222745D1*
X-218808Y683638D2*
X-191249D1*
X-220671Y682325D2*
X-189381D1*
X-222141Y681013D2*
X-187865D1*
X-223277Y679701D2*
X-217183D1*
X-191254D2*
X-186728D1*
X-223680Y678388D2*
X-219043D1*
X-189999D2*
X-185886D1*
X-223898Y677076D2*
X-220474D1*
X-188951D2*
X-185301D1*
X-223995Y675764D2*
X-220966D1*
X-188156D2*
X-184972D1*
X-224030Y674451D2*
X-221171D1*
X-188113D2*
X-184855D1*
X-223998Y673139D2*
X-221166D1*
X-188624D2*
X-184956D1*
X-223826Y671827D2*
X-220395D1*
X-189350D2*
X-185293D1*
X-223411Y670514D2*
X-218589D1*
X-190878D2*
X-185848D1*
X-222796Y669202D2*
X-216675D1*
X-192486D2*
X-186706D1*
X-221392Y667890D2*
X-214962D1*
X-193775D2*
X-188100D1*
X-219556Y666577D2*
X-214177D1*
X-194597D2*
X-190143D1*
X-217496Y665265D2*
X-213559D1*
X-195186D2*
X-192562D1*
X-218808Y660016D2*
X-191249D1*
X-220671Y658703D2*
X-189381D1*
X-222141Y657391D2*
X-187865D1*
X-223277Y656079D2*
X-217183D1*
X-191254D2*
X-186728D1*
X-223680Y654766D2*
X-219043D1*
X-189999D2*
X-185886D1*
X-223898Y653454D2*
X-220474D1*
X-188951D2*
X-185301D1*
X-223995Y652142D2*
X-220966D1*
X-188156D2*
X-184972D1*
X-224030Y650829D2*
X-221171D1*
X-188113D2*
X-184855D1*
X-223998Y649517D2*
X-221166D1*
X-188624D2*
X-184956D1*
X-223826Y648205D2*
X-220395D1*
X-189350D2*
X-185293D1*
X-223411Y646892D2*
X-218589D1*
X-190878D2*
X-185848D1*
X-222796Y645580D2*
X-216675D1*
X-192486D2*
X-186706D1*
X-221392Y644268D2*
X-214962D1*
X-193775D2*
X-188100D1*
X-219556Y642955D2*
X-214177D1*
X-194597D2*
X-190143D1*
X-217496Y641643D2*
X-213559D1*
X-195186D2*
X-192562D1*
X-17234Y696367D2*
X-11984D1*
X12950D2*
X16887D1*
X-19097Y695055D2*
X-12620D1*
X10779D2*
X16887D1*
X-20566Y693743D2*
X-14309D1*
X8591D2*
X16887D1*
X-21702Y692430D2*
X-16193D1*
X6383D2*
X16887D1*
X-22105Y691118D2*
X-17774D1*
X4206D2*
X11688D1*
X14262D2*
X16887D1*
X-22323Y689806D2*
X-19010D1*
X2022D2*
X9236D1*
X14262D2*
X16887D1*
X-22420Y688493D2*
X-19434D1*
X-193D2*
X6972D1*
X14262D2*
X16887D1*
X-22455Y687181D2*
X-19676D1*
X-2486D2*
X4852D1*
X14262D2*
X16887D1*
X-22418Y685869D2*
X-19237D1*
X-5251D2*
X2770D1*
X14262D2*
X16887D1*
X-22200Y684556D2*
X-17005D1*
X-9084D2*
X598D1*
X14262D2*
X16887D1*
X-21778Y683244D2*
X-13535D1*
X-14146D2*
X-1792D1*
X14262D2*
X16887D1*
X-20589Y681932D2*
X-4474D1*
X14262D2*
X16887D1*
X-19023Y680619D2*
X-7480D1*
X14262D2*
X16887D1*
X-17234Y679307D2*
X-10672D1*
X14262D2*
X16887D1*
X12950Y672745D2*
X16887D1*
X12950Y671433D2*
X16887D1*
X12950Y670121D2*
X16887D1*
X-17234Y663559D2*
X-11984D1*
X12950D2*
X16887D1*
X-19097Y662247D2*
X-12620D1*
X10779D2*
X16887D1*
X-20566Y660934D2*
X-14309D1*
X8591D2*
X16887D1*
X-21702Y659622D2*
X-16193D1*
X6383D2*
X16887D1*
X-22105Y658310D2*
X-17774D1*
X4206D2*
X11688D1*
X14262D2*
X16887D1*
X-22323Y656997D2*
X-19010D1*
X2022D2*
X9236D1*
X14262D2*
X16887D1*
X-22420Y655685D2*
X-19434D1*
X-193D2*
X6972D1*
X14262D2*
X16887D1*
X-22455Y654373D2*
X-19676D1*
X-2486D2*
X4852D1*
X14262D2*
X16887D1*
X-22418Y653060D2*
X-19237D1*
X-5251D2*
X2770D1*
X14262D2*
X16887D1*
X-22200Y651748D2*
X-17005D1*
X-9084D2*
X598D1*
X14262D2*
X16887D1*
X-21778Y650436D2*
X-13535D1*
X-14146D2*
X-1792D1*
X14262D2*
X16887D1*
X-20589Y649123D2*
X-4474D1*
X14262D2*
X16887D1*
X-19023Y647811D2*
X-7480D1*
X14262D2*
X16887D1*
X-17234Y646499D2*
X-10672D1*
X14262D2*
X16887D1*
X-120908Y705554D2*
X-81538D1*
X-120908Y704241D2*
X-81538D1*
X-120908Y702929D2*
X-81538D1*
X-120908Y701617D2*
X-118283D1*
X-101223D2*
X-98598D1*
X-120908Y700304D2*
X-118283D1*
X-101223D2*
X-98598D1*
X-120908Y698992D2*
X-118283D1*
X-101223D2*
X-98588D1*
X-120908Y697680D2*
X-118283D1*
X-101228D2*
X-98475D1*
X-120908Y696367D2*
X-118278D1*
X-101279D2*
X-98199D1*
X-120903Y695055D2*
X-118181D1*
X-101403D2*
X-96891D1*
X-120852Y693743D2*
X-117919D1*
X-102092D2*
X-94015D1*
X-120633Y692430D2*
X-116032D1*
X-105111D2*
X-90645D1*
X-120101Y691118D2*
X-110501D1*
X-110318D2*
X-87347D1*
X-119233Y689806D2*
X-100152D1*
X-95974D2*
X-84734D1*
X-118145Y688493D2*
X-101925D1*
X-92037D2*
X-82775D1*
X-116971Y687181D2*
X-103848D1*
X-88100D2*
X-82073D1*
X-84163Y685869D2*
X-81538D1*
X-120908Y679307D2*
X-81538D1*
X-120908Y677995D2*
X-81538D1*
X-120908Y676682D2*
X-81538D1*
X-120908Y675370D2*
X-118283D1*
X-102535D2*
X-99911D1*
X-84163D2*
X-81538D1*
X-120908Y674058D2*
X-118283D1*
X-102535D2*
X-99911D1*
X-84163D2*
X-81538D1*
X-120908Y672745D2*
X-118283D1*
X-102535D2*
X-99911D1*
X-84163D2*
X-81538D1*
X-120908Y671433D2*
X-118283D1*
X-102535D2*
X-99911D1*
X-84163D2*
X-81538D1*
X-120908Y670121D2*
X-118283D1*
X-102535D2*
X-99911D1*
X-84163D2*
X-81538D1*
X-120908Y668808D2*
X-118283D1*
X-102535D2*
X-99911D1*
X-84163D2*
X-81538D1*
X-120908Y667496D2*
X-118289D1*
X-102535D2*
X-99911D1*
X-84163D2*
X-81538D1*
X-120908Y666184D2*
X-118339D1*
X-102535D2*
X-99911D1*
X-84163D2*
X-81538D1*
X-120908Y664871D2*
X-118541D1*
X-102535D2*
X-99911D1*
X-84163D2*
X-81538D1*
X-120908Y663559D2*
X-118990D1*
X-84163D2*
X-81538D1*
X-120908Y662247D2*
X-119596D1*
X-84163D2*
X-81538D1*
X-116971Y656997D2*
X-107785D1*
X-92037D2*
X-86787D1*
X-118228Y655685D2*
X-106075D1*
X-91401D2*
X-85368D1*
X-119321Y654373D2*
X-104757D1*
X-89757D2*
X-84243D1*
X-120101Y653060D2*
X-116713D1*
X-107790D2*
X-103766D1*
X-87995D2*
X-83354D1*
X-120543Y651748D2*
X-117481D1*
X-106524D2*
X-102959D1*
X-86561D2*
X-82641D1*
X-120758Y650436D2*
X-117920D1*
X-105384D2*
X-102238D1*
X-85528D2*
X-82114D1*
X-120850Y649123D2*
X-118133D1*
X-104432D2*
X-101517D1*
X-84851D2*
X-81808D1*
X-120887Y647811D2*
X-118215D1*
X-103628D2*
X-100722D1*
X-84412D2*
X-81700D1*
X-120896Y646499D2*
X-118139D1*
X-102905D2*
X-99787D1*
X-84426D2*
X-81800D1*
X-120849Y645186D2*
X-117880D1*
X-102218D2*
X-98726D1*
X-84999D2*
X-82092D1*
X-120627Y643874D2*
X-116403D1*
X-101500D2*
X-95843D1*
X-87316D2*
X-82475D1*
X-120203Y642562D2*
X-114427D1*
X-100619D2*
X-91219D1*
X-91150D2*
X-82968D1*
X-119014Y641249D2*
X-112597D1*
X-99398D2*
X-83642D1*
X-117448Y639937D2*
X-111342D1*
X-97793D2*
X-85120D1*
X-115659Y638625D2*
X-110409D1*
X-95974D2*
X-86787D1*
X-34470Y452995D2*
D12*
X27030D1*
X-34470Y451495D2*
X27030D1*
X-34470Y449995D2*
X27030D1*
X-34470Y448495D2*
X27030D1*
X-34470Y446995D2*
X27030D1*
X-34470Y445495D2*
X27030D1*
X-34470Y443995D2*
X27030D1*
X7530Y442495D2*
X16530D1*
X7530Y440995D2*
X16530D1*
X7530Y439495D2*
X16530D1*
X7530Y437995D2*
X16530D1*
X7530Y436495D2*
X16530D1*
X7530Y434995D2*
X16530D1*
X7530Y433495D2*
X16530D1*
X-2970Y431995D2*
X6030D1*
X-2970Y430495D2*
X6030D1*
X-2970Y428995D2*
X6030D1*
X-2970Y427495D2*
X6030D1*
X-2970Y425995D2*
X6030D1*
X-2970Y424495D2*
X6030D1*
X-2970Y422995D2*
X6030D1*
X7530Y421495D2*
X16530D1*
X7530Y419995D2*
X16530D1*
X7530Y418495D2*
X16530D1*
X7530Y416995D2*
X16530D1*
X7530Y415495D2*
X16530D1*
X7530Y413995D2*
X16530D1*
X7530Y412495D2*
X16530D1*
X-34470Y410995D2*
X27030D1*
X-34470Y409495D2*
X27030D1*
X-34470Y407995D2*
X27030D1*
X-34470Y406495D2*
X27030D1*
X-34470Y404995D2*
X27030D1*
X-34470Y403495D2*
X27030D1*
X-34470Y401995D2*
X27030D1*
X-23970Y389995D2*
X16530D1*
X-23970Y388495D2*
X16530D1*
X-23970Y386995D2*
X16530D1*
X-23970Y385495D2*
X16530D1*
X-23970Y383995D2*
X16530D1*
X-23970Y382495D2*
X16530D1*
X-23970Y380995D2*
X16530D1*
X-34470Y379495D2*
X-25470D1*
X18030D2*
X27030D1*
X-34470Y377995D2*
X-25470D1*
X18030D2*
X27030D1*
X-34470Y376495D2*
X-25470D1*
X18030D2*
X27030D1*
X-34470Y374995D2*
X-25470D1*
X18030D2*
X27030D1*
X-34470Y373495D2*
X-25470D1*
X18030D2*
X27030D1*
X-34470Y371995D2*
X-25470D1*
X18030D2*
X27030D1*
X-34470Y370495D2*
X-25470D1*
X18030D2*
X27030D1*
X-34470Y368995D2*
X-25470D1*
X18030D2*
X27030D1*
X-34470Y367495D2*
X-25470D1*
X18030D2*
X27030D1*
X-34470Y365995D2*
X-25470D1*
X18030D2*
X27030D1*
X-34470Y364495D2*
X-25470D1*
X18030D2*
X27030D1*
X-34470Y362995D2*
X-25470D1*
X18030D2*
X27030D1*
X-34470Y361495D2*
X-25470D1*
X18030D2*
X27030D1*
X-34470Y359995D2*
X-25470D1*
X18030D2*
X27030D1*
X-34470Y358495D2*
X-25470D1*
X18030D2*
X27030D1*
X-34470Y356995D2*
X-25470D1*
X18030D2*
X27030D1*
X-34470Y355495D2*
X-25470D1*
X18030D2*
X27030D1*
X-34470Y353995D2*
X-25470D1*
X18030D2*
X27030D1*
X-34470Y352495D2*
X-25470D1*
X18030D2*
X27030D1*
X-34470Y350995D2*
X-25470D1*
X18030D2*
X27030D1*
X-34470Y349495D2*
X-25470D1*
X18030D2*
X27030D1*
X-23970Y347995D2*
X16530D1*
X-23970Y346495D2*
X16530D1*
X-23970Y344995D2*
X16530D1*
X-23970Y343495D2*
X16530D1*
X-23970Y341995D2*
X16530D1*
X-23970Y340495D2*
X16530D1*
X-23970Y338995D2*
X16530D1*
X-23970Y326995D2*
X-14970D1*
X7530D2*
X16530D1*
X-23970Y325495D2*
X-14970D1*
X7530D2*
X16530D1*
X-23970Y323995D2*
X-14970D1*
X7530D2*
X16530D1*
X-23970Y322495D2*
X-14970D1*
X7530D2*
X16530D1*
X-23970Y320995D2*
X-14970D1*
X7530D2*
X16530D1*
X-23970Y319495D2*
X-14970D1*
X7530D2*
X16530D1*
X-23970Y317995D2*
X-14970D1*
X7530D2*
X16530D1*
X-34470Y316495D2*
X-25470D1*
X18030D2*
X27030D1*
X-34470Y314995D2*
X-25470D1*
X18030D2*
X27030D1*
X-34470Y313495D2*
X-25470D1*
X18030D2*
X27030D1*
X-34470Y311995D2*
X-25470D1*
X18030D2*
X27030D1*
X-34470Y310495D2*
X-25470D1*
X18030D2*
X27030D1*
X-34470Y308995D2*
X-25470D1*
X18030D2*
X27030D1*
X-34470Y307495D2*
X-25470D1*
X18030D2*
X27030D1*
X-34470Y305995D2*
X-25470D1*
X18030D2*
X27030D1*
X-34470Y304495D2*
X-25470D1*
X18030D2*
X27030D1*
X-34470Y302995D2*
X-25470D1*
X18030D2*
X27030D1*
X-34470Y301495D2*
X-25470D1*
X18030D2*
X27030D1*
X-34470Y299995D2*
X-25470D1*
X18030D2*
X27030D1*
X-34470Y298495D2*
X-25470D1*
X18030D2*
X27030D1*
X-34470Y296995D2*
X-25470D1*
X18030D2*
X27030D1*
X-34470Y295495D2*
X-25470D1*
X18030D2*
X27030D1*
X-34470Y293995D2*
X-25470D1*
X18030D2*
X27030D1*
X-34470Y292495D2*
X-25470D1*
X18030D2*
X27030D1*
X-34470Y290995D2*
X-25470D1*
X18030D2*
X27030D1*
X-34470Y289495D2*
X-25470D1*
X18030D2*
X27030D1*
X-34470Y287995D2*
X-25470D1*
X18030D2*
X27030D1*
X-34470Y286495D2*
X-25470D1*
X18030D2*
X27030D1*
X-23970Y284995D2*
X16530D1*
X-23970Y283495D2*
X16530D1*
X-23970Y281995D2*
X16530D1*
X-23970Y280495D2*
X16530D1*
X-23970Y278995D2*
X16530D1*
X-23970Y277495D2*
X16530D1*
X-23970Y275995D2*
X16530D1*
X-34470Y263995D2*
X-25470D1*
X-34470Y262495D2*
X-25470D1*
X-34470Y260995D2*
X-25470D1*
X-34470Y259495D2*
X-25470D1*
X-34470Y257995D2*
X-25470D1*
X-34470Y256495D2*
X-25470D1*
X-34470Y254995D2*
X-25470D1*
X-23970Y242995D2*
X-4470D1*
X7530D2*
X16530D1*
X-23970Y241495D2*
X-4470D1*
X7530D2*
X16530D1*
X-23970Y239995D2*
X-4470D1*
X7530D2*
X16530D1*
X-23970Y238495D2*
X-4470D1*
X7530D2*
X16530D1*
X-23970Y236995D2*
X-4470D1*
X7530D2*
X16530D1*
X-23970Y235495D2*
X-4470D1*
X7530D2*
X16530D1*
X-23970Y233995D2*
X-4470D1*
X7530D2*
X16530D1*
X-34470Y232495D2*
X-25470D1*
X-2970D2*
X6030D1*
X18030D2*
X27030D1*
X-34470Y230995D2*
X-25470D1*
X-2970D2*
X6030D1*
X18030D2*
X27030D1*
X-34470Y229495D2*
X-25470D1*
X-2970D2*
X6030D1*
X18030D2*
X27030D1*
X-34470Y227995D2*
X-25470D1*
X-2970D2*
X6030D1*
X18030D2*
X27030D1*
X-34470Y226495D2*
X-25470D1*
X-2970D2*
X6030D1*
X18030D2*
X27030D1*
X-34470Y224995D2*
X-25470D1*
X-2970D2*
X6030D1*
X18030D2*
X27030D1*
X-34470Y223495D2*
X-25470D1*
X-2970D2*
X6030D1*
X18030D2*
X27030D1*
X-34470Y221995D2*
X-25470D1*
X-2970D2*
X6030D1*
X18030D2*
X27030D1*
X-34470Y220495D2*
X-25470D1*
X-2970D2*
X6030D1*
X18030D2*
X27030D1*
X-34470Y218995D2*
X-25470D1*
X-2970D2*
X6030D1*
X18030D2*
X27030D1*
X-34470Y217495D2*
X-25470D1*
X-2970D2*
X6030D1*
X18030D2*
X27030D1*
X-34470Y215995D2*
X-25470D1*
X-2970D2*
X6030D1*
X18030D2*
X27030D1*
X-34470Y214495D2*
X-25470D1*
X-2970D2*
X6030D1*
X18030D2*
X27030D1*
X-34470Y212995D2*
X-25470D1*
X-2970D2*
X6030D1*
X18030D2*
X27030D1*
X-34470Y211495D2*
X-25470D1*
X-2970D2*
X6030D1*
X18030D2*
X27030D1*
X-34470Y209995D2*
X-25470D1*
X-2970D2*
X6030D1*
X18030D2*
X27030D1*
X-34470Y208495D2*
X-25470D1*
X-2970D2*
X6030D1*
X18030D2*
X27030D1*
X-34470Y206995D2*
X-25470D1*
X-2970D2*
X6030D1*
X18030D2*
X27030D1*
X-34470Y205495D2*
X-25470D1*
X-2970D2*
X6030D1*
X18030D2*
X27030D1*
X-34470Y203995D2*
X-25470D1*
X-2970D2*
X6030D1*
X18030D2*
X27030D1*
X-34470Y202495D2*
X-25470D1*
X-2970D2*
X6030D1*
X18030D2*
X27030D1*
X-34470Y200995D2*
X27030D1*
X-34470Y199495D2*
X27030D1*
X-34470Y197995D2*
X27030D1*
X-34470Y196495D2*
X27030D1*
X-34470Y194995D2*
X27030D1*
X-34470Y193495D2*
X27030D1*
X-34470Y191995D2*
X27030D1*
X-34470Y179995D2*
X16530D1*
X-34470Y178495D2*
X16530D1*
X-34470Y176995D2*
X16530D1*
X-34470Y175495D2*
X16530D1*
X-34470Y173995D2*
X16530D1*
X-34470Y172495D2*
X16530D1*
X-34470Y170995D2*
X16530D1*
X-23970Y169495D2*
X-14970D1*
X18030D2*
X27030D1*
X-23970Y167995D2*
X-14970D1*
X18030D2*
X27030D1*
X-23970Y166495D2*
X-14970D1*
X18030D2*
X27030D1*
X-23970Y164995D2*
X-14970D1*
X18030D2*
X27030D1*
X-23970Y163495D2*
X-14970D1*
X18030D2*
X27030D1*
X-23970Y161995D2*
X-14970D1*
X18030D2*
X27030D1*
X-23970Y160495D2*
X-14970D1*
X18030D2*
X27030D1*
X-23970Y158995D2*
X-14970D1*
X18030D2*
X27030D1*
X-23970Y157495D2*
X-14970D1*
X18030D2*
X27030D1*
X-23970Y155995D2*
X-14970D1*
X18030D2*
X27030D1*
X-23970Y154495D2*
X-14970D1*
X18030D2*
X27030D1*
X-23970Y152995D2*
X-14970D1*
X18030D2*
X27030D1*
X-23970Y151495D2*
X-14970D1*
X18030D2*
X27030D1*
X-23970Y149995D2*
X-14970D1*
X18030D2*
X27030D1*
X-23970Y148495D2*
X-14970D1*
X18030D2*
X27030D1*
X-23970Y146995D2*
X-14970D1*
X18030D2*
X27030D1*
X-23970Y145495D2*
X-14970D1*
X18030D2*
X27030D1*
X-23970Y143995D2*
X-14970D1*
X18030D2*
X27030D1*
X-23970Y142495D2*
X-14970D1*
X18030D2*
X27030D1*
X-23970Y140995D2*
X-14970D1*
X18030D2*
X27030D1*
X-23970Y139495D2*
X-14970D1*
X18030D2*
X27030D1*
X-34470Y137995D2*
X16530D1*
X-34470Y136495D2*
X16530D1*
X-34470Y134995D2*
X16530D1*
X-34470Y133495D2*
X16530D1*
X-34470Y131995D2*
X16530D1*
X-34470Y130495D2*
X16530D1*
X-34470Y128995D2*
X16530D1*
X-34470Y116995D2*
X-25470D1*
X-34470Y115495D2*
X-25470D1*
X-34470Y113995D2*
X-25470D1*
X-34470Y112495D2*
X-25470D1*
X-34470Y110995D2*
X-25470D1*
X-34470Y109495D2*
X-25470D1*
X-34470Y107995D2*
X-25470D1*
X-34470Y106495D2*
X-25470D1*
X-34470Y104995D2*
X-25470D1*
X-34470Y103495D2*
X-25470D1*
X-34470Y101995D2*
X-25470D1*
X-34470Y100495D2*
X-25470D1*
X-34470Y98995D2*
X-25470D1*
X-34470Y97495D2*
X-25470D1*
X-34470Y95995D2*
X-25470D1*
X-34470Y94495D2*
X-25470D1*
X-34470Y92995D2*
X-25470D1*
X-34470Y91495D2*
X-25470D1*
X-34470Y89995D2*
X-25470D1*
X-34470Y88495D2*
X-25470D1*
X-34470Y86995D2*
X-25470D1*
X-34470Y85495D2*
X-25470D1*
X-34470Y83995D2*
X-25470D1*
X-34470Y82495D2*
X-25470D1*
X-34470Y80995D2*
X-25470D1*
X-34470Y79495D2*
X-25470D1*
X-34470Y77995D2*
X-25470D1*
X-34470Y76495D2*
X-25470D1*
X-34470Y74995D2*
X27030D1*
X-34470Y73495D2*
X27030D1*
X-34470Y71995D2*
X27030D1*
X-34470Y70495D2*
X27030D1*
X-34470Y68995D2*
X27030D1*
X-34470Y67495D2*
X27030D1*
X-34470Y65995D2*
X27030D1*
X-34470Y53995D2*
X16530D1*
X-34470Y52495D2*
X16530D1*
X-34470Y50995D2*
X16530D1*
X-34470Y49495D2*
X16530D1*
X-34470Y47995D2*
X16530D1*
X-34470Y46495D2*
X16530D1*
X-34470Y44995D2*
X16530D1*
X-23970Y43495D2*
X-14970D1*
X18030D2*
X27030D1*
X-23970Y41995D2*
X-14970D1*
X18030D2*
X27030D1*
X-23970Y40495D2*
X-14970D1*
X18030D2*
X27030D1*
X-23970Y38995D2*
X-14970D1*
X18030D2*
X27030D1*
X-23970Y37495D2*
X-14970D1*
X18030D2*
X27030D1*
X-23970Y35995D2*
X-14970D1*
X18030D2*
X27030D1*
X-23970Y34495D2*
X-14970D1*
X18030D2*
X27030D1*
X-23970Y32995D2*
X-14970D1*
X18030D2*
X27030D1*
X-23970Y31495D2*
X-14970D1*
X18030D2*
X27030D1*
X-23970Y29995D2*
X-14970D1*
X18030D2*
X27030D1*
X-23970Y28495D2*
X-14970D1*
X18030D2*
X27030D1*
X-23970Y26995D2*
X-14970D1*
X18030D2*
X27030D1*
X-23970Y25495D2*
X-14970D1*
X18030D2*
X27030D1*
X-23970Y23995D2*
X-14970D1*
X18030D2*
X27030D1*
X-23970Y22495D2*
X-14970D1*
X18030D2*
X27030D1*
X-23970Y20995D2*
X-14970D1*
X18030D2*
X27030D1*
X-23970Y19495D2*
X-14970D1*
X18030D2*
X27030D1*
X-23970Y17995D2*
X-14970D1*
X18030D2*
X27030D1*
X-23970Y16495D2*
X-14970D1*
X18030D2*
X27030D1*
X-23970Y14995D2*
X-14970D1*
X18030D2*
X27030D1*
X-23970Y13495D2*
X-14970D1*
X18030D2*
X27030D1*
X-34470Y11995D2*
X16530D1*
X-34470Y10495D2*
X16530D1*
X-34470Y8995D2*
X16530D1*
X-34470Y7495D2*
X16530D1*
X-34470Y5995D2*
X16530D1*
X-34470Y4495D2*
X16530D1*
X-34470Y2995D2*
X16530D1*
X18030Y-9005D2*
X27030D1*
X18030Y-10505D2*
X27030D1*
X18030Y-12005D2*
X27030D1*
X18030Y-13505D2*
X27030D1*
X18030Y-15005D2*
X27030D1*
X18030Y-16505D2*
X27030D1*
X18030Y-18005D2*
X27030D1*
X18030Y-19505D2*
X27030D1*
X18030Y-21005D2*
X27030D1*
X18030Y-22505D2*
X27030D1*
X18030Y-24005D2*
X27030D1*
X18030Y-25505D2*
X27030D1*
X18030Y-27005D2*
X27030D1*
X18030Y-28505D2*
X27030D1*
X-34470Y-30005D2*
X27030D1*
X-34470Y-31505D2*
X27030D1*
X-34470Y-33005D2*
X27030D1*
X-34470Y-34505D2*
X27030D1*
X-34470Y-36005D2*
X27030D1*
X-34470Y-37505D2*
X27030D1*
X-34470Y-39005D2*
X27030D1*
X18030Y-40505D2*
X27030D1*
X18030Y-42005D2*
X27030D1*
X18030Y-43505D2*
X27030D1*
X18030Y-45005D2*
X27030D1*
X18030Y-46505D2*
X27030D1*
X18030Y-48005D2*
X27030D1*
X18030Y-49505D2*
X27030D1*
X18030Y-51005D2*
X27030D1*
X18030Y-52505D2*
X27030D1*
X18030Y-54005D2*
X27030D1*
X18030Y-55505D2*
X27030D1*
X18030Y-57005D2*
X27030D1*
X18030Y-58505D2*
X27030D1*
X18030Y-60005D2*
X27030D1*
X-34470Y-72005D2*
X-14970D1*
X18030D2*
X27030D1*
X-34470Y-73505D2*
X-14970D1*
X18030D2*
X27030D1*
X-34470Y-75005D2*
X-14970D1*
X18030D2*
X27030D1*
X-34470Y-76505D2*
X-14970D1*
X18030D2*
X27030D1*
X-34470Y-78005D2*
X-14970D1*
X18030D2*
X27030D1*
X-34470Y-79505D2*
X-14970D1*
X18030D2*
X27030D1*
X-34470Y-81005D2*
X-14970D1*
X18030D2*
X27030D1*
X-13470Y-82505D2*
X-4470D1*
X7530D2*
X16530D1*
X-13470Y-84005D2*
X-4470D1*
X7530D2*
X16530D1*
X-13470Y-85505D2*
X-4470D1*
X7530D2*
X16530D1*
X-13470Y-87005D2*
X-4470D1*
X7530D2*
X16530D1*
X-13470Y-88505D2*
X-4470D1*
X7530D2*
X16530D1*
X-13470Y-90005D2*
X-4470D1*
X7530D2*
X16530D1*
X-13470Y-91505D2*
X-4470D1*
X7530D2*
X16530D1*
X-2970Y-93005D2*
X6030D1*
X-2970Y-94505D2*
X6030D1*
X-2970Y-96005D2*
X6030D1*
X-2970Y-97505D2*
X6030D1*
X-2970Y-99005D2*
X6030D1*
X-2970Y-100505D2*
X6030D1*
X-2970Y-102005D2*
X6030D1*
X-2970Y-103505D2*
X6030D1*
X-2970Y-105005D2*
X6030D1*
X-2970Y-106505D2*
X6030D1*
X-2970Y-108005D2*
X6030D1*
X-2970Y-109505D2*
X6030D1*
X-2970Y-111005D2*
X6030D1*
X-2970Y-112505D2*
X6030D1*
X-34470Y-114005D2*
X27030D1*
X-34470Y-115505D2*
X27030D1*
X-34470Y-117005D2*
X27030D1*
X-34470Y-118505D2*
X27030D1*
X-34470Y-120005D2*
X27030D1*
X-34470Y-121505D2*
X27030D1*
X-34470Y-123005D2*
X27030D1*
X-34470Y-135005D2*
X-25470D1*
X18030D2*
X27030D1*
X-34470Y-136505D2*
X-25470D1*
X18030D2*
X27030D1*
X-34470Y-138005D2*
X-25470D1*
X18030D2*
X27030D1*
X-34470Y-139505D2*
X-25470D1*
X18030D2*
X27030D1*
X-34470Y-141005D2*
X-25470D1*
X18030D2*
X27030D1*
X-34470Y-142505D2*
X-25470D1*
X18030D2*
X27030D1*
X-34470Y-144005D2*
X-25470D1*
X18030D2*
X27030D1*
X-34470Y-145505D2*
X-25470D1*
X-2970D2*
X6030D1*
X18030D2*
X27030D1*
X-34470Y-147005D2*
X-25470D1*
X-2970D2*
X6030D1*
X18030D2*
X27030D1*
X-34470Y-148505D2*
X-25470D1*
X-2970D2*
X6030D1*
X18030D2*
X27030D1*
X-34470Y-150005D2*
X-25470D1*
X-2970D2*
X6030D1*
X18030D2*
X27030D1*
X-34470Y-151505D2*
X-25470D1*
X-2970D2*
X6030D1*
X18030D2*
X27030D1*
X-34470Y-153005D2*
X-25470D1*
X-2970D2*
X6030D1*
X18030D2*
X27030D1*
X-34470Y-154505D2*
X-25470D1*
X-2970D2*
X6030D1*
X18030D2*
X27030D1*
X-34470Y-156005D2*
X-25470D1*
X-2970D2*
X6030D1*
X18030D2*
X27030D1*
X-34470Y-157505D2*
X-25470D1*
X-2970D2*
X6030D1*
X18030D2*
X27030D1*
X-34470Y-159005D2*
X-25470D1*
X-2970D2*
X6030D1*
X18030D2*
X27030D1*
X-34470Y-160505D2*
X-25470D1*
X-2970D2*
X6030D1*
X18030D2*
X27030D1*
X-34470Y-162005D2*
X-25470D1*
X-2970D2*
X6030D1*
X18030D2*
X27030D1*
X-34470Y-163505D2*
X-25470D1*
X-2970D2*
X6030D1*
X18030D2*
X27030D1*
X-34470Y-165005D2*
X-25470D1*
X-2970D2*
X6030D1*
X18030D2*
X27030D1*
X-34470Y-166505D2*
X-25470D1*
X-2970D2*
X6030D1*
X18030D2*
X27030D1*
X-34470Y-168005D2*
X-25470D1*
X-2970D2*
X6030D1*
X18030D2*
X27030D1*
X-34470Y-169505D2*
X-25470D1*
X-2970D2*
X6030D1*
X18030D2*
X27030D1*
X-34470Y-171005D2*
X-25470D1*
X-2970D2*
X6030D1*
X18030D2*
X27030D1*
X-34470Y-172505D2*
X-25470D1*
X-2970D2*
X6030D1*
X18030D2*
X27030D1*
X-34470Y-174005D2*
X-25470D1*
X-2970D2*
X6030D1*
X18030D2*
X27030D1*
X-34470Y-175505D2*
X-25470D1*
X-2970D2*
X6030D1*
X18030D2*
X27030D1*
X-34470Y-177005D2*
X27030D1*
X-34470Y-178505D2*
X27030D1*
X-34470Y-180005D2*
X27030D1*
X-34470Y-181505D2*
X27030D1*
X-34470Y-183005D2*
X27030D1*
X-34470Y-184505D2*
X27030D1*
X-34470Y-186005D2*
X27030D1*
X18030Y-198005D2*
X27030D1*
X18030Y-199505D2*
X27030D1*
X18030Y-201005D2*
X27030D1*
X18030Y-202505D2*
X27030D1*
X18030Y-204005D2*
X27030D1*
X18030Y-205505D2*
X27030D1*
X18030Y-207005D2*
X27030D1*
X-2970Y-208505D2*
X6030D1*
X18030D2*
X27030D1*
X-2970Y-210005D2*
X6030D1*
X18030D2*
X27030D1*
X-2970Y-211505D2*
X6030D1*
X18030D2*
X27030D1*
X-2970Y-213005D2*
X6030D1*
X18030D2*
X27030D1*
X-2970Y-214505D2*
X6030D1*
X18030D2*
X27030D1*
X-2970Y-216005D2*
X6030D1*
X18030D2*
X27030D1*
X-2970Y-217505D2*
X6030D1*
X18030D2*
X27030D1*
X-2970Y-219005D2*
X6030D1*
X18030D2*
X27030D1*
X-2970Y-220505D2*
X6030D1*
X18030D2*
X27030D1*
X-2970Y-222005D2*
X6030D1*
X18030D2*
X27030D1*
X-2970Y-223505D2*
X6030D1*
X18030D2*
X27030D1*
X-2970Y-225005D2*
X6030D1*
X18030D2*
X27030D1*
X-2970Y-226505D2*
X6030D1*
X18030D2*
X27030D1*
X-2970Y-228005D2*
X6030D1*
X18030D2*
X27030D1*
X-2970Y-229505D2*
X6030D1*
X18030D2*
X27030D1*
X-2970Y-231005D2*
X6030D1*
X18030D2*
X27030D1*
X-2970Y-232505D2*
X6030D1*
X18030D2*
X27030D1*
X-2970Y-234005D2*
X6030D1*
X18030D2*
X27030D1*
X-2970Y-235505D2*
X6030D1*
X18030D2*
X27030D1*
X-2970Y-237005D2*
X6030D1*
X18030D2*
X27030D1*
X-2970Y-238505D2*
X6030D1*
X18030D2*
X27030D1*
X-34470Y-240005D2*
X27030D1*
X-34470Y-241505D2*
X27030D1*
X-34470Y-243005D2*
X27030D1*
X-34470Y-244505D2*
X27030D1*
X-34470Y-246005D2*
X27030D1*
X-34470Y-247505D2*
X27030D1*
X-34470Y-249005D2*
X27030D1*
X-34470Y-261005D2*
X-25470D1*
X18030D2*
X27030D1*
X-34470Y-262505D2*
X-25470D1*
X18030D2*
X27030D1*
X-34470Y-264005D2*
X-25470D1*
X18030D2*
X27030D1*
X-34470Y-265505D2*
X-25470D1*
X18030D2*
X27030D1*
X-34470Y-267005D2*
X-25470D1*
X18030D2*
X27030D1*
X-34470Y-268505D2*
X-25470D1*
X18030D2*
X27030D1*
X-34470Y-270005D2*
X-25470D1*
X18030D2*
X27030D1*
X-34470Y-271505D2*
X-25470D1*
X-2970D2*
X6030D1*
X18030D2*
X27030D1*
X-34470Y-273005D2*
X-25470D1*
X-2970D2*
X6030D1*
X18030D2*
X27030D1*
X-34470Y-274505D2*
X-25470D1*
X-2970D2*
X6030D1*
X18030D2*
X27030D1*
X-34470Y-276005D2*
X-25470D1*
X-2970D2*
X6030D1*
X18030D2*
X27030D1*
X-34470Y-277505D2*
X-25470D1*
X-2970D2*
X6030D1*
X18030D2*
X27030D1*
X-34470Y-279005D2*
X-25470D1*
X-2970D2*
X6030D1*
X18030D2*
X27030D1*
X-34470Y-280505D2*
X-25470D1*
X-2970D2*
X6030D1*
X18030D2*
X27030D1*
X-34470Y-282005D2*
X-25470D1*
X-2970D2*
X6030D1*
X18030D2*
X27030D1*
X-34470Y-283505D2*
X-25470D1*
X-2970D2*
X6030D1*
X18030D2*
X27030D1*
X-34470Y-285005D2*
X-25470D1*
X-2970D2*
X6030D1*
X18030D2*
X27030D1*
X-34470Y-286505D2*
X-25470D1*
X-2970D2*
X6030D1*
X18030D2*
X27030D1*
X-34470Y-288005D2*
X-25470D1*
X-2970D2*
X6030D1*
X18030D2*
X27030D1*
X-34470Y-289505D2*
X-25470D1*
X-2970D2*
X6030D1*
X18030D2*
X27030D1*
X-34470Y-291005D2*
X-25470D1*
X-2970D2*
X6030D1*
X18030D2*
X27030D1*
X-34470Y-292505D2*
X-25470D1*
X-2970D2*
X6030D1*
X18030D2*
X27030D1*
X-34470Y-294005D2*
X-25470D1*
X-2970D2*
X6030D1*
X18030D2*
X27030D1*
X-34470Y-295505D2*
X-25470D1*
X-2970D2*
X6030D1*
X18030D2*
X27030D1*
X-34470Y-297005D2*
X-25470D1*
X-2970D2*
X6030D1*
X18030D2*
X27030D1*
X-34470Y-298505D2*
X-25470D1*
X-2970D2*
X6030D1*
X18030D2*
X27030D1*
X-34470Y-300005D2*
X-25470D1*
X-2970D2*
X6030D1*
X18030D2*
X27030D1*
X-34470Y-301505D2*
X-25470D1*
X-2970D2*
X6030D1*
X18030D2*
X27030D1*
X-34470Y-303005D2*
X27030D1*
X-34470Y-304505D2*
X27030D1*
X-34470Y-306005D2*
X27030D1*
X-34470Y-307505D2*
X27030D1*
X-34470Y-309005D2*
X27030D1*
X-34470Y-310505D2*
X27030D1*
X-34470Y-312005D2*
X27030D1*
X-34470Y-324005D2*
X-25470D1*
X-34470Y-325505D2*
X-25470D1*
X-34470Y-327005D2*
X-25470D1*
X-34470Y-328505D2*
X-25470D1*
X-34470Y-330005D2*
X-25470D1*
X-34470Y-331505D2*
X-25470D1*
X-34470Y-333005D2*
X-25470D1*
X-23970Y-345005D2*
X27030D1*
X-23970Y-346505D2*
X27030D1*
X-23970Y-348005D2*
X27030D1*
X-23970Y-349505D2*
X27030D1*
X-23970Y-351005D2*
X27030D1*
X-23970Y-352505D2*
X27030D1*
X-23970Y-354005D2*
X27030D1*
X-34470Y-355505D2*
X-25470D1*
X-34470Y-357005D2*
X-25470D1*
X-34470Y-358505D2*
X-25470D1*
X-34470Y-360005D2*
X-25470D1*
X-34470Y-361505D2*
X-25470D1*
X-34470Y-363005D2*
X-25470D1*
X-34470Y-364505D2*
X-25470D1*
X-23970Y-366005D2*
X-4470D1*
X-23970Y-367505D2*
X-4470D1*
X-23970Y-369005D2*
X-4470D1*
X-23970Y-370505D2*
X-4470D1*
X-23970Y-372005D2*
X-4470D1*
X-23970Y-373505D2*
X-4470D1*
X-23970Y-375005D2*
X-4470D1*
X-34470Y-376505D2*
X-25470D1*
X-34470Y-378005D2*
X-25470D1*
X-34470Y-379505D2*
X-25470D1*
X-34470Y-381005D2*
X-25470D1*
X-34470Y-382505D2*
X-25470D1*
X-34470Y-384005D2*
X-25470D1*
X-34470Y-385505D2*
X-25470D1*
X-23970Y-387005D2*
X27030D1*
X-23970Y-388505D2*
X27030D1*
X-23970Y-390005D2*
X27030D1*
X-23970Y-391505D2*
X27030D1*
X-23970Y-393005D2*
X27030D1*
X-23970Y-394505D2*
X27030D1*
X-23970Y-396005D2*
X27030D1*
X-23970Y-408005D2*
X27030D1*
X-23970Y-409505D2*
X27030D1*
X-23970Y-411005D2*
X27030D1*
X-23970Y-412505D2*
X27030D1*
X-23970Y-414005D2*
X27030D1*
X-23970Y-415505D2*
X27030D1*
X-23970Y-417005D2*
X27030D1*
X-34470Y-418505D2*
X-25470D1*
X-34470Y-420005D2*
X-25470D1*
X-34470Y-421505D2*
X-25470D1*
X-34470Y-423005D2*
X-25470D1*
X-34470Y-424505D2*
X-25470D1*
X-34470Y-426005D2*
X-25470D1*
X-34470Y-427505D2*
X-25470D1*
X-23970Y-429005D2*
X-4470D1*
X-23970Y-430505D2*
X-4470D1*
X-23970Y-432005D2*
X-4470D1*
X-23970Y-433505D2*
X-4470D1*
X-23970Y-435005D2*
X-4470D1*
X-23970Y-436505D2*
X-4470D1*
X-23970Y-438005D2*
X-4470D1*
X-34470Y-439505D2*
X-25470D1*
X-34470Y-441005D2*
X-25470D1*
X-34470Y-442505D2*
X-25470D1*
X-34470Y-444005D2*
X-25470D1*
X-34470Y-445505D2*
X-25470D1*
X-34470Y-447005D2*
X-25470D1*
X-34470Y-448505D2*
X-25470D1*
X-23970Y-450005D2*
X27030D1*
X-23970Y-451505D2*
X27030D1*
X-23970Y-453005D2*
X27030D1*
X-23970Y-454505D2*
X27030D1*
X-23970Y-456005D2*
X27030D1*
X-23970Y-457505D2*
X27030D1*
X-23970Y-459005D2*
X27030D1*
X-23970Y-471005D2*
X27030D1*
X-23970Y-472505D2*
X27030D1*
X-23970Y-474005D2*
X27030D1*
X-23970Y-475505D2*
X27030D1*
X-23970Y-477005D2*
X27030D1*
X-23970Y-478505D2*
X27030D1*
X-23970Y-480005D2*
X27030D1*
X-34470Y-481505D2*
X-25470D1*
X-34470Y-483005D2*
X-25470D1*
X-34470Y-484505D2*
X-25470D1*
X-34470Y-486005D2*
X-25470D1*
X-34470Y-487505D2*
X-25470D1*
X-34470Y-489005D2*
X-25470D1*
X-34470Y-490505D2*
X-25470D1*
X-23970Y-492005D2*
X-4470D1*
X-23970Y-493505D2*
X-4470D1*
X-23970Y-495005D2*
X-4470D1*
X-23970Y-496505D2*
X-4470D1*
X-23970Y-498005D2*
X-4470D1*
X-23970Y-499505D2*
X-4470D1*
X-23970Y-501005D2*
X-4470D1*
X-34470Y-502505D2*
X-25470D1*
X-34470Y-504005D2*
X-25470D1*
X-34470Y-505505D2*
X-25470D1*
X-34470Y-507005D2*
X-25470D1*
X-34470Y-508505D2*
X-25470D1*
X-34470Y-510005D2*
X-25470D1*
X-34470Y-511505D2*
X-25470D1*
X-23970Y-513005D2*
X27030D1*
X-23970Y-514505D2*
X27030D1*
X-23970Y-516005D2*
X27030D1*
X-23970Y-517505D2*
X27030D1*
X-23970Y-519005D2*
X27030D1*
X-23970Y-520505D2*
X27030D1*
X-23970Y-522005D2*
X27030D1*
X186703Y705685D2*
D13*
X214262D1*
X184993Y704373D2*
X216131D1*
X183681Y703060D2*
X217647D1*
X182736Y701748D2*
X188329D1*
X214212D2*
X218784D1*
X182102Y700436D2*
X186468D1*
X215351D2*
X219626D1*
X181746Y699123D2*
X185038D1*
X216293D2*
X220211D1*
X181575Y697811D2*
X184546D1*
X217004D2*
X220540D1*
X181501Y696499D2*
X184335D1*
X217530D2*
X220657D1*
X181476Y695186D2*
X184325D1*
X199827D2*
X202451D1*
X217465D2*
X220555D1*
X181516Y693874D2*
X184978D1*
X199827D2*
X202451D1*
X216855D2*
X220218D1*
X181736Y692562D2*
X186616D1*
X199827D2*
X202451D1*
X214034D2*
X219674D1*
X182159Y691249D2*
X188502D1*
X199827D2*
X202451D1*
X208981D2*
X218916D1*
X183348Y689937D2*
X190113D1*
X199827D2*
X217928D1*
X184914Y688625D2*
X191176D1*
X199827D2*
X216782D1*
X186703Y687312D2*
X191953D1*
X199827D2*
X215575D1*
X181454Y680751D2*
X220824D1*
X181649Y679438D2*
X220824D1*
X182337Y678126D2*
X220824D1*
X184100Y676814D2*
X190848D1*
X186480Y675501D2*
X193845D1*
X189359Y674189D2*
X196981D1*
X192573Y672877D2*
X200196D1*
X195967Y671564D2*
X203452D1*
X199361Y670252D2*
X206722D1*
X202667Y668940D2*
X209990D1*
X205816Y667627D2*
X213166D1*
X208774Y666315D2*
X216007D1*
X181454Y665003D2*
X218196D1*
X181454Y663690D2*
X219689D1*
X181454Y662378D2*
X220824D1*
X181454Y654504D2*
X220824D1*
X181454Y653192D2*
X220824D1*
X181454Y651879D2*
X220824D1*
X181454Y650567D2*
X184079D1*
X218199D2*
X220824D1*
X181454Y649255D2*
X184079D1*
X218199D2*
X220824D1*
X181454Y647942D2*
X184079D1*
X218199D2*
X220824D1*
X181454Y646630D2*
X184079D1*
X218199D2*
X220824D1*
X181454Y645318D2*
X184084D1*
X218189D2*
X220819D1*
X181454Y644005D2*
X184135D1*
X218087D2*
X220773D1*
X181459Y642693D2*
X184353D1*
X217841D2*
X220601D1*
X181516Y641381D2*
X184881D1*
X216642D2*
X220230D1*
X181654Y640068D2*
X185721D1*
X214927D2*
X219625D1*
X182311Y638756D2*
X218664D1*
X183752Y637444D2*
X217248D1*
X185391Y636131D2*
X215575D1*
X85916Y691118D2*
X91165D1*
X116100D2*
X120037D1*
X84053Y689806D2*
X90530D1*
X113929D2*
X120037D1*
X82583Y688493D2*
X88841D1*
X111741D2*
X120037D1*
X81447Y687181D2*
X86957D1*
X109532D2*
X120037D1*
X81044Y685869D2*
X85376D1*
X107356D2*
X114837D1*
X117412D2*
X120037D1*
X80827Y684556D2*
X84139D1*
X105171D2*
X112386D1*
X117412D2*
X120037D1*
X80729Y683244D2*
X83716D1*
X102956D2*
X110122D1*
X117412D2*
X120037D1*
X80695Y681932D2*
X83474D1*
X100664D2*
X108001D1*
X117412D2*
X120037D1*
X80731Y680619D2*
X83912D1*
X97898D2*
X105920D1*
X117412D2*
X120037D1*
X80949Y679307D2*
X86145D1*
X94066D2*
X103748D1*
X117412D2*
X120037D1*
X81372Y677995D2*
X89615D1*
X89004D2*
X101358D1*
X117412D2*
X120037D1*
X82561Y676682D2*
X98676D1*
X117412D2*
X120037D1*
X84127Y675370D2*
X95669D1*
X117412D2*
X120037D1*
X85916Y674058D2*
X92478D1*
X117412D2*
X120037D1*
X116100Y667496D2*
X120037D1*
X116100Y666184D2*
X120037D1*
X116100Y664871D2*
X120037D1*
X83291Y659622D2*
X87228D1*
X82483Y658310D2*
X86124D1*
X81780Y656997D2*
X85188D1*
X81250Y655685D2*
X84434D1*
X80936Y654373D2*
X83881D1*
X80779Y653060D2*
X83536D1*
X80711Y651748D2*
X120037D1*
X80682Y650436D2*
X120037D1*
X80667Y649123D2*
X120037D1*
X-224058Y707260D2*
Y705948D1*
Y704635D1*
X-217293Y703323D1*
X-210406Y702010D1*
X-203501Y700698D1*
X-196690Y699386D1*
X-189937Y698073D1*
X-196096Y696761D1*
X-202585Y695449D1*
X-209086Y694136D1*
X-214868Y692824D1*
X-219168Y691512D1*
X-222257Y690199D1*
X-223283Y688887D1*
X-224058Y687575D1*
X-217496Y707260D2*
X-210940Y705948D1*
X-204444Y704635D1*
X-198260Y703323D1*
X-192938Y702010D1*
X-189063Y700698D1*
X-186298Y699386D1*
X-185053Y698073D1*
X-185128Y696761D1*
X-187985Y695449D1*
X-192147Y694136D1*
X-197451Y692824D1*
X-203440Y691512D1*
X-209764Y690199D1*
X-216232Y688887D1*
X-222745Y687575D1*
X-218808Y683638D2*
X-220671Y682325D1*
X-222141Y681013D1*
X-223277Y679701D1*
X-223680Y678388D1*
X-223898Y677076D1*
X-223995Y675764D1*
X-224030Y674451D1*
X-223998Y673139D1*
X-223826Y671827D1*
X-223411Y670514D1*
X-222796Y669202D1*
X-221392Y667890D1*
X-219556Y666577D1*
X-217496Y665265D1*
X-191249Y683638D2*
X-189381Y682325D1*
X-187865Y681013D1*
X-186728Y679701D1*
X-185886Y678388D1*
X-185301Y677076D1*
X-184972Y675764D1*
X-184855Y674451D1*
X-184956Y673139D1*
X-185293Y671827D1*
X-185848Y670514D1*
X-186706Y669202D1*
X-188100Y667890D1*
X-190143Y666577D1*
X-192562Y665265D1*
X-214871Y681013D2*
X-217183Y679701D1*
X-219043Y678388D1*
X-220474Y677076D1*
X-220966Y675764D1*
X-221171Y674451D1*
X-221166Y673139D1*
X-220395Y671827D1*
X-218589Y670514D1*
X-216675Y669202D1*
X-214962Y667890D1*
X-214177Y666577D1*
X-213559Y665265D1*
X-192562Y681013D2*
X-191254Y679701D1*
X-189999Y678388D1*
X-188951Y677076D1*
X-188156Y675764D1*
X-188113Y674451D1*
X-188624Y673139D1*
X-189350Y671827D1*
X-190878Y670514D1*
X-192486Y669202D1*
X-193775Y667890D1*
X-194597Y666577D1*
X-195186Y665265D1*
X-218808Y660016D2*
X-220671Y658703D1*
X-222141Y657391D1*
X-223277Y656079D1*
X-223680Y654766D1*
X-223898Y653454D1*
X-223995Y652142D1*
X-224030Y650829D1*
X-223998Y649517D1*
X-223826Y648205D1*
X-223411Y646892D1*
X-222796Y645580D1*
X-221392Y644268D1*
X-219556Y642955D1*
X-217496Y641643D1*
X-191249Y660016D2*
X-189381Y658703D1*
X-187865Y657391D1*
X-186728Y656079D1*
X-185886Y654766D1*
X-185301Y653454D1*
X-184972Y652142D1*
X-184855Y650829D1*
X-184956Y649517D1*
X-185293Y648205D1*
X-185848Y646892D1*
X-186706Y645580D1*
X-188100Y644268D1*
X-190143Y642955D1*
X-192562Y641643D1*
X-214871Y657391D2*
X-217183Y656079D1*
X-219043Y654766D1*
X-220474Y653454D1*
X-220966Y652142D1*
X-221171Y650829D1*
X-221166Y649517D1*
X-220395Y648205D1*
X-218589Y646892D1*
X-216675Y645580D1*
X-214962Y644268D1*
X-214177Y642955D1*
X-213559Y641643D1*
X-192562Y657391D2*
X-191254Y656079D1*
X-189999Y654766D1*
X-188951Y653454D1*
X-188156Y652142D1*
X-188113Y650829D1*
X-188624Y649517D1*
X-189350Y648205D1*
X-190878Y646892D1*
X-192486Y645580D1*
X-193775Y644268D1*
X-194597Y642955D1*
X-195186Y641643D1*
X-17234Y696367D2*
X-19097Y695055D1*
X-20566Y693743D1*
X-21702Y692430D1*
X-22105Y691118D1*
X-22323Y689806D1*
X-22420Y688493D1*
X-22455Y687181D1*
X-22418Y685869D1*
X-22200Y684556D1*
X-21778Y683244D1*
X-20589Y681932D1*
X-19023Y680619D1*
X-17234Y679307D1*
X-11984Y696367D2*
X-12620Y695055D1*
X-14309Y693743D1*
X-16193Y692430D1*
X-17774Y691118D1*
X-19010Y689806D1*
X-19434Y688493D1*
X-19676Y687181D1*
X-19237Y685869D1*
X-17005Y684556D1*
X-13535Y683244D1*
X-9360Y681932D1*
X12950Y696367D2*
X10779Y695055D1*
X8591Y693743D1*
X6383Y692430D1*
X4206Y691118D1*
X2022Y689806D1*
X-193Y688493D1*
X-2486Y687181D1*
X-5251Y685869D1*
X-9084Y684556D1*
X-14146Y683244D1*
X-19858Y681932D1*
X16887Y696367D2*
Y695055D1*
Y693743D1*
Y692430D1*
Y691118D1*
Y689806D1*
Y688493D1*
Y687181D1*
Y685869D1*
Y684556D1*
Y683244D1*
Y681932D1*
Y680619D1*
Y679307D1*
X14262Y692430D2*
X11688Y691118D1*
X9236Y689806D1*
X6972Y688493D1*
X4852Y687181D1*
X2770Y685869D1*
X598Y684556D1*
X-1792Y683244D1*
X-4474Y681932D1*
X-7480Y680619D1*
X-10672Y679307D1*
X14262Y692430D2*
Y691118D1*
Y689806D1*
Y688493D1*
Y687181D1*
Y685869D1*
Y684556D1*
Y683244D1*
Y681932D1*
Y680619D1*
Y679307D1*
X12950Y672745D2*
Y671433D1*
Y670121D1*
X16887Y672745D2*
Y671433D1*
Y670121D1*
X-17234Y663559D2*
X-19097Y662247D1*
X-20566Y660934D1*
X-21702Y659622D1*
X-22105Y658310D1*
X-22323Y656997D1*
X-22420Y655685D1*
X-22455Y654373D1*
X-22418Y653060D1*
X-22200Y651748D1*
X-21778Y650436D1*
X-20589Y649123D1*
X-19023Y647811D1*
X-17234Y646499D1*
X-11984Y663559D2*
X-12620Y662247D1*
X-14309Y660934D1*
X-16193Y659622D1*
X-17774Y658310D1*
X-19010Y656997D1*
X-19434Y655685D1*
X-19676Y654373D1*
X-19237Y653060D1*
X-17005Y651748D1*
X-13535Y650436D1*
X-9360Y649123D1*
X12950Y663559D2*
X10779Y662247D1*
X8591Y660934D1*
X6383Y659622D1*
X4206Y658310D1*
X2022Y656997D1*
X-193Y655685D1*
X-2486Y654373D1*
X-5251Y653060D1*
X-9084Y651748D1*
X-14146Y650436D1*
X-19858Y649123D1*
X16887Y663559D2*
Y662247D1*
Y660934D1*
Y659622D1*
Y658310D1*
Y656997D1*
Y655685D1*
Y654373D1*
Y653060D1*
Y651748D1*
Y650436D1*
Y649123D1*
Y647811D1*
Y646499D1*
X14262Y659622D2*
X11688Y658310D1*
X9236Y656997D1*
X6972Y655685D1*
X4852Y654373D1*
X2770Y653060D1*
X598Y651748D1*
X-1792Y650436D1*
X-4474Y649123D1*
X-7480Y647811D1*
X-10672Y646499D1*
X14262Y659622D2*
Y658310D1*
Y656997D1*
Y655685D1*
Y654373D1*
Y653060D1*
Y651748D1*
Y650436D1*
Y649123D1*
Y647811D1*
Y646499D1*
X-120908Y705554D2*
Y704241D1*
Y702929D1*
Y701617D1*
Y700304D1*
Y698992D1*
Y697680D1*
Y696367D1*
X-120903Y695055D1*
X-120852Y693743D1*
X-120633Y692430D1*
X-120101Y691118D1*
X-119233Y689806D1*
X-118145Y688493D1*
X-116971Y687181D1*
X-81538Y705554D2*
Y704241D1*
Y702929D1*
X-118283D2*
Y701617D1*
Y700304D1*
Y698992D1*
Y697680D1*
X-118278Y696367D1*
X-118181Y695055D1*
X-117919Y693743D1*
X-116032Y692430D1*
X-110501Y691118D1*
X-103848Y689806D1*
X-101223Y702929D2*
Y701617D1*
Y700304D1*
Y698992D1*
X-101228Y697680D1*
X-101279Y696367D1*
X-101403Y695055D1*
X-102092Y693743D1*
X-105111Y692430D1*
X-110318Y691118D1*
X-116971Y689806D1*
X-98598Y702929D2*
Y701617D1*
Y700304D1*
X-98588Y698992D1*
X-98475Y697680D1*
X-98199Y696367D1*
X-96891Y695055D1*
X-94015Y693743D1*
X-90645Y692430D1*
X-87347Y691118D1*
X-84734Y689806D1*
X-82775Y688493D1*
X-82073Y687181D1*
X-81538Y685869D1*
X-98598Y691118D2*
X-100152Y689806D1*
X-101925Y688493D1*
X-103848Y687181D1*
X-99911Y691118D2*
X-95974Y689806D1*
X-92037Y688493D1*
X-88100Y687181D1*
X-84163Y685869D1*
X-120908Y679307D2*
Y677995D1*
Y676682D1*
Y675370D1*
Y674058D1*
Y672745D1*
Y671433D1*
Y670121D1*
Y668808D1*
Y667496D1*
Y666184D1*
Y664871D1*
Y663559D1*
Y662247D1*
X-81538Y679307D2*
Y677995D1*
Y676682D1*
Y675370D1*
Y674058D1*
Y672745D1*
Y671433D1*
Y670121D1*
Y668808D1*
Y667496D1*
Y666184D1*
Y664871D1*
Y663559D1*
Y662247D1*
X-118283Y676682D2*
Y675370D1*
Y674058D1*
Y672745D1*
Y671433D1*
Y670121D1*
Y668808D1*
X-118289Y667496D1*
X-118339Y666184D1*
X-118541Y664871D1*
X-118990Y663559D1*
X-119596Y662247D1*
X-102535Y676682D2*
Y675370D1*
Y674058D1*
Y672745D1*
Y671433D1*
Y670121D1*
Y668808D1*
Y667496D1*
Y666184D1*
Y664871D1*
X-99911Y676682D2*
Y675370D1*
Y674058D1*
Y672745D1*
Y671433D1*
Y670121D1*
Y668808D1*
Y667496D1*
Y666184D1*
Y664871D1*
X-84163Y676682D2*
Y675370D1*
Y674058D1*
Y672745D1*
Y671433D1*
Y670121D1*
Y668808D1*
Y667496D1*
Y666184D1*
Y664871D1*
Y663559D1*
Y662247D1*
X-116971Y656997D2*
X-118228Y655685D1*
X-119321Y654373D1*
X-120101Y653060D1*
X-120543Y651748D1*
X-120758Y650436D1*
X-120850Y649123D1*
X-120887Y647811D1*
X-120896Y646499D1*
X-120849Y645186D1*
X-120627Y643874D1*
X-120203Y642562D1*
X-119014Y641249D1*
X-117448Y639937D1*
X-115659Y638625D1*
X-107785Y656997D2*
X-106075Y655685D1*
X-104757Y654373D1*
X-103766Y653060D1*
X-102959Y651748D1*
X-102238Y650436D1*
X-101517Y649123D1*
X-100722Y647811D1*
X-99787Y646499D1*
X-98726Y645186D1*
X-95843Y643874D1*
X-91219Y642562D1*
X-85475Y641249D1*
X-92037Y656997D2*
X-91401Y655685D1*
X-89757Y654373D1*
X-87995Y653060D1*
X-86561Y651748D1*
X-85528Y650436D1*
X-84851Y649123D1*
X-84412Y647811D1*
X-84426Y646499D1*
X-84999Y645186D1*
X-87316Y643874D1*
X-91150Y642562D1*
X-95974Y641249D1*
X-86787Y656997D2*
X-85368Y655685D1*
X-84243Y654373D1*
X-83354Y653060D1*
X-82641Y651748D1*
X-82114Y650436D1*
X-81808Y649123D1*
X-81700Y647811D1*
X-81800Y646499D1*
X-82092Y645186D1*
X-82475Y643874D1*
X-82968Y642562D1*
X-83642Y641249D1*
X-85120Y639937D1*
X-86787Y638625D1*
X-115659Y654373D2*
X-116713Y653060D1*
X-117481Y651748D1*
X-117920Y650436D1*
X-118133Y649123D1*
X-118215Y647811D1*
X-118139Y646499D1*
X-117880Y645186D1*
X-116403Y643874D1*
X-114427Y642562D1*
X-112597Y641249D1*
X-111342Y639937D1*
X-110409Y638625D1*
X-109097Y654373D2*
X-107790Y653060D1*
X-106524Y651748D1*
X-105384Y650436D1*
X-104432Y649123D1*
X-103628Y647811D1*
X-102905Y646499D1*
X-102218Y645186D1*
X-101500Y643874D1*
X-100619Y642562D1*
X-99398Y641249D1*
X-97793Y639937D1*
X-95974Y638625D1*
X-34470Y452995D2*
D12*
Y451495D1*
Y449995D1*
Y448495D1*
Y446995D1*
Y445495D1*
Y443995D1*
X27030Y452995D2*
Y451495D1*
Y449995D1*
Y448495D1*
Y446995D1*
Y445495D1*
Y443995D1*
Y442495D1*
X16530D1*
Y440995D1*
Y439495D1*
Y437995D1*
Y436495D1*
Y434995D1*
Y433495D1*
Y431995D1*
X6030D1*
Y430495D1*
Y428995D1*
Y427495D1*
Y425995D1*
Y424495D1*
Y422995D1*
X7530Y443995D2*
Y442495D1*
Y440995D1*
Y439495D1*
Y437995D1*
Y436495D1*
Y434995D1*
Y433495D1*
X-2970Y431995D2*
Y430495D1*
Y428995D1*
Y427495D1*
Y425995D1*
Y424495D1*
Y422995D1*
Y421495D1*
X7530D1*
Y419995D1*
Y418495D1*
Y416995D1*
Y415495D1*
Y413995D1*
Y412495D1*
Y410995D1*
X16530Y421495D2*
Y419995D1*
Y418495D1*
Y416995D1*
Y415495D1*
Y413995D1*
Y412495D1*
Y410995D1*
X27030D1*
Y409495D1*
Y407995D1*
Y406495D1*
Y404995D1*
Y403495D1*
Y401995D1*
X-34470Y410995D2*
Y409495D1*
Y407995D1*
Y406495D1*
Y404995D1*
Y403495D1*
Y401995D1*
X-23970Y389995D2*
Y388495D1*
Y386995D1*
Y385495D1*
Y383995D1*
Y382495D1*
Y380995D1*
X16530Y389995D2*
Y388495D1*
Y386995D1*
Y385495D1*
Y383995D1*
Y382495D1*
Y380995D1*
X-34470Y379495D2*
Y377995D1*
Y376495D1*
Y374995D1*
Y373495D1*
Y371995D1*
Y370495D1*
Y368995D1*
Y367495D1*
Y365995D1*
Y364495D1*
Y362995D1*
Y361495D1*
Y359995D1*
Y358495D1*
Y356995D1*
Y355495D1*
Y353995D1*
Y352495D1*
Y350995D1*
Y349495D1*
Y347995D1*
X-23970D1*
Y346495D1*
Y344995D1*
Y343495D1*
Y341995D1*
Y340495D1*
Y338995D1*
X-25470Y379495D2*
Y377995D1*
Y376495D1*
Y374995D1*
Y373495D1*
Y371995D1*
Y370495D1*
Y368995D1*
Y367495D1*
Y365995D1*
Y364495D1*
Y362995D1*
Y361495D1*
Y359995D1*
Y358495D1*
Y356995D1*
Y355495D1*
Y353995D1*
Y352495D1*
Y350995D1*
Y349495D1*
X18030Y379495D2*
Y377995D1*
Y376495D1*
Y374995D1*
Y373495D1*
Y371995D1*
Y370495D1*
Y368995D1*
Y367495D1*
Y365995D1*
Y364495D1*
Y362995D1*
Y361495D1*
Y359995D1*
Y358495D1*
Y356995D1*
Y355495D1*
Y353995D1*
Y352495D1*
Y350995D1*
Y349495D1*
X27030Y379495D2*
Y377995D1*
Y376495D1*
Y374995D1*
Y373495D1*
Y371995D1*
Y370495D1*
Y368995D1*
Y367495D1*
Y365995D1*
Y364495D1*
Y362995D1*
Y361495D1*
Y359995D1*
Y358495D1*
Y356995D1*
Y355495D1*
Y353995D1*
Y352495D1*
Y350995D1*
Y349495D1*
Y347995D1*
X16530D1*
Y346495D1*
Y344995D1*
Y343495D1*
Y341995D1*
Y340495D1*
Y338995D1*
X-23970Y326995D2*
Y325495D1*
Y323995D1*
Y322495D1*
Y320995D1*
Y319495D1*
Y317995D1*
X-14970Y326995D2*
Y325495D1*
Y323995D1*
Y322495D1*
Y320995D1*
Y319495D1*
Y317995D1*
Y316495D1*
X-25470D1*
Y314995D1*
Y313495D1*
Y311995D1*
Y310495D1*
Y308995D1*
Y307495D1*
Y305995D1*
Y304495D1*
Y302995D1*
Y301495D1*
Y299995D1*
Y298495D1*
Y296995D1*
Y295495D1*
Y293995D1*
Y292495D1*
Y290995D1*
Y289495D1*
Y287995D1*
Y286495D1*
X7530Y326995D2*
Y325495D1*
Y323995D1*
Y322495D1*
Y320995D1*
Y319495D1*
Y317995D1*
Y316495D1*
X18030D1*
Y314995D1*
Y313495D1*
Y311995D1*
Y310495D1*
Y308995D1*
Y307495D1*
Y305995D1*
Y304495D1*
Y302995D1*
Y301495D1*
Y299995D1*
Y298495D1*
Y296995D1*
Y295495D1*
Y293995D1*
Y292495D1*
Y290995D1*
Y289495D1*
Y287995D1*
Y286495D1*
X16530Y326995D2*
Y325495D1*
Y323995D1*
Y322495D1*
Y320995D1*
Y319495D1*
Y317995D1*
X-34470Y316495D2*
Y314995D1*
Y313495D1*
Y311995D1*
Y310495D1*
Y308995D1*
Y307495D1*
Y305995D1*
Y304495D1*
Y302995D1*
Y301495D1*
Y299995D1*
Y298495D1*
Y296995D1*
Y295495D1*
Y293995D1*
Y292495D1*
Y290995D1*
Y289495D1*
Y287995D1*
Y286495D1*
Y284995D1*
X-23970D1*
Y283495D1*
Y281995D1*
Y280495D1*
Y278995D1*
Y277495D1*
Y275995D1*
X27030Y316495D2*
Y314995D1*
Y313495D1*
Y311995D1*
Y310495D1*
Y308995D1*
Y307495D1*
Y305995D1*
Y304495D1*
Y302995D1*
Y301495D1*
Y299995D1*
Y298495D1*
Y296995D1*
Y295495D1*
Y293995D1*
Y292495D1*
Y290995D1*
Y289495D1*
Y287995D1*
Y286495D1*
Y284995D1*
X16530D1*
Y283495D1*
Y281995D1*
Y280495D1*
Y278995D1*
Y277495D1*
Y275995D1*
X-34470Y263995D2*
Y262495D1*
Y260995D1*
Y259495D1*
Y257995D1*
Y256495D1*
Y254995D1*
X-25470Y263995D2*
Y262495D1*
Y260995D1*
Y259495D1*
Y257995D1*
Y256495D1*
Y254995D1*
X-23970Y242995D2*
Y241495D1*
Y239995D1*
Y238495D1*
Y236995D1*
Y235495D1*
Y233995D1*
X-4470Y242995D2*
Y241495D1*
Y239995D1*
Y238495D1*
Y236995D1*
Y235495D1*
Y233995D1*
X7530Y242995D2*
Y241495D1*
Y239995D1*
Y238495D1*
Y236995D1*
Y235495D1*
Y233995D1*
Y232495D1*
X18030D1*
Y230995D1*
Y229495D1*
Y227995D1*
Y226495D1*
Y224995D1*
Y223495D1*
Y221995D1*
Y220495D1*
Y218995D1*
Y217495D1*
Y215995D1*
Y214495D1*
Y212995D1*
Y211495D1*
Y209995D1*
Y208495D1*
Y206995D1*
Y205495D1*
Y203995D1*
Y202495D1*
X7530Y200995D1*
X16530Y242995D2*
Y241495D1*
Y239995D1*
Y238495D1*
Y236995D1*
Y235495D1*
Y233995D1*
Y232495D1*
X6030D1*
Y230995D1*
Y229495D1*
Y227995D1*
Y226495D1*
Y224995D1*
Y223495D1*
Y221995D1*
Y220495D1*
Y218995D1*
Y217495D1*
Y215995D1*
Y214495D1*
Y212995D1*
Y211495D1*
Y209995D1*
Y208495D1*
Y206995D1*
Y205495D1*
Y203995D1*
Y202495D1*
X16530Y200995D1*
X-34470Y232495D2*
Y230995D1*
Y229495D1*
Y227995D1*
Y226495D1*
Y224995D1*
Y223495D1*
Y221995D1*
Y220495D1*
Y218995D1*
Y217495D1*
Y215995D1*
Y214495D1*
Y212995D1*
Y211495D1*
Y209995D1*
Y208495D1*
Y206995D1*
Y205495D1*
Y203995D1*
Y202495D1*
Y200995D1*
Y199495D1*
Y197995D1*
Y196495D1*
Y194995D1*
Y193495D1*
Y191995D1*
X-25470Y232495D2*
Y230995D1*
Y229495D1*
Y227995D1*
Y226495D1*
Y224995D1*
Y223495D1*
Y221995D1*
Y220495D1*
Y218995D1*
Y217495D1*
Y215995D1*
Y214495D1*
Y212995D1*
Y211495D1*
Y209995D1*
Y208495D1*
Y206995D1*
Y205495D1*
Y203995D1*
Y202495D1*
Y200995D1*
X-2970Y232495D2*
Y230995D1*
Y229495D1*
Y227995D1*
Y226495D1*
Y224995D1*
Y223495D1*
Y221995D1*
Y220495D1*
Y218995D1*
Y217495D1*
Y215995D1*
Y214495D1*
Y212995D1*
Y211495D1*
Y209995D1*
Y208495D1*
Y206995D1*
Y205495D1*
Y203995D1*
Y202495D1*
Y200995D1*
X27030Y232495D2*
Y230995D1*
Y229495D1*
Y227995D1*
Y226495D1*
Y224995D1*
Y223495D1*
Y221995D1*
Y220495D1*
Y218995D1*
Y217495D1*
Y215995D1*
Y214495D1*
Y212995D1*
Y211495D1*
Y209995D1*
Y208495D1*
Y206995D1*
Y205495D1*
Y203995D1*
Y202495D1*
Y200995D1*
Y199495D1*
Y197995D1*
Y196495D1*
Y194995D1*
Y193495D1*
Y191995D1*
X-34470Y179995D2*
Y178495D1*
Y176995D1*
Y175495D1*
Y173995D1*
Y172495D1*
Y170995D1*
Y169495D1*
X-23970D1*
Y167995D1*
Y166495D1*
Y164995D1*
Y163495D1*
Y161995D1*
Y160495D1*
Y158995D1*
Y157495D1*
Y155995D1*
Y154495D1*
Y152995D1*
Y151495D1*
Y149995D1*
Y148495D1*
Y146995D1*
Y145495D1*
Y143995D1*
Y142495D1*
Y140995D1*
Y139495D1*
Y137995D1*
X-34470D1*
Y136495D1*
Y134995D1*
Y133495D1*
Y131995D1*
Y130495D1*
Y128995D1*
X16530Y179995D2*
Y178495D1*
Y176995D1*
Y175495D1*
Y173995D1*
Y172495D1*
Y170995D1*
X-14970D2*
Y169495D1*
Y167995D1*
Y166495D1*
Y164995D1*
Y163495D1*
Y161995D1*
Y160495D1*
Y158995D1*
Y157495D1*
Y155995D1*
Y154495D1*
Y152995D1*
Y151495D1*
Y149995D1*
Y148495D1*
Y146995D1*
Y145495D1*
Y143995D1*
Y142495D1*
Y140995D1*
Y139495D1*
Y137995D1*
X18030Y169495D2*
Y167995D1*
Y166495D1*
Y164995D1*
Y163495D1*
Y161995D1*
Y160495D1*
Y158995D1*
Y157495D1*
Y155995D1*
Y154495D1*
Y152995D1*
Y151495D1*
Y149995D1*
Y148495D1*
Y146995D1*
Y145495D1*
Y143995D1*
Y142495D1*
Y140995D1*
Y139495D1*
X27030Y169495D2*
Y167995D1*
Y166495D1*
Y164995D1*
Y163495D1*
Y161995D1*
Y160495D1*
Y158995D1*
Y157495D1*
Y155995D1*
Y154495D1*
Y152995D1*
Y151495D1*
Y149995D1*
Y148495D1*
Y146995D1*
Y145495D1*
Y143995D1*
Y142495D1*
Y140995D1*
Y139495D1*
Y137995D1*
X16530D1*
Y136495D1*
Y134995D1*
Y133495D1*
Y131995D1*
Y130495D1*
Y128995D1*
X-34470Y116995D2*
Y115495D1*
Y113995D1*
Y112495D1*
Y110995D1*
Y109495D1*
Y107995D1*
Y106495D1*
Y104995D1*
Y103495D1*
Y101995D1*
Y100495D1*
Y98995D1*
Y97495D1*
Y95995D1*
Y94495D1*
Y92995D1*
Y91495D1*
Y89995D1*
Y88495D1*
Y86995D1*
Y85495D1*
Y83995D1*
Y82495D1*
Y80995D1*
Y79495D1*
Y77995D1*
Y76495D1*
Y74995D1*
Y73495D1*
Y71995D1*
Y70495D1*
Y68995D1*
Y67495D1*
Y65995D1*
X-25470Y116995D2*
Y115495D1*
Y113995D1*
Y112495D1*
Y110995D1*
Y109495D1*
Y107995D1*
Y106495D1*
Y104995D1*
Y103495D1*
Y101995D1*
Y100495D1*
Y98995D1*
Y97495D1*
Y95995D1*
Y94495D1*
Y92995D1*
Y91495D1*
Y89995D1*
Y88495D1*
Y86995D1*
Y85495D1*
Y83995D1*
Y82495D1*
Y80995D1*
Y79495D1*
Y77995D1*
Y76495D1*
Y74995D1*
X27030D2*
Y73495D1*
Y71995D1*
Y70495D1*
Y68995D1*
Y67495D1*
Y65995D1*
X-34470Y53995D2*
Y52495D1*
Y50995D1*
Y49495D1*
Y47995D1*
Y46495D1*
Y44995D1*
Y43495D1*
X-23970D1*
Y41995D1*
Y40495D1*
Y38995D1*
Y37495D1*
Y35995D1*
Y34495D1*
Y32995D1*
Y31495D1*
Y29995D1*
Y28495D1*
Y26995D1*
Y25495D1*
Y23995D1*
Y22495D1*
Y20995D1*
Y19495D1*
Y17995D1*
Y16495D1*
Y14995D1*
Y13495D1*
Y11995D1*
X-34470D1*
Y10495D1*
Y8995D1*
Y7495D1*
Y5995D1*
Y4495D1*
Y2995D1*
X16530Y53995D2*
Y52495D1*
Y50995D1*
Y49495D1*
Y47995D1*
Y46495D1*
Y44995D1*
X-14970D2*
Y43495D1*
Y41995D1*
Y40495D1*
Y38995D1*
Y37495D1*
Y35995D1*
Y34495D1*
Y32995D1*
Y31495D1*
Y29995D1*
Y28495D1*
Y26995D1*
Y25495D1*
Y23995D1*
Y22495D1*
Y20995D1*
Y19495D1*
Y17995D1*
Y16495D1*
Y14995D1*
Y13495D1*
Y11995D1*
X18030Y43495D2*
Y41995D1*
Y40495D1*
Y38995D1*
Y37495D1*
Y35995D1*
Y34495D1*
Y32995D1*
Y31495D1*
Y29995D1*
Y28495D1*
Y26995D1*
Y25495D1*
Y23995D1*
Y22495D1*
Y20995D1*
Y19495D1*
Y17995D1*
Y16495D1*
Y14995D1*
Y13495D1*
X27030Y43495D2*
Y41995D1*
Y40495D1*
Y38995D1*
Y37495D1*
Y35995D1*
Y34495D1*
Y32995D1*
Y31495D1*
Y29995D1*
Y28495D1*
Y26995D1*
Y25495D1*
Y23995D1*
Y22495D1*
Y20995D1*
Y19495D1*
Y17995D1*
Y16495D1*
Y14995D1*
Y13495D1*
Y11995D1*
X16530D1*
Y10495D1*
Y8995D1*
Y7495D1*
Y5995D1*
Y4495D1*
Y2995D1*
X18030Y-9005D2*
Y-10505D1*
Y-12005D1*
Y-13505D1*
Y-15005D1*
Y-16505D1*
Y-18005D1*
Y-19505D1*
Y-21005D1*
Y-22505D1*
Y-24005D1*
Y-25505D1*
Y-27005D1*
Y-28505D1*
Y-30005D1*
X27030Y-9005D2*
Y-10505D1*
Y-12005D1*
Y-13505D1*
Y-15005D1*
Y-16505D1*
Y-18005D1*
Y-19505D1*
Y-21005D1*
Y-22505D1*
Y-24005D1*
Y-25505D1*
Y-27005D1*
Y-28505D1*
Y-30005D1*
Y-31505D1*
Y-33005D1*
Y-34505D1*
Y-36005D1*
Y-37505D1*
Y-39005D1*
Y-40505D1*
Y-42005D1*
Y-43505D1*
Y-45005D1*
Y-46505D1*
Y-48005D1*
Y-49505D1*
Y-51005D1*
Y-52505D1*
Y-54005D1*
Y-55505D1*
Y-57005D1*
Y-58505D1*
Y-60005D1*
X-34470Y-30005D2*
Y-31505D1*
Y-33005D1*
Y-34505D1*
Y-36005D1*
Y-37505D1*
Y-39005D1*
X18030D2*
Y-40505D1*
Y-42005D1*
Y-43505D1*
Y-45005D1*
Y-46505D1*
Y-48005D1*
Y-49505D1*
Y-51005D1*
Y-52505D1*
Y-54005D1*
Y-55505D1*
Y-57005D1*
Y-58505D1*
Y-60005D1*
X-34470Y-72005D2*
Y-73505D1*
Y-75005D1*
Y-76505D1*
Y-78005D1*
Y-79505D1*
Y-81005D1*
X-14970Y-72005D2*
Y-73505D1*
Y-75005D1*
Y-76505D1*
Y-78005D1*
Y-79505D1*
Y-81005D1*
X18030Y-72005D2*
Y-73505D1*
Y-75005D1*
Y-76505D1*
Y-78005D1*
Y-79505D1*
Y-81005D1*
X27030Y-72005D2*
Y-73505D1*
Y-75005D1*
Y-76505D1*
Y-78005D1*
Y-79505D1*
Y-81005D1*
Y-82505D1*
X16530D1*
Y-84005D1*
Y-85505D1*
Y-87005D1*
Y-88505D1*
Y-90005D1*
Y-91505D1*
Y-93005D1*
X6030D1*
Y-94505D1*
Y-96005D1*
Y-97505D1*
Y-99005D1*
Y-100505D1*
Y-102005D1*
Y-103505D1*
Y-105005D1*
Y-106505D1*
Y-108005D1*
Y-109505D1*
Y-111005D1*
Y-112505D1*
Y-114005D1*
X-13470Y-82505D2*
Y-84005D1*
Y-85505D1*
Y-87005D1*
Y-88505D1*
Y-90005D1*
Y-91505D1*
Y-93005D1*
X-2970D1*
Y-94505D1*
Y-96005D1*
Y-97505D1*
Y-99005D1*
Y-100505D1*
Y-102005D1*
Y-103505D1*
Y-105005D1*
Y-106505D1*
Y-108005D1*
Y-109505D1*
Y-111005D1*
Y-112505D1*
Y-114005D1*
X-4470Y-82505D2*
Y-84005D1*
Y-85505D1*
Y-87005D1*
Y-88505D1*
Y-90005D1*
Y-91505D1*
X7530Y-82505D2*
Y-84005D1*
Y-85505D1*
Y-87005D1*
Y-88505D1*
Y-90005D1*
Y-91505D1*
X-34470Y-114005D2*
Y-115505D1*
Y-117005D1*
Y-118505D1*
Y-120005D1*
Y-121505D1*
Y-123005D1*
X27030Y-114005D2*
Y-115505D1*
Y-117005D1*
Y-118505D1*
Y-120005D1*
Y-121505D1*
Y-123005D1*
X-34470Y-135005D2*
Y-136505D1*
Y-138005D1*
Y-139505D1*
Y-141005D1*
Y-142505D1*
Y-144005D1*
Y-145505D1*
Y-147005D1*
Y-148505D1*
Y-150005D1*
Y-151505D1*
Y-153005D1*
Y-154505D1*
Y-156005D1*
Y-157505D1*
Y-159005D1*
Y-160505D1*
Y-162005D1*
Y-163505D1*
Y-165005D1*
Y-166505D1*
Y-168005D1*
Y-169505D1*
Y-171005D1*
Y-172505D1*
Y-174005D1*
Y-175505D1*
Y-177005D1*
Y-178505D1*
Y-180005D1*
Y-181505D1*
Y-183005D1*
Y-184505D1*
Y-186005D1*
X-25470Y-135005D2*
Y-136505D1*
Y-138005D1*
Y-139505D1*
Y-141005D1*
Y-142505D1*
Y-144005D1*
Y-145505D1*
Y-147005D1*
Y-148505D1*
Y-150005D1*
Y-151505D1*
Y-153005D1*
Y-154505D1*
Y-156005D1*
Y-157505D1*
Y-159005D1*
Y-160505D1*
Y-162005D1*
Y-163505D1*
Y-165005D1*
Y-166505D1*
Y-168005D1*
Y-169505D1*
Y-171005D1*
Y-172505D1*
Y-174005D1*
Y-175505D1*
Y-177005D1*
X18030Y-135005D2*
Y-136505D1*
Y-138005D1*
Y-139505D1*
Y-141005D1*
Y-142505D1*
Y-144005D1*
Y-145505D1*
Y-147005D1*
Y-148505D1*
Y-150005D1*
Y-151505D1*
Y-153005D1*
Y-154505D1*
Y-156005D1*
Y-157505D1*
Y-159005D1*
Y-160505D1*
Y-162005D1*
Y-163505D1*
Y-165005D1*
Y-166505D1*
Y-168005D1*
Y-169505D1*
Y-171005D1*
Y-172505D1*
Y-174005D1*
Y-175505D1*
X7530Y-177005D1*
X27030Y-135005D2*
Y-136505D1*
Y-138005D1*
Y-139505D1*
Y-141005D1*
Y-142505D1*
Y-144005D1*
Y-145505D1*
Y-147005D1*
Y-148505D1*
Y-150005D1*
Y-151505D1*
Y-153005D1*
Y-154505D1*
Y-156005D1*
Y-157505D1*
Y-159005D1*
Y-160505D1*
Y-162005D1*
Y-163505D1*
Y-165005D1*
Y-166505D1*
Y-168005D1*
Y-169505D1*
Y-171005D1*
Y-172505D1*
Y-174005D1*
Y-175505D1*
Y-177005D1*
Y-178505D1*
Y-180005D1*
Y-181505D1*
Y-183005D1*
Y-184505D1*
Y-186005D1*
X-2970Y-145505D2*
Y-147005D1*
Y-148505D1*
Y-150005D1*
Y-151505D1*
Y-153005D1*
Y-154505D1*
Y-156005D1*
Y-157505D1*
Y-159005D1*
Y-160505D1*
Y-162005D1*
Y-163505D1*
Y-165005D1*
Y-166505D1*
Y-168005D1*
Y-169505D1*
Y-171005D1*
Y-172505D1*
Y-174005D1*
Y-175505D1*
Y-177005D1*
X6030Y-145505D2*
Y-147005D1*
Y-148505D1*
Y-150005D1*
Y-151505D1*
Y-153005D1*
Y-154505D1*
Y-156005D1*
Y-157505D1*
Y-159005D1*
Y-160505D1*
Y-162005D1*
Y-163505D1*
Y-165005D1*
Y-166505D1*
Y-168005D1*
Y-169505D1*
Y-171005D1*
Y-172505D1*
Y-174005D1*
Y-175505D1*
X16530Y-177005D1*
X18030Y-198005D2*
Y-199505D1*
Y-201005D1*
Y-202505D1*
Y-204005D1*
Y-205505D1*
Y-207005D1*
Y-208505D1*
Y-210005D1*
Y-211505D1*
Y-213005D1*
Y-214505D1*
Y-216005D1*
Y-217505D1*
Y-219005D1*
Y-220505D1*
Y-222005D1*
Y-223505D1*
Y-225005D1*
Y-226505D1*
Y-228005D1*
Y-229505D1*
Y-231005D1*
Y-232505D1*
Y-234005D1*
Y-235505D1*
Y-237005D1*
Y-238505D1*
X7530Y-240005D1*
X27030Y-198005D2*
Y-199505D1*
Y-201005D1*
Y-202505D1*
Y-204005D1*
Y-205505D1*
Y-207005D1*
Y-208505D1*
Y-210005D1*
Y-211505D1*
Y-213005D1*
Y-214505D1*
Y-216005D1*
Y-217505D1*
Y-219005D1*
Y-220505D1*
Y-222005D1*
Y-223505D1*
Y-225005D1*
Y-226505D1*
Y-228005D1*
Y-229505D1*
Y-231005D1*
Y-232505D1*
Y-234005D1*
Y-235505D1*
Y-237005D1*
Y-238505D1*
Y-240005D1*
Y-241505D1*
Y-243005D1*
Y-244505D1*
Y-246005D1*
Y-247505D1*
Y-249005D1*
X-2970Y-208505D2*
Y-210005D1*
Y-211505D1*
Y-213005D1*
Y-214505D1*
Y-216005D1*
Y-217505D1*
Y-219005D1*
Y-220505D1*
Y-222005D1*
Y-223505D1*
Y-225005D1*
Y-226505D1*
Y-228005D1*
Y-229505D1*
Y-231005D1*
Y-232505D1*
Y-234005D1*
Y-235505D1*
Y-237005D1*
Y-238505D1*
Y-240005D1*
X6030Y-208505D2*
Y-210005D1*
Y-211505D1*
Y-213005D1*
Y-214505D1*
Y-216005D1*
Y-217505D1*
Y-219005D1*
Y-220505D1*
Y-222005D1*
Y-223505D1*
Y-225005D1*
Y-226505D1*
Y-228005D1*
Y-229505D1*
Y-231005D1*
Y-232505D1*
Y-234005D1*
Y-235505D1*
Y-237005D1*
Y-238505D1*
X16530Y-240005D1*
X-34470D2*
Y-241505D1*
Y-243005D1*
Y-244505D1*
Y-246005D1*
Y-247505D1*
Y-249005D1*
Y-261005D2*
Y-262505D1*
Y-264005D1*
Y-265505D1*
Y-267005D1*
Y-268505D1*
Y-270005D1*
Y-271505D1*
Y-273005D1*
Y-274505D1*
Y-276005D1*
Y-277505D1*
Y-279005D1*
Y-280505D1*
Y-282005D1*
Y-283505D1*
Y-285005D1*
Y-286505D1*
Y-288005D1*
Y-289505D1*
Y-291005D1*
Y-292505D1*
Y-294005D1*
Y-295505D1*
Y-297005D1*
Y-298505D1*
Y-300005D1*
Y-301505D1*
Y-303005D1*
Y-304505D1*
Y-306005D1*
Y-307505D1*
Y-309005D1*
Y-310505D1*
Y-312005D1*
X-25470Y-261005D2*
Y-262505D1*
Y-264005D1*
Y-265505D1*
Y-267005D1*
Y-268505D1*
Y-270005D1*
Y-271505D1*
Y-273005D1*
Y-274505D1*
Y-276005D1*
Y-277505D1*
Y-279005D1*
Y-280505D1*
Y-282005D1*
Y-283505D1*
Y-285005D1*
Y-286505D1*
Y-288005D1*
Y-289505D1*
Y-291005D1*
Y-292505D1*
Y-294005D1*
Y-295505D1*
Y-297005D1*
Y-298505D1*
Y-300005D1*
Y-301505D1*
Y-303005D1*
X18030Y-261005D2*
Y-262505D1*
Y-264005D1*
Y-265505D1*
Y-267005D1*
Y-268505D1*
Y-270005D1*
Y-271505D1*
Y-273005D1*
Y-274505D1*
Y-276005D1*
Y-277505D1*
Y-279005D1*
Y-280505D1*
Y-282005D1*
Y-283505D1*
Y-285005D1*
Y-286505D1*
Y-288005D1*
Y-289505D1*
Y-291005D1*
Y-292505D1*
Y-294005D1*
Y-295505D1*
Y-297005D1*
Y-298505D1*
Y-300005D1*
Y-301505D1*
X7530Y-303005D1*
X27030Y-261005D2*
Y-262505D1*
Y-264005D1*
Y-265505D1*
Y-267005D1*
Y-268505D1*
Y-270005D1*
Y-271505D1*
Y-273005D1*
Y-274505D1*
Y-276005D1*
Y-277505D1*
Y-279005D1*
Y-280505D1*
Y-282005D1*
Y-283505D1*
Y-285005D1*
Y-286505D1*
Y-288005D1*
Y-289505D1*
Y-291005D1*
Y-292505D1*
Y-294005D1*
Y-295505D1*
Y-297005D1*
Y-298505D1*
Y-300005D1*
Y-301505D1*
Y-303005D1*
Y-304505D1*
Y-306005D1*
Y-307505D1*
Y-309005D1*
Y-310505D1*
Y-312005D1*
X-2970Y-271505D2*
Y-273005D1*
Y-274505D1*
Y-276005D1*
Y-277505D1*
Y-279005D1*
Y-280505D1*
Y-282005D1*
Y-283505D1*
Y-285005D1*
Y-286505D1*
Y-288005D1*
Y-289505D1*
Y-291005D1*
Y-292505D1*
Y-294005D1*
Y-295505D1*
Y-297005D1*
Y-298505D1*
Y-300005D1*
Y-301505D1*
Y-303005D1*
X6030Y-271505D2*
Y-273005D1*
Y-274505D1*
Y-276005D1*
Y-277505D1*
Y-279005D1*
Y-280505D1*
Y-282005D1*
Y-283505D1*
Y-285005D1*
Y-286505D1*
Y-288005D1*
Y-289505D1*
Y-291005D1*
Y-292505D1*
Y-294005D1*
Y-295505D1*
Y-297005D1*
Y-298505D1*
Y-300005D1*
Y-301505D1*
X16530Y-303005D1*
X-34470Y-324005D2*
Y-325505D1*
Y-327005D1*
Y-328505D1*
Y-330005D1*
Y-331505D1*
Y-333005D1*
X-25470Y-324005D2*
Y-325505D1*
Y-327005D1*
Y-328505D1*
Y-330005D1*
Y-331505D1*
Y-333005D1*
X-23970Y-345005D2*
Y-346505D1*
Y-348005D1*
Y-349505D1*
Y-351005D1*
Y-352505D1*
Y-354005D1*
X27030Y-345005D2*
Y-346505D1*
Y-348005D1*
Y-349505D1*
Y-351005D1*
Y-352505D1*
Y-354005D1*
X-34470Y-355505D2*
Y-357005D1*
Y-358505D1*
Y-360005D1*
Y-361505D1*
Y-363005D1*
Y-364505D1*
Y-366005D1*
X-23970D1*
Y-367505D1*
Y-369005D1*
Y-370505D1*
Y-372005D1*
Y-373505D1*
Y-375005D1*
X-25470Y-355505D2*
Y-357005D1*
Y-358505D1*
Y-360005D1*
Y-361505D1*
Y-363005D1*
Y-364505D1*
X-4470Y-366005D2*
Y-367505D1*
Y-369005D1*
Y-370505D1*
Y-372005D1*
Y-373505D1*
Y-375005D1*
X-34470Y-376505D2*
Y-378005D1*
Y-379505D1*
Y-381005D1*
Y-382505D1*
Y-384005D1*
Y-385505D1*
Y-387005D1*
X-23970D1*
Y-388505D1*
Y-390005D1*
Y-391505D1*
Y-393005D1*
Y-394505D1*
Y-396005D1*
X-25470Y-376505D2*
Y-378005D1*
Y-379505D1*
Y-381005D1*
Y-382505D1*
Y-384005D1*
Y-385505D1*
X27030Y-387005D2*
Y-388505D1*
Y-390005D1*
Y-391505D1*
Y-393005D1*
Y-394505D1*
Y-396005D1*
X-23970Y-408005D2*
Y-409505D1*
Y-411005D1*
Y-412505D1*
Y-414005D1*
Y-415505D1*
Y-417005D1*
X27030Y-408005D2*
Y-409505D1*
Y-411005D1*
Y-412505D1*
Y-414005D1*
Y-415505D1*
Y-417005D1*
X-34470Y-418505D2*
Y-420005D1*
Y-421505D1*
Y-423005D1*
Y-424505D1*
Y-426005D1*
Y-427505D1*
Y-429005D1*
X-23970D1*
Y-430505D1*
Y-432005D1*
Y-433505D1*
Y-435005D1*
Y-436505D1*
Y-438005D1*
X-25470Y-418505D2*
Y-420005D1*
Y-421505D1*
Y-423005D1*
Y-424505D1*
Y-426005D1*
Y-427505D1*
X-4470Y-429005D2*
Y-430505D1*
Y-432005D1*
Y-433505D1*
Y-435005D1*
Y-436505D1*
Y-438005D1*
X-34470Y-439505D2*
Y-441005D1*
Y-442505D1*
Y-444005D1*
Y-445505D1*
Y-447005D1*
Y-448505D1*
Y-450005D1*
X-23970D1*
Y-451505D1*
Y-453005D1*
Y-454505D1*
Y-456005D1*
Y-457505D1*
Y-459005D1*
X-25470Y-439505D2*
Y-441005D1*
Y-442505D1*
Y-444005D1*
Y-445505D1*
Y-447005D1*
Y-448505D1*
X27030Y-450005D2*
Y-451505D1*
Y-453005D1*
Y-454505D1*
Y-456005D1*
Y-457505D1*
Y-459005D1*
X-23970Y-471005D2*
Y-472505D1*
Y-474005D1*
Y-475505D1*
Y-477005D1*
Y-478505D1*
Y-480005D1*
X27030Y-471005D2*
Y-472505D1*
Y-474005D1*
Y-475505D1*
Y-477005D1*
Y-478505D1*
Y-480005D1*
X-34470Y-481505D2*
Y-483005D1*
Y-484505D1*
Y-486005D1*
Y-487505D1*
Y-489005D1*
Y-490505D1*
Y-492005D1*
X-23970D1*
Y-493505D1*
Y-495005D1*
Y-496505D1*
Y-498005D1*
Y-499505D1*
Y-501005D1*
X-25470Y-481505D2*
Y-483005D1*
Y-484505D1*
Y-486005D1*
Y-487505D1*
Y-489005D1*
Y-490505D1*
X-4470Y-492005D2*
Y-493505D1*
Y-495005D1*
Y-496505D1*
Y-498005D1*
Y-499505D1*
Y-501005D1*
X-34470Y-502505D2*
Y-504005D1*
Y-505505D1*
Y-507005D1*
Y-508505D1*
Y-510005D1*
Y-511505D1*
Y-513005D1*
X-23970D1*
Y-514505D1*
Y-516005D1*
Y-517505D1*
Y-519005D1*
Y-520505D1*
Y-522005D1*
X-25470Y-502505D2*
Y-504005D1*
Y-505505D1*
Y-507005D1*
Y-508505D1*
Y-510005D1*
Y-511505D1*
X27030Y-513005D2*
Y-514505D1*
Y-516005D1*
Y-517505D1*
Y-519005D1*
Y-520505D1*
Y-522005D1*
X186703Y705685D2*
D13*
X184993Y704373D1*
X183681Y703060D1*
X182736Y701748D1*
X182102Y700436D1*
X181746Y699123D1*
X181575Y697811D1*
X181501Y696499D1*
X181476Y695186D1*
X181516Y693874D1*
X181736Y692562D1*
X182159Y691249D1*
X183348Y689937D1*
X184914Y688625D1*
X186703Y687312D1*
X214262Y705685D2*
X216131Y704373D1*
X217647Y703060D1*
X218784Y701748D1*
X219626Y700436D1*
X220211Y699123D1*
X220540Y697811D1*
X220657Y696499D1*
X220555Y695186D1*
X220218Y693874D1*
X219674Y692562D1*
X218916Y691249D1*
X217928Y689937D1*
X216782Y688625D1*
X215575Y687312D1*
X190640Y703060D2*
X188329Y701748D1*
X186468Y700436D1*
X185038Y699123D1*
X184546Y697811D1*
X184335Y696499D1*
X184325Y695186D1*
X184978Y693874D1*
X186616Y692562D1*
X188502Y691249D1*
X190113Y689937D1*
X191176Y688625D1*
X191953Y687312D1*
X212950Y703060D2*
X214212Y701748D1*
X215351Y700436D1*
X216293Y699123D1*
X217004Y697811D1*
X217530Y696499D1*
X217465Y695186D1*
X216855Y693874D1*
X214034Y692562D1*
X208981Y691249D1*
X202451Y689937D1*
X199827Y695186D2*
Y693874D1*
Y692562D1*
Y691249D1*
Y689937D1*
Y688625D1*
Y687312D1*
X202451Y695186D2*
Y693874D1*
Y692562D1*
Y691249D1*
X214262Y689937D1*
X181454Y680751D2*
X181649Y679438D1*
X182337Y678126D1*
X184100Y676814D1*
X186480Y675501D1*
X189359Y674189D1*
X192573Y672877D1*
X195967Y671564D1*
X199361Y670252D1*
X202667Y668940D1*
X205816Y667627D1*
X208774Y666315D1*
X211638Y665003D1*
X220824Y680751D2*
Y679438D1*
Y678126D1*
X188016D2*
X190848Y676814D1*
X193845Y675501D1*
X196981Y674189D1*
X200196Y672877D1*
X203452Y671564D1*
X206722Y670252D1*
X209990Y668940D1*
X213166Y667627D1*
X216007Y666315D1*
X218196Y665003D1*
X219689Y663690D1*
X220824Y662378D1*
X181454Y665003D2*
Y663690D1*
Y662378D1*
Y654504D2*
Y653192D1*
Y651879D1*
Y650567D1*
Y649255D1*
Y647942D1*
Y646630D1*
Y645318D1*
Y644005D1*
X181459Y642693D1*
X181516Y641381D1*
X181654Y640068D1*
X182311Y638756D1*
X183752Y637444D1*
X185391Y636131D1*
X220824Y654504D2*
Y653192D1*
Y651879D1*
Y650567D1*
Y649255D1*
Y647942D1*
Y646630D1*
X220819Y645318D1*
X220773Y644005D1*
X220601Y642693D1*
X220230Y641381D1*
X219625Y640068D1*
X218664Y638756D1*
X217248Y637444D1*
X215575Y636131D1*
X184079Y651879D2*
Y650567D1*
Y649255D1*
Y647942D1*
Y646630D1*
X184084Y645318D1*
X184135Y644005D1*
X184353Y642693D1*
X184881Y641381D1*
X185721Y640068D1*
X186703Y638756D1*
X218199Y651879D2*
Y650567D1*
Y649255D1*
Y647942D1*
Y646630D1*
X218189Y645318D1*
X218087Y644005D1*
X217841Y642693D1*
X216642Y641381D1*
X214927Y640068D1*
X212950Y638756D1*
X85916Y691118D2*
X84053Y689806D1*
X82583Y688493D1*
X81447Y687181D1*
X81044Y685869D1*
X80827Y684556D1*
X80729Y683244D1*
X80695Y681932D1*
X80731Y680619D1*
X80949Y679307D1*
X81372Y677995D1*
X82561Y676682D1*
X84127Y675370D1*
X85916Y674058D1*
X91165Y691118D2*
X90530Y689806D1*
X88841Y688493D1*
X86957Y687181D1*
X85376Y685869D1*
X84139Y684556D1*
X83716Y683244D1*
X83474Y681932D1*
X83912Y680619D1*
X86145Y679307D1*
X89615Y677995D1*
X93790Y676682D1*
X116100Y691118D2*
X113929Y689806D1*
X111741Y688493D1*
X109532Y687181D1*
X107356Y685869D1*
X105171Y684556D1*
X102956Y683244D1*
X100664Y681932D1*
X97898Y680619D1*
X94066Y679307D1*
X89004Y677995D1*
X83291Y676682D1*
X120037Y691118D2*
Y689806D1*
Y688493D1*
Y687181D1*
Y685869D1*
Y684556D1*
Y683244D1*
Y681932D1*
Y680619D1*
Y679307D1*
Y677995D1*
Y676682D1*
Y675370D1*
Y674058D1*
X117412Y687181D2*
X114837Y685869D1*
X112386Y684556D1*
X110122Y683244D1*
X108001Y681932D1*
X105920Y680619D1*
X103748Y679307D1*
X101358Y677995D1*
X98676Y676682D1*
X95669Y675370D1*
X92478Y674058D1*
X117412Y687181D2*
Y685869D1*
Y684556D1*
Y683244D1*
Y681932D1*
Y680619D1*
Y679307D1*
Y677995D1*
Y676682D1*
Y675370D1*
Y674058D1*
X116100Y667496D2*
Y666184D1*
Y664871D1*
X120037Y667496D2*
Y666184D1*
Y664871D1*
X83291Y659622D2*
X82483Y658310D1*
X81780Y656997D1*
X81250Y655685D1*
X80936Y654373D1*
X80779Y653060D1*
X80711Y651748D1*
X80682Y650436D1*
X80667Y649123D1*
X87228Y659622D2*
X86124Y658310D1*
X85188Y656997D1*
X84434Y655685D1*
X83881Y654373D1*
X83536Y653060D1*
X83291Y651748D1*
X120037D2*
Y650436D1*
Y649123D1*
X-115652Y-183805D2*
D31*
X-138600D1*
X-142911Y-185231D1*
X-144336Y-186690D1*
X-145796Y-189542D1*
Y-192427D1*
X-144336Y-195279D1*
X-142911Y-196705D1*
X-138600Y-198164D1*
X-135748D1*
X-115652Y-174541D2*
X-145796D1*
Y-157330D1*
X-122815Y-126545D2*
X-119963Y-127971D1*
X-117078Y-130856D1*
X-115652Y-133708D1*
Y-139445D1*
X-117078Y-142330D1*
X-119963Y-145182D1*
X-122815Y-146641D1*
X-127126Y-148067D1*
X-134322D1*
X-138600Y-146641D1*
X-141485Y-145182D1*
X-144336Y-142330D1*
X-145796Y-139445D1*
Y-133708D1*
X-144336Y-130856D1*
X-141485Y-127971D1*
X-138600Y-126545D1*
X-115652Y-102922D2*
X-138600D1*
X-142911Y-104348D1*
X-144336Y-105807D1*
X-145796Y-108659D1*
Y-111544D1*
X-144336Y-114396D1*
X-142911Y-115822D1*
X-138600Y-117281D1*
X-135748D1*
X-115652Y-93659D2*
X-145796D1*
Y-76448D1*
X-122815Y-45662D2*
X-119963Y-47088D1*
X-117078Y-49973D1*
X-115652Y-52825D1*
Y-58562D1*
X-117078Y-61447D1*
X-119963Y-64299D1*
X-122815Y-65758D1*
X-127126Y-67184D1*
X-134322D1*
X-138600Y-65758D1*
X-141485Y-64299D1*
X-144336Y-61447D1*
X-145796Y-58562D1*
Y-52825D1*
X-144336Y-49973D1*
X-141485Y-47088D1*
X-138600Y-45662D1*
X-115652Y-22040D2*
X-138600D1*
X-142911Y-23466D1*
X-144336Y-24925D1*
X-145796Y-27777D1*
Y-30662D1*
X-144336Y-33514D1*
X-142911Y-34940D1*
X-138600Y-36399D1*
X-135748D1*
X-115652Y-12776D2*
X-145796D1*
Y4435D1*
X-122815Y35220D2*
X-119963Y33794D1*
X-117078Y30909D1*
X-115652Y28057D1*
Y22320D1*
X-117078Y19435D1*
X-119963Y16583D1*
X-122815Y15124D1*
X-127126Y13698D1*
X-134322D1*
X-138600Y15124D1*
X-141485Y16583D1*
X-144336Y19435D1*
X-145796Y22320D1*
Y28057D1*
X-144337Y30909D1*
X-141485Y33794D1*
X-138600Y35220D1*
X-115652Y58843D2*
X-138600D1*
X-142911Y57417D1*
X-144337Y55958D1*
X-145796Y53106D1*
Y50221D1*
X-144337Y47369D1*
X-142911Y45943D1*
X-138600Y44484D1*
X-135748D1*
X-115652Y68106D2*
X-145796D1*
Y85317D1*
X-122815Y116103D2*
X-119963Y114677D1*
X-117078Y111792D1*
X-115652Y108940D1*
Y103203D1*
X-117078Y100318D1*
X-119963Y97466D1*
X-122815Y96007D1*
X-127126Y94581D1*
X-134322D1*
X-138600Y96007D1*
X-141485Y97466D1*
X-144337Y100318D1*
X-145796Y103203D1*
Y108940D1*
X-144337Y111792D1*
X-141485Y114677D1*
X-138600Y116103D1*
M02*
