G04 DipTrace 3.2.0.1*
G04 Верхний.gbr*
%MOIN*%
G04 #@! TF.FileFunction,Copper,L1,Top*
G04 #@! TF.Part,Single*
%ADD14C,0.011811*%
%ADD20C,0.03937*%
G04 #@! TA.AperFunction,CopperBalancing*
%ADD10C,0.009843*%
%ADD15C,0.019685*%
G04 #@! TA.AperFunction,ComponentPad*
%ADD16C,0.074803*%
%ADD17C,0.074803*%
%ADD18R,0.029528X0.059055*%
G04 #@! TA.AperFunction,ViaPad*
%ADD19C,0.023622*%
%FSLAX26Y26*%
G04*
G70*
G90*
G75*
G01*
G04 Top*
%LPD*%
X94094Y-681102D2*
D14*
X93307D1*
Y-743701D1*
Y-745276D1*
X94094Y-743701D2*
X93307D1*
X43307Y-681890D2*
X43701D1*
Y-742913D1*
Y-745669D1*
X42520Y-742913D2*
X43701D1*
X43307Y-681890D2*
Y563780D1*
X94685Y615157D1*
Y775591D1*
X-5512Y-742126D2*
X-6299D1*
X-5512Y-682677D2*
X-6299D1*
X-5512D2*
Y-742126D1*
X-55906Y-682677D2*
Y-741339D1*
X-107480Y-683071D2*
Y-740551D1*
X-107087Y-740945D1*
X-107480Y-683071D2*
Y547638D1*
X-209055Y649213D1*
Y771850D1*
X-205315Y775591D1*
X93701Y-680315D2*
Y548031D1*
X196850Y651181D1*
Y773425D1*
X194685Y775591D1*
X-6299Y-680315D2*
Y774606D1*
X-5315Y775591D1*
X-56299Y-680315D2*
Y563780D1*
X-105315Y612795D1*
Y775591D1*
D19*
X94094Y-743701D3*
X42520Y-742913D3*
X-5512Y-742126D3*
X-55906Y-741339D3*
Y-682677D3*
X-5512D3*
X43307Y-681890D3*
X94094Y-681102D3*
X-107087Y-740945D3*
X-107480Y-683071D3*
X-340663Y769816D2*
D15*
X-264865D1*
X254226D2*
X330059D1*
X-344969Y750262D2*
X-259339D1*
X248699D2*
X334365D1*
X-341882Y730709D2*
X-243836D1*
X-166803D2*
X-143827D1*
X-66794D2*
X-43818D1*
X33180D2*
X56192D1*
X133189D2*
X156164D1*
X233198D2*
X331244D1*
X-338617Y711155D2*
X-237413D1*
X-180727D2*
X-133672D1*
X-76986D2*
X-34631D1*
X22055D2*
X66346D1*
X123033D2*
X327978D1*
X-335352Y691601D2*
X-237413D1*
X-180727D2*
X-133672D1*
X-76986D2*
X-34631D1*
X22055D2*
X66346D1*
X123033D2*
X324713D1*
X-332085Y672047D2*
X-237413D1*
X-180727D2*
X-133672D1*
X-76986D2*
X-34631D1*
X22055D2*
X66346D1*
X123033D2*
X321483D1*
X-328820Y652493D2*
X-237413D1*
X-173047D2*
X-133672D1*
X-76986D2*
X-34631D1*
X22055D2*
X66346D1*
X123033D2*
X318218D1*
X-324192Y632940D2*
X-231780D1*
X-153526D2*
X-133672D1*
X-76986D2*
X-34631D1*
X22055D2*
X66346D1*
X123033D2*
X313552D1*
X-316835Y613386D2*
X-212509D1*
X-66651D2*
X-34631D1*
X22055D2*
X53643D1*
X122962D2*
X306232D1*
X-309514Y593832D2*
X-192953D1*
X-47093D2*
X-34631D1*
X22055D2*
X34087D1*
X112627D2*
X298875D1*
X-302194Y574278D2*
X-173396D1*
X93070D2*
X291555D1*
X-294839Y554724D2*
X-153839D1*
X73513D2*
X284235D1*
X-287518Y535171D2*
X-135825D1*
X71647D2*
X276879D1*
X-280197Y515617D2*
X-135825D1*
X71647D2*
X269559D1*
X-272841Y496063D2*
X-135825D1*
X71647D2*
X262239D1*
X-265521Y476509D2*
X-135825D1*
X71647D2*
X254882D1*
X-258201Y456955D2*
X-135825D1*
X71647D2*
X247562D1*
X-250844Y437402D2*
X-135825D1*
X71647D2*
X240205D1*
X-243524Y417848D2*
X-135825D1*
X71647D2*
X232885D1*
X-236203Y398294D2*
X-135825D1*
X71647D2*
X225564D1*
X-228848Y378740D2*
X-135825D1*
X71647D2*
X218209D1*
X-221526Y359186D2*
X-135825D1*
X71647D2*
X210888D1*
X-214206Y339633D2*
X-135825D1*
X71647D2*
X203567D1*
X-206850Y320079D2*
X-135825D1*
X71647D2*
X196211D1*
X-199530Y300525D2*
X-135825D1*
X71647D2*
X188891D1*
X-192173Y280971D2*
X-135825D1*
X71647D2*
X181571D1*
X-184853Y261417D2*
X-135825D1*
X71647D2*
X174214D1*
X-177533Y241864D2*
X-135825D1*
X71647D2*
X166894D1*
X-170176Y222310D2*
X-135825D1*
X71647D2*
X159573D1*
X-162856Y202756D2*
X-135825D1*
X71647D2*
X152218D1*
X-155535Y183202D2*
X-135825D1*
X71647D2*
X144896D1*
X-148682Y163648D2*
X-135825D1*
X71647D2*
X138079D1*
X-147677Y144094D2*
X-135825D1*
X71647D2*
X137038D1*
X-146636Y124541D2*
X-135825D1*
X71647D2*
X135997D1*
X-145596Y104987D2*
X-135825D1*
X71647D2*
X134993D1*
X-144591Y85433D2*
X-135825D1*
X71647D2*
X133953D1*
X-143550Y65879D2*
X-135825D1*
X71647D2*
X132912D1*
X-142509Y46325D2*
X-135861D1*
X71647D2*
X131907D1*
X71647Y26772D2*
X130866D1*
X71647Y7218D2*
X129825D1*
X71647Y-12336D2*
X128820D1*
X71647Y-31890D2*
X127780D1*
X71647Y-51444D2*
X126740D1*
X71647Y-70997D2*
X125735D1*
X71647Y-90551D2*
X124694D1*
X71647Y-110105D2*
X123654D1*
X71647Y-129659D2*
X122648D1*
X71647Y-149213D2*
X121608D1*
X71647Y-168766D2*
X120567D1*
X71647Y-188320D2*
X119526D1*
X71647Y-207874D2*
X118522D1*
X71647Y-227428D2*
X117482D1*
X71647Y-246982D2*
X116441D1*
X71647Y-266535D2*
X115436D1*
X71647Y-286089D2*
X114395D1*
X71647Y-305643D2*
X113354D1*
X71647Y-325197D2*
X112350D1*
X71647Y-344751D2*
X111310D1*
X71647Y-364304D2*
X110269D1*
X71647Y-383858D2*
X109264D1*
X71647Y-403412D2*
X108223D1*
X71647Y-422966D2*
X107182D1*
X71647Y-442520D2*
X106178D1*
X71647Y-462073D2*
X105138D1*
X71647Y-481627D2*
X104097D1*
X71647Y-501181D2*
X103092D1*
X71647Y-520735D2*
X102051D1*
X71647Y-540289D2*
X101010D1*
X71647Y-559843D2*
X100005D1*
X71647Y-579396D2*
X98965D1*
X71647Y-598950D2*
X98427D1*
X71647Y-618504D2*
X98427D1*
X-155336Y746482D2*
X-158493Y741573D1*
X-164392Y734668D1*
X-171298Y728769D1*
X-179041Y724025D1*
X-182668Y722352D1*
X-182677Y660143D1*
X-131408Y608870D1*
X-131693Y612795D1*
Y724072D1*
X-139332Y728769D1*
X-146238Y734668D1*
X-152136Y741573D1*
X-155294Y746482D1*
X-235446Y726184D2*
X-242902Y731583D1*
X-249323Y738004D1*
X-254660Y745352D1*
X-258783Y753444D1*
X-261591Y762080D1*
X-263010Y771050D1*
Y780131D1*
X-261517Y789357D1*
X-307201Y789148D1*
X-318482Y788251D1*
X-328098Y784614D1*
X-336316Y778442D1*
X-342488Y770224D1*
X-346126Y760613D1*
X-346999Y749640D1*
X-328665Y639651D1*
X-150854Y165147D1*
X-147772Y108651D1*
X-133858Y-155701D1*
Y536740D1*
X-229113Y632081D1*
X-231546Y635430D1*
X-233425Y639118D1*
X-234705Y643055D1*
X-235352Y647143D1*
X-235433Y726184D1*
X-55336Y746482D2*
X-58493Y741573D1*
X-64392Y734668D1*
X-71298Y728769D1*
X-78932Y724085D1*
X-78937Y623693D1*
X-36241Y580911D1*
X-33808Y577562D1*
X-32793Y575748D1*
X-32677Y624147D1*
Y724587D1*
X-39332Y728769D1*
X-46238Y734668D1*
X-52136Y741573D1*
X-55294Y746482D1*
X44664D2*
X41507Y741573D1*
X35608Y734668D1*
X28702Y728769D1*
X20959Y724025D1*
X20072Y723615D1*
X20079Y576274D1*
X23249Y580911D1*
X68324Y626100D1*
X68307Y724066D1*
X60668Y728769D1*
X53762Y734668D1*
X47864Y741573D1*
X44706Y746482D1*
X144664D2*
X141507Y741573D1*
X135608Y734668D1*
X128702Y728769D1*
X121068Y724085D1*
X120982Y613088D1*
X120335Y609000D1*
X119055Y605063D1*
X117176Y601375D1*
X114743Y598026D1*
X69668Y552837D1*
X69685Y-630339D1*
X100399Y-630315D1*
X100394Y-589823D1*
X140240Y165224D1*
X160005Y218240D1*
X318045Y639677D1*
X336366Y749634D1*
X335496Y760618D1*
X331860Y770223D1*
X325688Y778441D1*
X317470Y784614D1*
X307857Y788252D1*
X293785Y789370D1*
X250869D1*
X252112Y782774D1*
X252559Y775591D1*
X252093Y768261D1*
X250702Y761050D1*
X248411Y754072D1*
X245252Y747442D1*
X241281Y741265D1*
X236558Y735640D1*
X231161Y730659D1*
X225177Y726402D1*
X218702Y722936D1*
X211841Y720318D1*
X204702Y718591D1*
X197403Y717781D1*
X190060Y717902D1*
X182791Y718951D1*
X175714Y720915D1*
X168942Y723757D1*
X162585Y727434D1*
X156745Y731887D1*
X151516Y737043D1*
X146982Y742822D1*
X144688Y746455D1*
X194685Y775591D2*
D10*
Y717752D1*
Y775591D2*
X252524D1*
X93701Y-630350D2*
Y-680315D1*
D16*
X-205315Y775591D3*
X-105315D3*
X-5315D3*
X94685D3*
D17*
X194685D3*
D18*
X-56299Y-745669D3*
X-6299D3*
X43701D3*
X-56299Y-680315D3*
X-6299D3*
X43701D3*
X-6693Y-745276D3*
X43307D3*
X93307D3*
X-6299Y-680315D3*
X43701D3*
X93701D3*
X-106299Y-745669D3*
X-56299D3*
X-6299D3*
X-106299Y-680315D3*
X-56299D3*
X-6299D3*
G04 Top Clear*
%LPC*%
D14*
X94094Y-743701D3*
X42520Y-742913D3*
X-5512Y-742126D3*
X-55906Y-741339D3*
Y-682677D3*
X-5512D3*
X43307Y-681890D3*
X94094Y-681102D3*
X-107087Y-740945D3*
X-107480Y-683071D3*
D20*
X-205315Y775591D3*
X-105315D3*
X-5315D3*
X94685D3*
X194685D3*
M02*
