G04 DipTrace 3.2.0.1*
G04 Нижний.gbr*
%MOIN*%
G04 #@! TF.FileFunction,Copper,L2,Bot*
G04 #@! TF.Part,Single*
%ADD14C,0.011811*%
%ADD20C,0.03937*%
G04 #@! TA.AperFunction,CopperBalancing*
%ADD10C,0.009843*%
%ADD15C,0.019685*%
G04 #@! TA.AperFunction,ComponentPad*
%ADD16C,0.074803*%
%ADD17C,0.074803*%
G04 #@! TA.AperFunction,ViaPad*
%ADD19C,0.023622*%
%FSLAX26Y26*%
G04*
G70*
G90*
G75*
G01*
G04 Bottom*
%LPD*%
X94094Y-681102D2*
D14*
Y-743701D1*
X43307Y-681890D2*
Y-742126D1*
X42520Y-742913D1*
X-5512Y-682677D2*
Y-742126D1*
X-55906Y-682677D2*
Y-741339D1*
X-107480Y-683071D2*
Y-740551D1*
X-107087Y-740945D1*
D19*
X94094Y-743701D3*
X42520Y-742913D3*
X-5512Y-742126D3*
X-55906Y-741339D3*
Y-682677D3*
X-5512D3*
X43307Y-681890D3*
X94094Y-681102D3*
X-107087Y-740945D3*
X-107480Y-683071D3*
X-342795Y773753D2*
D15*
X-265131D1*
X254497D2*
X332161D1*
X-348609Y754199D2*
X-261076D1*
X250442D2*
X337974D1*
X-346528Y734646D2*
X-248194D1*
X-162441D2*
X-148185D1*
X-62432D2*
X-48176D1*
X37542D2*
X51798D1*
X137551D2*
X151807D1*
X237560D2*
X335892D1*
X-343261Y715092D2*
X332627D1*
X-339996Y695538D2*
X329362D1*
X-336731Y675984D2*
X326096D1*
X-333501Y656430D2*
X322866D1*
X-329877Y636877D2*
X319243D1*
X-322521Y617323D2*
X311886D1*
X-315201Y597769D2*
X304566D1*
X-307879Y578215D2*
X297245D1*
X-300524Y558661D2*
X289890D1*
X-293203Y539108D2*
X282568D1*
X-285846Y519554D2*
X275248D1*
X-278526Y500000D2*
X267892D1*
X-271206Y480446D2*
X260572D1*
X-263850Y460892D2*
X253252D1*
X-256530Y441339D2*
X245895D1*
X-249209Y421785D2*
X238575D1*
X-241853Y402231D2*
X231255D1*
X-234533Y382677D2*
X223898D1*
X-227213Y363123D2*
X216577D1*
X-219856Y343570D2*
X209257D1*
X-212535Y324016D2*
X201902D1*
X-205215Y304462D2*
X194581D1*
X-197858Y284908D2*
X187224D1*
X-190538Y265354D2*
X179904D1*
X-183218Y245801D2*
X172584D1*
X-175862Y226247D2*
X165227D1*
X-168542Y206693D2*
X157907D1*
X-161222Y187139D2*
X150587D1*
X-153865Y167585D2*
X143231D1*
X-151819Y148031D2*
X141185D1*
X-150778Y128478D2*
X140144D1*
X-149774Y108924D2*
X139139D1*
X-148734Y89370D2*
X138100D1*
X-147693Y69816D2*
X137059D1*
X-146688Y50262D2*
X136054D1*
X-145647Y30709D2*
X135013D1*
X-144606Y11155D2*
X133972D1*
X-143602Y-8399D2*
X132967D1*
X-142562Y-27953D2*
X131927D1*
X-141521Y-47507D2*
X130886D1*
X-140480Y-67060D2*
X129882D1*
X-139475Y-86614D2*
X128841D1*
X-138434Y-106168D2*
X127801D1*
X-137394Y-125722D2*
X126795D1*
X-136390Y-145276D2*
X125755D1*
X-135349Y-164829D2*
X124714D1*
X-134308Y-184383D2*
X123710D1*
X-133303Y-203937D2*
X122669D1*
X-132262Y-223491D2*
X121629D1*
X-131222Y-243045D2*
X120623D1*
X-130218Y-262598D2*
X119583D1*
X-129177Y-282152D2*
X118542D1*
X-128136Y-301706D2*
X117501D1*
X-127131Y-321260D2*
X116497D1*
X-126091Y-340814D2*
X115457D1*
X-125050Y-360367D2*
X114416D1*
X-124045Y-379921D2*
X113411D1*
X-123004Y-399475D2*
X112370D1*
X-121963Y-419029D2*
X111329D1*
X-120959Y-438583D2*
X110324D1*
X-119919Y-458136D2*
X109283D1*
X-118878Y-477690D2*
X108244D1*
X-117873Y-497244D2*
X107239D1*
X-116832Y-516798D2*
X106198D1*
X-115791Y-536352D2*
X105157D1*
X-114787Y-555906D2*
X104152D1*
X-155336Y746482D2*
X-158493Y741573D1*
X-164392Y734668D1*
X-171298Y728769D1*
X-179041Y724025D1*
X-187430Y720549D1*
X-196261Y718429D1*
X-205315Y717717D1*
X-214369Y718429D1*
X-223199Y720549D1*
X-231589Y724025D1*
X-239332Y728769D1*
X-246238Y734668D1*
X-252136Y741573D1*
X-256881Y749316D1*
X-260357Y757706D1*
X-262476Y766537D1*
X-263189Y775591D1*
X-262476Y784644D1*
X-260400Y793320D1*
X-304581Y793306D1*
X-319366Y792130D1*
X-330007Y788101D1*
X-339121Y781260D1*
X-345967Y772148D1*
X-350003Y761491D1*
X-350961Y749470D1*
X-332486Y638631D1*
X-154755Y164333D1*
X-151672Y107837D1*
X-115819Y-572047D1*
X105310Y-571066D1*
X144140Y164411D1*
X163906Y217427D1*
X321869Y638663D1*
X340335Y749491D1*
X339378Y761472D1*
X335346Y772131D1*
X328504Y781245D1*
X319394Y788092D1*
X308735Y792129D1*
X293959Y793306D1*
X249806Y793307D1*
X251539Y786404D1*
X252451Y779117D1*
X252442Y771919D1*
X251512Y764634D1*
X249667Y757525D1*
X246937Y750707D1*
X243365Y744290D1*
X239009Y738378D1*
X233940Y733064D1*
X228238Y728434D1*
X221995Y724566D1*
X215314Y721517D1*
X208299Y719341D1*
X201066Y718070D1*
X193730Y717724D1*
X186409Y718311D1*
X179222Y719820D1*
X172283Y722228D1*
X165706Y725495D1*
X159594Y729568D1*
X154049Y734382D1*
X149157Y739861D1*
X144688Y746455D1*
X141507Y741573D1*
X135608Y734668D1*
X128702Y728769D1*
X120959Y724025D1*
X112570Y720549D1*
X103739Y718429D1*
X94685Y717717D1*
X85631Y718429D1*
X76801Y720549D1*
X68411Y724025D1*
X60668Y728769D1*
X53762Y734668D1*
X47864Y741573D1*
X44706Y746482D1*
X41507Y741573D1*
X35608Y734668D1*
X28702Y728769D1*
X20959Y724025D1*
X12570Y720549D1*
X3739Y718429D1*
X-5315Y717717D1*
X-14369Y718429D1*
X-23199Y720549D1*
X-31589Y724025D1*
X-39332Y728769D1*
X-46238Y734668D1*
X-52136Y741573D1*
X-55294Y746482D1*
X-58493Y741573D1*
X-64392Y734668D1*
X-71298Y728769D1*
X-79041Y724025D1*
X-87430Y720549D1*
X-96261Y718429D1*
X-105315Y717717D1*
X-114369Y718429D1*
X-123199Y720549D1*
X-131589Y724025D1*
X-139332Y728769D1*
X-146238Y734668D1*
X-152136Y741573D1*
X-155294Y746482D1*
X194685Y775591D2*
D10*
Y717752D1*
Y775591D2*
X252524D1*
D16*
X-205315D3*
X-105315D3*
X-5315D3*
X94685D3*
D17*
X194685D3*
G04 Bottom Clear*
%LPC*%
D14*
X94094Y-743701D3*
X42520Y-742913D3*
X-5512Y-742126D3*
X-55906Y-741339D3*
Y-682677D3*
X-5512D3*
X43307Y-681890D3*
X94094Y-681102D3*
X-107087Y-740945D3*
X-107480Y-683071D3*
D20*
X-205315Y775591D3*
X-105315D3*
X-5315D3*
X94685D3*
X194685D3*
M02*
